<?xml version="1.0" encoding="UTF-8"?>
<svg xmlns="http://www.w3.org/2000/svg" xmlns:xlink="http://www.w3.org/1999/xlink" width="200.200179" height="49.350016" viewBox="-9.10009 -24.675008 200.200179 49.350016">
<defs>
<style type="text/css">
.l0d0 {fill:darkorange;stroke:chocolate;}
</style>
</defs>
<rect x="-9.10009" y="-24.675008" width="200.200179" height="49.350016" fill="none" stroke="none"/>
<g id="DC" transform="scale(1 -1)">
<polygon id="00000256F6F49860" class="l0d0" points="0.900413,-15.567733 1.800746,-15.545953 2.700917,-15.509717 3.600848,-15.459122 4.500462,-15.394303 6.298446,-15.222723 8.094314,-14.996793 9.887576,-14.718892 11.677812,-14.39192 13.464678,-14.019261 15.247896,-13.604734 17.027259,-13.152552 18.80261,-12.667268 20.573844,-12.153732 22.340889,-11.617034 25.862252,-10.495443 32.8537,-8.213519 34.590889,-7.667001 36.323844,-7.140648 38.05261,-6.639414 39.777259,-6.167978 41.497896,-5.730706 43.214678,-5.331609 44.927812,-4.974312 46.637576,-4.662024 48.344314,-4.397519 50.048446,-4.183118 51.750462,-4.020687 53.450917,-3.911622 54.725595,-3.865424 56.000081,-3.85 73.5,-3.85 91,-3.85 108.5,-3.85 126,-3.85 127.699254,-3.877412 129.399152,-3.959414 131.100315,-4.095308 132.803324,-4.283928 134.508702,-4.523643 136.216905,-4.812358 137.928315,-5.147525 139.643243,-5.526149 141.36193,-5.944812 143.084557,-6.39969 144.811253,-6.886592 146.542106,-7.400988 148.277174,-7.938058 151.760074,-9.059737 155.260074,-10.208988 158.777174,-11.341646 160.542106,-11.887952 162.311253,-12.413719 164.084557,-12.913751 165.86193,-13.383073 167.643243,-13.816976 169.428315,-14.211073 171.216905,-14.561339 173.008702,-14.86417 174.803324,-15.116416 176.600315,-15.315434 177.499538,-15.394303 178.399152,-15.459122 179.299083,-15.509717 180.199254,-15.545953 181.099587,-15.567733 181.999919,-15.575 182.000081,-12.425 180.725595,-12.409576 179.450917,-12.363378 177.750462,-12.254313 176.048446,-12.091882 174.344314,-11.877481 172.637576,-11.612976 170.927812,-11.300688 169.214678,-10.943391 167.497896,-10.544294 165.777259,-10.107022 164.05261,-9.635586 162.323844,-9.134352 160.590889,-8.607999 158.8537,-8.061481 151.862252,-5.779557 148.340889,-4.657966 146.573844,-4.121268 144.80261,-3.607732 143.027259,-3.122448 141.247896,-2.670266 139.464678,-2.255739 137.677812,-1.88308 135.887576,-1.556108 134.094314,-1.278207 132.298446,-1.052277 130.500462,-0.880697 129.600848,-0.815878 128.700917,-0.765283 127.800746,-0.729047 126.900413,-0.707267 126,-0.7 108.5,-0.7 91,-0.7 73.5,-0.7 55.999919,-0.7 55.099587,-0.707267 54.199254,-0.729047 53.299083,-0.765283 52.399152,-0.815878 51.499538,-0.880697 50.600315,-0.959566 48.803324,-1.158584 47.008702,-1.41083 45.216905,-1.713661 43.428315,-2.063927 41.643243,-2.458024 39.86193,-2.891927 38.084557,-3.361249 36.311253,-3.861281 34.542106,-4.387048 32.777174,-4.933354 29.260074,-6.066012 25.760074,-7.215263 22.277174,-8.336942 20.542106,-8.874012 18.811253,-9.388408 17.084557,-9.87531 15.36193,-10.330188 13.643243,-10.748851 11.928315,-11.127475 10.216905,-11.462642 8.508702,-11.751357 6.803324,-11.991072 5.100315,-12.179692 3.399152,-12.315586 1.699254,-12.397588 -0.000081,-12.425 0.000081,-15.575"/>
<polygon id="00000256F6F496A0" class="l0d0" points="1.699254,12.397588 3.399152,12.315586 5.100315,12.179692 6.803324,11.991072 8.508702,11.751357 10.216905,11.462642 11.928315,11.127475 13.643243,10.748851 15.36193,10.330188 17.084557,9.87531 18.811253,9.388408 20.542106,8.874012 22.277174,8.336942 25.760074,7.215263 29.260074,6.066012 32.777174,4.933354 34.542106,4.387048 36.311253,3.861281 38.084557,3.361249 39.86193,2.891927 41.643243,2.458024 43.428315,2.063927 45.216905,1.713661 47.008702,1.41083 48.803324,1.158584 50.600315,0.959566 51.499538,0.880697 52.399152,0.815878 53.299083,0.765283 54.199254,0.729047 55.099587,0.707267 55.999919,0.7 73.5,0.7 91,0.7 108.5,0.7 126,0.7 126.900413,0.707267 127.800746,0.729047 128.700917,0.765283 129.600848,0.815878 130.500462,0.880697 132.298446,1.052277 134.094314,1.278207 135.887576,1.556108 137.677812,1.88308 139.464678,2.255739 141.247896,2.670266 143.027259,3.122448 144.80261,3.607732 146.573844,4.121268 148.340889,4.657966 151.862252,5.779557 158.8537,8.061481 160.590889,8.607999 162.323844,9.134352 164.05261,9.635586 165.777259,10.107022 167.497896,10.544294 169.214678,10.943391 170.927812,11.300688 172.637576,11.612976 174.344314,11.877481 176.048446,12.091882 177.750462,12.254313 179.450917,12.363378 180.725595,12.409576 182.000081,12.425 181.999919,15.575 181.099587,15.567733 180.199254,15.545953 179.299083,15.509717 178.399152,15.459122 177.499538,15.394303 176.600315,15.315434 174.803324,15.116416 173.008702,14.86417 171.216905,14.561339 169.428315,14.211073 167.643243,13.816976 165.86193,13.383073 164.084557,12.913751 162.311253,12.413719 160.542106,11.887952 158.777174,11.341646 155.260074,10.208988 151.760074,9.059737 148.277174,7.938058 146.542106,7.400988 144.811253,6.886592 143.084557,6.39969 141.36193,5.944812 139.643243,5.526149 137.928315,5.147525 136.216905,4.812358 134.508702,4.523643 132.803324,4.283928 131.100315,4.095308 129.399152,3.959414 127.699254,3.877412 126,3.85 108.5,3.85 91,3.85 73.5,3.85 56.000081,3.85 54.725595,3.865424 53.450917,3.911622 51.750462,4.020687 50.048446,4.183118 48.344314,4.397519 46.637576,4.662024 44.927812,4.974312 43.214678,5.331609 41.497896,5.730706 39.777259,6.167978 38.05261,6.639414 36.323844,7.140648 34.590889,7.667001 32.8537,8.213519 25.862252,10.495443 22.340889,11.617034 20.573844,12.153732 18.80261,12.667268 17.027259,13.152552 15.247896,13.604734 13.464678,14.019261 11.677812,14.39192 9.887576,14.718892 8.094314,14.996793 6.298446,15.222723 4.500462,15.394303 3.600848,15.459122 2.700917,15.509717 1.800746,15.545953 0.900413,15.567733 0.000081,15.575 -0.000081,12.425"/>
</g>
</svg>