<?xml version="1.0" encoding="UTF-8"?>
<svg xmlns="http://www.w3.org/2000/svg" xmlns:xlink="http://www.w3.org/1999/xlink" width="1485" height="299.25" viewBox="-337.5 -204.75 1485 299.25">
<defs>
<style type="text/css">
.l0d0 {fill:darkorange;stroke:chocolate;}
</style>
<g id="MMI">
<polygon id="0000022F4499C130" class="l0d0" points="-135,-6.75 -270,-2.25 -270,2.25 -135,6.75"/>
<polygon id="0000022F4499C4B0" class="l0d0" points="135,6.75 135,20.25 270,15.75 270,11.25"/>
<polygon id="0000022F4499BBF0" class="l0d0" points="135,-20.25 135,-6.75 270,-11.25 270,-15.75"/>
<polygon id="0000022F4499BAA0" class="l0d0" points="-135,-27 -135,27 135,27 135,-27"/>
</g>
<g id="MZI_route2">
<polygon id="0000022F4499BE20" class="l0d0" points="270,-11.25 270,-15.75 495,-15.75 495,-15.75 495,-15.75 495,-15.75 540,-15.75 540,-11.25 495,-11.25 495,-11.25 495,-11.25 495,-11.25"/>
</g>
<g id="MZI_route1">
<polygon id="0000022F4499BFE0" class="l0d0" points="450,137.25 450,132.75 450,132.75 450.780788,132.742869 451.561316,132.721479 452.341324,132.685837 453.12055,132.635955 453.898735,132.571849 454.675619,132.493542 455.450944,132.401058 456.22445,132.294429 456.99588,132.17369 457.764975,132.038883 458.531481,131.890051 459.29514,131.727244 460.055698,131.550517 460.812902,131.359928 461.566499,131.155542 462.316236,130.937426 463.061866,130.705653 463.803137,130.4603 464.539804,130.20145 465.271621,129.929189 465.998342,129.643607 466.719727,129.344799 467.435534,129.032867 468.145524,128.707912 468.849461,128.370045 469.547109,128.019377 470.238237,127.656026 470.922613,127.280112 471.600009,126.891762 472.2702,126.491105 472.93296,126.078274 473.588071,125.653407 474.235312,125.216646 474.874469,124.768136 475.505327,124.308028 476.127676,123.836475 476.741309,123.353633 477.346022,122.859665 477.941611,122.354735 478.527879,121.839011 479.10463,121.312665 479.671672,120.775874 480.228815,120.228815 480.775874,119.671672 481.312665,119.10463 481.839011,118.527879 482.354735,117.941611 482.859665,117.346022 483.353633,116.741309 483.836475,116.127676 484.308028,115.505327 484.768136,114.874469 485.216646,114.235312 485.653407,113.588071 486.078274,112.93296 486.491105,112.2702 486.891762,111.600009 487.280112,110.922613 487.656026,110.238237 488.019377,109.547109 488.370045,108.849461 488.707912,108.145524 489.032867,107.435534 489.344799,106.719727 489.643607,105.998342 489.929189,105.271621 490.20145,104.539804 490.4603,103.803137 490.705653,103.061866 490.937426,102.316236 491.155542,101.566499 491.359928,100.812902 491.550517,100.055698 491.727244,99.29514 491.890051,98.531481 492.038883,97.764975 492.17369,96.99588 492.294429,96.22445 492.401058,95.450944 492.493542,94.675619 492.571849,93.898735 492.635955,93.12055 492.685837,92.341324 492.721479,91.561316 492.742869,90.780788 492.75,90 492.75,58.5 492.757196,57.675374 492.778783,56.850999 492.814754,56.027126 492.865099,55.204007 492.929801,54.381891 493.00884,53.56103 493.102194,52.741674 493.209834,51.924071 493.331726,51.108472 493.467834,50.295124 493.618116,49.484275 493.782526,48.676173 493.961014,47.871063 494.153527,47.06919 494.360005,46.2708 494.580385,45.476135 494.8146,44.685437 495.06258,43.898947 495.324247,43.116905 495.599524,42.339548 495.888325,41.567114 496.190563,40.799838 496.506146,40.037954 496.834977,39.281694 497.176957,38.531287 497.531981,37.786963 497.899942,37.048949 498.280726,36.317469 498.674219,35.592745 499.0803,34.875 499.498845,34.164451 499.929727,33.461315 500.372816,32.765806 500.827975,32.078135 501.295066,31.398513 501.773947,30.727147 502.264472,30.06424 502.766492,29.409995 503.279853,28.764612 503.8044,28.128285 504.339972,27.501211 504.886407,26.883579 505.443538,26.275577 506.011194,25.677392 506.589205,25.089205 507.177392,24.511194 507.775577,23.943538 508.383579,23.386407 509.001211,22.839972 509.628285,22.3044 510.264612,21.779853 510.909995,21.266492 511.56424,20.764472 512.227147,20.273947 512.898513,19.795066 513.578135,19.327975 514.265806,18.872816 514.961315,18.429727 515.664451,17.998845 516.375,17.5803 517.092745,17.174219 517.817469,16.780726 518.548949,16.399942 519.286963,16.031981 520.031287,15.676957 520.781694,15.334977 521.537954,15.006146 522.299838,14.690563 523.067114,14.388325 523.839548,14.099524 524.616905,13.824247 525.398947,13.56258 526.185437,13.3146 526.976135,13.080385 527.7708,12.860005 528.56919,12.653527 529.371063,12.461014 530.176173,12.282526 530.984275,12.118116 531.795124,11.967834 532.608472,11.831726 533.424071,11.709834 534.241674,11.602194 535.06103,11.50884 535.881891,11.429801 536.704007,11.365099 537.527126,11.314754 538.350999,11.278783 539.175374,11.257196 540,11.25 540,11.25 540,15.75 540,15.75 539.219212,15.757131 538.438684,15.778521 537.658676,15.814163 536.87945,15.864045 536.101265,15.928151 535.324381,16.006458 534.549056,16.098942 533.77555,16.205571 533.00412,16.32631 532.235025,16.461117 531.468519,16.609949 530.70486,16.772756 529.944302,16.949483 529.187098,17.140072 528.433501,17.344458 527.683764,17.562574 526.938134,17.794347 526.196863,18.0397 525.460196,18.29855 524.728379,18.570811 524.001658,18.856393 523.280273,19.155201 522.564466,19.467133 521.854476,19.792088 521.150539,20.129955 520.452891,20.480623 519.761763,20.843974 519.077387,21.219888 518.399991,21.608238 517.7298,22.008895 517.06704,22.421726 516.411929,22.846593 515.764688,23.283354 515.125531,23.731864 514.494673,24.191972 513.872324,24.663525 513.258691,25.146367 512.653978,25.640335 512.058389,26.145265 511.472121,26.660989 510.89537,27.187335 510.328328,27.724126 509.771185,28.271185 509.224126,28.828328 508.687335,29.39537 508.160989,29.972121 507.645265,30.558389 507.140335,31.153978 506.646367,31.758691 506.163525,32.372324 505.691972,32.994673 505.231864,33.625531 504.783354,34.264688 504.346593,34.911929 503.921726,35.56704 503.508895,36.2298 503.108238,36.899991 502.719888,37.577387 502.343974,38.261763 501.980623,38.952891 501.629955,39.650539 501.292088,40.354476 500.967133,41.064466 500.655201,41.780273 500.356393,42.501658 500.070811,43.228379 499.79855,43.960196 499.5397,44.696863 499.294347,45.438134 499.062574,46.183764 498.844458,46.933501 498.640072,47.687098 498.449483,48.444302 498.272756,49.20486 498.109949,49.968519 497.961117,50.735025 497.82631,51.50412 497.705571,52.27555 497.598942,53.049056 497.506458,53.824381 497.428151,54.601265 497.364045,55.37945 497.314163,56.158676 497.278521,56.938684 497.257131,57.719212 497.25,58.5 497.25,90 497.242804,90.824626 497.221217,91.649001 497.185246,92.472874 497.134901,93.295993 497.070199,94.118109 496.99116,94.93897 496.897806,95.758326 496.790166,96.575929 496.668274,97.391528 496.532166,98.204876 496.381884,99.015725 496.217474,99.823827 496.038986,100.628937 495.846473,101.43081 495.639995,102.2292 495.419615,103.023865 495.1854,103.814563 494.93742,104.601053 494.675753,105.383095 494.400476,106.160452 494.111675,106.932886 493.809437,107.700162 493.493854,108.462046 493.165023,109.218306 492.823043,109.968713 492.468019,110.713037 492.100058,111.451051 491.719274,112.182531 491.325781,112.907255 490.9197,113.625 490.501155,114.335549 490.070273,115.038685 489.627184,115.734194 489.172025,116.421865 488.704934,117.101487 488.226053,117.772853 487.735528,118.43576 487.233508,119.090005 486.720147,119.735388 486.1956,120.371715 485.660028,120.998789 485.113593,121.616421 484.556462,122.224423 483.988806,122.822608 483.410795,123.410795 482.822608,123.988806 482.224423,124.556462 481.616421,125.113593 480.998789,125.660028 480.371715,126.1956 479.735388,126.720147 479.090005,127.233508 478.43576,127.735528 477.772853,128.226053 477.101487,128.704934 476.421865,129.172025 475.734194,129.627184 475.038685,130.070273 474.335549,130.501155 473.625,130.9197 472.907255,131.325781 472.182531,131.719274 471.451051,132.100058 470.713037,132.468019 469.968713,132.823043 469.218306,133.165023 468.462046,133.493854 467.700162,133.809437 466.932886,134.111675 466.160452,134.400476 465.383095,134.675753 464.601053,134.93742 463.814563,135.1854 463.023865,135.419615 462.2292,135.639995 461.43081,135.846473 460.628937,136.038986 459.823827,136.217474 459.015725,136.381884 458.204876,136.532166 457.391528,136.668274 456.575929,136.790166 455.758326,136.897806 454.93897,136.99116 454.118109,137.070199 453.295993,137.134901 452.472874,137.185246 451.649001,137.221217 450.824626,137.242804 450,137.25"/>
</g>
<g id="MZI_route0">
<polygon id="0000022F4499C2F0" class="l0d0" points="270,15.75 270,11.25 270,11.25 270.824626,11.257196 271.649001,11.278783 272.472874,11.314754 273.295993,11.365099 274.118109,11.429801 274.93897,11.50884 275.758326,11.602194 276.575929,11.709834 277.391528,11.831726 278.204876,11.967834 279.015725,12.118116 279.823827,12.282526 280.628937,12.461014 281.43081,12.653527 282.2292,12.860005 283.023865,13.080385 283.814563,13.3146 284.601053,13.56258 285.383095,13.824247 286.160452,14.099524 286.932886,14.388325 287.700162,14.690563 288.462046,15.006146 289.218306,15.334977 289.968713,15.676957 290.713037,16.031981 291.451051,16.399942 292.182531,16.780726 292.907255,17.174219 293.625,17.5803 294.335549,17.998845 295.038685,18.429727 295.734194,18.872816 296.421865,19.327975 297.101487,19.795066 297.772853,20.273947 298.43576,20.764472 299.090005,21.266492 299.735388,21.779853 300.371715,22.3044 300.998789,22.839972 301.616421,23.386407 302.224423,23.943538 302.822608,24.511194 303.410795,25.089205 303.988806,25.677392 304.556462,26.275577 305.113593,26.883579 305.660028,27.501211 306.1956,28.128285 306.720147,28.764612 307.233508,29.409995 307.735528,30.06424 308.226053,30.727147 308.704934,31.398513 309.172025,32.078135 309.627184,32.765806 310.070273,33.461315 310.501155,34.164451 310.9197,34.875 311.325781,35.592745 311.719274,36.317469 312.100058,37.048949 312.468019,37.786963 312.823043,38.531287 313.165023,39.281694 313.493854,40.037954 313.809437,40.799838 314.111675,41.567114 314.400476,42.339548 314.675753,43.116905 314.93742,43.898947 315.1854,44.685437 315.419615,45.476135 315.639995,46.2708 315.846473,47.06919 316.038986,47.871063 316.217474,48.676173 316.381884,49.484275 316.532166,50.295124 316.668274,51.108472 316.790166,51.924071 316.897806,52.741674 316.99116,53.56103 317.070199,54.381891 317.134901,55.204007 317.185246,56.027126 317.221217,56.850999 317.242804,57.675374 317.25,58.5 317.25,90 317.257131,90.780788 317.278521,91.561316 317.314163,92.341324 317.364045,93.12055 317.428151,93.898735 317.506458,94.675619 317.598942,95.450944 317.705571,96.22445 317.82631,96.99588 317.961117,97.764975 318.109949,98.531481 318.272756,99.29514 318.449483,100.055698 318.640072,100.812902 318.844458,101.566499 319.062574,102.316236 319.294347,103.061866 319.5397,103.803137 319.79855,104.539804 320.070811,105.271621 320.356393,105.998342 320.655201,106.719727 320.967133,107.435534 321.292088,108.145524 321.629955,108.849461 321.980623,109.547109 322.343974,110.238237 322.719888,110.922613 323.108238,111.600009 323.508895,112.2702 323.921726,112.93296 324.346593,113.588071 324.783354,114.235312 325.231864,114.874469 325.691972,115.505327 326.163525,116.127676 326.646367,116.741309 327.140335,117.346022 327.645265,117.941611 328.160989,118.527879 328.687335,119.10463 329.224126,119.671672 329.771185,120.228815 330.328328,120.775874 330.89537,121.312665 331.472121,121.839011 332.058389,122.354735 332.653978,122.859665 333.258691,123.353633 333.872324,123.836475 334.494673,124.308028 335.125531,124.768136 335.764688,125.216646 336.411929,125.653407 337.06704,126.078274 337.7298,126.491105 338.399991,126.891762 339.077387,127.280112 339.761763,127.656026 340.452891,128.019377 341.150539,128.370045 341.854476,128.707912 342.564466,129.032867 343.280273,129.344799 344.001658,129.643607 344.728379,129.929189 345.460196,130.20145 346.196863,130.4603 346.938134,130.705653 347.683764,130.937426 348.433501,131.155542 349.187098,131.359928 349.944302,131.550517 350.70486,131.727244 351.468519,131.890051 352.235025,132.038883 353.00412,132.17369 353.77555,132.294429 354.549056,132.401058 355.324381,132.493542 356.101265,132.571849 356.87945,132.635955 357.658676,132.685837 358.438684,132.721479 359.219212,132.742869 360,132.75 360,132.75 360,137.25 360,137.25 359.175374,137.242804 358.350999,137.221217 357.527126,137.185246 356.704007,137.134901 355.881891,137.070199 355.06103,136.99116 354.241674,136.897806 353.424071,136.790166 352.608472,136.668274 351.795124,136.532166 350.984275,136.381884 350.176173,136.217474 349.371063,136.038986 348.56919,135.846473 347.7708,135.639995 346.976135,135.419615 346.185437,135.1854 345.398947,134.93742 344.616905,134.675753 343.839548,134.400476 343.067114,134.111675 342.299838,133.809437 341.537954,133.493854 340.781694,133.165023 340.031287,132.823043 339.286963,132.468019 338.548949,132.100058 337.817469,131.719274 337.092745,131.325781 336.375,130.9197 335.664451,130.501155 334.961315,130.070273 334.265806,129.627184 333.578135,129.172025 332.898513,128.704934 332.227147,128.226053 331.56424,127.735528 330.909995,127.233508 330.264612,126.720147 329.628285,126.1956 329.001211,125.660028 328.383579,125.113593 327.775577,124.556462 327.177392,123.988806 326.589205,123.410795 326.011194,122.822608 325.443538,122.224423 324.886407,121.616421 324.339972,120.998789 323.8044,120.371715 323.279853,119.735388 322.766492,119.090005 322.264472,118.43576 321.773947,117.772853 321.295066,117.101487 320.827975,116.421865 320.372816,115.734194 319.929727,115.038685 319.498845,114.335549 319.0803,113.625 318.674219,112.907255 318.280726,112.182531 317.899942,111.451051 317.531981,110.713037 317.176957,109.968713 316.834977,109.218306 316.506146,108.462046 316.190563,107.700162 315.888325,106.932886 315.599524,106.160452 315.324247,105.383095 315.06258,104.601053 314.8146,103.814563 314.580385,103.023865 314.360005,102.2292 314.153527,101.43081 313.961014,100.628937 313.782526,99.823827 313.618116,99.015725 313.467834,98.204876 313.331726,97.391528 313.209834,96.575929 313.102194,95.758326 313.00884,94.93897 312.929801,94.118109 312.865099,93.295993 312.814754,92.472874 312.778783,91.649001 312.757196,90.824626 312.75,90 312.75,58.5 312.742869,57.719212 312.721479,56.938684 312.685837,56.158676 312.635955,55.37945 312.571849,54.601265 312.493542,53.824381 312.401058,53.049056 312.294429,52.27555 312.17369,51.50412 312.038883,50.735025 311.890051,49.968519 311.727244,49.20486 311.550517,48.444302 311.359928,47.687098 311.155542,46.933501 310.937426,46.183764 310.705653,45.438134 310.4603,44.696863 310.20145,43.960196 309.929189,43.228379 309.643607,42.501658 309.344799,41.780273 309.032867,41.064466 308.707912,40.354476 308.370045,39.650539 308.019377,38.952891 307.656026,38.261763 307.280112,37.577387 306.891762,36.899991 306.491105,36.2298 306.078274,35.56704 305.653407,34.911929 305.216646,34.264688 304.768136,33.625531 304.308028,32.994673 303.836475,32.372324 303.353633,31.758691 302.859665,31.153978 302.354735,30.558389 301.839011,29.972121 301.312665,29.39537 300.775874,28.828328 300.228815,28.271185 299.671672,27.724126 299.10463,27.187335 298.527879,26.660989 297.941611,26.145265 297.346022,25.640335 296.741309,25.146367 296.127676,24.663525 295.505327,24.191972 294.874469,23.731864 294.235312,23.283354 293.588071,22.846593 292.93296,22.421726 292.2702,22.008895 291.600009,21.608238 290.922613,21.219888 290.238237,20.843974 289.547109,20.480623 288.849461,20.129955 288.145524,19.792088 287.435534,19.467133 286.719727,19.155201 285.998342,18.856393 285.271621,18.570811 284.539804,18.29855 283.803137,18.0397 283.061866,17.794347 282.316236,17.562574 281.566499,17.344458 280.812902,17.140072 280.055698,16.949483 279.29514,16.772756 278.531481,16.609949 277.764975,16.461117 276.99588,16.32631 276.22445,16.205571 275.450944,16.098942 274.675619,16.006458 273.898735,15.928151 273.12055,15.864045 272.341324,15.814163 271.561316,15.778521 270.780788,15.757131 270,15.75"/>
</g>
<g id="Trace">
<polygon id="0000022F4499C1A0" class="l0d0" points="0,2.25 0,-2.25 90,-2.25 90,2.25"/>
</g>
</defs>
<rect x="-337.5" y="-204.75" width="1485" height="299.25" fill="none" stroke="none"/>
<g id="MZI" transform="scale(1 -1)">
<use transform="translate(0 0)" xlink:href="#MMI"/>
<use transform="translate(810 0) rotate(180) scale(1 -1)" xlink:href="#MMI"/>
<use transform="translate(360 135)" xlink:href="#Trace"/>
<use transform="translate(0 0)" xlink:href="#MZI_route0"/>
<use transform="translate(0 0)" xlink:href="#MZI_route1"/>
<use transform="translate(0 0)" xlink:href="#MZI_route2"/>
</g>
</svg>