<?xml version="1.0" encoding="UTF-8"?>
<svg xmlns="http://www.w3.org/2000/svg" xmlns:xlink="http://www.w3.org/1999/xlink" width="887.04" height="424.857597" viewBox="-443.52 -290.817597 887.04 424.857597">
<defs>
<style type="text/css">
.l0d0 {fill:darkorange;stroke:chocolate;}
.l2d0 {stroke: #BE0032; fill: #BE0032; fill-opacity: 0.5;}
</style>
<g id="RingResCircuit_route1">
<polygon id="0000022F4499BB10" class="l0d0" points="120,2.7 120,-2.7 180,-2.7 180,2.7"/>
</g>
<g id="RingResonator">
<polygon id="0000022F4499BDB0" class="l0d0" points="122.7,127.8 122.690389,129.335711 122.661558,130.871181 122.613512,132.406169 122.546257,133.940437 122.459804,135.473742 122.354168,137.005845 122.229364,138.536506 122.085412,140.065486 121.922335,141.592543 121.740158,143.11744 121.538909,144.639938 121.318621,146.159797 121.079328,147.67678 120.821067,149.19065 120.543878,150.701168 120.247805,152.208099 119.932895,153.711206 119.599197,155.210254 119.246763,156.705008 118.875648,158.195234 118.485911,159.680698 118.077612,161.161168 117.650816,162.636412 117.205589,164.106198 116.742,165.570297 116.260124,167.028479 115.760035,168.480515 115.241811,169.926179 114.705534,171.365244 114.151288,172.797483 113.579159,174.222674 112.989237,175.640592 112.381615,177.051015 111.756388,178.453724 111.113654,179.848497 110.453512,181.235116 109.776068,182.613364 109.081427,183.983026 108.369697,185.343886 107.640991,186.695731 106.895422,188.03835 106.133107,189.371533 105.354166,190.69507 104.55872,192.008754 103.746895,193.312379 102.918817,194.605742 102.074616,195.888639 101.214425,197.160869 100.338378,198.422234 99.446612,199.672535 98.539268,200.911577 97.616486,202.139166 96.678413,203.355109 95.725194,204.559216 94.75698,205.751298 93.773921,206.931168 92.776172,208.098643 91.763888,209.253538 90.73723,210.395672 89.696357,211.524868 88.641433,212.640948 87.572622,213.743737 86.490093,214.833062 85.394014,215.908753 84.284558,216.970641 83.161899,218.01856 82.026211,219.052346 80.877674,220.071837 79.716466,221.076873 78.542771,222.067296 77.356772,223.042952 76.158654,224.003687 74.948605,224.949352 73.726815,225.879798 72.493476,226.794879 71.24878,227.694451 69.992922,228.578375 68.7261,229.446511 67.448511,230.298724 66.160356,231.134879 64.861837,231.954847 63.553156,232.758498 62.23452,233.545707 60.906134,234.31635 59.568207,235.070307 58.220949,235.807459 56.864569,236.527691 55.499282,237.23089 54.1253,237.916947 52.742839,238.585752 51.352116,239.237203 49.953348,239.871196 48.546754,240.487633 47.132556,241.086417 45.710974,241.667453 44.28223,242.230652 42.84655,242.775924 41.404158,243.303185 39.95528,243.812351 38.500142,244.303344 37.038973,244.776085 35.572001,245.230502 34.099458,245.666522 32.621572,246.084078 31.138576,246.483104 29.650701,246.863537 28.158182,247.225319 26.661252,247.568392 25.160145,247.892702 23.655097,248.198199 22.146342,248.484835 20.634119,248.752566 19.118663,249.001348 17.600212,249.231143 16.079004,249.441916 14.555277,249.633632 13.02927,249.806263 11.501221,249.95978 9.971371,250.094161 8.439959,250.209383 6.907225,250.305429 5.373408,250.382285 3.83875,250.439936 2.303491,250.478376 0.76787,250.497597 -0.76787,250.497597 -2.303491,250.478376 -3.83875,250.439936 -5.373408,250.382285 -6.907225,250.305429 -8.439959,250.209383 -9.971371,250.094161 -11.501221,249.95978 -13.02927,249.806263 -14.555277,249.633632 -16.079004,249.441916 -17.600212,249.231143 -19.118663,249.001348 -20.634119,248.752566 -22.146342,248.484835 -23.655097,248.198199 -25.160145,247.892702 -26.661252,247.568392 -28.158182,247.225319 -29.650701,246.863537 -31.138576,246.483104 -32.621572,246.084078 -34.099458,245.666522 -35.572001,245.230502 -37.038973,244.776085 -38.500142,244.303344 -39.95528,243.812351 -41.404158,243.303185 -42.84655,242.775924 -44.28223,242.230652 -45.710974,241.667453 -47.132556,241.086417 -48.546754,240.487633 -49.953348,239.871196 -51.352116,239.237203 -52.742839,238.585752 -54.1253,237.916947 -55.499282,237.23089 -56.864569,236.527691 -58.220949,235.807459 -59.568207,235.070307 -60.906134,234.31635 -62.23452,233.545707 -63.553156,232.758498 -64.861837,231.954847 -66.160356,231.134879 -67.448511,230.298724 -68.7261,229.446511 -69.992922,228.578375 -71.24878,227.694451 -72.493476,226.794879 -73.726815,225.879798 -74.948605,224.949352 -76.158654,224.003687 -77.356772,223.042952 -78.542771,222.067296 -79.716466,221.076873 -80.877674,220.071837 -82.026211,219.052346 -83.161899,218.01856 -84.284558,216.970641 -85.394014,215.908753 -86.490093,214.833062 -87.572622,213.743737 -88.641433,212.640948 -89.696357,211.524868 -90.73723,210.395672 -91.763888,209.253538 -92.776172,208.098643 -93.773921,206.931168 -94.75698,205.751298 -95.725194,204.559216 -96.678413,203.355109 -97.616486,202.139166 -98.539268,200.911577 -99.446612,199.672535 -100.338378,198.422234 -101.214425,197.160869 -102.074616,195.888639 -102.918817,194.605742 -103.746895,193.312379 -104.55872,192.008754 -105.354166,190.69507 -106.133107,189.371533 -106.895422,188.03835 -107.640991,186.695731 -108.369697,185.343886 -109.081427,183.983026 -109.776068,182.613364 -110.453512,181.235116 -111.113654,179.848497 -111.756388,178.453724 -112.381615,177.051015 -112.989237,175.640592 -113.579159,174.222674 -114.151288,172.797483 -114.705534,171.365244 -115.241811,169.926179 -115.760035,168.480515 -116.260124,167.028479 -116.742,165.570297 -117.205589,164.106198 -117.650816,162.636412 -118.077612,161.161168 -118.485911,159.680698 -118.875648,158.195234 -119.246763,156.705008 -119.599197,155.210254 -119.932895,153.711206 -120.247805,152.208099 -120.543878,150.701168 -120.821067,149.19065 -121.079328,147.67678 -121.318621,146.159797 -121.538909,144.639938 -121.740158,143.11744 -121.922335,141.592543 -122.085412,140.065486 -122.229364,138.536506 -122.354168,137.005845 -122.459804,135.473742 -122.546257,133.940437 -122.613512,132.406169 -122.661558,130.871181 -122.690389,129.335711 -122.7,127.8 -122.690389,126.264289 -122.661558,124.728819 -122.613512,123.193831 -122.546257,121.659563 -122.459804,120.126258 -122.354168,118.594155 -122.229364,117.063494 -122.085412,115.534514 -121.922335,114.007457 -121.740158,112.48256 -121.538909,110.960062 -121.318621,109.440203 -121.079328,107.92322 -120.821067,106.40935 -120.543878,104.898832 -120.247805,103.391901 -119.932895,101.888794 -119.599197,100.389746 -119.246763,98.894992 -118.875648,97.404766 -118.485911,95.919302 -118.077612,94.438832 -117.650816,92.963588 -117.205589,91.493802 -116.742,90.029703 -116.260124,88.571521 -115.760035,87.119485 -115.241811,85.673821 -114.705534,84.234756 -114.151288,82.802517 -113.579159,81.377326 -112.989237,79.959408 -112.381615,78.548985 -111.756388,77.146276 -111.113654,75.751503 -110.453512,74.364884 -109.776068,72.986636 -109.081427,71.616974 -108.369697,70.256114 -107.640991,68.904269 -106.895422,67.56165 -106.133107,66.228467 -105.354166,64.90493 -104.55872,63.591246 -103.746895,62.287621 -102.918817,60.994258 -102.074616,59.711361 -101.214425,58.439131 -100.338378,57.177766 -99.446612,55.927465 -98.539268,54.688423 -97.616486,53.460834 -96.678413,52.244891 -95.725194,51.040784 -94.75698,49.848702 -93.773921,48.668832 -92.776172,47.501357 -91.763888,46.346462 -90.73723,45.204328 -89.696357,44.075132 -88.641433,42.959052 -87.572622,41.856263 -86.490093,40.766938 -85.394014,39.691247 -84.284558,38.629359 -83.161899,37.58144 -82.026211,36.547654 -80.877674,35.528163 -79.716466,34.523127 -78.542771,33.532704 -77.356772,32.557048 -76.158654,31.596313 -74.948605,30.650648 -73.726815,29.720202 -72.493476,28.805121 -71.24878,27.905549 -69.992922,27.021625 -68.7261,26.153489 -67.448511,25.301276 -66.160356,24.465121 -64.861837,23.645153 -63.553156,22.841502 -62.23452,22.054293 -60.906134,21.28365 -59.568207,20.529693 -58.220949,19.792541 -56.864569,19.072309 -55.499282,18.36911 -54.1253,17.683053 -52.742839,17.014248 -51.352116,16.362797 -49.953348,15.728804 -48.546754,15.112367 -47.132556,14.513583 -45.710974,13.932547 -44.28223,13.369348 -42.84655,12.824076 -41.404158,12.296815 -39.95528,11.787649 -38.500142,11.296656 -37.038973,10.823915 -35.572001,10.369498 -34.099458,9.933478 -32.621572,9.515922 -31.138576,9.116896 -29.650701,8.736463 -28.158182,8.374681 -26.661252,8.031608 -25.160145,7.707298 -23.655097,7.401801 -22.146342,7.115165 -20.634119,6.847434 -19.118663,6.598652 -17.600212,6.368857 -16.079004,6.158084 -14.555277,5.966368 -13.02927,5.793737 -11.501221,5.64022 -9.971371,5.505839 -8.439959,5.390617 -6.907225,5.294571 -5.373408,5.217715 -3.83875,5.160064 -2.303491,5.121624 -0.76787,5.102403 0.76787,5.102403 2.303491,5.121624 3.83875,5.160064 5.373408,5.217715 6.907225,5.294571 8.439959,5.390617 9.971371,5.505839 11.501221,5.64022 13.02927,5.793737 14.555277,5.966368 16.079004,6.158084 17.600212,6.368857 19.118663,6.598652 20.634119,6.847434 22.146342,7.115165 23.655097,7.401801 25.160145,7.707298 26.661252,8.031608 28.158182,8.374681 29.650701,8.736463 31.138576,9.116896 32.621572,9.515922 34.099458,9.933478 35.572001,10.369498 37.038973,10.823915 38.500142,11.296656 39.95528,11.787649 41.404158,12.296815 42.84655,12.824076 44.28223,13.369348 45.710974,13.932547 47.132556,14.513583 48.546754,15.112367 49.953348,15.728804 51.352116,16.362797 52.742839,17.014248 54.1253,17.683053 55.499282,18.36911 56.864569,19.072309 58.220949,19.792541 59.568207,20.529693 60.906134,21.28365 62.23452,22.054293 63.553156,22.841502 64.861837,23.645153 66.160356,24.465121 67.448511,25.301276 68.7261,26.153489 69.992922,27.021625 71.24878,27.905549 72.493476,28.805121 73.726815,29.720202 74.948605,30.650648 76.158654,31.596313 77.356772,32.557048 78.542771,33.532704 79.716466,34.523127 80.877674,35.528163 82.026211,36.547654 83.161899,37.58144 84.284558,38.629359 85.394014,39.691247 86.490093,40.766938 87.572622,41.856263 88.641433,42.959052 89.696357,44.075132 90.73723,45.204328 91.763888,46.346462 92.776172,47.501357 93.773921,48.668832 94.75698,49.848702 95.725194,51.040784 96.678413,52.244891 97.616486,53.460834 98.539268,54.688423 99.446612,55.927465 100.338378,57.177766 101.214425,58.439131 102.074616,59.711361 102.918817,60.994258 103.746895,62.287621 104.55872,63.591246 105.354166,64.90493 106.133107,66.228467 106.895422,67.56165 107.640991,68.904269 108.369697,70.256114 109.081427,71.616974 109.776068,72.986636 110.453512,74.364884 111.113654,75.751503 111.756388,77.146276 112.381615,78.548985 112.989237,79.959408 113.579159,81.377326 114.151288,82.802517 114.705534,84.234756 115.241811,85.673821 115.760035,87.119485 116.260124,88.571521 116.742,90.029703 117.205589,91.493802 117.650816,92.963588 118.077612,94.438832 118.485911,95.919302 118.875648,97.404766 119.246763,98.894992 119.599197,100.389746 119.932895,101.888794 120.247805,103.391901 120.543878,104.898832 120.821067,106.40935 121.079328,107.92322 121.318621,109.440203 121.538909,110.960062 121.740158,112.48256 121.922335,114.007457 122.085412,115.534514 122.229364,117.063494 122.354168,118.594155 122.459804,120.126258 122.546257,121.659563 122.613512,123.193831 122.661558,124.728819 122.690389,126.264289 122.7,127.8 117.3,127.8 117.290396,126.298987 117.261585,124.798219 117.213572,123.297943 117.146365,121.798405 117.059975,120.299849 116.954416,118.802521 116.829705,117.306667 116.685863,115.81253 116.522913,114.320357 116.340882,112.830392 116.1398,111.342877 115.919699,109.858058 115.680617,108.376176 115.422591,106.897476 115.145664,105.422198 114.849882,103.950584 114.535293,102.482876 114.201948,101.019314 113.849902,99.560138 113.479213,98.105585 113.089941,96.655895 112.68215,95.211305 112.255907,93.772052 111.811282,92.338371 111.348348,90.910497 110.867179,89.488663 110.367856,88.073104 109.85046,86.664049 109.315075,85.261731 108.76179,83.866379 108.190694,82.478221 107.601882,81.097484 106.99545,79.724395 106.371496,78.359179 105.730124,77.002059 105.071439,75.653257 104.395547,74.312995 103.70256,72.981491 102.992592,71.658963 102.265758,70.34563 101.522178,69.041704 100.761973,67.7474 99.985269,66.462931 99.192191,65.188505 98.38287,63.924332 97.557438,62.670619 96.716032,61.427572 95.858787,60.195393 94.985845,58.974284 94.09735,57.764446 93.193445,56.566077 92.274279,55.379372 91.340004,54.204526 90.390771,53.041732 89.426736,51.89118 88.448057,50.753059 87.454895,49.627554 86.447411,48.51485 85.425772,47.415129 84.390144,46.328571 83.340696,45.255355 82.277601,44.195656 81.201033,43.149647 80.111168,42.1175 79.008184,41.099384 77.892263,40.095466 76.763587,39.105909 75.62234,38.130876 74.468709,37.170527 73.302885,36.225019 72.125056,35.294507 70.935417,34.379142 69.734162,33.479076 68.521488,32.594455 67.297593,31.725425 66.062677,30.872127 64.816944,30.034701 63.560597,29.213284 62.293842,28.408012 61.016885,27.619015 59.729937,26.846424 58.433208,26.090363 57.126911,25.350959 55.811258,24.62833 54.486466,23.922596 53.152752,23.233873 51.810334,22.562273 50.459432,21.907905 49.100267,21.270878 47.733062,20.651296 46.35804,20.049259 44.975427,19.464867 43.585449,18.898216 42.188333,18.349397 40.78431,17.818501 39.373607,17.305615 37.956457,16.810823 36.533092,16.334206 35.103744,15.875842 33.668648,15.435806 32.228038,15.01417 30.782151,14.611002 29.331223,14.22637 27.875493,13.860337 26.415197,13.512961 24.950576,13.1843 23.481869,12.874407 22.009317,12.583335 20.533161,12.311129 19.053642,12.057835 17.571003,11.823494 16.085487,11.608145 14.597337,11.411823 13.106797,11.23456 11.61411,11.076384 10.119521,10.937323 8.623276,10.817398 7.125618,10.71663 5.626793,10.635034 4.127047,10.572625 2.626625,10.529412 1.125773,10.505402 -0.375263,10.5006 -1.876238,10.515006 -3.376905,10.548618 -4.87702,10.601431 -6.376336,10.673435 -7.874608,10.764618 -9.37159,10.874967 -10.867038,11.004463 -12.360706,11.153084 -13.85235,11.320807 -15.341726,11.507604 -16.82859,11.713444 -18.312697,11.938293 -19.793806,12.182115 -21.271674,12.444871 -22.746058,12.726516 -24.216718,13.027004 -25.683412,13.346287 -27.1459,13.684313 -28.603943,14.041025 -30.057302,14.416366 -31.50574,14.810273 -32.949017,15.222683 -34.3869,15.653528 -35.819151,16.102738 -37.245537,16.570238 -38.665824,17.055952 -40.079779,17.559802 -41.487171,18.081703 -42.887769,18.621571 -44.281344,19.179318 -45.667668,19.754852 -47.046514,20.348078 -48.417656,20.9589 -49.780869,21.587218 -51.13593,22.232928 -52.482618,22.895926 -53.820711,23.576101 -55.149991,24.273344 -56.47024,24.98754 -57.781242,25.718571 -59.082782,26.466319 -60.374647,27.230661 -61.656626,28.011471 -62.928507,28.808622 -64.190085,29.621983 -65.44115,30.451421 -66.6815,31.2968 -67.91093,32.157982 -69.12924,33.034826 -70.336229,33.927188 -71.531701,34.834922 -72.715459,35.757879 -73.887309,36.695908 -75.047061,37.648856 -76.194523,38.616567 -77.329508,39.598882 -78.45183,40.59564 -79.561305,41.606678 -80.657752,42.63183 -81.74099,43.670929 -82.810844,44.723805 -83.867136,45.790285 -84.909696,46.870194 -85.938351,47.963355 -86.952933,49.06959 -87.953276,50.188717 -88.939217,51.320554 -89.910594,52.464914 -90.867247,53.621611 -91.809021,54.790455 -92.73576,55.971254 -93.647314,57.163815 -94.543533,58.367944 -95.42427,59.583442 -96.28938,60.810111 -97.138723,62.04775 -97.97216,63.296156 -98.789552,64.555124 -99.590768,65.824449 -100.375676,67.103923 -101.144146,68.393336 -101.896054,69.692477 -102.631276,71.001134 -103.349692,72.319091 -104.051184,73.646134 -104.735637,74.982045 -105.402939,76.326604 -106.052981,77.679593 -106.685657,79.040789 -107.300862,80.40997 -107.898497,81.78691 -108.478462,83.171386 -109.040665,84.56317 -109.585011,85.962034 -110.111412,87.367749 -110.619782,88.780085 -111.110038,90.19881 -111.582099,91.623693 -112.035888,93.0545 -112.471331,94.490997 -112.888356,95.932948 -113.286896,97.380118 -113.666884,98.832268 -114.028259,100.289163 -114.370961,101.750562 -114.694935,103.216227 -115.000127,104.685918 -115.286487,106.159394 -115.553969,107.636413 -115.802528,109.116735 -116.032125,110.600115 -116.24272,112.086313 -116.434281,113.575083 -116.606775,115.066183 -116.760174,116.559368 -116.894453,118.054394 -117.00959,119.551016 -117.105567,121.048988 -117.182367,122.548066 -117.239978,124.048004 -117.278391,125.548557 -117.297599,127.049478 -117.297599,128.550522 -117.278391,130.051443 -117.239978,131.551996 -117.182367,133.051934 -117.105567,134.551012 -117.00959,136.048984 -116.894453,137.545606 -116.760174,139.040632 -116.606775,140.533817 -116.434281,142.024917 -116.24272,143.513687 -116.032125,144.999885 -115.802528,146.483265 -115.553969,147.963587 -115.286487,149.440606 -115.000127,150.914082 -114.694935,152.383773 -114.370961,153.849438 -114.028259,155.310837 -113.666884,156.767732 -113.286896,158.219882 -112.888356,159.667052 -112.471331,161.109003 -112.035888,162.5455 -111.582099,163.976307 -111.110038,165.40119 -110.619782,166.819915 -110.111412,168.232251 -109.585011,169.637966 -109.040665,171.03683 -108.478462,172.428614 -107.898497,173.81309 -107.300862,175.19003 -106.685657,176.559211 -106.052981,177.920407 -105.402939,179.273396 -104.735637,180.617955 -104.051184,181.953866 -103.349692,183.280909 -102.631276,184.598866 -101.896054,185.907523 -101.144146,187.206664 -100.375676,188.496077 -99.590768,189.775551 -98.789552,191.044876 -97.97216,192.303844 -97.138723,193.55225 -96.28938,194.789889 -95.42427,196.016558 -94.543533,197.232056 -93.647314,198.436185 -92.73576,199.628746 -91.809021,200.809545 -90.867247,201.978389 -89.910594,203.135086 -88.939217,204.279446 -87.953276,205.411283 -86.952933,206.53041 -85.938351,207.636645 -84.909696,208.729806 -83.867136,209.809715 -82.810844,210.876195 -81.74099,211.929071 -80.657752,212.96817 -79.561305,213.993322 -78.45183,215.00436 -77.329508,216.001118 -76.194523,216.983433 -75.047061,217.951144 -73.887309,218.904092 -72.715459,219.842121 -71.531701,220.765078 -70.336229,221.672812 -69.12924,222.565174 -67.91093,223.442018 -66.6815,224.3032 -65.44115,225.148579 -64.190085,225.978017 -62.928507,226.791378 -61.656626,227.588529 -60.374647,228.369339 -59.082782,229.133681 -57.781242,229.881429 -56.47024,230.61246 -55.149991,231.326656 -53.820711,232.023899 -52.482618,232.704074 -51.13593,233.367072 -49.780869,234.012782 -48.417656,234.6411 -47.046514,235.251922 -45.667668,235.845148 -44.281344,236.420682 -42.887769,236.978429 -41.487171,237.518297 -40.079779,238.040198 -38.665824,238.544048 -37.245537,239.029762 -35.819151,239.497262 -34.3869,239.946472 -32.949017,240.377317 -31.50574,240.789727 -30.057302,241.183634 -28.603943,241.558975 -27.1459,241.915687 -25.683412,242.253713 -24.216718,242.572996 -22.746058,242.873484 -21.271674,243.155129 -19.793806,243.417885 -18.312697,243.661707 -16.82859,243.886556 -15.341726,244.092396 -13.85235,244.279193 -12.360706,244.446916 -10.867038,244.595537 -9.37159,244.725033 -7.874608,244.835382 -6.376336,244.926565 -4.87702,244.998569 -3.376905,245.051382 -1.876238,245.084994 -0.375263,245.0994 1.125773,245.094598 2.626625,245.070588 4.127047,245.027375 5.626793,244.964966 7.125618,244.88337 8.623276,244.782602 10.119521,244.662677 11.61411,244.523616 13.106797,244.36544 14.597337,244.188177 16.085487,243.991855 17.571003,243.776506 19.053642,243.542165 20.533161,243.288871 22.009317,243.016665 23.481869,242.725593 24.950576,242.4157 26.415197,242.087039 27.875493,241.739663 29.331223,241.37363 30.782151,240.988998 32.228038,240.58583 33.668648,240.164194 35.103744,239.724158 36.533092,239.265794 37.956457,238.789177 39.373607,238.294385 40.78431,237.781499 42.188333,237.250603 43.585449,236.701784 44.975427,236.135133 46.35804,235.550741 47.733062,234.948704 49.100267,234.329122 50.459432,233.692095 51.810334,233.037727 53.152752,232.366127 54.486466,231.677404 55.811258,230.97167 57.126911,230.249041 58.433208,229.509637 59.729937,228.753576 61.016885,227.980985 62.293842,227.191988 63.560597,226.386716 64.816944,225.565299 66.062677,224.727873 67.297593,223.874575 68.521488,223.005545 69.734162,222.120924 70.935417,221.220858 72.125056,220.305493 73.302885,219.374981 74.468709,218.429473 75.62234,217.469124 76.763587,216.494091 77.892263,215.504534 79.008184,214.500616 80.111168,213.4825 81.201033,212.450353 82.277601,211.404344 83.340696,210.344645 84.390144,209.271429 85.425772,208.184871 86.447411,207.08515 87.454895,205.972446 88.448057,204.846941 89.426736,203.70882 90.390771,202.558268 91.340004,201.395474 92.274279,200.220628 93.193445,199.033923 94.09735,197.835554 94.985845,196.625716 95.858787,195.404607 96.716032,194.172428 97.557438,192.929381 98.38287,191.675668 99.192191,190.411495 99.985269,189.137069 100.761973,187.8526 101.522178,186.558296 102.265758,185.25437 102.992592,183.941037 103.70256,182.618509 104.395547,181.287005 105.071439,179.946743 105.730124,178.597941 106.371496,177.240821 106.99545,175.875605 107.601882,174.502516 108.190694,173.121779 108.76179,171.733621 109.315075,170.338269 109.85046,168.935951 110.367856,167.526896 110.867179,166.111337 111.348348,164.689503 111.811282,163.261629 112.255907,161.827948 112.68215,160.388695 113.089941,158.944105 113.479213,157.494415 113.849902,156.039862 114.201948,154.580686 114.535293,153.117124 114.849882,151.649416 115.145664,150.177802 115.422591,148.702524 115.680617,147.223824 115.919699,145.741942 116.1398,144.257123 116.340882,142.769608 116.522913,141.279643 116.685863,139.78747 116.829705,138.293333 116.954416,136.797479 117.059975,135.300151 117.146365,133.801595 117.213572,132.302057 117.261585,130.801781 117.290396,129.301013 117.3,127.8"/>
<polygon id="0000022F4499C8A0" class="l0d0" points="-120,-2.7 120,-2.7 120,2.7 -120,2.7"/>
</g>
<g id="RingResCircuit_route0">
<polygon id="0000022F4499BE20" class="l0d0" points="-120,-2.7 -120,2.7 -180,2.7 -180,-2.7"/>
</g>
<g id="GC">
<polygon id="0000022F4499C910" class="l0d0" points="-201.804,-93.72 -202.488,-92.292 -203.16,-90.876 -203.82,-89.436 -204.456,-87.996 -205.104,-86.556 -205.728,-85.116 -206.34,-83.652 -206.94,-82.2 -207.54,-80.748 -208.128,-79.284 -208.704,-77.808 -209.256,-76.344 -209.82,-74.868 -210.36,-73.38 -210.876,-71.904 -211.404,-70.404 -211.908,-68.916 -212.412,-67.416 -212.892,-65.928 -213.372,-64.416 -213.828,-62.916 -214.284,-61.404 -214.728,-59.892 -215.16,-58.38 -215.58,-56.856 -215.988,-55.332 -216.384,-53.808 -216.78,-52.284 -217.152,-50.748 -217.524,-49.224 -217.872,-47.676 -218.22,-46.14 -218.544,-44.604 -218.868,-43.056 -219.18,-41.508 -219.468,-39.96 -219.756,-38.412 -220.032,-36.864 -220.296,-35.304 -220.548,-33.756 -220.788,-32.196 -221.016,-30.636 -221.232,-29.076 -221.448,-27.516 -221.64,-25.944 -221.82,-24.384 -221.988,-22.812 -222.156,-21.252 -222.3,-19.68 -222.432,-18.108 -222.564,-16.536 -222.684,-14.964 -222.78,-13.392 -222.876,-11.82 -222.96,-10.236 -223.032,-8.664 -223.08,-7.092 -223.128,-5.52 -223.164,-3.936 -223.188,-2.364 -223.2,-0.78 -223.2,0.78 -223.188,2.364 -223.164,3.936 -223.128,5.52 -223.08,7.092 -223.032,8.664 -222.96,10.236 -222.876,11.82 -222.78,13.392 -222.684,14.964 -222.564,16.536 -222.432,18.108 -222.3,19.68 -222.156,21.252 -221.988,22.812 -221.82,24.384 -221.64,25.944 -221.448,27.516 -221.232,29.076 -221.016,30.636 -220.788,32.196 -220.548,33.756 -220.296,35.304 -220.032,36.864 -219.756,38.412 -219.468,39.96 -219.18,41.508 -218.868,43.056 -218.544,44.604 -218.22,46.14 -217.872,47.676 -217.524,49.224 -217.152,50.748 -216.78,52.284 -216.384,53.808 -215.988,55.332 -215.58,56.856 -215.16,58.38 -214.728,59.892 -214.284,61.404 -213.828,62.916 -213.372,64.416 -212.892,65.928 -212.412,67.416 -211.908,68.916 -211.404,70.404 -210.876,71.904 -210.36,73.38 -209.82,74.868 -209.256,76.344 -208.704,77.808 -208.128,79.284 -207.54,80.748 -206.94,82.2 -206.34,83.652 -205.728,85.116 -205.104,86.556 -204.456,87.996 -203.82,89.436 -203.16,90.876 -202.488,92.292 -201.804,93.72 -7.2,2.7 -7.2,-2.7"/>
<polygon id="0000022F4499BC60" class="l0d0" points="-7.2,-2.7 -7.2,2.7 0,2.7 0,-2.7"/>
<polygon id="0000022F4499C590" class="l0d0" points="-1.572,-0.288 -1.572,-0.288 -1.536,-0.288 -1.536,-0.288"/>
<polygon id="0000022F4499C600" class="l2d0" points="-182.352,-84.348 -182.988,-83.004 -183.624,-81.648 -184.236,-80.292 -184.848,-78.936 -185.46,-77.568 -186.036,-76.2 -186.624,-74.82 -187.188,-73.452 -187.752,-72.06 -188.292,-70.68 -188.832,-69.288 -189.36,-67.884 -189.876,-66.492 -190.38,-65.088 -190.872,-63.672 -191.352,-62.268 -191.832,-60.852 -192.288,-59.436 -192.744,-58.008 -193.188,-56.58 -193.608,-55.164 -194.028,-53.724 -194.436,-52.296 -194.832,-50.856 -195.216,-49.416 -195.588,-47.964 -195.948,-46.524 -196.296,-45.072 -196.644,-43.62 -196.968,-42.168 -197.292,-40.704 -197.592,-39.252 -197.892,-37.788 -198.168,-36.324 -198.444,-34.86 -198.708,-33.384 -198.96,-31.92 -199.2,-30.444 -199.428,-28.968 -199.644,-27.492 -199.848,-26.016 -200.04,-24.54 -200.22,-23.064 -200.4,-21.576 -200.556,-20.1 -200.712,-18.612 -200.844,-17.124 -200.964,-15.648 -201.084,-14.16 -201.192,-12.66 -201.276,-11.184 -201.36,-9.696 -201.432,-8.196 -201.48,-6.708 -201.528,-5.22 -201.564,-3.732 -201.588,-2.244 -201.6,-0.744 -201.6,0.744 -201.588,2.244 -201.564,3.732 -201.528,5.22 -201.48,6.708 -201.432,8.196 -201.36,9.696 -201.276,11.184 -201.192,12.66 -201.084,14.16 -200.964,15.648 -200.844,17.124 -200.712,18.612 -200.556,20.1 -200.4,21.576 -200.22,23.064 -200.04,24.54 -199.848,26.016 -199.644,27.492 -199.428,28.968 -199.2,30.444 -198.96,31.92 -198.708,33.384 -198.444,34.86 -198.168,36.324 -197.892,37.788 -197.592,39.252 -197.292,40.704 -196.968,42.168 -196.644,43.62 -196.296,45.072 -195.948,46.524 -195.588,47.964 -195.216,49.416 -194.832,50.856 -194.436,52.296 -194.028,53.724 -193.608,55.164 -193.188,56.58 -192.744,58.008 -192.288,59.436 -191.832,60.852 -191.352,62.268 -190.872,63.672 -190.38,65.088 -189.876,66.492 -189.36,67.884 -188.832,69.288 -188.292,70.68 -187.752,72.06 -187.188,73.452 -186.624,74.82 -186.036,76.2 -185.46,77.568 -184.848,78.936 -184.236,80.292 -183.624,81.648 -182.988,83.004 -182.352,84.348 -179.112,82.788 -179.736,81.456 -180.372,80.112 -180.984,78.78 -181.584,77.424 -182.184,76.08 -182.76,74.712 -183.336,73.356 -183.9,71.988 -184.452,70.62 -184.992,69.252 -185.52,67.872 -186.036,66.492 -186.552,65.1 -187.044,63.708 -187.536,62.328 -188.016,60.924 -188.484,59.52 -188.94,58.116 -189.372,56.712 -189.816,55.296 -190.236,53.88 -190.644,52.464 -191.04,51.048 -191.436,49.62 -191.82,48.192 -192.18,46.764 -192.54,45.336 -192.876,43.896 -193.224,42.456 -193.536,41.016 -193.848,39.576 -194.16,38.136 -194.448,36.672 -194.712,35.232 -194.988,33.78 -195.24,32.316 -195.492,30.864 -195.72,29.412 -195.936,27.948 -196.152,26.484 -196.356,25.032 -196.536,23.556 -196.716,22.092 -196.884,20.628 -197.04,19.164 -197.184,17.688 -197.304,16.224 -197.436,14.748 -197.544,13.272 -197.628,11.796 -197.724,10.332 -197.796,8.856 -197.856,7.38 -197.904,5.904 -197.952,4.428 -197.976,2.952 -197.988,1.476 -198,0 -197.988,-1.476 -197.976,-2.952 -197.952,-4.428 -197.904,-5.904 -197.856,-7.38 -197.796,-8.856 -197.724,-10.332 -197.628,-11.796 -197.544,-13.272 -197.436,-14.748 -197.304,-16.224 -197.184,-17.688 -197.04,-19.164 -196.884,-20.628 -196.716,-22.092 -196.536,-23.556 -196.356,-25.032 -196.152,-26.484 -195.936,-27.948 -195.72,-29.412 -195.492,-30.864 -195.24,-32.316 -194.988,-33.78 -194.712,-35.232 -194.448,-36.672 -194.16,-38.136 -193.848,-39.576 -193.536,-41.016 -193.224,-42.456 -192.876,-43.896 -192.54,-45.336 -192.18,-46.764 -191.82,-48.192 -191.436,-49.62 -191.04,-51.048 -190.644,-52.464 -190.236,-53.88 -189.816,-55.296 -189.372,-56.712 -188.94,-58.116 -188.484,-59.52 -188.016,-60.924 -187.536,-62.328 -187.044,-63.708 -186.552,-65.1 -186.036,-66.492 -185.52,-67.872 -184.992,-69.252 -184.452,-70.62 -183.9,-71.988 -183.336,-73.356 -182.76,-74.712 -182.184,-76.08 -181.584,-77.424 -180.984,-78.78 -180.372,-80.112 -179.736,-81.456 -179.112,-82.788"/>
<polygon id="0000022F4499C6E0" class="l2d0" points="-175.86,-81.228 -176.496,-79.896 -177.12,-78.564 -177.732,-77.22 -178.332,-75.876 -178.932,-74.52 -179.508,-73.164 -180.084,-71.808 -180.636,-70.44 -181.188,-69.072 -181.728,-67.704 -182.256,-66.324 -182.772,-64.956 -183.276,-63.564 -183.768,-62.184 -184.26,-60.78 -184.728,-59.388 -185.196,-57.984 -185.64,-56.58 -186.084,-55.176 -186.504,-53.772 -186.924,-52.356 -187.332,-50.94 -187.728,-49.512 -188.112,-48.096 -188.484,-46.668 -188.844,-45.24 -189.204,-43.812 -189.54,-42.372 -189.876,-40.944 -190.188,-39.504 -190.488,-38.052 -190.788,-36.612 -191.064,-35.16 -191.34,-33.72 -191.604,-32.268 -191.844,-30.804 -192.084,-29.352 -192.312,-27.9 -192.516,-26.448 -192.72,-24.984 -192.912,-23.52 -193.092,-22.056 -193.26,-20.592 -193.416,-19.128 -193.56,-17.664 -193.704,-16.188 -193.812,-14.724 -193.932,-13.26 -194.028,-11.784 -194.124,-10.308 -194.196,-8.844 -194.256,-7.368 -194.304,-5.892 -194.352,-4.416 -194.376,-2.94 -194.388,-1.476 -194.4,0 -194.388,1.476 -194.376,2.94 -194.352,4.416 -194.304,5.892 -194.256,7.368 -194.196,8.844 -194.124,10.308 -194.028,11.784 -193.932,13.26 -193.812,14.724 -193.704,16.188 -193.56,17.664 -193.416,19.128 -193.26,20.592 -193.092,22.056 -192.912,23.52 -192.72,24.984 -192.516,26.448 -192.312,27.9 -192.084,29.352 -191.844,30.804 -191.604,32.268 -191.34,33.72 -191.064,35.16 -190.788,36.612 -190.488,38.052 -190.188,39.504 -189.876,40.944 -189.54,42.372 -189.204,43.812 -188.844,45.24 -188.484,46.668 -188.112,48.096 -187.728,49.512 -187.332,50.94 -186.924,52.356 -186.504,53.772 -186.084,55.176 -185.64,56.58 -185.196,57.984 -184.728,59.388 -184.26,60.78 -183.768,62.184 -183.276,63.564 -182.772,64.956 -182.256,66.324 -181.728,67.704 -181.188,69.072 -180.636,70.44 -180.084,71.808 -179.508,73.164 -178.932,74.52 -178.332,75.876 -177.732,77.22 -177.12,78.564 -176.496,79.896 -175.86,81.228 -172.62,79.656 -173.244,78.348 -173.868,77.028 -174.468,75.696 -175.068,74.364 -175.656,73.032 -176.232,71.688 -176.784,70.344 -177.348,69 -177.888,67.644 -178.416,66.288 -178.944,64.92 -179.448,63.552 -179.952,62.184 -180.444,60.816 -180.912,59.436 -181.38,58.056 -181.836,56.664 -182.28,55.272 -182.712,53.88 -183.144,52.488 -183.552,51.096 -183.948,49.692 -184.332,48.288 -184.716,46.872 -185.088,45.456 -185.436,44.052 -185.784,42.636 -186.108,41.208 -186.432,39.792 -186.744,38.364 -187.044,36.936 -187.332,35.508 -187.608,34.068 -187.872,32.64 -188.124,31.2 -188.376,29.76 -188.604,28.32 -188.82,26.88 -189.024,25.44 -189.228,24 -189.408,22.548 -189.588,21.108 -189.744,19.644 -189.888,18.204 -190.032,16.752 -190.164,15.288 -190.272,13.836 -190.38,12.384 -190.476,10.932 -190.56,9.48 -190.632,8.016 -190.68,6.564 -190.728,5.1 -190.764,3.648 -190.788,2.184 -190.8,0.732 -190.8,-0.732 -190.788,-2.184 -190.764,-3.648 -190.728,-5.1 -190.68,-6.564 -190.632,-8.016 -190.56,-9.48 -190.476,-10.932 -190.38,-12.384 -190.272,-13.836 -190.164,-15.288 -190.032,-16.752 -189.888,-18.204 -189.744,-19.644 -189.588,-21.108 -189.408,-22.548 -189.228,-24 -189.024,-25.44 -188.82,-26.88 -188.604,-28.32 -188.376,-29.76 -188.124,-31.2 -187.872,-32.64 -187.608,-34.068 -187.332,-35.508 -187.044,-36.936 -186.744,-38.364 -186.432,-39.792 -186.108,-41.208 -185.784,-42.636 -185.436,-44.052 -185.088,-45.456 -184.716,-46.872 -184.332,-48.288 -183.948,-49.692 -183.552,-51.096 -183.144,-52.488 -182.712,-53.88 -182.28,-55.272 -181.836,-56.664 -181.38,-58.056 -180.912,-59.436 -180.444,-60.816 -179.952,-62.184 -179.448,-63.552 -178.944,-64.92 -178.416,-66.288 -177.888,-67.644 -177.348,-69 -176.784,-70.344 -176.232,-71.688 -175.656,-73.032 -175.068,-74.364 -174.468,-75.696 -173.868,-77.028 -173.244,-78.348 -172.62,-79.656"/>
<polygon id="0000022F4499BCD0" class="l2d0" points="-169.368,-78.096 -169.992,-76.8 -170.604,-75.492 -171.204,-74.172 -171.792,-72.864 -172.38,-71.544 -172.944,-70.212 -173.496,-68.88 -174.048,-67.548 -174.576,-66.216 -175.104,-64.86 -175.62,-63.516 -176.124,-62.16 -176.616,-60.816 -177.096,-59.448 -177.564,-58.092 -178.032,-56.724 -178.476,-55.344 -178.92,-53.976 -179.34,-52.596 -179.76,-51.216 -180.168,-49.836 -180.564,-48.444 -180.948,-47.052 -181.308,-45.66 -181.668,-44.256 -182.028,-42.864 -182.364,-41.46 -182.688,-40.056 -183,-38.652 -183.3,-37.236 -183.6,-35.82 -183.876,-34.404 -184.152,-32.988 -184.404,-31.572 -184.656,-30.156 -184.896,-28.728 -185.124,-27.3 -185.328,-25.872 -185.532,-24.456 -185.724,-23.016 -185.904,-21.588 -186.072,-20.148 -186.216,-18.72 -186.36,-17.292 -186.504,-15.852 -186.624,-14.412 -186.732,-12.972 -186.828,-11.532 -186.924,-10.092 -186.996,-8.652 -187.056,-7.212 -187.104,-5.772 -187.152,-4.332 -187.176,-2.892 -187.188,-1.44 -187.2,0 -187.188,1.44 -187.176,2.892 -187.152,4.332 -187.104,5.772 -187.056,7.212 -186.996,8.652 -186.924,10.092 -186.828,11.532 -186.732,12.972 -186.624,14.412 -186.504,15.852 -186.36,17.292 -186.216,18.72 -186.072,20.148 -185.904,21.588 -185.724,23.016 -185.532,24.456 -185.328,25.872 -185.124,27.3 -184.896,28.728 -184.656,30.156 -184.404,31.572 -184.152,32.988 -183.876,34.404 -183.6,35.82 -183.3,37.236 -183,38.652 -182.688,40.056 -182.364,41.46 -182.028,42.864 -181.668,44.256 -181.308,45.66 -180.948,47.052 -180.564,48.444 -180.168,49.836 -179.76,51.216 -179.34,52.596 -178.92,53.976 -178.476,55.344 -178.032,56.724 -177.564,58.092 -177.096,59.448 -176.616,60.816 -176.124,62.16 -175.62,63.516 -175.104,64.86 -174.576,66.216 -174.048,67.548 -173.496,68.88 -172.944,70.212 -172.38,71.544 -171.792,72.864 -171.204,74.172 -170.604,75.492 -169.992,76.8 -169.368,78.096 -166.128,76.536 -166.74,75.252 -167.352,73.956 -167.94,72.66 -168.528,71.364 -169.092,70.044 -169.656,68.736 -170.208,67.416 -170.748,66.108 -171.276,64.776 -171.792,63.444 -172.308,62.112 -172.8,60.78 -173.28,59.436 -173.76,58.092 -174.228,56.748 -174.684,55.392 -175.116,54.036 -175.548,52.68 -175.98,51.312 -176.376,49.944 -176.784,48.576 -177.168,47.208 -177.54,45.828 -177.9,44.448 -178.26,43.068 -178.608,41.676 -178.932,40.296 -179.256,38.904 -179.568,37.512 -179.868,36.12 -180.156,34.716 -180.42,33.324 -180.696,31.92 -180.948,30.516 -181.176,29.112 -181.416,27.696 -181.632,26.292 -181.836,24.888 -182.028,23.46 -182.22,22.056 -182.388,20.64 -182.544,19.212 -182.7,17.796 -182.832,16.38 -182.964,14.964 -183.084,13.536 -183.18,12.12 -183.276,10.692 -183.36,9.264 -183.432,7.836 -183.48,6.42 -183.528,4.992 -183.564,3.564 -183.588,2.136 -183.6,0.708 -183.6,-0.708 -183.588,-2.136 -183.564,-3.564 -183.528,-4.992 -183.48,-6.42 -183.432,-7.836 -183.36,-9.264 -183.276,-10.692 -183.18,-12.12 -183.084,-13.536 -182.964,-14.964 -182.832,-16.38 -182.7,-17.796 -182.544,-19.212 -182.388,-20.64 -182.22,-22.056 -182.028,-23.46 -181.836,-24.888 -181.632,-26.292 -181.416,-27.696 -181.176,-29.112 -180.948,-30.516 -180.696,-31.92 -180.42,-33.324 -180.156,-34.716 -179.868,-36.12 -179.568,-37.512 -179.256,-38.904 -178.932,-40.296 -178.608,-41.676 -178.26,-43.068 -177.9,-44.448 -177.54,-45.828 -177.168,-47.208 -176.784,-48.576 -176.376,-49.944 -175.98,-51.312 -175.548,-52.68 -175.116,-54.036 -174.684,-55.392 -174.228,-56.748 -173.76,-58.092 -173.28,-59.436 -172.8,-60.78 -172.308,-62.112 -171.792,-63.444 -171.276,-64.776 -170.748,-66.108 -170.208,-67.416 -169.656,-68.736 -169.092,-70.044 -168.528,-71.364 -167.94,-72.66 -167.352,-73.956 -166.74,-75.252 -166.128,-76.536"/>
<polygon id="0000022F4499BF70" class="l2d0" points="-162.888,-74.976 -163.5,-73.704 -164.088,-72.42 -164.676,-71.148 -165.252,-69.852 -165.816,-68.568 -166.368,-67.26 -166.908,-65.964 -167.448,-64.656 -167.964,-63.348 -168.48,-62.04 -168.984,-60.72 -169.476,-59.388 -169.944,-58.068 -170.412,-56.736 -170.88,-55.404 -171.324,-54.06 -171.756,-52.728 -172.176,-51.384 -172.596,-50.028 -173.004,-48.684 -173.388,-47.328 -173.772,-45.972 -174.144,-44.616 -174.504,-43.248 -174.84,-41.88 -175.188,-40.512 -175.512,-39.144 -175.824,-37.764 -176.124,-36.384 -176.412,-35.004 -176.7,-33.624 -176.964,-32.244 -177.216,-30.852 -177.468,-29.472 -177.708,-28.068 -177.924,-26.688 -178.14,-25.284 -178.332,-23.892 -178.536,-22.5 -178.704,-21.096 -178.872,-19.704 -179.028,-18.3 -179.172,-16.896 -179.304,-15.492 -179.424,-14.088 -179.532,-12.684 -179.628,-11.28 -179.724,-9.864 -179.796,-8.46 -179.856,-7.044 -179.904,-5.64 -179.952,-4.224 -179.976,-2.82 -179.988,-1.416 -180,0 -179.988,1.416 -179.976,2.82 -179.952,4.224 -179.904,5.64 -179.856,7.044 -179.796,8.46 -179.724,9.864 -179.628,11.28 -179.532,12.684 -179.424,14.088 -179.304,15.492 -179.172,16.896 -179.028,18.3 -178.872,19.704 -178.704,21.096 -178.536,22.5 -178.332,23.892 -178.14,25.284 -177.924,26.688 -177.708,28.068 -177.468,29.472 -177.216,30.852 -176.964,32.244 -176.7,33.624 -176.412,35.004 -176.124,36.384 -175.824,37.764 -175.512,39.144 -175.188,40.512 -174.84,41.88 -174.504,43.248 -174.144,44.616 -173.772,45.972 -173.388,47.328 -173.004,48.684 -172.596,50.028 -172.176,51.384 -171.756,52.728 -171.324,54.06 -170.88,55.404 -170.412,56.736 -169.944,58.068 -169.476,59.388 -168.984,60.72 -168.48,62.04 -167.964,63.348 -167.448,64.656 -166.908,65.964 -166.368,67.26 -165.816,68.568 -165.252,69.852 -164.676,71.148 -164.088,72.42 -163.5,73.704 -162.888,74.976 -159.648,73.416 -160.248,72.156 -160.836,70.896 -161.412,69.624 -161.976,68.352 -162.54,67.08 -163.092,65.796 -163.62,64.512 -164.148,63.216 -164.664,61.932 -165.168,60.624 -165.66,59.316 -166.14,58.02 -166.62,56.712 -167.076,55.392 -167.532,54.072 -167.964,52.752 -168.396,51.42 -168.816,50.1 -169.224,48.756 -169.62,47.424 -170.004,46.092 -170.376,44.748 -170.736,43.404 -171.096,42.048 -171.432,40.704 -171.768,39.348 -172.08,37.992 -172.392,36.636 -172.68,35.268 -172.968,33.9 -173.244,32.532 -173.508,31.164 -173.76,29.796 -174,28.428 -174.228,27.048 -174.444,25.68 -174.648,24.3 -174.84,22.92 -175.02,21.54 -175.2,20.148 -175.356,18.768 -175.512,17.388 -175.644,15.996 -175.764,14.604 -175.884,13.224 -175.98,11.832 -176.076,10.44 -176.16,9.048 -176.232,7.656 -176.28,6.276 -176.328,4.872 -176.364,3.48 -176.388,2.088 -176.4,0.696 -176.4,-0.696 -176.388,-2.088 -176.364,-3.48 -176.328,-4.872 -176.28,-6.276 -176.232,-7.656 -176.16,-9.048 -176.076,-10.44 -175.98,-11.832 -175.884,-13.224 -175.764,-14.604 -175.644,-15.996 -175.512,-17.388 -175.356,-18.768 -175.2,-20.148 -175.02,-21.54 -174.84,-22.92 -174.648,-24.3 -174.444,-25.68 -174.228,-27.048 -174,-28.428 -173.76,-29.796 -173.508,-31.164 -173.244,-32.532 -172.968,-33.9 -172.68,-35.268 -172.392,-36.636 -172.08,-37.992 -171.768,-39.348 -171.432,-40.704 -171.096,-42.048 -170.736,-43.404 -170.376,-44.748 -170.004,-46.092 -169.62,-47.424 -169.224,-48.756 -168.816,-50.1 -168.396,-51.42 -167.964,-52.752 -167.532,-54.072 -167.076,-55.392 -166.62,-56.712 -166.14,-58.02 -165.66,-59.316 -165.168,-60.624 -164.664,-61.932 -164.148,-63.216 -163.62,-64.512 -163.092,-65.796 -162.54,-67.08 -161.976,-68.352 -161.412,-69.624 -160.836,-70.896 -160.248,-72.156 -159.648,-73.416"/>
<polygon id="0000022F4499C360" class="l2d0" points="-156.396,-71.844 -156.996,-70.608 -157.572,-69.36 -158.148,-68.112 -158.712,-66.852 -159.252,-65.592 -159.792,-64.32 -160.32,-63.06 -160.848,-61.776 -161.352,-60.504 -161.844,-59.22 -162.336,-57.936 -162.816,-56.64 -163.284,-55.344 -163.74,-54.048 -164.172,-52.74 -164.604,-51.432 -165.036,-50.124 -165.444,-48.804 -165.84,-47.496 -166.236,-46.176 -166.608,-44.844 -166.98,-43.524 -167.34,-42.192 -167.676,-40.86 -168.012,-39.528 -168.336,-38.184 -168.648,-36.852 -168.948,-35.508 -169.236,-34.164 -169.512,-32.808 -169.788,-31.464 -170.04,-30.108 -170.292,-28.752 -170.52,-27.408 -170.736,-26.04 -170.952,-24.684 -171.156,-23.316 -171.336,-21.948 -171.516,-20.592 -171.672,-19.224 -171.84,-17.856 -171.984,-16.488 -172.104,-15.12 -172.236,-13.74 -172.344,-12.372 -172.428,-11.004 -172.524,-9.624 -172.596,-8.256 -172.656,-6.888 -172.704,-5.496 -172.752,-4.128 -172.776,-2.748 -172.788,-1.38 -172.8,0 -172.788,1.38 -172.776,2.748 -172.752,4.128 -172.704,5.496 -172.656,6.888 -172.596,8.256 -172.524,9.624 -172.428,11.004 -172.344,12.372 -172.236,13.74 -172.104,15.12 -171.984,16.488 -171.84,17.856 -171.672,19.224 -171.516,20.592 -171.336,21.948 -171.156,23.316 -170.952,24.684 -170.736,26.04 -170.52,27.408 -170.292,28.752 -170.04,30.108 -169.788,31.464 -169.512,32.808 -169.236,34.164 -168.948,35.508 -168.648,36.852 -168.336,38.184 -168.012,39.528 -167.676,40.86 -167.34,42.192 -166.98,43.524 -166.608,44.844 -166.236,46.176 -165.84,47.496 -165.444,48.804 -165.036,50.124 -164.604,51.432 -164.172,52.74 -163.74,54.048 -163.284,55.344 -162.816,56.64 -162.336,57.936 -161.844,59.22 -161.352,60.504 -160.848,61.776 -160.32,63.06 -159.792,64.32 -159.252,65.592 -158.712,66.852 -158.148,68.112 -157.572,69.36 -156.996,70.608 -156.396,71.844 -153.156,70.284 -153.744,69.048 -154.32,67.812 -154.896,66.552 -155.46,65.304 -156,64.056 -156.54,62.784 -157.068,61.512 -157.584,60.252 -158.088,58.98 -158.58,57.696 -159.06,56.412 -159.54,55.128 -159.996,53.832 -160.44,52.536 -160.884,51.24 -161.316,49.932 -161.736,48.624 -162.132,47.316 -162.528,45.996 -162.912,44.688 -163.284,43.368 -163.644,42.036 -164.004,40.716 -164.34,39.384 -164.676,38.052 -164.976,36.72 -165.288,35.376 -165.588,34.044 -165.864,32.7 -166.14,31.344 -166.404,30 -166.644,28.656 -166.884,27.3 -167.1,25.944 -167.316,24.6 -167.52,23.244 -167.712,21.876 -167.892,20.52 -168.06,19.164 -168.216,17.796 -168.36,16.428 -168.492,15.072 -168.612,13.704 -168.732,12.336 -168.828,10.968 -168.912,9.6 -168.996,8.232 -169.056,6.852 -169.104,5.484 -169.152,4.116 -169.176,2.748 -169.188,1.38 -169.2,0 -169.188,-1.38 -169.176,-2.748 -169.152,-4.116 -169.104,-5.484 -169.056,-6.852 -168.996,-8.232 -168.912,-9.6 -168.828,-10.968 -168.732,-12.336 -168.612,-13.704 -168.492,-15.072 -168.36,-16.428 -168.216,-17.796 -168.06,-19.164 -167.892,-20.52 -167.712,-21.876 -167.52,-23.244 -167.316,-24.6 -167.1,-25.944 -166.884,-27.3 -166.644,-28.656 -166.404,-30 -166.14,-31.344 -165.864,-32.7 -165.588,-34.044 -165.288,-35.376 -164.976,-36.72 -164.676,-38.052 -164.34,-39.384 -164.004,-40.716 -163.644,-42.036 -163.284,-43.368 -162.912,-44.688 -162.528,-45.996 -162.132,-47.316 -161.736,-48.624 -161.316,-49.932 -160.884,-51.24 -160.44,-52.536 -159.996,-53.832 -159.54,-55.128 -159.06,-56.412 -158.58,-57.696 -158.088,-58.98 -157.584,-60.252 -157.068,-61.512 -156.54,-62.784 -156,-64.056 -155.46,-65.304 -154.896,-66.552 -154.32,-67.812 -153.744,-69.048 -153.156,-70.284"/>
<polygon id="0000022F4499C280" class="l2d0" points="-149.916,-68.724 -150.492,-67.512 -151.068,-66.276 -151.632,-65.04 -152.184,-63.804 -152.724,-62.568 -153.252,-61.32 -153.768,-60.072 -154.272,-58.812 -154.776,-57.552 -155.256,-56.292 -155.736,-55.02 -156.204,-53.76 -156.66,-52.476 -157.092,-51.204 -157.524,-49.908 -157.956,-48.624 -158.364,-47.328 -158.76,-46.044 -159.144,-44.748 -159.528,-43.44 -159.888,-42.144 -160.248,-40.836 -160.584,-39.516 -160.92,-38.208 -161.244,-36.888 -161.556,-35.58 -161.844,-34.26 -162.132,-32.928 -162.42,-31.608 -162.672,-30.276 -162.924,-28.956 -163.176,-27.624 -163.404,-26.28 -163.62,-24.948 -163.824,-23.604 -164.028,-22.272 -164.208,-20.928 -164.388,-19.584 -164.544,-18.24 -164.7,-16.896 -164.832,-15.54 -164.964,-14.196 -165.072,-12.852 -165.18,-11.496 -165.276,-10.152 -165.36,-8.796 -165.432,-7.44 -165.48,-6.096 -165.528,-4.74 -165.564,-3.384 -165.588,-2.028 -165.6,-0.672 -165.6,0.672 -165.588,2.028 -165.564,3.384 -165.528,4.74 -165.48,6.096 -165.432,7.44 -165.36,8.796 -165.276,10.152 -165.18,11.496 -165.072,12.852 -164.964,14.196 -164.832,15.54 -164.7,16.896 -164.544,18.24 -164.388,19.584 -164.208,20.928 -164.028,22.272 -163.824,23.604 -163.62,24.948 -163.404,26.28 -163.176,27.624 -162.924,28.956 -162.672,30.276 -162.42,31.608 -162.132,32.928 -161.844,34.26 -161.556,35.58 -161.244,36.888 -160.92,38.208 -160.584,39.516 -160.248,40.836 -159.888,42.144 -159.528,43.44 -159.144,44.748 -158.76,46.044 -158.364,47.328 -157.956,48.624 -157.524,49.908 -157.092,51.204 -156.66,52.476 -156.204,53.76 -155.736,55.02 -155.256,56.292 -154.776,57.552 -154.272,58.812 -153.768,60.072 -153.252,61.32 -152.724,62.568 -152.184,63.804 -151.632,65.04 -151.068,66.276 -150.492,67.512 -149.916,68.724 -146.676,67.164 -147.252,65.964 -147.804,64.752 -148.368,63.528 -148.908,62.304 -149.436,61.08 -149.964,59.856 -150.468,58.62 -150.972,57.384 -151.464,56.136 -151.944,54.888 -152.412,53.64 -152.868,52.392 -153.312,51.132 -153.744,49.872 -154.176,48.6 -154.596,47.328 -154.992,46.056 -155.388,44.772 -155.76,43.5 -156.132,42.216 -156.492,40.92 -156.84,39.636 -157.176,38.34 -157.5,37.044 -157.812,35.748 -158.124,34.44 -158.412,33.144 -158.688,31.836 -158.964,30.528 -159.216,29.22 -159.468,27.9 -159.696,26.592 -159.924,25.272 -160.14,23.952 -160.332,22.632 -160.524,21.312 -160.704,19.992 -160.872,18.66 -161.028,17.328 -161.172,16.008 -161.304,14.676 -161.424,13.344 -161.532,12.012 -161.628,10.68 -161.724,9.348 -161.796,8.016 -161.856,6.684 -161.904,5.34 -161.952,4.008 -161.976,2.676 -161.988,1.344 -162,0 -161.988,-1.344 -161.976,-2.676 -161.952,-4.008 -161.904,-5.34 -161.856,-6.684 -161.796,-8.016 -161.724,-9.348 -161.628,-10.68 -161.532,-12.012 -161.424,-13.344 -161.304,-14.676 -161.172,-16.008 -161.028,-17.328 -160.872,-18.66 -160.704,-19.992 -160.524,-21.312 -160.332,-22.632 -160.14,-23.952 -159.924,-25.272 -159.696,-26.592 -159.468,-27.9 -159.216,-29.22 -158.964,-30.528 -158.688,-31.836 -158.412,-33.144 -158.124,-34.44 -157.812,-35.748 -157.5,-37.044 -157.176,-38.34 -156.84,-39.636 -156.492,-40.92 -156.132,-42.216 -155.76,-43.5 -155.388,-44.772 -154.992,-46.056 -154.596,-47.328 -154.176,-48.6 -153.744,-49.872 -153.312,-51.132 -152.868,-52.392 -152.412,-53.64 -151.944,-54.888 -151.464,-56.136 -150.972,-57.384 -150.468,-58.62 -149.964,-59.856 -149.436,-61.08 -148.908,-62.304 -148.368,-63.528 -147.804,-64.752 -147.252,-65.964 -146.676,-67.164"/>
<polygon id="0000022F4499C980" class="l2d0" points="-143.424,-65.604 -143.988,-64.416 -144.552,-63.216 -145.092,-62.016 -145.632,-60.816 -146.148,-59.604 -146.676,-58.392 -147.18,-57.18 -147.66,-55.956 -148.152,-54.732 -148.62,-53.496 -149.088,-52.26 -149.532,-51.024 -149.964,-49.776 -150.396,-48.54 -150.816,-47.292 -151.224,-46.032 -151.62,-44.772 -152.004,-43.512 -152.376,-42.252 -152.736,-40.992 -153.096,-39.72 -153.432,-38.436 -153.768,-37.164 -154.08,-35.892 -154.392,-34.608 -154.68,-33.324 -154.968,-32.04 -155.244,-30.756 -155.508,-29.46 -155.748,-28.164 -156,-26.868 -156.228,-25.572 -156.444,-24.276 -156.648,-22.968 -156.84,-21.66 -157.02,-20.364 -157.2,-19.056 -157.356,-17.748 -157.512,-16.44 -157.644,-15.132 -157.764,-13.812 -157.884,-12.504 -157.98,-11.184 -158.076,-9.876 -158.16,-8.556 -158.232,-7.248 -158.28,-5.928 -158.328,-4.608 -158.364,-3.288 -158.388,-1.98 -158.4,-0.66 -158.4,0.66 -158.388,1.98 -158.364,3.288 -158.328,4.608 -158.28,5.928 -158.232,7.248 -158.16,8.556 -158.076,9.876 -157.98,11.184 -157.884,12.504 -157.764,13.812 -157.644,15.132 -157.512,16.44 -157.356,17.748 -157.2,19.056 -157.02,20.364 -156.84,21.66 -156.648,22.968 -156.444,24.276 -156.228,25.572 -156,26.868 -155.748,28.164 -155.508,29.46 -155.244,30.756 -154.968,32.04 -154.68,33.324 -154.392,34.608 -154.08,35.892 -153.768,37.164 -153.432,38.436 -153.096,39.72 -152.736,40.992 -152.376,42.252 -152.004,43.512 -151.62,44.772 -151.224,46.032 -150.816,47.292 -150.396,48.54 -149.964,49.776 -149.532,51.024 -149.088,52.26 -148.62,53.496 -148.152,54.732 -147.66,55.956 -147.18,57.18 -146.676,58.392 -146.148,59.604 -145.632,60.816 -145.092,62.016 -144.552,63.216 -143.988,64.416 -143.424,65.604 -140.184,64.044 -140.736,62.868 -141.288,61.692 -141.828,60.504 -142.356,59.316 -142.872,58.128 -143.376,56.928 -143.868,55.74 -144.36,54.528 -144.84,53.316 -145.296,52.104 -145.752,50.892 -146.196,49.668 -146.616,48.444 -147.048,47.208 -147.456,45.984 -147.852,44.748 -148.236,43.5 -148.62,42.264 -148.992,41.016 -149.34,39.768 -149.688,38.508 -150.024,37.26 -150.348,36 -150.648,34.74 -150.96,33.48 -151.248,32.208 -151.512,30.936 -151.788,29.676 -152.04,28.392 -152.292,27.12 -152.52,25.836 -152.736,24.564 -152.952,23.28 -153.156,21.996 -153.336,20.712 -153.516,19.428 -153.684,18.132 -153.84,16.848 -153.984,15.564 -154.104,14.268 -154.236,12.972 -154.344,11.676 -154.428,10.38 -154.524,9.084 -154.596,7.788 -154.656,6.492 -154.704,5.196 -154.752,3.9 -154.776,2.604 -154.788,1.296 -154.8,0 -154.788,-1.296 -154.776,-2.604 -154.752,-3.9 -154.704,-5.196 -154.656,-6.492 -154.596,-7.788 -154.524,-9.084 -154.428,-10.38 -154.344,-11.676 -154.236,-12.972 -154.104,-14.268 -153.984,-15.564 -153.84,-16.848 -153.684,-18.132 -153.516,-19.428 -153.336,-20.712 -153.156,-21.996 -152.952,-23.28 -152.736,-24.564 -152.52,-25.836 -152.292,-27.12 -152.04,-28.392 -151.788,-29.676 -151.512,-30.936 -151.248,-32.208 -150.96,-33.48 -150.648,-34.74 -150.348,-36 -150.024,-37.26 -149.688,-38.508 -149.34,-39.768 -148.992,-41.016 -148.62,-42.264 -148.236,-43.5 -147.852,-44.748 -147.456,-45.984 -147.048,-47.208 -146.616,-48.444 -146.196,-49.668 -145.752,-50.892 -145.296,-52.104 -144.84,-53.316 -144.36,-54.528 -143.868,-55.74 -143.376,-56.928 -142.872,-58.128 -142.356,-59.316 -141.828,-60.504 -141.288,-61.692 -140.736,-62.868 -140.184,-64.044"/>
<polygon id="0000022F4499C750" class="l2d0" points="-136.932,-62.484 -137.496,-61.32 -138.036,-60.144 -138.576,-58.956 -139.092,-57.78 -139.62,-56.604 -140.112,-55.404 -140.604,-54.204 -141.096,-53.004 -141.564,-51.804 -142.02,-50.592 -142.464,-49.38 -142.908,-48.168 -143.328,-46.956 -143.748,-45.732 -144.156,-44.496 -144.552,-43.26 -144.924,-42.036 -145.308,-40.8 -145.668,-39.552 -146.004,-38.316 -146.352,-37.056 -146.676,-35.808 -147,-34.56 -147.3,-33.3 -147.588,-32.04 -147.876,-30.78 -148.14,-29.52 -148.404,-28.248 -148.656,-26.988 -148.884,-25.716 -149.112,-24.432 -149.328,-23.16 -149.532,-21.888 -149.712,-20.604 -149.892,-19.332 -150.06,-18.048 -150.216,-16.764 -150.36,-15.48 -150.504,-14.196 -150.612,-12.912 -150.732,-11.616 -150.828,-10.332 -150.924,-9.048 -150.996,-7.752 -151.056,-6.456 -151.104,-5.172 -151.152,-3.876 -151.176,-2.58 -151.188,-1.296 -151.2,0 -151.188,1.296 -151.176,2.58 -151.152,3.876 -151.104,5.172 -151.056,6.456 -150.996,7.752 -150.924,9.048 -150.828,10.332 -150.732,11.616 -150.612,12.912 -150.504,14.196 -150.36,15.48 -150.216,16.764 -150.06,18.048 -149.892,19.332 -149.712,20.604 -149.532,21.888 -149.328,23.16 -149.112,24.432 -148.884,25.716 -148.656,26.988 -148.404,28.248 -148.14,29.52 -147.876,30.78 -147.588,32.04 -147.3,33.3 -147,34.56 -146.676,35.808 -146.352,37.056 -146.004,38.316 -145.668,39.552 -145.308,40.8 -144.924,42.036 -144.552,43.26 -144.156,44.496 -143.748,45.732 -143.328,46.956 -142.908,48.168 -142.464,49.38 -142.02,50.592 -141.564,51.804 -141.096,53.004 -140.604,54.204 -140.112,55.404 -139.62,56.604 -139.092,57.78 -138.576,58.956 -138.036,60.144 -137.496,61.32 -136.932,62.484 -133.692,60.924 -134.244,59.772 -134.772,58.62 -135.3,57.456 -135.816,56.292 -136.32,55.128 -136.824,53.952 -137.304,52.764 -137.784,51.588 -138.24,50.412 -138.696,49.212 -139.128,48.012 -139.56,46.824 -139.98,45.624 -140.388,44.412 -140.784,43.212 -141.168,41.988 -141.552,40.776 -141.912,39.552 -142.26,38.328 -142.608,37.104 -142.944,35.88 -143.256,34.644 -143.568,33.408 -143.868,32.172 -144.156,30.936 -144.42,29.688 -144.696,28.44 -144.948,27.192 -145.176,25.944 -145.416,24.696 -145.632,23.436 -145.836,22.188 -146.028,20.928 -146.22,19.668 -146.388,18.408 -146.544,17.148 -146.7,15.876 -146.832,14.616 -146.964,13.344 -147.084,12.084 -147.18,10.812 -147.276,9.54 -147.36,8.268 -147.432,6.996 -147.48,5.724 -147.528,4.452 -147.564,3.18 -147.588,1.908 -147.6,0.636 -147.6,-0.636 -147.588,-1.908 -147.564,-3.18 -147.528,-4.452 -147.48,-5.724 -147.432,-6.996 -147.36,-8.268 -147.276,-9.54 -147.18,-10.812 -147.084,-12.084 -146.964,-13.344 -146.832,-14.616 -146.7,-15.876 -146.544,-17.148 -146.388,-18.408 -146.22,-19.668 -146.028,-20.928 -145.836,-22.188 -145.632,-23.436 -145.416,-24.696 -145.176,-25.944 -144.948,-27.192 -144.696,-28.44 -144.42,-29.688 -144.156,-30.936 -143.868,-32.172 -143.568,-33.408 -143.256,-34.644 -142.944,-35.88 -142.608,-37.104 -142.26,-38.328 -141.912,-39.552 -141.552,-40.776 -141.168,-41.988 -140.784,-43.212 -140.388,-44.412 -139.98,-45.624 -139.56,-46.824 -139.128,-48.012 -138.696,-49.212 -138.24,-50.412 -137.784,-51.588 -137.304,-52.764 -136.824,-53.952 -136.32,-55.128 -135.816,-56.292 -135.3,-57.456 -134.772,-58.62 -134.244,-59.772 -133.692,-60.924"/>
<polygon id="0000022F4499BB80" class="l2d0" points="-130.452,-59.352 -130.992,-58.224 -131.52,-57.084 -132.036,-55.944 -132.54,-54.804 -133.044,-53.652 -133.524,-52.5 -134.004,-51.336 -134.472,-50.172 -134.916,-49.008 -135.372,-47.832 -135.804,-46.656 -136.212,-45.48 -136.632,-44.292 -137.028,-43.104 -137.424,-41.916 -137.796,-40.728 -138.168,-39.516 -138.516,-38.328 -138.864,-37.116 -139.2,-35.916 -139.524,-34.692 -139.836,-33.492 -140.136,-32.268 -140.424,-31.056 -140.712,-29.832 -140.976,-28.608 -141.24,-27.384 -141.48,-26.148 -141.708,-24.924 -141.936,-23.688 -142.14,-22.452 -142.344,-21.216 -142.536,-19.968 -142.716,-18.732 -142.872,-17.496 -143.028,-16.248 -143.172,-15 -143.304,-13.764 -143.424,-12.516 -143.532,-11.256 -143.628,-10.02 -143.724,-8.76 -143.796,-7.512 -143.856,-6.264 -143.904,-5.016 -143.952,-3.756 -143.976,-2.508 -143.988,-1.248 -144,0 -143.988,1.248 -143.976,2.508 -143.952,3.756 -143.904,5.016 -143.856,6.264 -143.796,7.512 -143.724,8.76 -143.628,10.02 -143.532,11.256 -143.424,12.516 -143.304,13.764 -143.172,15 -143.028,16.248 -142.872,17.496 -142.716,18.732 -142.536,19.968 -142.344,21.216 -142.14,22.452 -141.936,23.688 -141.708,24.924 -141.48,26.148 -141.24,27.384 -140.976,28.608 -140.712,29.832 -140.424,31.056 -140.136,32.268 -139.836,33.492 -139.524,34.692 -139.2,35.916 -138.864,37.116 -138.516,38.328 -138.168,39.516 -137.796,40.728 -137.424,41.916 -137.028,43.104 -136.632,44.292 -136.212,45.48 -135.804,46.656 -135.372,47.832 -134.916,49.008 -134.472,50.172 -134.004,51.336 -133.524,52.5 -133.044,53.652 -132.54,54.804 -132.036,55.944 -131.52,57.084 -130.992,58.224 -130.452,59.352 -127.212,57.792 -127.74,56.676 -128.256,55.56 -128.76,54.444 -129.264,53.316 -129.756,52.176 -130.236,51.048 -130.704,49.908 -131.16,48.756 -131.604,47.604 -132.036,46.452 -132.456,45.3 -132.876,44.136 -133.284,42.972 -133.668,41.808 -134.052,40.632 -134.424,39.456 -134.784,38.28 -135.132,37.092 -135.468,35.916 -135.792,34.728 -136.104,33.528 -136.416,32.34 -136.704,31.14 -136.992,29.94 -137.256,28.74 -137.52,27.528 -137.772,26.328 -138.012,25.116 -138.24,23.904 -138.456,22.692 -138.66,21.48 -138.852,20.256 -139.032,19.032 -139.2,17.82 -139.368,16.596 -139.512,15.372 -139.644,14.148 -139.776,12.924 -139.884,11.688 -139.992,10.464 -140.076,9.24 -140.16,8.004 -140.232,6.78 -140.28,5.544 -140.328,4.308 -140.364,3.084 -140.388,1.848 -140.4,0.624 -140.4,-0.624 -140.388,-1.848 -140.364,-3.084 -140.328,-4.308 -140.28,-5.544 -140.232,-6.78 -140.16,-8.004 -140.076,-9.24 -139.992,-10.464 -139.884,-11.688 -139.776,-12.924 -139.644,-14.148 -139.512,-15.372 -139.368,-16.596 -139.2,-17.82 -139.032,-19.032 -138.852,-20.256 -138.66,-21.48 -138.456,-22.692 -138.24,-23.904 -138.012,-25.116 -137.772,-26.328 -137.52,-27.528 -137.256,-28.74 -136.992,-29.94 -136.704,-31.14 -136.416,-32.34 -136.104,-33.528 -135.792,-34.728 -135.468,-35.916 -135.132,-37.092 -134.784,-38.28 -134.424,-39.456 -134.052,-40.632 -133.668,-41.808 -133.284,-42.972 -132.876,-44.136 -132.456,-45.3 -132.036,-46.452 -131.604,-47.604 -131.16,-48.756 -130.704,-49.908 -130.236,-51.048 -129.756,-52.176 -129.264,-53.316 -128.76,-54.444 -128.256,-55.56 -127.74,-56.676 -127.212,-57.792"/>
<polygon id="0000022F4499BD40" class="l2d0" points="-123.96,-56.232 -124.5,-55.128 -125.004,-54.012 -125.508,-52.896 -126.012,-51.78 -126.492,-50.652 -126.96,-49.524 -127.428,-48.396 -127.884,-47.256 -128.316,-46.104 -128.748,-44.964 -129.168,-43.812 -129.576,-42.66 -129.972,-41.496 -130.368,-40.344 -130.74,-39.18 -131.1,-38.004 -131.46,-36.84 -131.796,-35.652 -132.132,-34.476 -132.456,-33.3 -132.756,-32.112 -133.056,-30.924 -133.344,-29.736 -133.62,-28.536 -133.884,-27.348 -134.136,-26.148 -134.376,-24.948 -134.604,-23.748 -134.832,-22.536 -135.036,-21.336 -135.228,-20.124 -135.408,-18.912 -135.588,-17.7 -135.744,-16.488 -135.9,-15.276 -136.032,-14.052 -136.164,-12.84 -136.284,-11.616 -136.38,-10.392 -136.476,-9.168 -136.56,-7.956 -136.632,-6.732 -136.68,-5.508 -136.728,-4.284 -136.764,-3.06 -136.788,-1.836 -136.8,-0.612 -136.8,0.612 -136.788,1.836 -136.764,3.06 -136.728,4.284 -136.68,5.508 -136.632,6.732 -136.56,7.956 -136.476,9.168 -136.38,10.392 -136.284,11.616 -136.164,12.84 -136.032,14.052 -135.9,15.276 -135.744,16.488 -135.588,17.7 -135.408,18.912 -135.228,20.124 -135.036,21.336 -134.832,22.536 -134.604,23.748 -134.376,24.948 -134.136,26.148 -133.884,27.348 -133.62,28.536 -133.344,29.736 -133.056,30.924 -132.756,32.112 -132.456,33.3 -132.132,34.476 -131.796,35.652 -131.46,36.84 -131.1,38.004 -130.74,39.18 -130.368,40.344 -129.972,41.496 -129.576,42.66 -129.168,43.812 -128.748,44.964 -128.316,46.104 -127.884,47.256 -127.428,48.396 -126.96,49.524 -126.492,50.652 -126.012,51.78 -125.508,52.896 -125.004,54.012 -124.5,55.128 -123.96,56.232 -120.72,54.672 -121.236,53.58 -121.74,52.488 -122.244,51.396 -122.724,50.292 -123.204,49.188 -123.672,48.084 -124.116,46.968 -124.56,45.852 -125.004,44.724 -125.412,43.596 -125.832,42.468 -126.228,41.328 -126.624,40.188 -126.996,39.048 -127.356,37.908 -127.716,36.756 -128.064,35.604 -128.4,34.44 -128.724,33.288 -129.036,32.124 -129.336,30.96 -129.624,29.796 -129.9,28.632 -130.176,27.456 -130.428,26.268 -130.668,25.104 -130.908,23.916 -131.136,22.74 -131.34,21.552 -131.544,20.364 -131.736,19.176 -131.916,17.988 -132.072,16.8 -132.228,15.6 -132.372,14.412 -132.504,13.212 -132.624,12.012 -132.732,10.812 -132.828,9.624 -132.924,8.412 -132.996,7.212 -133.056,6.012 -133.104,4.812 -133.152,3.612 -133.176,2.4 -133.188,1.2 -133.2,0 -133.188,-1.2 -133.176,-2.4 -133.152,-3.612 -133.104,-4.812 -133.056,-6.012 -132.996,-7.212 -132.924,-8.412 -132.828,-9.624 -132.732,-10.812 -132.624,-12.012 -132.504,-13.212 -132.372,-14.412 -132.228,-15.6 -132.072,-16.8 -131.916,-17.988 -131.736,-19.176 -131.544,-20.364 -131.34,-21.552 -131.136,-22.74 -130.908,-23.916 -130.668,-25.104 -130.428,-26.268 -130.176,-27.456 -129.9,-28.632 -129.624,-29.796 -129.336,-30.96 -129.036,-32.124 -128.724,-33.288 -128.4,-34.44 -128.064,-35.604 -127.716,-36.756 -127.356,-37.908 -126.996,-39.048 -126.624,-40.188 -126.228,-41.328 -125.832,-42.468 -125.412,-43.596 -125.004,-44.724 -124.56,-45.852 -124.116,-46.968 -123.672,-48.084 -123.204,-49.188 -122.724,-50.292 -122.244,-51.396 -121.74,-52.488 -121.236,-53.58 -120.72,-54.672"/>
<polygon id="0000022F4499C3D0" class="l2d0" points="-117.48,-53.112 -117.984,-52.044 -118.488,-50.964 -118.968,-49.896 -119.448,-48.804 -119.904,-47.724 -120.372,-46.632 -120.804,-45.54 -121.248,-44.448 -121.668,-43.332 -122.088,-42.24 -122.484,-41.124 -122.88,-40.008 -123.252,-38.892 -123.624,-37.764 -123.984,-36.636 -124.332,-35.508 -124.68,-34.38 -125.004,-33.24 -125.316,-32.1 -125.616,-30.972 -125.916,-29.82 -126.192,-28.68 -126.468,-27.528 -126.732,-26.376 -126.972,-25.212 -127.212,-24.06 -127.44,-22.908 -127.656,-21.732 -127.86,-20.58 -128.052,-19.416 -128.232,-18.24 -128.4,-17.076 -128.568,-15.9 -128.712,-14.736 -128.844,-13.56 -128.976,-12.384 -129.084,-11.208 -129.192,-10.032 -129.276,-8.856 -129.36,-7.68 -129.432,-6.492 -129.48,-5.316 -129.528,-4.128 -129.564,-2.952 -129.588,-1.776 -129.6,-0.588 -129.6,0.588 -129.588,1.776 -129.564,2.952 -129.528,4.128 -129.48,5.316 -129.432,6.492 -129.36,7.68 -129.276,8.856 -129.192,10.032 -129.084,11.208 -128.976,12.384 -128.844,13.56 -128.712,14.736 -128.568,15.9 -128.4,17.076 -128.232,18.24 -128.052,19.416 -127.86,20.58 -127.656,21.732 -127.44,22.908 -127.212,24.06 -126.972,25.212 -126.732,26.376 -126.468,27.528 -126.192,28.68 -125.916,29.82 -125.616,30.972 -125.316,32.1 -125.004,33.24 -124.68,34.38 -124.332,35.508 -123.984,36.636 -123.624,37.764 -123.252,38.892 -122.88,40.008 -122.484,41.124 -122.088,42.24 -121.668,43.332 -121.248,44.448 -120.804,45.54 -120.372,46.632 -119.904,47.724 -119.448,48.804 -118.968,49.896 -118.488,50.964 -117.984,52.044 -117.48,53.112 -114.24,51.54 -114.744,50.484 -115.224,49.416 -115.716,48.36 -116.184,47.28 -116.652,46.212 -117.096,45.12 -117.528,44.04 -117.96,42.948 -118.38,41.856 -118.788,40.752 -119.184,39.648 -119.568,38.544 -119.94,37.428 -120.312,36.324 -120.66,35.196 -121.008,34.08 -121.332,32.964 -121.656,31.836 -121.968,30.696 -122.268,29.568 -122.556,28.428 -122.82,27.288 -123.084,26.148 -123.336,25.008 -123.576,23.856 -123.816,22.704 -124.032,21.552 -124.236,20.4 -124.428,19.248 -124.62,18.096 -124.788,16.932 -124.944,15.78 -125.1,14.604 -125.232,13.452 -125.364,12.288 -125.484,11.112 -125.58,9.948 -125.676,8.784 -125.76,7.608 -125.832,6.444 -125.88,5.268 -125.928,4.104 -125.964,2.928 -125.988,1.752 -126,0.588 -126,-0.588 -125.988,-1.752 -125.964,-2.928 -125.928,-4.104 -125.88,-5.268 -125.832,-6.444 -125.76,-7.608 -125.676,-8.784 -125.58,-9.948 -125.484,-11.112 -125.364,-12.288 -125.232,-13.452 -125.1,-14.604 -124.944,-15.78 -124.788,-16.932 -124.62,-18.096 -124.428,-19.248 -124.236,-20.4 -124.032,-21.552 -123.816,-22.704 -123.576,-23.856 -123.336,-25.008 -123.084,-26.148 -122.82,-27.288 -122.556,-28.428 -122.268,-29.568 -121.968,-30.696 -121.656,-31.836 -121.332,-32.964 -121.008,-34.08 -120.66,-35.196 -120.312,-36.324 -119.94,-37.428 -119.568,-38.544 -119.184,-39.648 -118.788,-40.752 -118.38,-41.856 -117.96,-42.948 -117.528,-44.04 -117.096,-45.12 -116.652,-46.212 -116.184,-47.28 -115.716,-48.36 -115.224,-49.416 -114.744,-50.484 -114.24,-51.54"/>
<polygon id="0000022F4499C7C0" class="l2d0" points="-111,-49.98 -111.48,-48.948 -111.972,-47.904 -112.44,-46.86 -112.908,-45.804 -113.352,-44.748 -113.796,-43.692 -114.228,-42.624 -114.648,-41.556 -115.056,-40.476 -115.452,-39.396 -115.836,-38.316 -116.22,-37.236 -116.58,-36.144 -116.94,-35.052 -117.276,-33.96 -117.612,-32.856 -117.936,-31.752 -118.248,-30.648 -118.548,-29.544 -118.836,-28.428 -119.112,-27.312 -119.388,-26.196 -119.64,-25.08 -119.88,-23.952 -120.12,-22.824 -120.336,-21.696 -120.552,-20.568 -120.756,-19.44 -120.936,-18.3 -121.116,-17.172 -121.272,-16.032 -121.44,-14.892 -121.584,-13.752 -121.704,-12.612 -121.824,-11.472 -121.944,-10.32 -122.028,-9.18 -122.124,-8.04 -122.196,-6.888 -122.256,-5.748 -122.304,-4.596 -122.352,-3.444 -122.376,-2.292 -122.388,-1.152 -122.4,0 -122.388,1.152 -122.376,2.292 -122.352,3.444 -122.304,4.596 -122.256,5.748 -122.196,6.888 -122.124,8.04 -122.028,9.18 -121.944,10.32 -121.824,11.472 -121.704,12.612 -121.584,13.752 -121.44,14.892 -121.272,16.032 -121.116,17.172 -120.936,18.3 -120.756,19.44 -120.552,20.568 -120.336,21.696 -120.12,22.824 -119.88,23.952 -119.64,25.08 -119.388,26.196 -119.112,27.312 -118.836,28.428 -118.548,29.544 -118.248,30.648 -117.936,31.752 -117.612,32.856 -117.276,33.96 -116.94,35.052 -116.58,36.144 -116.22,37.236 -115.836,38.316 -115.452,39.396 -115.056,40.476 -114.648,41.556 -114.228,42.624 -113.796,43.692 -113.352,44.748 -112.908,45.804 -112.44,46.86 -111.972,47.904 -111.48,48.948 -111,49.98 -107.748,48.42 -108.24,47.388 -108.708,46.356 -109.176,45.324 -109.644,44.28 -110.088,43.236 -110.52,42.18 -110.94,41.124 -111.36,40.068 -111.768,39 -112.152,37.932 -112.536,36.852 -112.908,35.784 -113.268,34.704 -113.616,33.612 -113.952,32.532 -114.276,31.44 -114.6,30.348 -114.9,29.256 -115.188,28.152 -115.476,27.048 -115.74,25.944 -116.004,24.828 -116.256,23.724 -116.484,22.608 -116.712,21.492 -116.916,20.376 -117.132,19.248 -117.312,18.132 -117.492,17.004 -117.66,15.888 -117.816,14.748 -117.96,13.62 -118.104,12.492 -118.212,11.364 -118.332,10.236 -118.428,9.096 -118.524,7.968 -118.596,6.828 -118.656,5.688 -118.704,4.548 -118.752,3.408 -118.776,2.28 -118.788,1.14 -118.8,0 -118.788,-1.14 -118.776,-2.28 -118.752,-3.408 -118.704,-4.548 -118.656,-5.688 -118.596,-6.828 -118.524,-7.968 -118.428,-9.096 -118.332,-10.236 -118.212,-11.364 -118.104,-12.492 -117.96,-13.62 -117.816,-14.748 -117.66,-15.888 -117.492,-17.004 -117.312,-18.132 -117.132,-19.248 -116.916,-20.376 -116.712,-21.492 -116.484,-22.608 -116.256,-23.724 -116.004,-24.828 -115.74,-25.944 -115.476,-27.048 -115.188,-28.152 -114.9,-29.256 -114.6,-30.348 -114.276,-31.44 -113.952,-32.532 -113.616,-33.612 -113.268,-34.704 -112.908,-35.784 -112.536,-36.852 -112.152,-37.932 -111.768,-39 -111.36,-40.068 -110.94,-41.124 -110.52,-42.18 -110.088,-43.236 -109.644,-44.28 -109.176,-45.324 -108.708,-46.356 -108.24,-47.388 -107.748,-48.42"/>
<polygon id="0000022F4499C210" class="l2d0" points="-104.508,-46.86 -104.988,-45.852 -105.456,-44.844 -105.9,-43.824 -106.356,-42.804 -106.788,-41.784 -107.22,-40.752 -107.628,-39.72 -108.036,-38.676 -108.432,-37.632 -108.816,-36.588 -109.188,-35.544 -109.548,-34.488 -109.896,-33.432 -110.244,-32.364 -110.568,-31.296 -110.88,-30.228 -111.192,-29.16 -111.48,-28.092 -111.768,-27.012 -112.044,-25.932 -112.308,-24.852 -112.548,-23.76 -112.8,-22.668 -113.016,-21.576 -113.244,-20.496 -113.448,-19.392 -113.64,-18.3 -113.82,-17.196 -113.988,-16.104 -114.156,-14.988 -114.3,-13.884 -114.444,-12.792 -114.564,-11.676 -114.684,-10.572 -114.78,-9.456 -114.876,-8.352 -114.96,-7.236 -115.032,-6.132 -115.08,-5.016 -115.128,-3.9 -115.164,-2.784 -115.188,-1.668 -115.2,-0.552 -115.2,0.552 -115.188,1.668 -115.164,2.784 -115.128,3.9 -115.08,5.016 -115.032,6.132 -114.96,7.236 -114.876,8.352 -114.78,9.456 -114.684,10.572 -114.564,11.676 -114.444,12.792 -114.3,13.884 -114.156,14.988 -113.988,16.104 -113.82,17.196 -113.64,18.3 -113.448,19.392 -113.244,20.496 -113.016,21.576 -112.8,22.668 -112.548,23.76 -112.308,24.852 -112.044,25.932 -111.768,27.012 -111.48,28.092 -111.192,29.16 -110.88,30.228 -110.568,31.296 -110.244,32.364 -109.896,33.432 -109.548,34.488 -109.188,35.544 -108.816,36.588 -108.432,37.632 -108.036,38.676 -107.628,39.72 -107.22,40.752 -106.788,41.784 -106.356,42.804 -105.9,43.824 -105.456,44.844 -104.988,45.852 -104.508,46.86 -101.256,45.3 -101.736,44.304 -102.192,43.296 -102.648,42.288 -103.092,41.28 -103.524,40.272 -103.944,39.252 -104.352,38.22 -104.748,37.2 -105.132,36.168 -105.504,35.124 -105.876,34.092 -106.224,33.048 -106.572,31.992 -106.908,30.948 -107.232,29.892 -107.544,28.836 -107.832,27.78 -108.12,26.712 -108.408,25.644 -108.672,24.576 -108.924,23.496 -109.164,22.416 -109.392,21.348 -109.608,20.268 -109.824,19.176 -110.016,18.096 -110.208,17.016 -110.376,15.924 -110.544,14.832 -110.688,13.74 -110.832,12.648 -110.964,11.544 -111.072,10.452 -111.18,9.36 -111.276,8.256 -111.36,7.152 -111.432,6.06 -111.48,4.956 -111.528,3.864 -111.564,2.76 -111.588,1.656 -111.6,0.552 -111.6,-0.552 -111.588,-1.656 -111.564,-2.76 -111.528,-3.864 -111.48,-4.956 -111.432,-6.06 -111.36,-7.152 -111.276,-8.256 -111.18,-9.36 -111.072,-10.452 -110.964,-11.544 -110.832,-12.648 -110.688,-13.74 -110.544,-14.832 -110.376,-15.924 -110.208,-17.016 -110.016,-18.096 -109.824,-19.176 -109.608,-20.268 -109.392,-21.348 -109.164,-22.416 -108.924,-23.496 -108.672,-24.576 -108.408,-25.644 -108.12,-26.712 -107.832,-27.78 -107.544,-28.836 -107.232,-29.892 -106.908,-30.948 -106.572,-31.992 -106.224,-33.048 -105.876,-34.092 -105.504,-35.124 -105.132,-36.168 -104.748,-37.2 -104.352,-38.22 -103.944,-39.252 -103.524,-40.272 -103.092,-41.28 -102.648,-42.288 -102.192,-43.296 -101.736,-44.304 -101.256,-45.3"/>
<polygon id="0000022F4499C050" class="l2d0" points="-98.016,-43.728 -98.484,-42.756 -98.928,-41.784 -99.372,-40.8 -99.804,-39.816 -100.224,-38.82 -100.632,-37.824 -101.028,-36.828 -101.424,-35.82 -101.796,-34.812 -102.156,-33.792 -102.516,-32.784 -102.864,-31.764 -103.2,-30.732 -103.524,-29.712 -103.836,-28.68 -104.136,-27.648 -104.424,-26.616 -104.7,-25.572 -104.964,-24.528 -105.228,-23.484 -105.468,-22.428 -105.708,-21.372 -105.924,-20.328 -106.14,-19.272 -106.344,-18.204 -106.536,-17.148 -106.716,-16.08 -106.872,-15.024 -107.028,-13.956 -107.172,-12.888 -107.304,-11.82 -107.424,-10.752 -107.532,-9.672 -107.628,-8.604 -107.724,-7.536 -107.796,-6.456 -107.856,-5.388 -107.904,-4.308 -107.952,-3.228 -107.976,-2.148 -107.988,-1.08 -108,0 -107.988,1.08 -107.976,2.148 -107.952,3.228 -107.904,4.308 -107.856,5.388 -107.796,6.456 -107.724,7.536 -107.628,8.604 -107.532,9.672 -107.424,10.752 -107.304,11.82 -107.172,12.888 -107.028,13.956 -106.872,15.024 -106.716,16.08 -106.536,17.148 -106.344,18.204 -106.14,19.272 -105.924,20.328 -105.708,21.372 -105.468,22.428 -105.228,23.484 -104.964,24.528 -104.7,25.572 -104.424,26.616 -104.136,27.648 -103.836,28.68 -103.524,29.712 -103.2,30.732 -102.864,31.764 -102.516,32.784 -102.156,33.792 -101.796,34.812 -101.424,35.82 -101.028,36.828 -100.632,37.824 -100.224,38.82 -99.804,39.816 -99.372,40.8 -98.928,41.784 -98.484,42.756 -98.016,43.728 -94.776,42.168 -95.232,41.208 -95.676,40.248 -96.108,39.276 -96.54,38.292 -96.948,37.32 -97.356,36.336 -97.752,35.34 -98.124,34.356 -98.496,33.36 -98.856,32.352 -99.204,31.344 -99.54,30.336 -99.876,29.328 -100.188,28.308 -100.488,27.288 -100.788,26.268 -101.064,25.248 -101.328,24.216 -101.592,23.184 -101.844,22.152 -102.084,21.108 -102.3,20.076 -102.516,19.032 -102.72,17.988 -102.912,16.932 -103.092,15.888 -103.26,14.844 -103.416,13.788 -103.56,12.732 -103.692,11.676 -103.812,10.62 -103.932,9.564 -104.028,8.508 -104.112,7.44 -104.196,6.384 -104.256,5.316 -104.304,4.26 -104.352,3.192 -104.376,2.136 -104.388,1.068 -104.4,0 -104.388,-1.068 -104.376,-2.136 -104.352,-3.192 -104.304,-4.26 -104.256,-5.316 -104.196,-6.384 -104.112,-7.44 -104.028,-8.508 -103.932,-9.564 -103.812,-10.62 -103.692,-11.676 -103.56,-12.732 -103.416,-13.788 -103.26,-14.844 -103.092,-15.888 -102.912,-16.932 -102.72,-17.988 -102.516,-19.032 -102.3,-20.076 -102.084,-21.108 -101.844,-22.152 -101.592,-23.184 -101.328,-24.216 -101.064,-25.248 -100.788,-26.268 -100.488,-27.288 -100.188,-28.308 -99.876,-29.328 -99.54,-30.336 -99.204,-31.344 -98.856,-32.352 -98.496,-33.36 -98.124,-34.356 -97.752,-35.34 -97.356,-36.336 -96.948,-37.32 -96.54,-38.292 -96.108,-39.276 -95.676,-40.248 -95.232,-41.208 -94.776,-42.168"/>
</g>
</defs>
<rect x="-443.52" y="-290.817597" width="887.04" height="424.857597" fill="none" stroke="none"/>
<g id="RingResCircuit" transform="scale(1 -1)">
<use transform="translate(0 0)" xlink:href="#RingResonator"/>
<use transform="translate(-180 0)" xlink:href="#GC"/>
<use transform="translate(180 0) rotate(180)" xlink:href="#GC"/>
<use transform="translate(0 0)" xlink:href="#RingResCircuit_route0"/>
<use transform="translate(0 0)" xlink:href="#RingResCircuit_route1"/>
</g>
</svg>