<?xml version="1.0" encoding="UTF-8"?>
<svg xmlns="http://www.w3.org/2000/svg" xmlns:xlink="http://www.w3.org/1999/xlink" width="138.717539" height="146.51934" viewBox="-69.357569 -137.15937 138.717539 146.51934">
<defs>
<style type="text/css">
.l0d0 {fill:darkorange;stroke:chocolate;}
</style>
</defs>
<rect x="-69.357569" y="-137.15937" width="138.717539" height="146.51934" fill="none" stroke="none"/>
<g id="RingRes" transform="scale(1 -1)">
<polygon id="000001A611F43210" class="l0d0" points="62.7,67.8 62.690397,68.897314 62.661592,69.994291 62.613593,71.090597 62.546414,72.185894 62.460077,73.279848 62.354608,74.372124 62.23004,75.462386 62.086409,76.550301 61.923761,77.635536 61.742146,78.717759 61.541618,79.796637 61.322239,80.87184 61.084077,81.94304 60.827204,83.009907 60.551699,84.072116 60.257647,85.12934 59.945137,86.181256 59.614265,87.227541 59.265134,88.267876 58.897848,89.301941 58.512522,90.32942 58.109273,91.349998 57.688224,92.363363 57.249505,93.369203 56.79325,94.367212 56.319599,95.357082 55.828696,96.338512 55.320693,97.3112 54.795744,98.274849 54.254011,99.229162 53.69566,100.173849 53.120861,101.10862 52.529791,102.033187 51.92263,102.947269 51.299565,103.850585 50.660786,104.742858 50.00649,105.623815 49.336876,106.493187 48.65215,107.350706 47.952521,108.196111 47.238204,109.029142 46.509417,109.849544 45.766384,110.657066 45.009333,111.45146 44.238494,112.232484 43.454106,112.999897 42.656406,113.753466 41.845641,114.492958 41.022058,115.218148 40.185909,115.928813 39.337452,116.624736 38.476945,117.305704 37.604652,117.971508 36.72084,118.621943 35.82578,119.256812 34.919747,119.875918 34.003017,120.479074 33.075872,121.066093 32.138596,121.636796 31.191475,122.191009 30.2348,122.728561 29.268864,123.249289 28.293962,123.753031 27.310394,124.239635 26.318461,124.70895 25.318465,125.160834 24.310715,125.595148 23.295518,126.011759 22.273185,126.410538 21.24403,126.791365 20.208368,127.154123 19.166515,127.498699 18.118792,127.82499 17.065519,128.132894 16.007018,128.422317 14.943614,128.693172 13.875633,128.945374 12.803402,129.178847 11.727249,129.393519 10.647504,129.589325 9.564497,129.766204 8.478561,129.924102 7.390027,130.06297 6.29923,130.182768 5.206504,130.283456 4.112183,130.365006 3.016602,130.427391 1.920097,130.470593 0.823004,130.494598 -0.274342,130.4994 -1.371603,130.484996 -2.468444,130.451391 -3.564529,130.398595 -4.659522,130.326625 -5.753087,130.235503 -6.844891,130.125255 -7.934598,129.995918 -9.021874,129.847528 -10.106387,129.680134 -11.187805,129.493784 -12.265795,129.288538 -13.340029,129.064457 -14.410176,128.82161 -15.475909,128.560071 -16.536902,128.279921 -17.592829,127.981246 -18.643367,127.664137 -19.688195,127.32869 -20.726992,126.97501 -21.759441,126.603203 -22.785224,126.213385 -23.804028,125.805674 -24.81554,125.380196 -25.819452,124.93708 -26.815454,124.476463 -27.803243,123.998485 -28.782515,123.503293 -29.752971,122.991038 -30.714314,122.461878 -31.666248,121.915975 -32.608483,121.353495 -33.540729,120.774612 -34.462702,120.179502 -35.374118,119.568347 -36.274699,118.941336 -37.164169,118.298659 -38.042255,117.640514 -38.908688,116.967103 -39.763203,116.278631 -40.605538,115.57531 -41.435436,114.857355 -42.252641,114.124986 -43.056905,113.378427 -43.847979,112.617907 -44.625622,111.843658 -45.389596,111.055919 -46.139667,110.25493 -46.875605,109.440937 -47.597185,108.614189 -48.304185,107.774939 -48.996389,106.923444 -49.673585,106.059966 -50.335565,105.184768 -50.982127,104.298119 -51.613073,103.40029 -52.22821,102.491556 -52.827348,101.572197 -53.410305,100.642492 -53.976902,99.702727 -54.526966,98.753191 -55.060327,97.794173 -55.576823,96.825967 -56.076295,95.848871 -56.55859,94.863183 -57.023561,93.869206 -57.471065,92.867243 -57.900965,91.857602 -58.31313,90.840591 -58.707433,89.816524 -59.083753,88.785712 -59.441975,87.748472 -59.78199,86.705122 -60.103693,85.655981 -60.406986,84.601371 -60.691775,83.541614 -60.957974,82.477036 -61.205501,81.407961 -61.434281,80.334719 -61.644242,79.257637 -61.835321,78.177045 -62.00746,77.093275 -62.160605,76.006658 -62.294709,74.917527 -62.409733,73.826217 -62.505639,72.73306 -62.5824,71.638392 -62.639991,70.542549 -62.678394,69.445865 -62.697599,68.348678 -62.697599,67.251322 -62.678394,66.154135 -62.639991,65.057451 -62.5824,63.961608 -62.505639,62.86694 -62.409733,61.773783 -62.294709,60.682473 -62.160605,59.593342 -62.00746,58.506725 -61.835321,57.422955 -61.644242,56.342363 -61.434281,55.265281 -61.205501,54.192039 -60.957974,53.122964 -60.691775,52.058386 -60.406986,50.998629 -60.103693,49.944019 -59.78199,48.894878 -59.441975,47.851528 -59.083753,46.814288 -58.707433,45.783476 -58.31313,44.759409 -57.900965,43.742398 -57.471065,42.732757 -57.023561,41.730794 -56.55859,40.736817 -56.076295,39.751129 -55.576823,38.774033 -55.060327,37.805827 -54.526966,36.846809 -53.976902,35.897273 -53.410305,34.957508 -52.827348,34.027803 -52.22821,33.108444 -51.613073,32.19971 -50.982127,31.301881 -50.335565,30.415232 -49.673585,29.540034 -48.996389,28.676556 -48.304185,27.825061 -47.597185,26.985811 -46.875605,26.159063 -46.139667,25.34507 -45.389596,24.544081 -44.625622,23.756342 -43.847979,22.982093 -43.056905,22.221573 -42.252641,21.475014 -41.435436,20.742645 -40.605538,20.02469 -39.763203,19.321369 -38.908688,18.632897 -38.042255,17.959486 -37.164169,17.301341 -36.274699,16.658664 -35.374118,16.031653 -34.462702,15.420498 -33.540729,14.825388 -32.608483,14.246505 -31.666248,13.684025 -30.714314,13.138122 -29.752971,12.608962 -28.782515,12.096707 -27.803243,11.601515 -26.815454,11.123537 -25.819452,10.66292 -24.81554,10.219804 -23.804028,9.794326 -22.785224,9.386615 -21.759441,8.996797 -20.726992,8.62499 -19.688195,8.27131 -18.643367,7.935863 -17.592829,7.618754 -16.536902,7.320079 -15.475909,7.039929 -14.410176,6.77839 -13.340029,6.535543 -12.265795,6.311462 -11.187805,6.106216 -10.106387,5.919866 -9.021874,5.752472 -7.934598,5.604082 -6.844891,5.474745 -5.753087,5.364497 -4.659522,5.273375 -3.564529,5.201405 -2.468444,5.148609 -1.371603,5.115004 -0.274342,5.1006 0.823004,5.105402 1.920097,5.129407 3.016602,5.172609 4.112183,5.234994 5.206504,5.316544 6.29923,5.417232 7.390027,5.53703 8.478561,5.675898 9.564497,5.833796 10.647504,6.010675 11.727249,6.206481 12.803402,6.421153 13.875633,6.654626 14.943614,6.906828 16.007018,7.177683 17.065519,7.467106 18.118792,7.77501 19.166515,8.101301 20.208368,8.445877 21.24403,8.808635 22.273185,9.189462 23.295518,9.588241 24.310715,10.004852 25.318465,10.439166 26.318461,10.89105 27.310394,11.360365 28.293962,11.846969 29.268864,12.350711 30.2348,12.871439 31.191475,13.408991 32.138596,13.963204 33.075872,14.533907 34.003017,15.120926 34.919747,15.724082 35.82578,16.343188 36.72084,16.978057 37.604652,17.628492 38.476945,18.294296 39.337452,18.975264 40.185909,19.671187 41.022058,20.381852 41.845641,21.107042 42.656406,21.846534 43.454106,22.600103 44.238494,23.367516 45.009333,24.14854 45.766384,24.942934 46.509417,25.750456 47.238204,26.570858 47.952521,27.403889 48.65215,28.249294 49.336876,29.106813 50.00649,29.976185 50.660786,30.857142 51.299565,31.749415 51.92263,32.652731 52.529791,33.566813 53.120861,34.49138 53.69566,35.426151 54.254011,36.370838 54.795744,37.325151 55.320693,38.2888 55.828696,39.261488 56.319599,40.242918 56.79325,41.232788 57.249505,42.230797 57.688224,43.236637 58.109273,44.250002 58.512522,45.27058 58.897848,46.298059 59.265134,47.332124 59.614265,48.372459 59.945137,49.418744 60.257647,50.47066 60.551699,51.527884 60.827204,52.590093 61.084077,53.65696 61.322239,54.72816 61.541618,55.803363 61.742146,56.882241 61.923761,57.964464 62.086409,59.049699 62.23004,60.137614 62.354608,61.227876 62.460077,62.320152 62.546414,63.414106 62.613593,64.509403 62.661592,65.605709 62.690397,66.702686 62.7,67.8 57.3,67.8 57.290386,66.750419 57.261549,65.70119 57.213497,64.652665 57.146248,63.605196 57.059822,62.559135 56.954251,61.514832 56.829568,60.472639 56.685816,59.432904 56.523043,58.395976 56.341303,57.362205 56.140658,56.331935 55.921175,55.305514 55.682928,54.283285 55.425996,53.265592 55.150465,52.252776 54.856429,51.245177 54.543986,50.243133 54.213241,49.24698 53.864304,48.257053 53.497292,47.273683 53.11233,46.297201 52.709546,45.327934 52.289075,44.366207 51.851058,43.412344 51.395643,42.466665 50.922982,41.529486 50.433233,40.601122 49.926562,39.681884 49.403137,38.772082 48.863136,37.87202 48.306738,36.982001 47.73413,36.102322 47.145506,35.23328 46.541062,34.375165 45.921001,33.528267 45.28553,32.692868 44.634865,31.869249 43.969222,31.057687 43.288825,30.258454 42.593902,29.471819 41.884687,28.698044 41.161418,27.93739 40.424336,27.190112 39.673691,26.45646 38.909732,25.736682 38.132718,25.031018 37.342908,24.339705 36.540567,23.662975 35.725966,23.001056 34.899376,22.354169 34.061076,21.722531 33.211346,21.106355 32.350473,20.505847 31.478744,19.921208 30.596452,19.352636 29.703894,18.80032 28.801369,18.264445 27.889179,17.745193 26.967631,17.242737 26.037034,16.757245 25.0977,16.28888 24.149945,15.8378 23.194086,15.404157 22.230444,14.988094 21.259343,14.589753 20.281108,14.209267 19.296067,13.846763 18.304552,13.502363 17.306895,13.176183 16.303431,12.868332 15.294496,12.578913 14.280428,12.308024 13.261569,12.055756 12.23826,11.822192 11.210845,11.607412 10.179667,11.411487 9.145074,11.234484 8.107412,11.076461 7.06703,10.937472 6.024276,10.817563 4.979501,10.716775 3.933055,10.635141 2.885289,10.572689 1.836555,10.52944 0.787205,10.505408 -0.262409,10.500601 -1.311935,10.515021 -2.361021,10.548663 -3.409315,10.601516 -4.456465,10.673562 -5.502119,10.764777 -6.545928,10.87513 -7.587539,11.004584 -8.626605,11.153096 -9.662776,11.320616 -10.695705,11.507088 -11.725044,11.712449 -12.75045,11.936631 -13.771576,12.179557 -14.788082,12.441147 -15.799626,12.721312 -16.805868,13.01996 -17.806471,13.336989 -18.801099,13.672293 -19.789418,14.025759 -20.771096,14.39727 -21.745805,14.7867 -22.713217,15.193919 -23.673008,15.61879 -24.624855,16.06117 -25.568439,16.520912 -26.503444,16.99786 -27.429555,17.491855 -28.346463,18.002731 -29.253858,18.530316 -30.151438,19.074434 -31.0389,19.634902 -31.915947,20.211532 -32.782285,20.80413 -33.637622,21.412498 -34.481672,22.036431 -35.314152,22.67572 -36.134782,23.33015 -36.943287,23.999503 -37.739396,24.683553 -38.522841,25.382071 -39.29336,26.094822 -40.050694,26.821567 -40.794588,27.562063 -41.524794,28.316061 -42.241067,29.083307 -42.943165,29.863545 -43.630853,30.656513 -44.303902,31.461944 -44.962084,32.279569 -45.605178,33.109112 -46.23297,33.950296 -46.845249,34.802838 -47.441808,35.666453 -48.022448,36.54085 -48.586975,37.425736 -49.135197,38.320815 -49.666933,39.225785 -50.182002,40.140343 -50.680233,41.064182 -51.161458,41.996993 -51.625516,42.938462 -52.072251,43.888273 -52.501513,44.846108 -52.913158,45.811645 -53.307047,46.78456 -53.68305,47.764527 -54.041039,48.751217 -54.380894,49.744299 -54.702502,50.74344 -55.005755,51.748303 -55.29055,52.758553 -55.556792,53.773851 -55.804392,54.793854 -56.033267,55.818222 -56.24334,56.846611 -56.43454,57.878674 -56.606803,58.914067 -56.760073,59.952442 -56.894296,60.99345 -57.009428,62.036742 -57.10543,63.081968 -57.182271,64.128776 -57.239924,65.176817 -57.27837,66.225738 -57.297597,67.275187 -57.297597,68.324813 -57.27837,69.374262 -57.239924,70.423183 -57.182271,71.471224 -57.10543,72.518032 -57.009428,73.563258 -56.894296,74.60655 -56.760073,75.647558 -56.606803,76.685933 -56.43454,77.721326 -56.24334,78.753389 -56.033267,79.781778 -55.804392,80.806146 -55.556792,81.826149 -55.29055,82.841447 -55.005755,83.851697 -54.702502,84.85656 -54.380894,85.855701 -54.041039,86.848783 -53.68305,87.835473 -53.307047,88.81544 -52.913158,89.788355 -52.501513,90.753892 -52.072251,91.711727 -51.625516,92.661538 -51.161458,93.603007 -50.680233,94.535818 -50.182002,95.459657 -49.666933,96.374215 -49.135197,97.279185 -48.586975,98.174264 -48.022448,99.05915 -47.441808,99.933547 -46.845249,100.797162 -46.23297,101.649704 -45.605178,102.490888 -44.962084,103.320431 -44.303902,104.138056 -43.630853,104.943487 -42.943165,105.736455 -42.241067,106.516693 -41.524794,107.283939 -40.794588,108.037937 -40.050694,108.778433 -39.29336,109.505178 -38.522841,110.217929 -37.739396,110.916447 -36.943287,111.600497 -36.134782,112.26985 -35.314152,112.92428 -34.481672,113.563569 -33.637622,114.187502 -32.782285,114.79587 -31.915947,115.388468 -31.0389,115.965098 -30.151438,116.525566 -29.253858,117.069684 -28.346463,117.597269 -27.429555,118.108145 -26.503444,118.60214 -25.568439,119.079088 -24.624855,119.53883 -23.673008,119.98121 -22.713217,120.406081 -21.745805,120.8133 -20.771096,121.20273 -19.789418,121.574241 -18.801099,121.927707 -17.806471,122.263011 -16.805868,122.58004 -15.799626,122.878688 -14.788082,123.158853 -13.771576,123.420443 -12.75045,123.663369 -11.725044,123.887551 -10.695705,124.092912 -9.662776,124.279384 -8.626605,124.446904 -7.587539,124.595416 -6.545928,124.72487 -5.502119,124.835223 -4.456465,124.926438 -3.409315,124.998484 -2.361021,125.051337 -1.311935,125.084979 -0.262409,125.099399 0.787205,125.094592 1.836555,125.07056 2.885289,125.027311 3.933055,124.964859 4.979501,124.883225 6.024276,124.782437 7.06703,124.662528 8.107412,124.523539 9.145074,124.365516 10.179667,124.188513 11.210845,123.992588 12.23826,123.777808 13.261569,123.544244 14.280428,123.291976 15.294496,123.021087 16.303431,122.731668 17.306895,122.423817 18.304552,122.097637 19.296067,121.753237 20.281108,121.390733 21.259343,121.010247 22.230444,120.611906 23.194086,120.195843 24.149945,119.7622 25.0977,119.31112 26.037034,118.842755 26.967631,118.357263 27.889179,117.854807 28.801369,117.335555 29.703894,116.79968 30.596452,116.247364 31.478744,115.678792 32.350473,115.094153 33.211346,114.493645 34.061076,113.877469 34.899376,113.245831 35.725966,112.598944 36.540567,111.937025 37.342908,111.260295 38.132718,110.568982 38.909732,109.863318 39.673691,109.14354 40.424336,108.409888 41.161418,107.66261 41.884687,106.901956 42.593902,106.128181 43.288825,105.341546 43.969222,104.542313 44.634865,103.730751 45.28553,102.907132 45.921001,102.071733 46.541062,101.224835 47.145506,100.36672 47.73413,99.497678 48.306738,98.617999 48.863136,97.72798 49.403137,96.827918 49.926562,95.918116 50.433233,94.998878 50.922982,94.070514 51.395643,93.133335 51.851058,92.187656 52.289075,91.233793 52.709546,90.272066 53.11233,89.302799 53.497292,88.326317 53.864304,87.342947 54.213241,86.35302 54.543986,85.356867 54.856429,84.354823 55.150465,83.347224 55.425996,82.334408 55.682928,81.316715 55.921175,80.294486 56.140658,79.268065 56.341303,78.237795 56.523043,77.204024 56.685816,76.167096 56.829568,75.127361 56.954251,74.085168 57.059822,73.040865 57.146248,71.994804 57.213497,70.947335 57.261549,69.89881 57.290386,68.849581 57.3,67.8"/>
<polygon id="000001A611F429C0" class="l0d0" points="-60,-2.7 60,-2.7 60,2.7 -60,2.7"/>
</g>
</svg>