<?xml version="1.0" encoding="UTF-8"?>
<svg xmlns="http://www.w3.org/2000/svg" xmlns:xlink="http://www.w3.org/1999/xlink" width="173.396924" height="183.149175" viewBox="-86.696962 -171.449212 173.396924 183.149175">
<defs>
<style type="text/css">
.l0d0 {fill:darkorange;stroke:chocolate;}
</style>
</defs>
<rect x="-86.696962" y="-171.449212" width="173.396924" height="183.149175" fill="none" stroke="none"/>
<g id="RingRes" transform="scale(1 -1)">
<polygon id="000001ECC2F74BB0" class="l0d0" points="78.375,84.75 78.362997,86.121642 78.32699,87.492864 78.266991,88.863246 78.183018,90.232368 78.075097,91.59981 77.943261,92.965155 77.78755,94.327983 77.608012,95.687877 77.404702,97.044421 77.177682,98.397199 76.927022,99.745796 76.652799,101.089801 76.355096,102.4288 76.034005,103.762384 75.689624,105.090144 75.322058,106.411675 74.931421,107.726569 74.517832,109.034426 74.081417,110.334845 73.62231,111.627426 73.140652,112.911775 72.636591,114.187498 72.11028,115.454203 71.561881,116.711504 70.991563,117.959015 70.399499,119.196353 69.78587,120.42314 69.150866,121.639 68.49468,122.843561 67.817514,124.036453 67.119575,125.217312 66.401076,126.385775 65.662238,127.541484 64.903287,128.684086 64.124456,129.813231 63.325983,130.928572 62.508112,132.029769 61.671095,133.116483 60.815187,134.188382 59.940651,135.245138 59.047755,136.286427 58.136771,137.31193 57.20798,138.321332 56.261666,139.314325 55.298118,140.290605 54.317632,141.249872 53.320508,142.191832 52.307051,143.116198 51.277572,144.022685 50.232387,144.911017 49.171815,145.780921 48.096181,146.63213 47.005814,147.464385 45.90105,148.277429 44.782225,149.071015 43.649684,149.844898 42.503772,150.598842 41.34484,151.332616 40.173245,152.045996 38.989344,152.738761 37.7935,153.410702 36.58608,154.061611 35.367453,154.691289 34.137993,155.299543 32.898076,155.886188 31.648082,156.451043 30.388394,156.993935 29.119397,157.514698 27.841481,158.013173 26.555037,158.489207 25.260459,158.942653 23.958144,159.373374 22.64849,159.781237 21.331898,160.166117 20.008773,160.527897 18.679518,160.866465 17.344542,161.181718 16.004253,161.473559 14.659061,161.741899 13.30938,161.986656 11.955622,162.207755 10.598201,162.405127 9.237534,162.578713 7.874038,162.72846 6.50813,162.85432 5.140228,162.956257 3.770752,163.034239 2.400121,163.088241 1.028755,163.118248 -0.342927,163.12425 -1.714503,163.106245 -3.085555,163.064239 -4.455661,162.998244 -5.824402,162.908281 -7.191359,162.794378 -8.556114,162.656569 -9.918247,162.494897 -11.277343,162.309411 -12.632984,162.100167 -13.984756,161.86723 -15.332244,161.610672 -16.675036,161.330571 -18.01272,161.027012 -19.344886,160.700089 -20.671127,160.349902 -21.991036,159.976558 -23.304209,159.580171 -24.610244,159.160863 -25.908741,158.718762 -27.199301,158.254004 -28.48153,157.766731 -29.755035,157.257093 -31.019425,156.725245 -32.274315,156.17135 -33.519318,155.595578 -34.754054,154.998106 -35.978144,154.379116 -37.191214,153.738798 -38.392892,153.077348 -39.58281,152.394969 -40.760603,151.691869 -41.925911,150.968265 -43.078377,150.224377 -44.217648,149.460434 -45.343374,148.67667 -46.455211,147.873324 -47.552818,147.050643 -48.63586,146.208879 -49.704004,145.348289 -50.756923,144.469138 -51.794295,143.571694 -52.815802,142.656232 -53.821131,141.723033 -54.809974,140.772383 -55.782028,139.804573 -56.736996,138.819899 -57.674584,137.818663 -58.594506,136.801171 -59.496481,135.767736 -60.380231,134.718674 -61.245486,133.654305 -62.091981,132.574957 -62.919457,131.48096 -63.727659,130.372649 -64.516342,129.250362 -65.285262,128.114446 -66.034186,126.965246 -66.762882,125.803115 -67.471128,124.628409 -68.158707,123.441488 -68.825409,122.242716 -69.471028,121.032459 -70.095368,119.811089 -70.698238,118.578979 -71.279451,117.336507 -71.838832,116.084054 -72.376207,114.822002 -72.891413,113.550739 -73.384291,112.270655 -73.854691,110.98214 -74.302469,109.68559 -74.727488,108.381403 -75.129616,107.069977 -75.508732,105.751714 -75.864719,104.427018 -76.197468,103.096294 -76.506877,101.759952 -76.792851,100.418398 -77.055302,99.072046 -77.294151,97.721306 -77.509324,96.366594 -77.700756,95.008322 -77.868387,93.646909 -78.012166,92.282771 -78.132049,90.916325 -78.228,89.54799 -78.299988,88.178186 -78.347993,86.807332 -78.371999,85.435847 -78.371999,84.064153 -78.347993,82.692668 -78.299988,81.321814 -78.228,79.95201 -78.132049,78.583675 -78.012166,77.217229 -77.868387,75.853091 -77.700756,74.491678 -77.509324,73.133406 -77.294151,71.778694 -77.055302,70.427954 -76.792851,69.081602 -76.506877,67.740048 -76.197468,66.403706 -75.864719,65.072982 -75.508732,63.748286 -75.129616,62.430023 -74.727488,61.118597 -74.302469,59.81441 -73.854691,58.51786 -73.384291,57.229345 -72.891413,55.949261 -72.376207,54.677998 -71.838832,53.415946 -71.279451,52.163493 -70.698238,50.921021 -70.095368,49.688911 -69.471028,48.467541 -68.825409,47.257284 -68.158707,46.058512 -67.471128,44.871591 -66.762882,43.696885 -66.034186,42.534754 -65.285262,41.385554 -64.516342,40.249638 -63.727659,39.127351 -62.919457,38.01904 -62.091981,36.925043 -61.245486,35.845695 -60.380231,34.781326 -59.496481,33.732264 -58.594506,32.698829 -57.674584,31.681337 -56.736996,30.680101 -55.782028,29.695427 -54.809974,28.727617 -53.821131,27.776967 -52.815802,26.843768 -51.794295,25.928306 -50.756923,25.030862 -49.704004,24.151711 -48.63586,23.291121 -47.552818,22.449357 -46.455211,21.626676 -45.343374,20.82333 -44.217648,20.039566 -43.078377,19.275623 -41.925911,18.531735 -40.760603,17.808131 -39.58281,17.105031 -38.392892,16.422652 -37.191214,15.761202 -35.978144,15.120884 -34.754054,14.501894 -33.519318,13.904422 -32.274315,13.32865 -31.019425,12.774755 -29.755035,12.242907 -28.48153,11.733269 -27.199301,11.245996 -25.908741,10.781238 -24.610244,10.339137 -23.304209,9.919829 -21.991036,9.523442 -20.671127,9.150098 -19.344886,8.799911 -18.01272,8.472988 -16.675036,8.169429 -15.332244,7.889328 -13.984756,7.63277 -12.632984,7.399833 -11.277343,7.190589 -9.918247,7.005103 -8.556114,6.843431 -7.191359,6.705622 -5.824402,6.591719 -4.455661,6.501756 -3.085555,6.435761 -1.714503,6.393755 -0.342927,6.37575 1.028755,6.381752 2.400121,6.411759 3.770752,6.465761 5.140228,6.543743 6.50813,6.64568 7.874038,6.77154 9.237534,6.921287 10.598201,7.094873 11.955622,7.292245 13.30938,7.513344 14.659061,7.758101 16.004253,8.026441 17.344542,8.318282 18.679518,8.633535 20.008773,8.972103 21.331898,9.333883 22.64849,9.718763 23.958144,10.126626 25.260459,10.557347 26.555037,11.010793 27.841481,11.486827 29.119397,11.985302 30.388394,12.506065 31.648082,13.048957 32.898076,13.613812 34.137993,14.200457 35.367453,14.808711 36.58608,15.438389 37.7935,16.089298 38.989344,16.761239 40.173245,17.454004 41.34484,18.167384 42.503772,18.901158 43.649684,19.655102 44.782225,20.428985 45.90105,21.222571 47.005814,22.035615 48.096181,22.86787 49.171815,23.719079 50.232387,24.588983 51.277572,25.477315 52.307051,26.383802 53.320508,27.308168 54.317632,28.250128 55.298118,29.209395 56.261666,30.185675 57.20798,31.178668 58.136771,32.18807 59.047755,33.213573 59.940651,34.254862 60.815187,35.311618 61.671095,36.383517 62.508112,37.470231 63.325983,38.571428 64.124456,39.686769 64.903287,40.815914 65.662238,41.958516 66.401076,43.114225 67.119575,44.282688 67.817514,45.463547 68.49468,46.656439 69.150866,47.861 69.78587,49.07686 70.399499,50.303647 70.991563,51.540985 71.561881,52.788496 72.11028,54.045797 72.636591,55.312502 73.140652,56.588225 73.62231,57.872574 74.081417,59.165155 74.517832,60.465574 74.931421,61.773431 75.322058,63.088325 75.689624,64.409856 76.034005,65.737616 76.355096,67.0712 76.652799,68.410199 76.927022,69.754204 77.177682,71.102801 77.404702,72.455579 77.608012,73.812123 77.78755,75.172017 77.943261,76.534845 78.075097,77.90019 78.183018,79.267632 78.266991,80.636754 78.32699,82.007136 78.362997,83.378358 78.375,84.75 71.625,84.75 71.612983,83.438023 71.576936,82.126487 71.516872,80.815831 71.43281,79.506495 71.324778,78.198919 71.192813,76.89354 71.03696,75.590798 70.85727,74.29113 70.653803,72.994971 70.426629,71.702756 70.175823,70.414919 69.901469,69.131893 69.60366,67.854107 69.282495,66.58199 68.938082,65.31597 68.570537,64.056471 68.179983,62.803916 67.766551,61.558725 67.33038,60.321316 66.871616,59.092103 66.390413,57.871501 65.886933,56.659917 65.361344,55.457759 64.813823,54.265431 64.244554,53.083331 63.653727,51.911857 63.041542,50.751402 62.408202,49.602355 61.753922,48.465102 61.078919,47.340025 60.383422,46.227501 59.667663,45.127903 58.931882,44.0416 58.176327,42.968957 57.401251,41.910333 56.606913,40.866085 55.793581,39.836562 54.961527,38.822109 54.111031,37.823068 53.242378,36.839773 52.355859,35.872555 51.451772,34.921737 50.530421,33.98764 49.592113,33.070576 48.637166,32.170852 47.665897,31.288772 46.678635,30.424631 45.675709,29.578719 44.657457,28.75132 43.62422,27.942711 42.576345,27.153164 41.514183,26.382944 40.438091,25.632309 39.34843,24.901511 38.245566,24.190795 37.129868,23.5004 36.001711,22.830557 34.861474,22.181491 33.709539,21.553421 32.546292,20.946556 31.372125,20.3611 30.187431,19.797251 28.992607,19.255196 27.788055,18.735118 26.574178,18.237192 25.351385,17.761584 24.120084,17.308454 22.880691,16.877954 21.633619,16.470229 20.379288,16.085415 19.118119,15.723642 17.850535,15.38503 16.576962,15.069695 15.297825,14.77774 14.013556,14.509265 12.724584,14.264359 11.431342,14.043105 10.134265,13.845576 8.833787,13.67184 7.530345,13.521954 6.224376,13.395969 4.916319,13.293927 3.606612,13.215861 2.295694,13.1618 0.984007,13.13176 -0.328011,13.125751 -1.639919,13.143776 -2.951277,13.185829 -4.261644,13.251895 -5.570581,13.341952 -6.877649,13.455971 -8.182409,13.593912 -9.484424,13.75573 -10.783256,13.94137 -12.07847,14.150771 -13.369631,14.38386 -14.656305,14.640562 -15.938062,14.920788 -17.21447,15.224446 -18.485103,15.551434 -19.749532,15.901641 -21.007335,16.27495 -22.258088,16.671236 -23.501373,17.090366 -24.736772,17.532199 -25.96387,17.996588 -27.182257,18.483375 -28.391522,18.992399 -29.59126,19.523487 -30.781069,20.076463 -31.960549,20.651139 -33.129305,21.247325 -34.286944,21.864818 -35.433079,22.503413 -36.567323,23.162895 -37.689297,23.843042 -38.798625,24.543627 -39.894934,25.264415 -40.977856,26.005162 -42.047028,26.765622 -43.10209,27.545538 -44.14269,28.34465 -45.168478,29.162688 -46.179109,29.999379 -47.174245,30.854441 -48.153551,31.727588 -49.1167,32.618527 -50.063367,33.526959 -50.993235,34.452579 -51.905993,35.395076 -52.801333,36.354134 -53.678956,37.329432 -54.538567,38.320641 -55.379877,39.32743 -56.202604,40.349461 -57.006473,41.38639 -57.791213,42.43787 -58.556561,43.503548 -59.30226,44.583066 -60.028061,45.676063 -60.733718,46.78217 -61.418997,47.901018 -62.083666,49.032231 -62.727503,50.175428 -63.350292,51.330228 -63.951823,52.496241 -64.531895,53.673077 -65.090314,54.860341 -65.626891,56.057635 -66.141447,57.264556 -66.633809,58.4807 -67.103812,59.705659 -67.551299,60.939022 -67.976118,62.180374 -68.378128,63.429299 -68.757193,64.685379 -69.113187,65.948192 -69.44599,67.217313 -69.75549,68.492318 -70.041584,69.772778 -70.304175,71.058263 -70.543175,72.348343 -70.758504,73.642584 -70.950091,74.940553 -71.11787,76.241812 -71.261785,77.545927 -71.381788,78.852459 -71.477839,80.16097 -71.549905,81.471021 -71.597963,82.782173 -71.621996,84.093984 -71.621996,85.406016 -71.597963,86.717827 -71.549905,88.028979 -71.477839,89.33903 -71.381788,90.647541 -71.261785,91.954073 -71.11787,93.258188 -70.950091,94.559447 -70.758504,95.857416 -70.543175,97.151657 -70.304175,98.441737 -70.041584,99.727222 -69.75549,101.007682 -69.44599,102.282687 -69.113187,103.551808 -68.757193,104.814621 -68.378128,106.070701 -67.976118,107.319626 -67.551299,108.560978 -67.103812,109.794341 -66.633809,111.0193 -66.141447,112.235444 -65.626891,113.442365 -65.090314,114.639659 -64.531895,115.826923 -63.951823,117.003759 -63.350292,118.169772 -62.727503,119.324572 -62.083666,120.467769 -61.418997,121.598982 -60.733718,122.71783 -60.028061,123.823937 -59.30226,124.916934 -58.556561,125.996452 -57.791213,127.06213 -57.006473,128.11361 -56.202604,129.150539 -55.379877,130.17257 -54.538567,131.179359 -53.678956,132.170568 -52.801333,133.145866 -51.905993,134.104924 -50.993235,135.047421 -50.063367,135.973041 -49.1167,136.881473 -48.153551,137.772412 -47.174245,138.645559 -46.179109,139.500621 -45.168478,140.337312 -44.14269,141.15535 -43.10209,141.954462 -42.047028,142.734378 -40.977856,143.494838 -39.894934,144.235585 -38.798625,144.956373 -37.689297,145.656958 -36.567323,146.337105 -35.433079,146.996587 -34.286944,147.635182 -33.129305,148.252675 -31.960549,148.848861 -30.781069,149.423537 -29.59126,149.976513 -28.391522,150.507601 -27.182257,151.016625 -25.96387,151.503412 -24.736772,151.967801 -23.501373,152.409634 -22.258088,152.828764 -21.007335,153.22505 -19.749532,153.598359 -18.485103,153.948566 -17.21447,154.275554 -15.938062,154.579212 -14.656305,154.859438 -13.369631,155.11614 -12.07847,155.349229 -10.783256,155.55863 -9.484424,155.74427 -8.182409,155.906088 -6.877649,156.044029 -5.570581,156.158048 -4.261644,156.248105 -2.951277,156.314171 -1.639919,156.356224 -0.328011,156.374249 0.984007,156.36824 2.295694,156.3382 3.606612,156.284139 4.916319,156.206073 6.224376,156.104031 7.530345,155.978046 8.833787,155.82816 10.134265,155.654424 11.431342,155.456895 12.724584,155.235641 14.013556,154.990735 15.297825,154.72226 16.576962,154.430305 17.850535,154.11497 19.118119,153.776358 20.379288,153.414585 21.633619,153.029771 22.880691,152.622046 24.120084,152.191546 25.351385,151.738416 26.574178,151.262808 27.788055,150.764882 28.992607,150.244804 30.187431,149.702749 31.372125,149.1389 32.546292,148.553444 33.709539,147.946579 34.861474,147.318509 36.001711,146.669443 37.129868,145.9996 38.245566,145.309205 39.34843,144.598489 40.438091,143.867691 41.514183,143.117056 42.576345,142.346836 43.62422,141.557289 44.657457,140.74868 45.675709,139.921281 46.678635,139.075369 47.665897,138.211228 48.637166,137.329148 49.592113,136.429424 50.530421,135.51236 51.451772,134.578263 52.355859,133.627445 53.242378,132.660227 54.111031,131.676932 54.961527,130.677891 55.793581,129.663438 56.606913,128.633915 57.401251,127.589667 58.176327,126.531043 58.931882,125.4584 59.667663,124.372097 60.383422,123.272499 61.078919,122.159975 61.753922,121.034898 62.408202,119.897645 63.041542,118.748598 63.653727,117.588143 64.244554,116.416669 64.813823,115.234569 65.361344,114.042241 65.886933,112.840083 66.390413,111.628499 66.871616,110.407897 67.33038,109.178684 67.766551,107.941275 68.179983,106.696084 68.570537,105.443529 68.938082,104.18403 69.282495,102.91801 69.60366,101.645893 69.901469,100.368107 70.175823,99.085081 70.426629,97.797244 70.653803,96.505029 70.85727,95.20887 71.03696,93.909202 71.192813,92.60646 71.324778,91.301081 71.43281,89.993505 71.516872,88.684169 71.576936,87.373513 71.612983,86.061977 71.625,84.75"/>
<polygon id="000001ECC2F74980" class="l0d0" points="-75,-3.375 75,-3.375 75,3.375 -75,3.375"/>
</g>
</svg>