<?xml version="1.0" encoding="UTF-8"?>
<svg xmlns="http://www.w3.org/2000/svg" xmlns:xlink="http://www.w3.org/1999/xlink" width="475.2" height="402.75" viewBox="-107.1 -201.375 475.2 402.75">
<defs>
<style type="text/css">
.l1d0 {stroke: #A1CAF1; fill: #A1CAF1; fill-opacity: 0.5;}
.l0d0 {fill:darkorange;stroke:chocolate;}
</style>
<g id="Splitter_route0">
<polygon id="000002434A250B50" class="l0d0" points="76.5,26.775 76.5,22.725 94.5,22.725 95.320699,22.732162 96.141149,22.753646 96.961098,22.789446 97.780298,22.839551 98.598499,22.903944 99.415451,22.982608 100.230906,23.075517 101.044615,23.182644 101.856331,23.303956 102.665806,23.439415 103.472793,23.588982 104.277047,23.752609 105.078323,23.930248 105.876377,24.121843 106.670966,24.327338 107.461847,24.546669 108.248779,24.779769 109.031524,25.026567 109.809842,25.286989 110.583497,25.560955 111.352253,25.84838 112.115875,26.149179 112.874131,26.463259 113.626791,26.790525 114.373624,27.130876 115.114403,27.48421 115.848903,27.850418 116.5769,28.229389 117.298172,28.621008 118.0125,29.025155 118.719665,29.441708 119.419453,29.870538 120.111651,30.311517 120.796046,30.764508 121.472432,31.229375 122.140601,31.705976 122.800351,32.194165 123.451481,32.693794 124.093791,33.204711 124.727087,33.72676 125.351176,34.259782 125.965867,34.803615 126.570973,35.358092 127.16631,35.923046 127.751696,36.498304 128.326954,37.08369 128.891908,37.679027 129.446385,38.284133 129.990218,38.898824 130.52324,39.522913 131.045289,40.156209 131.556206,40.798519 132.055835,41.449649 132.544024,42.109399 133.020625,42.777568 133.485492,43.453954 133.938483,44.138349 134.379462,44.830547 134.808292,45.530335 135.224845,46.2375 135.628992,46.951828 136.020611,47.6731 136.399582,48.401097 136.76579,49.135597 137.119124,49.876376 137.459475,50.623209 137.786741,51.375869 138.100821,52.134125 138.40162,52.897747 138.689045,53.666503 138.963011,54.440158 139.223433,55.218476 139.470231,56.001221 139.703331,56.788153 139.922662,57.579034 140.128157,58.373623 140.319752,59.171677 140.497391,59.972953 140.661018,60.777207 140.810585,61.584194 140.946044,62.393669 141.067356,63.205385 141.174483,64.019094 141.267392,64.834549 141.346056,65.651501 141.410449,66.469702 141.460554,67.288902 141.496354,68.108851 141.517838,68.929301 141.525,69.75 141.525,90 141.532168,90.784898 141.553671,91.569534 141.5895,92.353646 141.639645,93.136974 141.704088,93.919254 141.782808,94.700228 141.875779,95.479633 141.982969,96.25721 142.104343,97.0327 142.23986,97.805844 142.389475,98.576383 142.553139,99.344062 142.730796,100.108623 142.922388,100.869812 143.12785,101.627375 143.347114,102.381059 143.580107,103.130612 143.826751,103.875785 144.086963,104.616329 144.360658,105.351997 144.647743,106.082544 144.948123,106.807725 145.261697,107.5273 145.588362,108.241027 145.928008,108.948668 146.280521,109.649989 146.645785,110.344754 147.023677,111.032732 147.414071,111.713693 147.816837,112.387411 148.231841,113.05366 148.658944,113.712219 149.098003,114.362867 149.548873,115.005387 150.011403,115.639565 150.485438,116.26519 150.970821,116.882053 151.467389,117.489948 151.974977,118.088672 152.493415,118.678026 153.022531,119.257812 153.562148,119.827839 154.112086,120.387914 154.672161,120.937852 155.242188,121.477469 155.821974,122.006585 156.411328,122.525023 157.010052,123.032611 157.617947,123.529179 158.23481,124.014562 158.860435,124.488597 159.494613,124.951127 160.137133,125.401997 160.787781,125.841056 161.44634,126.268159 162.112589,126.683163 162.786307,127.085929 163.467268,127.476323 164.155246,127.854215 164.850011,128.219479 165.551332,128.571992 166.258973,128.911638 166.9727,129.238303 167.692275,129.551877 168.417456,129.852257 169.148003,130.139342 169.883671,130.413037 170.624215,130.673249 171.369388,130.919893 172.118941,131.152886 172.872625,131.37215 173.630188,131.577612 174.391377,131.769204 175.155938,131.946861 175.923617,132.110525 176.694156,132.26014 177.4673,132.395657 178.24279,132.517031 179.020367,132.624221 179.799772,132.717192 180.580746,132.795912 181.363026,132.860355 182.146354,132.9105 182.930466,132.946329 183.715102,132.967832 184.5,132.975 184.5,132.975 184.5,137.025 184.5,137.025 183.679301,137.017838 182.858851,136.996354 182.038902,136.960554 181.219702,136.910449 180.401501,136.846056 179.584549,136.767392 178.769094,136.674483 177.955385,136.567356 177.143669,136.446044 176.334194,136.310585 175.527207,136.161018 174.722953,135.997391 173.921677,135.819752 173.123623,135.628157 172.329034,135.422662 171.538153,135.203331 170.751221,134.970231 169.968476,134.723433 169.190158,134.463011 168.416503,134.189045 167.647747,133.90162 166.884125,133.600821 166.125869,133.286741 165.373209,132.959475 164.626376,132.619124 163.885597,132.26579 163.151097,131.899582 162.4231,131.520611 161.701828,131.128992 160.9875,130.724845 160.280335,130.308292 159.580547,129.879462 158.888349,129.438483 158.203954,128.985492 157.527568,128.520625 156.859399,128.044024 156.199649,127.555835 155.548519,127.056206 154.906209,126.545289 154.272913,126.02324 153.648824,125.490218 153.034133,124.946385 152.429027,124.391908 151.83369,123.826954 151.248304,123.251696 150.673046,122.66631 150.108092,122.070973 149.553615,121.465867 149.009782,120.851176 148.47676,120.227087 147.954711,119.593791 147.443794,118.951481 146.944165,118.300351 146.455976,117.640601 145.979375,116.972432 145.514508,116.296046 145.061517,115.611651 144.620538,114.919453 144.191708,114.219665 143.775155,113.5125 143.371008,112.798172 142.979389,112.0769 142.600418,111.348903 142.23421,110.614403 141.880876,109.873624 141.540525,109.126791 141.213259,108.374131 140.899179,107.615875 140.59838,106.852253 140.310955,106.083497 140.036989,105.309842 139.776567,104.531524 139.529769,103.748779 139.296669,102.961847 139.077338,102.170966 138.871843,101.376377 138.680248,100.578323 138.502609,99.777047 138.338982,98.972793 138.189415,98.165806 138.053956,97.356331 137.932644,96.544615 137.825517,95.730906 137.732608,94.915451 137.653944,94.098499 137.589551,93.280298 137.539446,92.461098 137.503646,91.641149 137.482162,90.820699 137.475,90 137.475,69.75 137.467832,68.965102 137.446329,68.180466 137.4105,67.396354 137.360355,66.613026 137.295912,65.830746 137.217192,65.049772 137.124221,64.270367 137.017031,63.49279 136.895657,62.7173 136.76014,61.944156 136.610525,61.173617 136.446861,60.405938 136.269204,59.641377 136.077612,58.880188 135.87215,58.122625 135.652886,57.368941 135.419893,56.619388 135.173249,55.874215 134.913037,55.133671 134.639342,54.398003 134.352257,53.667456 134.051877,52.942275 133.738303,52.2227 133.411638,51.508973 133.071992,50.801332 132.719479,50.100011 132.354215,49.405246 131.976323,48.717268 131.585929,48.036307 131.183163,47.362589 130.768159,46.69634 130.341056,46.037781 129.901997,45.387133 129.451127,44.744613 128.988597,44.110435 128.514562,43.48481 128.029179,42.867947 127.532611,42.260052 127.025023,41.661328 126.506585,41.071974 125.977469,40.492188 125.437852,39.922161 124.887914,39.362086 124.327839,38.812148 123.757812,38.272531 123.178026,37.743415 122.588672,37.224977 121.989948,36.717389 121.382053,36.220821 120.76519,35.735438 120.139565,35.261403 119.505387,34.798873 118.862867,34.348003 118.212219,33.908944 117.55366,33.481841 116.887411,33.066837 116.213693,32.664071 115.532732,32.273677 114.844754,31.895785 114.149989,31.530521 113.448668,31.178008 112.741027,30.838362 112.0273,30.511697 111.307725,30.198123 110.582544,29.897743 109.851997,29.610658 109.116329,29.336963 108.375785,29.076751 107.630612,28.830107 106.881059,28.597114 106.127375,28.37785 105.369812,28.172388 104.608623,27.980796 103.844062,27.803139 103.076383,27.639475 102.305844,27.48986 101.5327,27.354343 100.75721,27.232969 99.979633,27.125779 99.200228,27.032808 98.419254,26.954088 97.636974,26.889645 96.853646,26.8395 96.069534,26.803671 95.284898,26.782168 94.5,26.775"/>
<polygon id="000002434A250BC0" class="l1d0" points="76.5,44.775 76.5,4.725 94.5,4.725 95.463559,4.73214 96.426907,4.753557 97.389832,4.789246 98.352122,4.839201 99.313566,4.90341 100.273953,4.981859 101.233072,5.07453 102.190713,5.181404 103.146665,5.302457 104.100718,5.437662 105.052663,5.586989 106.00229,5.750407 106.949392,5.927878 107.89376,6.119364 108.835186,6.324823 109.773465,6.54421 110.70839,6.777476 111.639755,7.024571 112.567357,7.28544 113.490992,7.560026 114.410455,7.848268 115.325547,8.150104 116.236066,8.465466 117.141811,8.794287 118.042585,9.136492 118.938189,9.492008 119.828426,9.860757 120.713101,10.242656 121.59202,10.637623 122.46499,11.045571 123.331819,11.46641 124.192316,11.900048 125.046293,12.346389 125.893563,12.805335 126.733939,13.276787 127.567236,13.760639 128.393272,14.256787 129.211865,14.76512 130.022836,15.285528 130.826006,15.817895 131.621199,16.362106 132.408241,16.918041 133.186958,17.485577 133.957179,18.06459 134.718737,18.654953 135.471462,19.256536 136.21519,19.869207 136.949758,20.492831 137.675004,21.127273 138.39077,21.772391 139.096897,22.428045 139.793231,23.094091 140.479618,23.770382 141.155909,24.456769 141.821955,25.153103 142.477609,25.85923 143.122727,26.574996 143.757169,27.300242 144.380793,28.03481 144.993464,28.778538 145.595047,29.531263 146.18541,30.292821 146.764423,31.063042 147.331959,31.841759 147.887894,32.628801 148.432105,33.423994 148.964472,34.227164 149.48488,35.038135 149.993213,35.856728 150.489361,36.682764 150.973213,37.516061 151.444665,38.356437 151.903611,39.203707 152.349952,40.057684 152.78359,40.918181 153.204429,41.78501 153.612377,42.65798 154.007344,43.536899 154.389243,44.421574 154.757992,45.311811 155.113508,46.207415 155.455713,47.108189 155.784534,48.013934 156.099896,48.924453 156.401732,49.839545 156.689974,50.759008 156.96456,51.682643 157.225429,52.610245 157.472524,53.54161 157.70579,54.476535 157.925177,55.414814 158.130636,56.35624 158.322122,57.300608 158.499593,58.24771 158.663011,59.197337 158.812338,60.149282 158.947543,61.103335 159.068596,62.059287 159.17547,63.016928 159.268141,63.976047 159.34659,64.936434 159.410799,65.897878 159.460754,66.860168 159.496443,67.823093 159.51786,68.786441 159.525,69.75 159.525,90 159.532292,90.60349 159.554165,91.206627 159.590606,91.809059 159.641592,92.410435 159.707096,93.010404 159.787078,93.608614 159.881491,94.204717 159.990281,94.798365 160.113384,95.38921 160.250728,95.976909 160.402233,96.561117 160.56781,97.141493 160.747364,97.717699 160.940787,98.289399 161.147969,98.856257 161.368788,99.417944 161.603115,99.97413 161.850813,100.524493 162.111737,101.068709 162.385736,101.606461 162.672648,102.137436 162.972308,102.661322 163.284538,103.177815 163.609158,103.686612 163.945978,104.187417 164.294801,104.679937 164.655422,105.163884 165.027633,105.638975 165.411215,106.104934 165.805944,106.561488 166.21159,107.008371 166.627916,107.445321 167.054679,107.872084 167.491629,108.28841 167.938512,108.694056 168.395066,109.088785 168.861025,109.472367 169.336116,109.844578 169.820063,110.205199 170.312583,110.554022 170.813388,110.890842 171.322185,111.215462 171.838678,111.527692 172.362564,111.827352 172.893539,112.114264 173.431291,112.388263 173.975507,112.649187 174.52587,112.896885 175.082056,113.131212 175.643743,113.352031 176.210601,113.559213 176.782301,113.752636 177.358507,113.93219 177.938883,114.097767 178.523091,114.249272 179.11079,114.386616 179.701635,114.509719 180.295283,114.618509 180.891386,114.712922 181.489596,114.792904 182.089565,114.858408 182.690941,114.909394 183.293373,114.945835 183.89651,114.967708 184.5,114.975 184.5,114.975 184.5,155.025 184.5,155.025 183.536441,155.01786 182.573093,154.996443 181.610168,154.960754 180.647878,154.910799 179.686434,154.84659 178.726047,154.768141 177.766928,154.67547 176.809287,154.568596 175.853335,154.447543 174.899282,154.312338 173.947337,154.163011 172.99771,153.999593 172.050608,153.822122 171.10624,153.630636 170.164814,153.425177 169.226535,153.20579 168.29161,152.972524 167.360245,152.725429 166.432643,152.46456 165.509008,152.189974 164.589545,151.901732 163.674453,151.599896 162.763934,151.284534 161.858189,150.955713 160.957415,150.613508 160.061811,150.257992 159.171574,149.889243 158.286899,149.507344 157.40798,149.112377 156.53501,148.704429 155.668181,148.28359 154.807684,147.849952 153.953707,147.403611 153.106437,146.944665 152.266061,146.473213 151.432764,145.989361 150.606728,145.493213 149.788135,144.98488 148.977164,144.464472 148.173994,143.932105 147.378801,143.387894 146.591759,142.831959 145.813042,142.264423 145.042821,141.68541 144.281263,141.095047 143.528538,140.493464 142.78481,139.880793 142.050242,139.257169 141.324996,138.622727 140.60923,137.977609 139.903103,137.321955 139.206769,136.655909 138.520382,135.979618 137.844091,135.293231 137.178045,134.596897 136.522391,133.89077 135.877273,133.175004 135.242831,132.449758 134.619207,131.71519 134.006536,130.971462 133.404953,130.218737 132.81459,129.457179 132.235577,128.686958 131.668041,127.908241 131.112106,127.121199 130.567895,126.326006 130.035528,125.522836 129.51512,124.711865 129.006787,123.893272 128.510639,123.067236 128.026787,122.233939 127.555335,121.393563 127.096389,120.546293 126.650048,119.692316 126.21641,118.831819 125.795571,117.96499 125.387623,117.09202 124.992656,116.213101 124.610757,115.328426 124.242008,114.438189 123.886492,113.542585 123.544287,112.641811 123.215466,111.736066 122.900104,110.825547 122.598268,109.910455 122.310026,108.990992 122.03544,108.067357 121.774571,107.139755 121.527476,106.20839 121.29421,105.273465 121.074823,104.335186 120.869364,103.39376 120.677878,102.449392 120.500407,101.50229 120.336989,100.552663 120.187662,99.600718 120.052457,98.646665 119.931404,97.690713 119.82453,96.733072 119.731859,95.773953 119.65341,94.813566 119.589201,93.852122 119.539246,92.889832 119.503557,91.926907 119.48214,90.963559 119.475,90 119.475,69.75 119.467708,69.14651 119.445835,68.543373 119.409394,67.940941 119.358408,67.339565 119.292904,66.739596 119.212922,66.141386 119.118509,65.545283 119.009719,64.951635 118.886616,64.36079 118.749272,63.773091 118.597767,63.188883 118.43219,62.608507 118.252636,62.032301 118.059213,61.460601 117.852031,60.893743 117.631212,60.332056 117.396885,59.77587 117.149187,59.225507 116.888263,58.681291 116.614264,58.143539 116.327352,57.612564 116.027692,57.088678 115.715462,56.572185 115.390842,56.063388 115.054022,55.562583 114.705199,55.070063 114.344578,54.586116 113.972367,54.111025 113.588785,53.645066 113.194056,53.188512 112.78841,52.741629 112.372084,52.304679 111.945321,51.877916 111.508371,51.46159 111.061488,51.055944 110.604934,50.661215 110.138975,50.277633 109.663884,49.905422 109.179937,49.544801 108.687417,49.195978 108.186612,48.859158 107.677815,48.534538 107.161322,48.222308 106.637436,47.922648 106.106461,47.635736 105.568709,47.361737 105.024493,47.100813 104.47413,46.853115 103.917944,46.618788 103.356257,46.397969 102.789399,46.190787 102.217699,45.997364 101.641493,45.81781 101.061117,45.652233 100.476909,45.500728 99.88921,45.363384 99.298365,45.240281 98.704717,45.131491 98.108614,45.037078 97.510404,44.957096 96.910435,44.891592 96.309059,44.840606 95.706627,44.804165 95.10349,44.782292 94.5,44.775"/>
</g>
<g id="Splitter_route1">
<polygon id="000002434A250CA0" class="l0d0" points="76.5,-22.725 76.5,-26.775 94.5,-26.775 95.284898,-26.782168 96.069534,-26.803671 96.853646,-26.8395 97.636974,-26.889645 98.419254,-26.954088 99.200228,-27.032808 99.979633,-27.125779 100.75721,-27.232969 101.5327,-27.354343 102.305844,-27.48986 103.076383,-27.639475 103.844062,-27.803139 104.608623,-27.980796 105.369812,-28.172388 106.127375,-28.37785 106.881059,-28.597114 107.630612,-28.830107 108.375785,-29.076751 109.116329,-29.336963 109.851997,-29.610658 110.582544,-29.897743 111.307725,-30.198123 112.0273,-30.511697 112.741027,-30.838362 113.448668,-31.178008 114.149989,-31.530521 114.844754,-31.895785 115.532732,-32.273677 116.213693,-32.664071 116.887411,-33.066837 117.55366,-33.481841 118.212219,-33.908944 118.862867,-34.348003 119.505387,-34.798873 120.139565,-35.261403 120.76519,-35.735438 121.382053,-36.220821 121.989948,-36.717389 122.588672,-37.224977 123.178026,-37.743415 123.757812,-38.272531 124.327839,-38.812148 124.887914,-39.362086 125.437852,-39.922161 125.977469,-40.492188 126.506585,-41.071974 127.025023,-41.661328 127.532611,-42.260052 128.029179,-42.867947 128.514562,-43.48481 128.988597,-44.110435 129.451127,-44.744613 129.901997,-45.387133 130.341056,-46.037781 130.768159,-46.69634 131.183163,-47.362589 131.585929,-48.036307 131.976323,-48.717268 132.354215,-49.405246 132.719479,-50.100011 133.071992,-50.801332 133.411638,-51.508973 133.738303,-52.2227 134.051877,-52.942275 134.352257,-53.667456 134.639342,-54.398003 134.913037,-55.133671 135.173249,-55.874215 135.419893,-56.619388 135.652886,-57.368941 135.87215,-58.122625 136.077612,-58.880188 136.269204,-59.641377 136.446861,-60.405938 136.610525,-61.173617 136.76014,-61.944156 136.895657,-62.7173 137.017031,-63.49279 137.124221,-64.270367 137.217192,-65.049772 137.295912,-65.830746 137.360355,-66.613026 137.4105,-67.396354 137.446329,-68.180466 137.467832,-68.965102 137.475,-69.75 137.475,-90 137.482162,-90.820699 137.503646,-91.641149 137.539446,-92.461098 137.589551,-93.280298 137.653944,-94.098499 137.732608,-94.915451 137.825517,-95.730906 137.932644,-96.544615 138.053956,-97.356331 138.189415,-98.165806 138.338982,-98.972793 138.502609,-99.777047 138.680248,-100.578323 138.871843,-101.376377 139.077338,-102.170966 139.296669,-102.961847 139.529769,-103.748779 139.776567,-104.531524 140.036989,-105.309842 140.310955,-106.083497 140.59838,-106.852253 140.899179,-107.615875 141.213259,-108.374131 141.540525,-109.126791 141.880876,-109.873624 142.23421,-110.614403 142.600418,-111.348903 142.979389,-112.0769 143.371008,-112.798172 143.775155,-113.5125 144.191708,-114.219665 144.620538,-114.919453 145.061517,-115.611651 145.514508,-116.296046 145.979375,-116.972432 146.455976,-117.640601 146.944165,-118.300351 147.443794,-118.951481 147.954711,-119.593791 148.47676,-120.227087 149.009782,-120.851176 149.553615,-121.465867 150.108092,-122.070973 150.673046,-122.66631 151.248304,-123.251696 151.83369,-123.826954 152.429027,-124.391908 153.034133,-124.946385 153.648824,-125.490218 154.272913,-126.02324 154.906209,-126.545289 155.548519,-127.056206 156.199649,-127.555835 156.859399,-128.044024 157.527568,-128.520625 158.203954,-128.985492 158.888349,-129.438483 159.580547,-129.879462 160.280335,-130.308292 160.9875,-130.724845 161.701828,-131.128992 162.4231,-131.520611 163.151097,-131.899582 163.885597,-132.26579 164.626376,-132.619124 165.373209,-132.959475 166.125869,-133.286741 166.884125,-133.600821 167.647747,-133.90162 168.416503,-134.189045 169.190158,-134.463011 169.968476,-134.723433 170.751221,-134.970231 171.538153,-135.203331 172.329034,-135.422662 173.123623,-135.628157 173.921677,-135.819752 174.722953,-135.997391 175.527207,-136.161018 176.334194,-136.310585 177.143669,-136.446044 177.955385,-136.567356 178.769094,-136.674483 179.584549,-136.767392 180.401501,-136.846056 181.219702,-136.910449 182.038902,-136.960554 182.858851,-136.996354 183.679301,-137.017838 184.5,-137.025 184.5,-137.025 184.5,-132.975 184.5,-132.975 183.715102,-132.967832 182.930466,-132.946329 182.146354,-132.9105 181.363026,-132.860355 180.580746,-132.795912 179.799772,-132.717192 179.020367,-132.624221 178.24279,-132.517031 177.4673,-132.395657 176.694156,-132.26014 175.923617,-132.110525 175.155938,-131.946861 174.391377,-131.769204 173.630188,-131.577612 172.872625,-131.37215 172.118941,-131.152886 171.369388,-130.919893 170.624215,-130.673249 169.883671,-130.413037 169.148003,-130.139342 168.417456,-129.852257 167.692275,-129.551877 166.9727,-129.238303 166.258973,-128.911638 165.551332,-128.571992 164.850011,-128.219479 164.155246,-127.854215 163.467268,-127.476323 162.786307,-127.085929 162.112589,-126.683163 161.44634,-126.268159 160.787781,-125.841056 160.137133,-125.401997 159.494613,-124.951127 158.860435,-124.488597 158.23481,-124.014562 157.617947,-123.529179 157.010052,-123.032611 156.411328,-122.525023 155.821974,-122.006585 155.242188,-121.477469 154.672161,-120.937852 154.112086,-120.387914 153.562148,-119.827839 153.022531,-119.257812 152.493415,-118.678026 151.974977,-118.088672 151.467389,-117.489948 150.970821,-116.882053 150.485438,-116.26519 150.011403,-115.639565 149.548873,-115.005387 149.098003,-114.362867 148.658944,-113.712219 148.231841,-113.05366 147.816837,-112.387411 147.414071,-111.713693 147.023677,-111.032732 146.645785,-110.344754 146.280521,-109.649989 145.928008,-108.948668 145.588362,-108.241027 145.261697,-107.5273 144.948123,-106.807725 144.647743,-106.082544 144.360658,-105.351997 144.086963,-104.616329 143.826751,-103.875785 143.580107,-103.130612 143.347114,-102.381059 143.12785,-101.627375 142.922388,-100.869812 142.730796,-100.108623 142.553139,-99.344062 142.389475,-98.576383 142.23986,-97.805844 142.104343,-97.0327 141.982969,-96.25721 141.875779,-95.479633 141.782808,-94.700228 141.704088,-93.919254 141.639645,-93.136974 141.5895,-92.353646 141.553671,-91.569534 141.532168,-90.784898 141.525,-90 141.525,-69.75 141.517838,-68.929301 141.496354,-68.108851 141.460554,-67.288902 141.410449,-66.469702 141.346056,-65.651501 141.267392,-64.834549 141.174483,-64.019094 141.067356,-63.205385 140.946044,-62.393669 140.810585,-61.584194 140.661018,-60.777207 140.497391,-59.972953 140.319752,-59.171677 140.128157,-58.373623 139.922662,-57.579034 139.703331,-56.788153 139.470231,-56.001221 139.223433,-55.218476 138.963011,-54.440158 138.689045,-53.666503 138.40162,-52.897747 138.100821,-52.134125 137.786741,-51.375869 137.459475,-50.623209 137.119124,-49.876376 136.76579,-49.135597 136.399582,-48.401097 136.020611,-47.6731 135.628992,-46.951828 135.224845,-46.2375 134.808292,-45.530335 134.379462,-44.830547 133.938483,-44.138349 133.485492,-43.453954 133.020625,-42.777568 132.544024,-42.109399 132.055835,-41.449649 131.556206,-40.798519 131.045289,-40.156209 130.52324,-39.522913 129.990218,-38.898824 129.446385,-38.284133 128.891908,-37.679027 128.326954,-37.08369 127.751696,-36.498304 127.16631,-35.923046 126.570973,-35.358092 125.965867,-34.803615 125.351176,-34.259782 124.727087,-33.72676 124.093791,-33.204711 123.451481,-32.693794 122.800351,-32.194165 122.140601,-31.705976 121.472432,-31.229375 120.796046,-30.764508 120.111651,-30.311517 119.419453,-29.870538 118.719665,-29.441708 118.0125,-29.025155 117.298172,-28.621008 116.5769,-28.229389 115.848903,-27.850418 115.114403,-27.48421 114.373624,-27.130876 113.626791,-26.790525 112.874131,-26.463259 112.115875,-26.149179 111.352253,-25.84838 110.583497,-25.560955 109.809842,-25.286989 109.031524,-25.026567 108.248779,-24.779769 107.461847,-24.546669 106.670966,-24.327338 105.876377,-24.121843 105.078323,-23.930248 104.277047,-23.752609 103.472793,-23.588982 102.665806,-23.439415 101.856331,-23.303956 101.044615,-23.182644 100.230906,-23.075517 99.415451,-22.982608 98.598499,-22.903944 97.780298,-22.839551 96.961098,-22.789446 96.141149,-22.753646 95.320699,-22.732162 94.5,-22.725"/>
<polygon id="000002434A250220" class="l1d0" points="76.5,-4.725 76.5,-44.775 94.5,-44.775 95.10349,-44.782292 95.706627,-44.804165 96.309059,-44.840606 96.910435,-44.891592 97.510404,-44.957096 98.108614,-45.037078 98.704717,-45.131491 99.298365,-45.240281 99.88921,-45.363384 100.476909,-45.500728 101.061117,-45.652233 101.641493,-45.81781 102.217699,-45.997364 102.789399,-46.190787 103.356257,-46.397969 103.917944,-46.618788 104.47413,-46.853115 105.024493,-47.100813 105.568709,-47.361737 106.106461,-47.635736 106.637436,-47.922648 107.161322,-48.222308 107.677815,-48.534538 108.186612,-48.859158 108.687417,-49.195978 109.179937,-49.544801 109.663884,-49.905422 110.138975,-50.277633 110.604934,-50.661215 111.061488,-51.055944 111.508371,-51.46159 111.945321,-51.877916 112.372084,-52.304679 112.78841,-52.741629 113.194056,-53.188512 113.588785,-53.645066 113.972367,-54.111025 114.344578,-54.586116 114.705199,-55.070063 115.054022,-55.562583 115.390842,-56.063388 115.715462,-56.572185 116.027692,-57.088678 116.327352,-57.612564 116.614264,-58.143539 116.888263,-58.681291 117.149187,-59.225507 117.396885,-59.77587 117.631212,-60.332056 117.852031,-60.893743 118.059213,-61.460601 118.252636,-62.032301 118.43219,-62.608507 118.597767,-63.188883 118.749272,-63.773091 118.886616,-64.36079 119.009719,-64.951635 119.118509,-65.545283 119.212922,-66.141386 119.292904,-66.739596 119.358408,-67.339565 119.409394,-67.940941 119.445835,-68.543373 119.467708,-69.14651 119.475,-69.75 119.475,-90 119.48214,-90.963559 119.503557,-91.926907 119.539246,-92.889832 119.589201,-93.852122 119.65341,-94.813566 119.731859,-95.773953 119.82453,-96.733072 119.931404,-97.690713 120.052457,-98.646665 120.187662,-99.600718 120.336989,-100.552663 120.500407,-101.50229 120.677878,-102.449392 120.869364,-103.39376 121.074823,-104.335186 121.29421,-105.273465 121.527476,-106.20839 121.774571,-107.139755 122.03544,-108.067357 122.310026,-108.990992 122.598268,-109.910455 122.900104,-110.825547 123.215466,-111.736066 123.544287,-112.641811 123.886492,-113.542585 124.242008,-114.438189 124.610757,-115.328426 124.992656,-116.213101 125.387623,-117.09202 125.795571,-117.96499 126.21641,-118.831819 126.650048,-119.692316 127.096389,-120.546293 127.555335,-121.393563 128.026787,-122.233939 128.510639,-123.067236 129.006787,-123.893272 129.51512,-124.711865 130.035528,-125.522836 130.567895,-126.326006 131.112106,-127.121199 131.668041,-127.908241 132.235577,-128.686958 132.81459,-129.457179 133.404953,-130.218737 134.006536,-130.971462 134.619207,-131.71519 135.242831,-132.449758 135.877273,-133.175004 136.522391,-133.89077 137.178045,-134.596897 137.844091,-135.293231 138.520382,-135.979618 139.206769,-136.655909 139.903103,-137.321955 140.60923,-137.977609 141.324996,-138.622727 142.050242,-139.257169 142.78481,-139.880793 143.528538,-140.493464 144.281263,-141.095047 145.042821,-141.68541 145.813042,-142.264423 146.591759,-142.831959 147.378801,-143.387894 148.173994,-143.932105 148.977164,-144.464472 149.788135,-144.98488 150.606728,-145.493213 151.432764,-145.989361 152.266061,-146.473213 153.106437,-146.944665 153.953707,-147.403611 154.807684,-147.849952 155.668181,-148.28359 156.53501,-148.704429 157.40798,-149.112377 158.286899,-149.507344 159.171574,-149.889243 160.061811,-150.257992 160.957415,-150.613508 161.858189,-150.955713 162.763934,-151.284534 163.674453,-151.599896 164.589545,-151.901732 165.509008,-152.189974 166.432643,-152.46456 167.360245,-152.725429 168.29161,-152.972524 169.226535,-153.20579 170.164814,-153.425177 171.10624,-153.630636 172.050608,-153.822122 172.99771,-153.999593 173.947337,-154.163011 174.899282,-154.312338 175.853335,-154.447543 176.809287,-154.568596 177.766928,-154.67547 178.726047,-154.768141 179.686434,-154.84659 180.647878,-154.910799 181.610168,-154.960754 182.573093,-154.996443 183.536441,-155.01786 184.5,-155.025 184.5,-155.025 184.5,-114.975 184.5,-114.975 183.89651,-114.967708 183.293373,-114.945835 182.690941,-114.909394 182.089565,-114.858408 181.489596,-114.792904 180.891386,-114.712922 180.295283,-114.618509 179.701635,-114.509719 179.11079,-114.386616 178.523091,-114.249272 177.938883,-114.097767 177.358507,-113.93219 176.782301,-113.752636 176.210601,-113.559213 175.643743,-113.352031 175.082056,-113.131212 174.52587,-112.896885 173.975507,-112.649187 173.431291,-112.388263 172.893539,-112.114264 172.362564,-111.827352 171.838678,-111.527692 171.322185,-111.215462 170.813388,-110.890842 170.312583,-110.554022 169.820063,-110.205199 169.336116,-109.844578 168.861025,-109.472367 168.395066,-109.088785 167.938512,-108.694056 167.491629,-108.28841 167.054679,-107.872084 166.627916,-107.445321 166.21159,-107.008371 165.805944,-106.561488 165.411215,-106.104934 165.027633,-105.638975 164.655422,-105.163884 164.294801,-104.679937 163.945978,-104.187417 163.609158,-103.686612 163.284538,-103.177815 162.972308,-102.661322 162.672648,-102.137436 162.385736,-101.606461 162.111737,-101.068709 161.850813,-100.524493 161.603115,-99.97413 161.368788,-99.417944 161.147969,-98.856257 160.940787,-98.289399 160.747364,-97.717699 160.56781,-97.141493 160.402233,-96.561117 160.250728,-95.976909 160.113384,-95.38921 159.990281,-94.798365 159.881491,-94.204717 159.787078,-93.608614 159.707096,-93.010404 159.641592,-92.410435 159.590606,-91.809059 159.554165,-91.206627 159.532292,-90.60349 159.525,-90 159.525,-69.75 159.51786,-68.786441 159.496443,-67.823093 159.460754,-66.860168 159.410799,-65.897878 159.34659,-64.936434 159.268141,-63.976047 159.17547,-63.016928 159.068596,-62.059287 158.947543,-61.103335 158.812338,-60.149282 158.663011,-59.197337 158.499593,-58.24771 158.322122,-57.300608 158.130636,-56.35624 157.925177,-55.414814 157.70579,-54.476535 157.472524,-53.54161 157.225429,-52.610245 156.96456,-51.682643 156.689974,-50.759008 156.401732,-49.839545 156.099896,-48.924453 155.784534,-48.013934 155.455713,-47.108189 155.113508,-46.207415 154.757992,-45.311811 154.389243,-44.421574 154.007344,-43.536899 153.612377,-42.65798 153.204429,-41.78501 152.78359,-40.918181 152.349952,-40.057684 151.903611,-39.203707 151.444665,-38.356437 150.973213,-37.516061 150.489361,-36.682764 149.993213,-35.856728 149.48488,-35.038135 148.964472,-34.227164 148.432105,-33.423994 147.887894,-32.628801 147.331959,-31.841759 146.764423,-31.063042 146.18541,-30.292821 145.595047,-29.531263 144.993464,-28.778538 144.380793,-28.03481 143.757169,-27.300242 143.122727,-26.574996 142.477609,-25.85923 141.821955,-25.153103 141.155909,-24.456769 140.479618,-23.770382 139.793231,-23.094091 139.096897,-22.428045 138.39077,-21.772391 137.675004,-21.127273 136.949758,-20.492831 136.21519,-19.869207 135.471462,-19.256536 134.718737,-18.654953 133.957179,-18.06459 133.186958,-17.485577 132.408241,-16.918041 131.621199,-16.362106 130.826006,-15.817895 130.022836,-15.285528 129.211865,-14.76512 128.393272,-14.256787 127.567236,-13.760639 126.733939,-13.276787 125.893563,-12.805335 125.046293,-12.346389 124.192316,-11.900048 123.331819,-11.46641 122.46499,-11.045571 121.59202,-10.637623 120.713101,-10.242656 119.828426,-9.860757 118.938189,-9.492008 118.042585,-9.136492 117.141811,-8.794287 116.236066,-8.465466 115.325547,-8.150104 114.410455,-7.848268 113.490992,-7.560026 112.567357,-7.28544 111.639755,-7.024571 110.70839,-6.777476 109.773465,-6.54421 108.835186,-6.324823 107.89376,-6.119364 106.949392,-5.927878 106.00229,-5.750407 105.052663,-5.586989 104.100718,-5.437662 103.146665,-5.302457 102.190713,-5.181404 101.233072,-5.07453 100.273953,-4.981859 99.313566,-4.90341 98.352122,-4.839201 97.389832,-4.789246 96.426907,-4.753557 95.463559,-4.73214 94.5,-4.725"/>
</g>
<g id="YBranch">
<polygon id="000002434A250610" class="l0d0" points="58.122,-27 57.186,-26.991 57.069,-26.991 56.574,-26.982 56.511,-26.982 56.133,-26.973 56.097,-26.973 55.755,-26.964 55.719,-26.964 55.431,-26.955 55.404,-26.955 55.143,-26.946 55.107,-26.946 54.855,-26.937 54.846,-26.937 54.612,-26.928 54.585,-26.928 54.36,-26.919 54.351,-26.919 54.153,-26.91 54.126,-26.91 53.721,-26.892 53.712,-26.892 53.541,-26.883 53.514,-26.883 53.343,-26.874 53.334,-26.874 52.992,-26.856 52.983,-26.856 52.821,-26.847 52.812,-26.847 52.326,-26.82 51.894,-26.793 51.885,-26.793 51.75,-26.784 51.741,-26.784 51.462,-26.766 51.345,-26.757 51.201,-26.748 51.084,-26.739 50.94,-26.73 50.832,-26.721 50.823,-26.721 50.571,-26.703 50.346,-26.685 50.337,-26.685 49.995,-26.658 49.572,-26.622 49.563,-26.622 49.059,-26.577 48.942,-26.568 48.861,-26.559 48.663,-26.541 48.654,-26.541 47.646,-26.442 47.052,-26.379 46.332,-26.298 46.188,-26.28 46.026,-26.262 45.576,-26.208 45.441,-26.19 45.36,-26.181 45.297,-26.172 45.216,-26.163 44.946,-26.127 44.937,-26.127 43.929,-25.992 43.875,-25.983 43.74,-25.965 43.299,-25.902 42.813,-25.83 41.877,-25.686 41.049,-25.551 40.95,-25.533 40.572,-25.47 40.527,-25.461 40.365,-25.434 39.555,-25.29 39.267,-25.236 39.213,-25.227 38.646,-25.119 38.592,-25.11 38.367,-25.065 38.313,-25.056 37.323,-24.858 36.585,-24.705 35.793,-24.534 35.595,-24.489 35.469,-24.462 34.875,-24.327 34.29,-24.192 34.029,-24.129 33.759,-24.066 33.615,-24.03 33.426,-23.985 32.31,-23.706 31.581,-23.517 31.347,-23.454 31.275,-23.436 31.212,-23.418 31.14,-23.4 30.978,-23.355 30.906,-23.337 29.925,-23.067 29.835,-23.04 29.448,-22.932 29.358,-22.905 28.98,-22.797 28.953,-22.788 28.827,-22.752 28.8,-22.743 27.918,-22.482 27.153,-22.248 26.298,-21.978 25.767,-21.807 24.867,-21.51 24.498,-21.384 24.309,-21.321 24.129,-21.258 24.021,-21.222 22.995,-20.862 22.419,-20.655 21.708,-20.394 20.799,-20.052 20.709,-20.016 20.403,-19.899 20.385,-19.89 0.495,-12.204 0.441,-12.186 0.351,-12.15 -0.144,-11.961 -0.243,-11.925 -0.288,-11.907 -0.963,-11.655 -1.629,-11.412 -2.565,-11.079 -2.88,-10.971 -3.006,-10.926 -3.141,-10.881 -3.321,-10.818 -4.617,-10.386 -5.175,-10.206 -5.859,-9.99 -6.066,-9.927 -6.12,-9.909 -6.858,-9.684 -7.407,-9.522 -7.524,-9.486 -7.929,-9.369 -8.784,-9.126 -9.306,-8.982 -10.107,-8.766 -10.728,-8.604 -11.079,-8.514 -11.691,-8.361 -13.122,-8.019 -13.788,-7.866 -13.833,-7.857 -13.869,-7.848 -14.157,-7.785 -14.193,-7.776 -15.201,-7.56 -15.237,-7.551 -15.372,-7.524 -15.453,-7.506 -15.804,-7.434 -16.434,-7.308 -16.848,-7.227 -17.181,-7.164 -18.36,-6.948 -18.468,-6.93 -18.666,-6.894 -18.828,-6.867 -18.927,-6.849 -19.737,-6.714 -19.8,-6.705 -19.962,-6.678 -20.025,-6.669 -20.187,-6.642 -21.006,-6.516 -22.131,-6.354 -22.527,-6.3 -22.671,-6.282 -22.797,-6.264 -23.508,-6.174 -23.571,-6.165 -24.093,-6.102 -25.128,-5.985 -25.812,-5.913 -26.946,-5.805 -27.162,-5.787 -27.459,-5.76 -27.675,-5.742 -27.693,-5.742 -28.125,-5.706 -28.602,-5.67 -28.62,-5.67 -28.728,-5.661 -29.664,-5.598 -29.682,-5.598 -29.961,-5.58 -29.97,-5.58 -30.6,-5.544 -30.618,-5.544 -31.122,-5.517 -31.14,-5.517 -31.311,-5.508 -31.338,-5.508 -31.509,-5.499 -31.536,-5.499 -31.725,-5.49 -31.752,-5.49 -31.95,-5.481 -31.968,-5.481 -32.166,-5.472 -32.184,-5.472 -32.409,-5.463 -32.427,-5.463 -32.67,-5.454 -32.715,-5.454 -32.976,-5.445 -32.994,-5.445 -33.282,-5.436 -33.327,-5.436 -33.633,-5.427 -33.696,-5.427 -34.047,-5.418 -34.137,-5.418 -34.596,-5.409 -34.704,-5.409 -35.604,-5.4 -36,-5.4 -36.531,-5.364 -37.386,-5.382 -38.745,-5.796 -39.924,-6.183 -42.462,-6.336 -44.586,-6.363 -46.089,-5.94 -46.998,-5.139 -48.528,-3.699 -49.689,-3.096 -51.318,-2.601 -52.353,-2.313 -53.415,-2.196 -54,-2.25 -67.5,-2.25 -85.5,-2.025 -85.5,2.025 -67.5,2.25 -54,2.25 -53.262,2.205 -52.551,2.25 -51.633,2.475 -49.923,3.015 -48.564,3.591 -46.863,5.283 -46.062,5.976 -45.09,6.282 -40.473,6.372 -37.521,5.418 -36,5.4 -35.604,5.4 -34.704,5.409 -34.596,5.409 -34.137,5.418 -34.047,5.418 -33.696,5.427 -33.633,5.427 -33.327,5.436 -33.282,5.436 -32.994,5.445 -32.976,5.445 -32.715,5.454 -32.67,5.454 -32.427,5.463 -32.409,5.463 -32.184,5.472 -32.166,5.472 -31.968,5.481 -31.95,5.481 -31.752,5.49 -31.725,5.49 -31.536,5.499 -31.509,5.499 -31.338,5.508 -31.311,5.508 -31.14,5.517 -31.122,5.517 -30.618,5.544 -30.6,5.544 -29.97,5.58 -29.961,5.58 -29.682,5.598 -29.664,5.598 -28.728,5.661 -28.62,5.67 -28.602,5.67 -28.125,5.706 -27.693,5.742 -27.675,5.742 -27.459,5.76 -27.162,5.787 -26.946,5.805 -25.812,5.913 -25.128,5.985 -24.093,6.102 -23.571,6.165 -23.508,6.174 -22.797,6.264 -22.671,6.282 -22.527,6.3 -22.131,6.354 -21.006,6.516 -20.187,6.642 -20.025,6.669 -19.962,6.678 -19.8,6.705 -19.737,6.714 -18.927,6.849 -18.828,6.867 -18.666,6.894 -18.468,6.93 -18.36,6.948 -17.181,7.164 -16.848,7.227 -16.434,7.308 -15.804,7.434 -15.453,7.506 -15.372,7.524 -15.237,7.551 -15.201,7.56 -14.193,7.776 -14.157,7.785 -13.869,7.848 -13.833,7.857 -13.788,7.866 -13.122,8.019 -11.691,8.361 -11.079,8.514 -10.728,8.604 -10.107,8.766 -9.306,8.982 -8.784,9.126 -7.929,9.369 -7.524,9.486 -7.407,9.522 -6.858,9.684 -6.12,9.909 -6.066,9.927 -5.859,9.99 -5.175,10.206 -4.617,10.386 -3.321,10.818 -3.141,10.881 -3.006,10.926 -2.88,10.971 -2.565,11.079 -1.629,11.412 -0.963,11.655 -0.288,11.907 -0.243,11.925 -0.144,11.961 0.351,12.15 0.441,12.186 0.495,12.204 20.385,19.89 20.403,19.899 20.709,20.016 20.799,20.052 21.708,20.394 22.419,20.655 22.995,20.862 24.021,21.222 24.129,21.258 24.309,21.321 24.498,21.384 24.867,21.51 25.767,21.807 26.298,21.978 27.153,22.248 27.918,22.482 28.8,22.743 28.827,22.752 28.953,22.788 28.98,22.797 29.358,22.905 29.448,22.932 29.835,23.04 29.925,23.067 30.906,23.337 30.978,23.355 31.14,23.4 31.212,23.418 31.275,23.436 31.347,23.454 31.581,23.517 32.31,23.706 33.426,23.985 33.615,24.03 33.759,24.066 34.029,24.129 34.29,24.192 34.875,24.327 35.469,24.462 35.595,24.489 35.793,24.534 36.585,24.705 37.323,24.858 38.313,25.056 38.367,25.065 38.592,25.11 38.646,25.119 39.213,25.227 39.267,25.236 39.555,25.29 40.365,25.434 40.527,25.461 40.572,25.47 40.95,25.533 41.049,25.551 41.877,25.686 42.813,25.83 43.299,25.902 43.74,25.965 43.875,25.983 43.929,25.992 44.937,26.127 44.946,26.127 45.216,26.163 45.297,26.172 45.36,26.181 45.441,26.19 45.576,26.208 46.026,26.262 46.188,26.28 46.332,26.298 47.052,26.379 47.646,26.442 48.654,26.541 48.663,26.541 48.861,26.559 48.942,26.568 49.059,26.577 49.563,26.622 49.572,26.622 49.995,26.658 50.337,26.685 50.346,26.685 50.571,26.703 50.823,26.721 50.832,26.721 50.94,26.73 51.084,26.739 51.201,26.748 51.345,26.757 51.462,26.766 51.741,26.784 51.75,26.784 51.885,26.793 51.894,26.793 52.326,26.82 52.812,26.847 52.821,26.847 52.983,26.856 52.992,26.856 53.334,26.874 53.343,26.874 53.514,26.883 53.541,26.883 53.712,26.892 53.721,26.892 54.126,26.91 54.153,26.91 54.351,26.919 54.36,26.919 54.585,26.928 54.612,26.928 54.846,26.937 54.855,26.937 55.107,26.946 55.143,26.946 55.404,26.955 55.431,26.955 55.719,26.964 55.755,26.964 56.097,26.973 56.133,26.973 56.511,26.982 56.574,26.982 57.069,26.991 57.186,26.991 58.122,27 58.5,27 76.5,26.775 76.5,22.725 58.5,22.5 58.104,22.5 57.204,22.491 57.096,22.491 56.637,22.482 56.547,22.482 56.196,22.473 56.133,22.473 55.827,22.464 55.782,22.464 55.494,22.455 55.476,22.455 55.215,22.446 55.17,22.446 54.927,22.437 54.909,22.437 54.684,22.428 54.666,22.428 54.468,22.419 54.45,22.419 54.252,22.41 54.225,22.41 54.036,22.401 54.009,22.401 53.838,22.392 53.811,22.392 53.64,22.383 53.622,22.383 53.118,22.356 53.1,22.356 52.767,22.338 52.47,22.32 52.461,22.32 52.182,22.302 52.164,22.302 51.228,22.239 51.12,22.23 51.102,22.23 50.625,22.194 50.193,22.158 50.175,22.158 49.959,22.14 49.869,22.131 49.248,22.077 48.312,21.987 47.628,21.915 46.746,21.816 46.071,21.735 46.008,21.726 45.297,21.636 45.171,21.618 45.027,21.6 44.631,21.546 44.127,21.474 43.326,21.357 42.687,21.258 42.525,21.231 42.462,21.222 42.3,21.195 42.237,21.186 41.427,21.051 41.328,21.033 41.166,21.006 40.968,20.97 40.86,20.952 39.726,20.745 39.348,20.673 38.934,20.592 38.304,20.466 37.953,20.394 37.872,20.376 37.737,20.349 37.701,20.34 37.485,20.295 36.774,20.142 36.657,20.115 36.369,20.052 36.333,20.043 36.288,20.034 35.658,19.89 34.191,19.539 33.579,19.386 32.607,19.134 31.608,18.864 30.933,18.675 30.024,18.414 29.907,18.378 29.538,18.27 28.62,17.991 28.566,17.973 28.476,17.946 27.675,17.694 27.117,17.514 25.821,17.082 25.641,17.019 25.506,16.974 25.38,16.929 25.065,16.821 24.354,16.569 23.832,16.38 22.788,15.993 22.743,15.975 22.644,15.939 22.149,15.75 22.059,15.714 22.005,15.696 2.115,8.01 2.097,8.001 1.791,7.884 1.701,7.848 0.792,7.506 0.279,7.317 -0.495,7.038 -0.774,6.939 -1.521,6.678 -1.629,6.642 -1.809,6.579 -1.998,6.516 -2.367,6.39 -3.267,6.093 -3.798,5.922 -4.653,5.652 -5.508,5.391 -6.327,5.148 -6.453,5.112 -6.48,5.103 -6.858,4.995 -6.948,4.968 -7.335,4.86 -7.425,4.833 -8.406,4.563 -8.478,4.545 -8.64,4.5 -8.712,4.482 -8.775,4.464 -8.847,4.446 -9.081,4.383 -9.81,4.194 -10.926,3.915 -11.115,3.87 -11.259,3.834 -11.79,3.708 -11.988,3.663 -12.06,3.645 -12.969,3.438 -13.095,3.411 -13.212,3.384 -14.085,3.195 -14.823,3.042 -15.813,2.844 -15.867,2.835 -16.092,2.79 -16.146,2.781 -17.055,2.61 -17.712,2.493 -18.027,2.439 -18.072,2.43 -18.45,2.367 -18.549,2.349 -19.377,2.214 -20.07,2.106 -20.799,1.998 -21.24,1.935 -21.375,1.917 -21.429,1.908 -22.437,1.773 -22.446,1.773 -22.716,1.737 -22.797,1.728 -22.86,1.719 -22.941,1.71 -23.076,1.692 -23.526,1.638 -23.688,1.62 -23.832,1.602 -24.39,1.539 -25.146,1.458 -26.154,1.359 -26.163,1.359 -26.361,1.341 -26.442,1.332 -26.559,1.323 -27.063,1.278 -27.072,1.278 -27.387,1.251 -27.837,1.215 -27.846,1.215 -28.323,1.179 -28.332,1.179 -28.44,1.17 -28.584,1.161 -28.701,1.152 -28.845,1.143 -28.962,1.134 -29.241,1.116 -29.25,1.116 -29.385,1.107 -29.394,1.107 -29.826,1.08 -30.312,1.053 -30.321,1.053 -30.483,1.044 -30.492,1.044 -30.834,1.026 -30.843,1.026 -31.014,1.017 -31.041,1.017 -31.212,1.008 -31.221,1.008 -31.626,0.99 -31.653,0.99 -31.851,0.981 -31.86,0.981 -32.085,0.972 -32.112,0.972 -32.346,0.963 -32.355,0.963 -32.607,0.954 -32.643,0.954 -32.904,0.945 -32.931,0.945 -33.219,0.936 -33.255,0.936 -33.597,0.927 -33.633,0.927 -34.011,0.918 -34.074,0.918 -34.569,0.909 -34.686,0.909 -35.622,0.9 -36,0.9 -36,-0.9 -35.622,-0.9 -34.686,-0.909 -34.569,-0.909 -34.074,-0.918 -34.011,-0.918 -33.633,-0.927 -33.597,-0.927 -33.255,-0.936 -33.219,-0.936 -32.931,-0.945 -32.904,-0.945 -32.643,-0.954 -32.607,-0.954 -32.355,-0.963 -32.346,-0.963 -32.112,-0.972 -32.085,-0.972 -31.86,-0.981 -31.851,-0.981 -31.653,-0.99 -31.626,-0.99 -31.221,-1.008 -31.212,-1.008 -31.041,-1.017 -31.014,-1.017 -30.843,-1.026 -30.834,-1.026 -30.492,-1.044 -30.483,-1.044 -30.321,-1.053 -30.312,-1.053 -29.826,-1.08 -29.394,-1.107 -29.385,-1.107 -29.25,-1.116 -29.241,-1.116 -28.962,-1.134 -28.845,-1.143 -28.701,-1.152 -28.584,-1.161 -28.44,-1.17 -28.332,-1.179 -28.323,-1.179 -27.846,-1.215 -27.837,-1.215 -27.387,-1.251 -27.072,-1.278 -27.063,-1.278 -26.559,-1.323 -26.442,-1.332 -26.361,-1.341 -26.163,-1.359 -26.154,-1.359 -25.146,-1.458 -24.39,-1.539 -23.832,-1.602 -23.688,-1.62 -23.526,-1.638 -23.076,-1.692 -22.941,-1.71 -22.86,-1.719 -22.797,-1.728 -22.716,-1.737 -22.446,-1.773 -22.437,-1.773 -21.429,-1.908 -21.375,-1.917 -21.24,-1.935 -20.799,-1.998 -20.07,-2.106 -19.377,-2.214 -18.549,-2.349 -18.45,-2.367 -18.072,-2.43 -18.027,-2.439 -17.712,-2.493 -17.055,-2.61 -16.146,-2.781 -16.092,-2.79 -15.867,-2.835 -15.813,-2.844 -14.823,-3.042 -14.085,-3.195 -13.212,-3.384 -13.095,-3.411 -12.969,-3.438 -12.06,-3.645 -11.988,-3.663 -11.79,-3.708 -11.259,-3.834 -11.115,-3.87 -10.926,-3.915 -9.81,-4.194 -9.081,-4.383 -8.847,-4.446 -8.775,-4.464 -8.712,-4.482 -8.64,-4.5 -8.478,-4.545 -8.406,-4.563 -7.425,-4.833 -7.335,-4.86 -6.948,-4.968 -6.858,-4.995 -6.48,-5.103 -6.453,-5.112 -6.327,-5.148 -5.508,-5.391 -4.653,-5.652 -3.798,-5.922 -3.267,-6.093 -2.367,-6.39 -1.998,-6.516 -1.809,-6.579 -1.629,-6.642 -1.521,-6.678 -0.774,-6.939 -0.495,-7.038 0.279,-7.317 0.792,-7.506 1.701,-7.848 1.791,-7.884 2.097,-8.001 2.115,-8.01 22.005,-15.696 22.059,-15.714 22.149,-15.75 22.644,-15.939 22.743,-15.975 22.788,-15.993 23.832,-16.38 24.354,-16.569 25.065,-16.821 25.38,-16.929 25.506,-16.974 25.641,-17.019 25.821,-17.082 27.117,-17.514 27.675,-17.694 28.476,-17.946 28.566,-17.973 28.62,-17.991 29.538,-18.27 29.907,-18.378 30.024,-18.414 30.933,-18.675 31.608,-18.864 32.607,-19.134 33.579,-19.386 34.191,-19.539 35.658,-19.89 36.288,-20.034 36.333,-20.043 36.369,-20.052 36.657,-20.115 36.774,-20.142 37.485,-20.295 37.701,-20.34 37.737,-20.349 37.872,-20.376 37.953,-20.394 38.304,-20.466 38.934,-20.592 39.348,-20.673 39.726,-20.745 40.86,-20.952 40.968,-20.97 41.166,-21.006 41.328,-21.033 41.427,-21.051 42.237,-21.186 42.3,-21.195 42.462,-21.222 42.525,-21.231 42.687,-21.258 43.326,-21.357 44.127,-21.474 44.631,-21.546 45.027,-21.6 45.171,-21.618 45.297,-21.636 46.008,-21.726 46.071,-21.735 46.746,-21.816 47.628,-21.915 48.312,-21.987 49.248,-22.077 49.869,-22.131 49.959,-22.14 50.175,-22.158 50.193,-22.158 50.625,-22.194 51.102,-22.23 51.12,-22.23 51.228,-22.239 52.164,-22.302 52.182,-22.302 52.461,-22.32 52.47,-22.32 52.767,-22.338 53.1,-22.356 53.118,-22.356 53.622,-22.383 53.64,-22.383 53.811,-22.392 53.838,-22.392 54.009,-22.401 54.036,-22.401 54.225,-22.41 54.252,-22.41 54.45,-22.419 54.468,-22.419 54.666,-22.428 54.684,-22.428 54.909,-22.437 54.927,-22.437 55.17,-22.446 55.215,-22.446 55.476,-22.455 55.494,-22.455 55.782,-22.464 55.827,-22.464 56.133,-22.473 56.196,-22.473 56.547,-22.482 56.637,-22.482 57.096,-22.491 57.204,-22.491 58.104,-22.5 58.5,-22.5 76.5,-22.725 76.5,-26.775 58.5,-27"/>
<polygon id="000002434A250F40" class="l0d0" points="-80.244,10.053 -80.244,10.053 -80.244,10.053 -80.244,10.053"/>
<polygon id="000002434A2507D0" class="l1d0" points="-85.5,-44.775 -85.5,44.775 76.5,44.775 76.5,-44.775"/>
<use transform="translate(-67.5 0)" xlink:href="#YBranch_YBranch_Compact$1"/>
</g>
<g id="YBranch_YBranch_Compact$1">
</g>
</defs>
<rect x="-107.1" y="-201.375" width="475.2" height="402.75" fill="none" stroke="none"/>
<g id="Splitter" transform="scale(1 -1)">
<use transform="translate(0 0)" xlink:href="#YBranch"/>
<use transform="translate(270 135)" xlink:href="#YBranch"/>
<use transform="translate(270 -135)" xlink:href="#YBranch"/>
<use transform="translate(0 0)" xlink:href="#Splitter_route0"/>
<use transform="translate(0 0)" xlink:href="#Splitter_route1"/>
</g>
</svg>