<?xml version="1.0" encoding="UTF-8"?>
<svg xmlns="http://www.w3.org/2000/svg" xmlns:xlink="http://www.w3.org/1999/xlink" width="237.6" height="141" viewBox="-124.8 -70.5 237.6 141">
<defs>
<style type="text/css">
.l1d0 {stroke: #A1CAF1; fill: #A1CAF1; fill-opacity: 0.5;}
.l0d0 {fill:darkorange;stroke:chocolate;}
</style>
<g id="YBranch_YBranch_Compact$1">
</g>
</defs>
<rect x="-124.8" y="-70.5" width="237.6" height="141" fill="none" stroke="none"/>
<g id="YBranch" transform="scale(1 -1)">
<polygon id="000002434A250610" class="l0d0" points="77.496,-36 76.248,-35.988 76.092,-35.988 75.432,-35.976 75.348,-35.976 74.844,-35.964 74.796,-35.964 74.34,-35.952 74.292,-35.952 73.908,-35.94 73.872,-35.94 73.524,-35.928 73.476,-35.928 73.14,-35.916 73.128,-35.916 72.816,-35.904 72.78,-35.904 72.48,-35.892 72.468,-35.892 72.204,-35.88 72.168,-35.88 71.628,-35.856 71.616,-35.856 71.388,-35.844 71.352,-35.844 71.124,-35.832 71.112,-35.832 70.656,-35.808 70.644,-35.808 70.428,-35.796 70.416,-35.796 69.768,-35.76 69.192,-35.724 69.18,-35.724 69,-35.712 68.988,-35.712 68.616,-35.688 68.46,-35.676 68.268,-35.664 68.112,-35.652 67.92,-35.64 67.776,-35.628 67.764,-35.628 67.428,-35.604 67.128,-35.58 67.116,-35.58 66.66,-35.544 66.096,-35.496 66.084,-35.496 65.412,-35.436 65.256,-35.424 65.148,-35.412 64.884,-35.388 64.872,-35.388 63.528,-35.256 62.736,-35.172 61.776,-35.064 61.584,-35.04 61.368,-35.016 60.768,-34.944 60.588,-34.92 60.48,-34.908 60.396,-34.896 60.288,-34.884 59.928,-34.836 59.916,-34.836 58.572,-34.656 58.5,-34.644 58.32,-34.62 57.732,-34.536 57.084,-34.44 55.836,-34.248 54.732,-34.068 54.6,-34.044 54.096,-33.96 54.036,-33.948 53.82,-33.912 52.74,-33.72 52.356,-33.648 52.284,-33.636 51.528,-33.492 51.456,-33.48 51.156,-33.42 51.084,-33.408 49.764,-33.144 48.78,-32.94 47.724,-32.712 47.46,-32.652 47.292,-32.616 46.5,-32.436 45.72,-32.256 45.372,-32.172 45.012,-32.088 44.82,-32.04 44.568,-31.98 43.08,-31.608 42.108,-31.356 41.796,-31.272 41.7,-31.248 41.616,-31.224 41.52,-31.2 41.304,-31.14 41.208,-31.116 39.9,-30.756 39.78,-30.72 39.264,-30.576 39.144,-30.54 38.64,-30.396 38.604,-30.384 38.436,-30.336 38.4,-30.324 37.224,-29.976 36.204,-29.664 35.064,-29.304 34.356,-29.076 33.156,-28.68 32.664,-28.512 32.412,-28.428 32.172,-28.344 32.028,-28.296 30.66,-27.816 29.892,-27.54 28.944,-27.192 27.732,-26.736 27.612,-26.688 27.204,-26.532 27.18,-26.52 0.66,-16.272 0.588,-16.248 0.468,-16.2 -0.192,-15.948 -0.324,-15.9 -0.384,-15.876 -1.284,-15.54 -2.172,-15.216 -3.42,-14.772 -3.84,-14.628 -4.008,-14.568 -4.188,-14.508 -4.428,-14.424 -6.156,-13.848 -6.9,-13.608 -7.812,-13.32 -8.088,-13.236 -8.16,-13.212 -9.144,-12.912 -9.876,-12.696 -10.032,-12.648 -10.572,-12.492 -11.712,-12.168 -12.408,-11.976 -13.476,-11.688 -14.304,-11.472 -14.772,-11.352 -15.588,-11.148 -17.496,-10.692 -18.384,-10.488 -18.444,-10.476 -18.492,-10.464 -18.876,-10.38 -18.924,-10.368 -20.268,-10.08 -20.316,-10.068 -20.496,-10.032 -20.604,-10.008 -21.072,-9.912 -21.912,-9.744 -22.464,-9.636 -22.908,-9.552 -24.48,-9.264 -24.624,-9.24 -24.888,-9.192 -25.104,-9.156 -25.236,-9.132 -26.316,-8.952 -26.4,-8.94 -26.616,-8.904 -26.7,-8.892 -26.916,-8.856 -28.008,-8.688 -29.508,-8.472 -30.036,-8.4 -30.228,-8.376 -30.396,-8.352 -31.344,-8.232 -31.428,-8.22 -32.124,-8.136 -33.504,-7.98 -34.416,-7.884 -35.928,-7.74 -36.216,-7.716 -36.612,-7.68 -36.9,-7.656 -36.924,-7.656 -37.5,-7.608 -38.136,-7.56 -38.16,-7.56 -38.304,-7.548 -39.552,-7.464 -39.576,-7.464 -39.948,-7.44 -39.96,-7.44 -40.8,-7.392 -40.824,-7.392 -41.496,-7.356 -41.52,-7.356 -41.748,-7.344 -41.784,-7.344 -42.012,-7.332 -42.048,-7.332 -42.3,-7.32 -42.336,-7.32 -42.6,-7.308 -42.624,-7.308 -42.888,-7.296 -42.912,-7.296 -43.212,-7.284 -43.236,-7.284 -43.56,-7.272 -43.62,-7.272 -43.968,-7.26 -43.992,-7.26 -44.376,-7.248 -44.436,-7.248 -44.844,-7.236 -44.928,-7.236 -45.396,-7.224 -45.516,-7.224 -46.128,-7.212 -46.272,-7.212 -47.472,-7.2 -48,-7.2 -48.708,-7.152 -49.848,-7.176 -51.66,-7.728 -53.232,-8.244 -56.616,-8.448 -59.448,-8.484 -61.452,-7.92 -62.664,-6.852 -64.704,-4.932 -66.252,-4.128 -68.424,-3.468 -69.804,-3.084 -71.22,-2.928 -72,-3 -90,-3 -114,-2.7 -114,2.7 -90,3 -72,3 -71.016,2.94 -70.068,3 -68.844,3.3 -66.564,4.02 -64.752,4.788 -62.484,7.044 -61.416,7.968 -60.12,8.376 -53.964,8.496 -50.028,7.224 -48,7.2 -47.472,7.2 -46.272,7.212 -46.128,7.212 -45.516,7.224 -45.396,7.224 -44.928,7.236 -44.844,7.236 -44.436,7.248 -44.376,7.248 -43.992,7.26 -43.968,7.26 -43.62,7.272 -43.56,7.272 -43.236,7.284 -43.212,7.284 -42.912,7.296 -42.888,7.296 -42.624,7.308 -42.6,7.308 -42.336,7.32 -42.3,7.32 -42.048,7.332 -42.012,7.332 -41.784,7.344 -41.748,7.344 -41.52,7.356 -41.496,7.356 -40.824,7.392 -40.8,7.392 -39.96,7.44 -39.948,7.44 -39.576,7.464 -39.552,7.464 -38.304,7.548 -38.16,7.56 -38.136,7.56 -37.5,7.608 -36.924,7.656 -36.9,7.656 -36.612,7.68 -36.216,7.716 -35.928,7.74 -34.416,7.884 -33.504,7.98 -32.124,8.136 -31.428,8.22 -31.344,8.232 -30.396,8.352 -30.228,8.376 -30.036,8.4 -29.508,8.472 -28.008,8.688 -26.916,8.856 -26.7,8.892 -26.616,8.904 -26.4,8.94 -26.316,8.952 -25.236,9.132 -25.104,9.156 -24.888,9.192 -24.624,9.24 -24.48,9.264 -22.908,9.552 -22.464,9.636 -21.912,9.744 -21.072,9.912 -20.604,10.008 -20.496,10.032 -20.316,10.068 -20.268,10.08 -18.924,10.368 -18.876,10.38 -18.492,10.464 -18.444,10.476 -18.384,10.488 -17.496,10.692 -15.588,11.148 -14.772,11.352 -14.304,11.472 -13.476,11.688 -12.408,11.976 -11.712,12.168 -10.572,12.492 -10.032,12.648 -9.876,12.696 -9.144,12.912 -8.16,13.212 -8.088,13.236 -7.812,13.32 -6.9,13.608 -6.156,13.848 -4.428,14.424 -4.188,14.508 -4.008,14.568 -3.84,14.628 -3.42,14.772 -2.172,15.216 -1.284,15.54 -0.384,15.876 -0.324,15.9 -0.192,15.948 0.468,16.2 0.588,16.248 0.66,16.272 27.18,26.52 27.204,26.532 27.612,26.688 27.732,26.736 28.944,27.192 29.892,27.54 30.66,27.816 32.028,28.296 32.172,28.344 32.412,28.428 32.664,28.512 33.156,28.68 34.356,29.076 35.064,29.304 36.204,29.664 37.224,29.976 38.4,30.324 38.436,30.336 38.604,30.384 38.64,30.396 39.144,30.54 39.264,30.576 39.78,30.72 39.9,30.756 41.208,31.116 41.304,31.14 41.52,31.2 41.616,31.224 41.7,31.248 41.796,31.272 42.108,31.356 43.08,31.608 44.568,31.98 44.82,32.04 45.012,32.088 45.372,32.172 45.72,32.256 46.5,32.436 47.292,32.616 47.46,32.652 47.724,32.712 48.78,32.94 49.764,33.144 51.084,33.408 51.156,33.42 51.456,33.48 51.528,33.492 52.284,33.636 52.356,33.648 52.74,33.72 53.82,33.912 54.036,33.948 54.096,33.96 54.6,34.044 54.732,34.068 55.836,34.248 57.084,34.44 57.732,34.536 58.32,34.62 58.5,34.644 58.572,34.656 59.916,34.836 59.928,34.836 60.288,34.884 60.396,34.896 60.48,34.908 60.588,34.92 60.768,34.944 61.368,35.016 61.584,35.04 61.776,35.064 62.736,35.172 63.528,35.256 64.872,35.388 64.884,35.388 65.148,35.412 65.256,35.424 65.412,35.436 66.084,35.496 66.096,35.496 66.66,35.544 67.116,35.58 67.128,35.58 67.428,35.604 67.764,35.628 67.776,35.628 67.92,35.64 68.112,35.652 68.268,35.664 68.46,35.676 68.616,35.688 68.988,35.712 69,35.712 69.18,35.724 69.192,35.724 69.768,35.76 70.416,35.796 70.428,35.796 70.644,35.808 70.656,35.808 71.112,35.832 71.124,35.832 71.352,35.844 71.388,35.844 71.616,35.856 71.628,35.856 72.168,35.88 72.204,35.88 72.468,35.892 72.48,35.892 72.78,35.904 72.816,35.904 73.128,35.916 73.14,35.916 73.476,35.928 73.524,35.928 73.872,35.94 73.908,35.94 74.292,35.952 74.34,35.952 74.796,35.964 74.844,35.964 75.348,35.976 75.432,35.976 76.092,35.988 76.248,35.988 77.496,36 78,36 102,35.7 102,30.3 78,30 77.472,30 76.272,29.988 76.128,29.988 75.516,29.976 75.396,29.976 74.928,29.964 74.844,29.964 74.436,29.952 74.376,29.952 73.992,29.94 73.968,29.94 73.62,29.928 73.56,29.928 73.236,29.916 73.212,29.916 72.912,29.904 72.888,29.904 72.624,29.892 72.6,29.892 72.336,29.88 72.3,29.88 72.048,29.868 72.012,29.868 71.784,29.856 71.748,29.856 71.52,29.844 71.496,29.844 70.824,29.808 70.8,29.808 70.356,29.784 69.96,29.76 69.948,29.76 69.576,29.736 69.552,29.736 68.304,29.652 68.16,29.64 68.136,29.64 67.5,29.592 66.924,29.544 66.9,29.544 66.612,29.52 66.492,29.508 65.664,29.436 64.416,29.316 63.504,29.22 62.328,29.088 61.428,28.98 61.344,28.968 60.396,28.848 60.228,28.824 60.036,28.8 59.508,28.728 58.836,28.632 57.768,28.476 56.916,28.344 56.7,28.308 56.616,28.296 56.4,28.26 56.316,28.248 55.236,28.068 55.104,28.044 54.888,28.008 54.624,27.96 54.48,27.936 52.968,27.66 52.464,27.564 51.912,27.456 51.072,27.288 50.604,27.192 50.496,27.168 50.316,27.132 50.268,27.12 49.98,27.06 49.032,26.856 48.876,26.82 48.492,26.736 48.444,26.724 48.384,26.712 47.544,26.52 45.588,26.052 44.772,25.848 43.476,25.512 42.144,25.152 41.244,24.9 40.032,24.552 39.876,24.504 39.384,24.36 38.16,23.988 38.088,23.964 37.968,23.928 36.9,23.592 36.156,23.352 34.428,22.776 34.188,22.692 34.008,22.632 33.84,22.572 33.42,22.428 32.472,22.092 31.776,21.84 30.384,21.324 30.324,21.3 30.192,21.252 29.532,21 29.412,20.952 29.34,20.928 2.82,10.68 2.796,10.668 2.388,10.512 2.268,10.464 1.056,10.008 0.372,9.756 -0.66,9.384 -1.032,9.252 -2.028,8.904 -2.172,8.856 -2.412,8.772 -2.664,8.688 -3.156,8.52 -4.356,8.124 -5.064,7.896 -6.204,7.536 -7.344,7.188 -8.436,6.864 -8.604,6.816 -8.64,6.804 -9.144,6.66 -9.264,6.624 -9.78,6.48 -9.9,6.444 -11.208,6.084 -11.304,6.06 -11.52,6 -11.616,5.976 -11.7,5.952 -11.796,5.928 -12.108,5.844 -13.08,5.592 -14.568,5.22 -14.82,5.16 -15.012,5.112 -15.72,4.944 -15.984,4.884 -16.08,4.86 -17.292,4.584 -17.46,4.548 -17.616,4.512 -18.78,4.26 -19.764,4.056 -21.084,3.792 -21.156,3.78 -21.456,3.72 -21.528,3.708 -22.74,3.48 -23.616,3.324 -24.036,3.252 -24.096,3.24 -24.6,3.156 -24.732,3.132 -25.836,2.952 -26.76,2.808 -27.732,2.664 -28.32,2.58 -28.5,2.556 -28.572,2.544 -29.916,2.364 -29.928,2.364 -30.288,2.316 -30.396,2.304 -30.48,2.292 -30.588,2.28 -30.768,2.256 -31.368,2.184 -31.584,2.16 -31.776,2.136 -32.52,2.052 -33.528,1.944 -34.872,1.812 -34.884,1.812 -35.148,1.788 -35.256,1.776 -35.412,1.764 -36.084,1.704 -36.096,1.704 -36.516,1.668 -37.116,1.62 -37.128,1.62 -37.764,1.572 -37.776,1.572 -37.92,1.56 -38.112,1.548 -38.268,1.536 -38.46,1.524 -38.616,1.512 -38.988,1.488 -39,1.488 -39.18,1.476 -39.192,1.476 -39.768,1.44 -40.416,1.404 -40.428,1.404 -40.644,1.392 -40.656,1.392 -41.112,1.368 -41.124,1.368 -41.352,1.356 -41.388,1.356 -41.616,1.344 -41.628,1.344 -42.168,1.32 -42.204,1.32 -42.468,1.308 -42.48,1.308 -42.78,1.296 -42.816,1.296 -43.128,1.284 -43.14,1.284 -43.476,1.272 -43.524,1.272 -43.872,1.26 -43.908,1.26 -44.292,1.248 -44.34,1.248 -44.796,1.236 -44.844,1.236 -45.348,1.224 -45.432,1.224 -46.092,1.212 -46.248,1.212 -47.496,1.2 -48,1.2 -48,-1.2 -47.496,-1.2 -46.248,-1.212 -46.092,-1.212 -45.432,-1.224 -45.348,-1.224 -44.844,-1.236 -44.796,-1.236 -44.34,-1.248 -44.292,-1.248 -43.908,-1.26 -43.872,-1.26 -43.524,-1.272 -43.476,-1.272 -43.14,-1.284 -43.128,-1.284 -42.816,-1.296 -42.78,-1.296 -42.48,-1.308 -42.468,-1.308 -42.204,-1.32 -42.168,-1.32 -41.628,-1.344 -41.616,-1.344 -41.388,-1.356 -41.352,-1.356 -41.124,-1.368 -41.112,-1.368 -40.656,-1.392 -40.644,-1.392 -40.428,-1.404 -40.416,-1.404 -39.768,-1.44 -39.192,-1.476 -39.18,-1.476 -39,-1.488 -38.988,-1.488 -38.616,-1.512 -38.46,-1.524 -38.268,-1.536 -38.112,-1.548 -37.92,-1.56 -37.776,-1.572 -37.764,-1.572 -37.128,-1.62 -37.116,-1.62 -36.516,-1.668 -36.096,-1.704 -36.084,-1.704 -35.412,-1.764 -35.256,-1.776 -35.148,-1.788 -34.884,-1.812 -34.872,-1.812 -33.528,-1.944 -32.52,-2.052 -31.776,-2.136 -31.584,-2.16 -31.368,-2.184 -30.768,-2.256 -30.588,-2.28 -30.48,-2.292 -30.396,-2.304 -30.288,-2.316 -29.928,-2.364 -29.916,-2.364 -28.572,-2.544 -28.5,-2.556 -28.32,-2.58 -27.732,-2.664 -26.76,-2.808 -25.836,-2.952 -24.732,-3.132 -24.6,-3.156 -24.096,-3.24 -24.036,-3.252 -23.616,-3.324 -22.74,-3.48 -21.528,-3.708 -21.456,-3.72 -21.156,-3.78 -21.084,-3.792 -19.764,-4.056 -18.78,-4.26 -17.616,-4.512 -17.46,-4.548 -17.292,-4.584 -16.08,-4.86 -15.984,-4.884 -15.72,-4.944 -15.012,-5.112 -14.82,-5.16 -14.568,-5.22 -13.08,-5.592 -12.108,-5.844 -11.796,-5.928 -11.7,-5.952 -11.616,-5.976 -11.52,-6 -11.304,-6.06 -11.208,-6.084 -9.9,-6.444 -9.78,-6.48 -9.264,-6.624 -9.144,-6.66 -8.64,-6.804 -8.604,-6.816 -8.436,-6.864 -7.344,-7.188 -6.204,-7.536 -5.064,-7.896 -4.356,-8.124 -3.156,-8.52 -2.664,-8.688 -2.412,-8.772 -2.172,-8.856 -2.028,-8.904 -1.032,-9.252 -0.66,-9.384 0.372,-9.756 1.056,-10.008 2.268,-10.464 2.388,-10.512 2.796,-10.668 2.82,-10.68 29.34,-20.928 29.412,-20.952 29.532,-21 30.192,-21.252 30.324,-21.3 30.384,-21.324 31.776,-21.84 32.472,-22.092 33.42,-22.428 33.84,-22.572 34.008,-22.632 34.188,-22.692 34.428,-22.776 36.156,-23.352 36.9,-23.592 37.968,-23.928 38.088,-23.964 38.16,-23.988 39.384,-24.36 39.876,-24.504 40.032,-24.552 41.244,-24.9 42.144,-25.152 43.476,-25.512 44.772,-25.848 45.588,-26.052 47.544,-26.52 48.384,-26.712 48.444,-26.724 48.492,-26.736 48.876,-26.82 49.032,-26.856 49.98,-27.06 50.268,-27.12 50.316,-27.132 50.496,-27.168 50.604,-27.192 51.072,-27.288 51.912,-27.456 52.464,-27.564 52.968,-27.66 54.48,-27.936 54.624,-27.96 54.888,-28.008 55.104,-28.044 55.236,-28.068 56.316,-28.248 56.4,-28.26 56.616,-28.296 56.7,-28.308 56.916,-28.344 57.768,-28.476 58.836,-28.632 59.508,-28.728 60.036,-28.8 60.228,-28.824 60.396,-28.848 61.344,-28.968 61.428,-28.98 62.328,-29.088 63.504,-29.22 64.416,-29.316 65.664,-29.436 66.492,-29.508 66.612,-29.52 66.9,-29.544 66.924,-29.544 67.5,-29.592 68.136,-29.64 68.16,-29.64 68.304,-29.652 69.552,-29.736 69.576,-29.736 69.948,-29.76 69.96,-29.76 70.356,-29.784 70.8,-29.808 70.824,-29.808 71.496,-29.844 71.52,-29.844 71.748,-29.856 71.784,-29.856 72.012,-29.868 72.048,-29.868 72.3,-29.88 72.336,-29.88 72.6,-29.892 72.624,-29.892 72.888,-29.904 72.912,-29.904 73.212,-29.916 73.236,-29.916 73.56,-29.928 73.62,-29.928 73.968,-29.94 73.992,-29.94 74.376,-29.952 74.436,-29.952 74.844,-29.964 74.928,-29.964 75.396,-29.976 75.516,-29.976 76.128,-29.988 76.272,-29.988 77.472,-30 78,-30 102,-30.3 102,-35.7 78,-36"/>
<polygon id="000002434A250F40" class="l0d0" points="-106.992,13.404 -106.992,13.404 -106.992,13.404 -106.992,13.404"/>
<polygon id="000002434A2507D0" class="l1d0" points="-114,-59.7 -114,59.7 102,59.7 102,-59.7"/>
<use transform="translate(-90 0)" xlink:href="#YBranch_YBranch_Compact$1"/>
</g>
</svg>