<?xml version="1.0" encoding="UTF-8"?>
<svg xmlns="http://www.w3.org/2000/svg" xmlns:xlink="http://www.w3.org/1999/xlink" width="600" height="104.784674" viewBox="-27.272811 -52.392337 600 104.784674">
<defs>
<style type="text/css">
.l1d0 {stroke: #A1CAF1; fill: #A1CAF1; fill-opacity: 0.5;}
.l0d0 {fill:darkorange;stroke:chocolate;}
</style>
<g id="Directional_Coupler">
<polygon id="0000017E5AE8B380" class="l0d0" points="0.923185,-15.961444 1.846287,-15.939113 2.769224,-15.90196 3.691914,-15.850086 4.61428,-15.783628 6.457735,-15.607708 8.29902,-15.376065 10.137634,-15.091136 11.973146,-14.755895 13.805202,-14.373811 15.633518,-13.948801 17.457881,-13.485183 19.278132,-12.987626 21.094161,-12.461102 22.905894,-11.910831 26.516313,-10.760874 33.684576,-8.42124 35.465699,-7.8609 37.242481,-7.321237 39.014968,-6.807326 40.783233,-6.323967 42.547386,-5.875636 44.307585,-5.466446 46.064045,-5.100113 47.817049,-4.779928 49.56695,-4.508733 51.31418,-4.28891 53.059241,-4.122371 54.802701,-4.010548 56.109615,-3.963181 57.416334,-3.947367 75.358829,-3.947367 93.301407,-3.947367 111.243985,-3.947367 129.186563,-3.947367 130.928792,-3.975472 132.67168,-4.059549 134.415866,-4.198879 136.161944,-4.392269 137.910452,-4.638047 139.661855,-4.934064 141.416548,-5.277707 143.174846,-5.665907 144.936999,-6.095157 146.703191,-6.56154 148.473556,-7.060755 150.248183,-7.588161 152.027131,-8.138813 155.598115,-9.28886 159.18663,-10.467175 162.792678,-11.628478 164.602246,-12.1886 166.416134,-12.727664 168.234285,-13.240342 170.056609,-13.721533 171.882971,-14.16641 173.713188,-14.570473 175.547012,-14.929598 177.384124,-15.240087 179.224132,-15.498713 181.066569,-15.702764 181.988534,-15.783628 182.910899,-15.850086 183.83359,-15.90196 184.756527,-15.939113 185.679629,-15.961444 186.60273,-15.968895 186.602897,-12.739231 185.296179,-12.723417 183.989264,-12.67605 182.245805,-12.564227 180.500744,-12.397687 178.753514,-12.177865 177.003612,-11.90667 175.250608,-11.586484 173.494148,-11.220151 171.733949,-10.810962 169.969796,-10.362631 168.201531,-9.879272 166.429044,-9.365361 164.652262,-8.825697 162.87114,-8.265357 155.702876,-5.925724 152.092458,-4.775767 150.280724,-4.225496 148.464695,-3.698972 146.644444,-3.201415 144.820082,-2.737797 142.991765,-2.312787 141.15971,-1.930703 139.324198,-1.595462 137.485584,-1.310533 135.644298,-1.07889 133.800843,-0.90297 132.878478,-0.836512 131.955787,-0.784638 131.032851,-0.747485 130.109748,-0.725154 129.186563,-0.717703 111.243985,-0.717703 93.301407,-0.717703 75.358829,-0.717703 57.416167,-0.717703 56.493065,-0.725154 55.569963,-0.747485 54.647026,-0.784638 53.724336,-0.836512 52.80197,-0.90297 51.880006,-0.983834 50.037569,-1.187885 48.197561,-1.446511 46.360448,-1.756999 44.526625,-2.116124 42.696408,-2.520187 40.870045,-2.965064 39.047722,-3.446255 37.229571,-3.958934 35.415683,-4.497998 33.606115,-5.05812 30.000067,-6.219422 26.411551,-7.397738 22.840568,-8.547785 21.06162,-9.098437 19.286993,-9.625843 17.516628,-10.125058 15.750436,-10.591441 13.988283,-11.020691 12.229984,-11.408891 10.475292,-11.752534 8.723888,-12.048551 6.975381,-12.294328 5.229303,-12.487718 3.485117,-12.627049 1.742228,-12.711125 -0.000083,-12.739231 0.000083,-15.968895"/>
<polygon id="0000017E5AE8B930" class="l0d0" points="1.742228,12.711125 3.485117,12.627049 5.229303,12.487718 6.975381,12.294328 8.723888,12.048551 10.475292,11.752534 12.229984,11.408891 13.988283,11.020691 15.750436,10.591441 17.516628,10.125058 19.286993,9.625843 21.06162,9.098437 22.840568,8.547785 26.411551,7.397738 30.000067,6.219422 33.606115,5.05812 35.415683,4.497998 37.229571,3.958934 39.047722,3.446255 40.870045,2.965064 42.696408,2.520187 44.526625,2.116124 46.360448,1.756999 48.197561,1.446511 50.037569,1.187885 51.880006,0.983834 52.80197,0.90297 53.724336,0.836512 54.647026,0.784638 55.569963,0.747485 56.493065,0.725154 57.416167,0.717703 75.358829,0.717703 93.301407,0.717703 111.243985,0.717703 129.186563,0.717703 130.109748,0.725154 131.032851,0.747485 131.955787,0.784638 132.878478,0.836512 133.800843,0.90297 135.644298,1.07889 137.485584,1.310533 139.324198,1.595462 141.15971,1.930703 142.991765,2.312787 144.820082,2.737797 146.644444,3.201415 148.464695,3.698972 150.280724,4.225496 152.092458,4.775767 155.702876,5.925724 162.87114,8.265357 164.652262,8.825697 166.429044,9.365361 168.201531,9.879272 169.969796,10.362631 171.733949,10.810962 173.494148,11.220151 175.250608,11.586484 177.003612,11.90667 178.753514,12.177865 180.500744,12.397687 182.245805,12.564227 183.989264,12.67605 185.296179,12.723417 186.602897,12.739231 186.60273,15.968895 185.679629,15.961444 184.756527,15.939113 183.83359,15.90196 182.910899,15.850086 181.988534,15.783628 181.066569,15.702764 179.224132,15.498713 177.384124,15.240087 175.547012,14.929598 173.713188,14.570473 171.882971,14.16641 170.056609,13.721533 168.234285,13.240342 166.416134,12.727664 164.602246,12.1886 162.792678,11.628478 159.18663,10.467175 155.598115,9.28886 152.027131,8.138813 150.248183,7.588161 148.473556,7.060755 146.703191,6.56154 144.936999,6.095157 143.174846,5.665907 141.416548,5.277707 139.661855,4.934064 137.910452,4.638047 136.161944,4.392269 134.415866,4.198879 132.67168,4.059549 130.928792,3.975472 129.186563,3.947367 111.243985,3.947367 93.301407,3.947367 75.358829,3.947367 57.416334,3.947367 56.109615,3.963181 54.802701,4.010548 53.059241,4.122371 51.31418,4.28891 49.56695,4.508733 47.817049,4.779928 46.064045,5.100113 44.307585,5.466446 42.547386,5.875636 40.783233,6.323967 39.014968,6.807326 37.242481,7.321237 35.465699,7.8609 33.684576,8.42124 26.516313,10.760874 22.905894,11.910831 21.094161,12.461102 19.278132,12.987626 17.457881,13.485183 15.633518,13.948801 13.805202,14.373811 11.973146,14.755895 10.137634,15.091136 8.29902,15.376065 6.457735,15.607708 4.61428,15.783628 3.691914,15.850086 2.769224,15.90196 1.846287,15.939113 0.923185,15.961444 0.000083,15.968895 -0.000083,12.739231"/>
</g>
<g id="Balanced_MZI_route0">
<polygon id="0000017E5AE8B380" class="l0d0" points="186.602814,15.968895 186.602814,12.739231 358.851565,12.739231 358.851565,15.968895"/>
<polygon id="0000017E5AE8B930" class="l1d0" points="186.602814,25.11961 186.602814,3.588516 358.851565,3.588516 358.851565,25.11961"/>
</g>
<g id="Balanced_MZI_route1">
<polygon id="0000017E5AE8BF50" class="l0d0" points="186.602814,-12.739231 186.602814,-15.968895 358.851565,-15.968895 358.851565,-12.739231"/>
<polygon id="0000017E5AE8BFC0" class="l1d0" points="186.602814,-3.588516 186.602814,-25.11961 358.851565,-25.11961 358.851565,-3.588516"/>
</g>
</defs>
<rect x="-27.272811" y="-52.392337" width="600" height="104.784674" fill="none" stroke="none"/>
<g id="Balanced_MZI" transform="scale(1 -1)">
<use transform="translate(0 0)" xlink:href="#Directional_Coupler"/>
<use transform="translate(358.851565 0)" xlink:href="#Directional_Coupler"/>
<use transform="translate(0 0)" xlink:href="#Balanced_MZI_route0"/>
<use transform="translate(0 0)" xlink:href="#Balanced_MZI_route1"/>
</g>
</svg>