<?xml version="1.0" encoding="UTF-8"?>
<svg xmlns="http://www.w3.org/2000/svg" xmlns:xlink="http://www.w3.org/1999/xlink" width="507.1" height="274.2" viewBox="-191.05 -137.1 507.1 274.2">
<defs>
<style type="text/css">
.l0d0 {fill:darkorange;stroke:chocolate;}
.l2d0 {stroke: #BE0032; fill: #BE0032; fill-opacity: 0.5;}
</style>
<g id="DC">
<polygon id="000001671BB071B0" class="l0d0" points="0.643152,-11.11981 1.286247,-11.104252 1.929227,-11.078369 2.572035,-11.04223 3.214616,-10.995931 4.49889,-10.873373 5.781653,-10.711995 7.062554,-10.513494 8.341294,-10.279943 9.617627,-10.013758 10.891355,-9.717667 12.162328,-9.39468 13.430436,-9.048049 14.695603,-8.681237 15.957778,-8.297881 18.473037,-7.496745 23.466929,-5.866799 24.707778,-5.476429 25.945603,-5.100463 27.180436,-4.742438 28.412328,-4.405698 29.641355,-4.093361 30.867627,-3.808292 32.091294,-3.55308 33.312554,-3.330017 34.531653,-3.141085 35.74889,-2.987942 36.964616,-2.871919 38.179227,-2.794016 39.089711,-2.761017 40.000058,-2.75 52.5,-2.75 65,-2.75 77.5,-2.75 90,-2.75 91.213753,-2.76958 92.427965,-2.828153 93.643082,-2.92522 94.859517,-3.059949 96.077644,-3.231173 97.297789,-3.437399 98.520225,-3.676804 99.745173,-3.94725 100.972807,-4.246294 102.203255,-4.571207 103.436609,-4.918994 104.672933,-5.28642 105.912267,-5.670041 108.400053,-6.471241 110.900053,-7.292134 113.412267,-8.101175 114.672933,-8.491394 115.936609,-8.866942 117.203255,-9.224108 118.472807,-9.559338 119.745173,-9.869269 121.020225,-10.150766 122.297789,-10.400957 123.577644,-10.617264 124.859517,-10.79744 126.143082,-10.939595 126.785384,-10.995931 127.427965,-11.04223 128.070773,-11.078369 128.713753,-11.104252 129.356848,-11.11981 129.999942,-11.125 130.000058,-8.875 129.089711,-8.863983 128.179227,-8.830984 126.964616,-8.753081 125.74889,-8.637058 124.531653,-8.483915 123.312554,-8.294983 122.091294,-8.07192 120.867627,-7.816708 119.641355,-7.531639 118.412328,-7.219302 117.180436,-6.882562 115.945603,-6.524537 114.707778,-6.148571 113.466929,-5.758201 108.473037,-4.128255 105.957778,-3.327119 104.695603,-2.943763 103.430436,-2.576951 102.162328,-2.23032 100.891355,-1.907333 99.617627,-1.611242 98.341294,-1.345057 97.062554,-1.111506 95.781653,-0.913005 94.49889,-0.751627 93.214616,-0.629069 92.572035,-0.58277 91.929227,-0.546631 91.286247,-0.520748 90.643152,-0.50519 90,-0.5 77.5,-0.5 65,-0.5 52.5,-0.5 39.999942,-0.5 39.356848,-0.50519 38.713753,-0.520748 38.070773,-0.546631 37.427965,-0.58277 36.785384,-0.629069 36.143082,-0.685405 34.859517,-0.82756 33.577644,-1.007736 32.297789,-1.224043 31.020225,-1.474234 29.745173,-1.755731 28.472807,-2.065662 27.203255,-2.400892 25.936609,-2.758058 24.672933,-3.133606 23.412267,-3.523825 20.900053,-4.332866 18.400053,-5.153759 15.912267,-5.954959 14.672933,-6.33858 13.436609,-6.706006 12.203255,-7.053793 10.972807,-7.378706 9.745173,-7.67775 8.520225,-7.948196 7.297789,-8.187601 6.077644,-8.393827 4.859517,-8.565051 3.643082,-8.69978 2.427965,-8.796847 1.213753,-8.85542 -0.000058,-8.875 0.000058,-11.125"/>
<polygon id="000001671BB07920" class="l0d0" points="1.213753,8.85542 2.427965,8.796847 3.643082,8.69978 4.859517,8.565051 6.077644,8.393827 7.297789,8.187601 8.520225,7.948196 9.745173,7.67775 10.972807,7.378706 12.203255,7.053793 13.436609,6.706006 14.672933,6.33858 15.912267,5.954959 18.400053,5.153759 20.900053,4.332866 23.412267,3.523825 24.672933,3.133606 25.936609,2.758058 27.203255,2.400892 28.472807,2.065662 29.745173,1.755731 31.020225,1.474234 32.297789,1.224043 33.577644,1.007736 34.859517,0.82756 36.143082,0.685405 36.785384,0.629069 37.427965,0.58277 38.070773,0.546631 38.713753,0.520748 39.356848,0.50519 39.999942,0.5 52.5,0.5 65,0.5 77.5,0.5 90,0.5 90.643152,0.50519 91.286247,0.520748 91.929227,0.546631 92.572035,0.58277 93.214616,0.629069 94.49889,0.751627 95.781653,0.913005 97.062554,1.111506 98.341294,1.345057 99.617627,1.611242 100.891355,1.907333 102.162328,2.23032 103.430436,2.576951 104.695603,2.943763 105.957778,3.327119 108.473037,4.128255 113.466929,5.758201 114.707778,6.148571 115.945603,6.524537 117.180436,6.882562 118.412328,7.219302 119.641355,7.531639 120.867627,7.816708 122.091294,8.07192 123.312554,8.294983 124.531653,8.483915 125.74889,8.637058 126.964616,8.753081 128.179227,8.830984 129.089711,8.863983 130.000058,8.875 129.999942,11.125 129.356848,11.11981 128.713753,11.104252 128.070773,11.078369 127.427965,11.04223 126.785384,10.995931 126.143082,10.939595 124.859517,10.79744 123.577644,10.617264 122.297789,10.400957 121.020225,10.150766 119.745173,9.869269 118.472807,9.559338 117.203255,9.224108 115.936609,8.866942 114.672933,8.491394 113.412267,8.101175 110.900053,7.292134 108.400053,6.471241 105.912267,5.670041 104.672933,5.28642 103.436609,4.918994 102.203255,4.571207 100.972807,4.246294 99.745173,3.94725 98.520225,3.676804 97.297789,3.437399 96.077644,3.231173 94.859517,3.059949 93.643082,2.92522 92.427965,2.828153 91.213753,2.76958 90,2.75 77.5,2.75 65,2.75 52.5,2.75 40.000058,2.75 39.089711,2.761017 38.179227,2.794016 36.964616,2.871919 35.74889,2.987942 34.531653,3.141085 33.312554,3.330017 32.091294,3.55308 30.867627,3.808292 29.641355,4.093361 28.412328,4.405698 27.180436,4.742438 25.945603,5.100463 24.707778,5.476429 23.466929,5.866799 18.473037,7.496745 15.957778,8.297881 14.695603,8.681237 13.430436,9.048049 12.162328,9.39468 10.891355,9.717667 9.617627,10.013758 8.341294,10.279943 7.062554,10.513494 5.781653,10.711995 4.49889,10.873373 3.214616,10.995931 2.572035,11.04223 1.929227,11.078369 1.286247,11.104252 0.643152,11.11981 0.000058,11.125 -0.000058,8.875"/>
</g>
<g id="DC_Circuit_route1">
<polygon id="000001671BB07920" class="l0d0" points="0,-11.125 0,-8.875 -25,-8.875 -25.455944,-8.878979 -25.911749,-8.890915 -26.367277,-8.910803 -26.822388,-8.938639 -27.276944,-8.974414 -27.730806,-9.018115 -28.183837,-9.069732 -28.635897,-9.129247 -29.08685,-9.196642 -29.536559,-9.271897 -29.984885,-9.35499 -30.431693,-9.445894 -30.876846,-9.544582 -31.32021,-9.651024 -31.761648,-9.765188 -32.201026,-9.887038 -32.638211,-10.016538 -33.073069,-10.153649 -33.505468,-10.298327 -33.935276,-10.45053 -34.362363,-10.610211 -34.786597,-10.777322 -35.207851,-10.951811 -35.625995,-11.133625 -36.040902,-11.322709 -36.452446,-11.519006 -36.860502,-11.722455 -37.264945,-11.932994 -37.665651,-12.15056 -38.0625,-12.375086 -38.45537,-12.606504 -38.844141,-12.844743 -39.228695,-13.089731 -39.608915,-13.341393 -39.984684,-13.599653 -40.35589,-13.864431 -40.722417,-14.135647 -41.084156,-14.413219 -41.440995,-14.697062 -41.792826,-14.987089 -42.139542,-15.283212 -42.481037,-15.585341 -42.817207,-15.893385 -43.14795,-16.207248 -43.473165,-16.526835 -43.792752,-16.85205 -44.106615,-17.182793 -44.414659,-17.518963 -44.716788,-17.860458 -45.012911,-18.207174 -45.302938,-18.559005 -45.586781,-18.915844 -45.864353,-19.277583 -46.135569,-19.64411 -46.400347,-20.015316 -46.658607,-20.391085 -46.910269,-20.771305 -47.155257,-21.155859 -47.393496,-21.54463 -47.624914,-21.9375 -47.84944,-22.334349 -48.067006,-22.735055 -48.277545,-23.139498 -48.480994,-23.547554 -48.677291,-23.959098 -48.866375,-24.374005 -49.048189,-24.792149 -49.222678,-25.213403 -49.389789,-25.637637 -49.54947,-26.064724 -49.701673,-26.494532 -49.846351,-26.926931 -49.983462,-27.361789 -50.112962,-27.798974 -50.234812,-28.238352 -50.348976,-28.67979 -50.455418,-29.123154 -50.554106,-29.568307 -50.64501,-30.015115 -50.728103,-30.463441 -50.803358,-30.91315 -50.870753,-31.364103 -50.930268,-31.816163 -50.981885,-32.269194 -51.025586,-32.723056 -51.061361,-33.177612 -51.089197,-33.632723 -51.109085,-34.088251 -51.121021,-34.544056 -51.125,-35 -51.125,-50 -51.128982,-50.436054 -51.140928,-50.871963 -51.160834,-51.307581 -51.188692,-51.742763 -51.224493,-52.177364 -51.268227,-52.611238 -51.319877,-53.044241 -51.379427,-53.476228 -51.446857,-53.907056 -51.522144,-54.33658 -51.605264,-54.764657 -51.696188,-55.191145 -51.794887,-55.615902 -51.901327,-56.038785 -52.015472,-56.459653 -52.137286,-56.878366 -52.266726,-57.294785 -52.40375,-57.70877 -52.548313,-58.120183 -52.700365,-58.528887 -52.859857,-58.934747 -53.026735,-59.337625 -53.200943,-59.737389 -53.382423,-60.133904 -53.571115,-60.527038 -53.766956,-60.91666 -53.96988,-61.302641 -54.17982,-61.684851 -54.396706,-62.063163 -54.620465,-62.437451 -54.851023,-62.807589 -55.088302,-63.173455 -55.332224,-63.534926 -55.582707,-63.891882 -55.839668,-64.244203 -56.103021,-64.591772 -56.372678,-64.934474 -56.64855,-65.272193 -56.930543,-65.604818 -57.218564,-65.932237 -57.512517,-66.25434 -57.812305,-66.571021 -58.117826,-66.882174 -58.428979,-67.187695 -58.74566,-67.487483 -59.067763,-67.781436 -59.395182,-68.069457 -59.727807,-68.35145 -60.065526,-68.627322 -60.408228,-68.896979 -60.755797,-69.160332 -61.108118,-69.417293 -61.465074,-69.667776 -61.826545,-69.911698 -62.192411,-70.148977 -62.562549,-70.379535 -62.936837,-70.603294 -63.315149,-70.82018 -63.697359,-71.03012 -64.08334,-71.233044 -64.472962,-71.428885 -64.866096,-71.617577 -65.262611,-71.799057 -65.662375,-71.973265 -66.065253,-72.140143 -66.471113,-72.299635 -66.879817,-72.451687 -67.29123,-72.59625 -67.705215,-72.733274 -68.121634,-72.862714 -68.540347,-72.984528 -68.961215,-73.098673 -69.384098,-73.205113 -69.808855,-73.303812 -70.235343,-73.394736 -70.66342,-73.477856 -71.092944,-73.553143 -71.523772,-73.620573 -71.955759,-73.680123 -72.388762,-73.731773 -72.822636,-73.775507 -73.257237,-73.811308 -73.692419,-73.839166 -74.128037,-73.859072 -74.563946,-73.871018 -75,-73.875 -75,-73.875 -75,-76.125 -75,-76.125 -74.544056,-76.121021 -74.088251,-76.109085 -73.632723,-76.089197 -73.177612,-76.061361 -72.723056,-76.025586 -72.269194,-75.981885 -71.816163,-75.930268 -71.364103,-75.870753 -70.91315,-75.803358 -70.463441,-75.728103 -70.015115,-75.64501 -69.568307,-75.554106 -69.123154,-75.455418 -68.67979,-75.348976 -68.238352,-75.234812 -67.798974,-75.112962 -67.361789,-74.983462 -66.926931,-74.846351 -66.494532,-74.701673 -66.064724,-74.54947 -65.637637,-74.389789 -65.213403,-74.222678 -64.792149,-74.048189 -64.374005,-73.866375 -63.959098,-73.677291 -63.547554,-73.480994 -63.139498,-73.277545 -62.735055,-73.067006 -62.334349,-72.84944 -61.9375,-72.624914 -61.54463,-72.393496 -61.155859,-72.155257 -60.771305,-71.910269 -60.391085,-71.658607 -60.015316,-71.400347 -59.64411,-71.135569 -59.277583,-70.864353 -58.915844,-70.586781 -58.559005,-70.302938 -58.207174,-70.012911 -57.860458,-69.716788 -57.518963,-69.414659 -57.182793,-69.106615 -56.85205,-68.792752 -56.526835,-68.473165 -56.207248,-68.14795 -55.893385,-67.817207 -55.585341,-67.481037 -55.283212,-67.139542 -54.987089,-66.792826 -54.697062,-66.440995 -54.413219,-66.084156 -54.135647,-65.722417 -53.864431,-65.35589 -53.599653,-64.984684 -53.341393,-64.608915 -53.089731,-64.228695 -52.844743,-63.844141 -52.606504,-63.45537 -52.375086,-63.0625 -52.15056,-62.665651 -51.932994,-62.264945 -51.722455,-61.860502 -51.519006,-61.452446 -51.322709,-61.040902 -51.133625,-60.625995 -50.951811,-60.207851 -50.777322,-59.786597 -50.610211,-59.362363 -50.45053,-58.935276 -50.298327,-58.505468 -50.153649,-58.073069 -50.016538,-57.638211 -49.887038,-57.201026 -49.765188,-56.761648 -49.651024,-56.32021 -49.544582,-55.876846 -49.445894,-55.431693 -49.35499,-54.984885 -49.271897,-54.536559 -49.196642,-54.08685 -49.129247,-53.635897 -49.069732,-53.183837 -49.018115,-52.730806 -48.974414,-52.276944 -48.938639,-51.822388 -48.910803,-51.367277 -48.890915,-50.911749 -48.878979,-50.455944 -48.875,-50 -48.875,-35 -48.871018,-34.563946 -48.859072,-34.128037 -48.839166,-33.692419 -48.811308,-33.257237 -48.775507,-32.822636 -48.731773,-32.388762 -48.680123,-31.955759 -48.620573,-31.523772 -48.553143,-31.092944 -48.477856,-30.66342 -48.394736,-30.235343 -48.303812,-29.808855 -48.205113,-29.384098 -48.098673,-28.961215 -47.984528,-28.540347 -47.862714,-28.121634 -47.733274,-27.705215 -47.59625,-27.29123 -47.451687,-26.879817 -47.299635,-26.471113 -47.140143,-26.065253 -46.973265,-25.662375 -46.799057,-25.262611 -46.617577,-24.866096 -46.428885,-24.472962 -46.233044,-24.08334 -46.03012,-23.697359 -45.82018,-23.315149 -45.603294,-22.936837 -45.379535,-22.562549 -45.148977,-22.192411 -44.911698,-21.826545 -44.667776,-21.465074 -44.417293,-21.108118 -44.160332,-20.755797 -43.896979,-20.408228 -43.627322,-20.065526 -43.35145,-19.727807 -43.069457,-19.395182 -42.781436,-19.067763 -42.487483,-18.74566 -42.187695,-18.428979 -41.882174,-18.117826 -41.571021,-17.812305 -41.25434,-17.512517 -40.932237,-17.218564 -40.604818,-16.930543 -40.272193,-16.64855 -39.934474,-16.372678 -39.591772,-16.103021 -39.244203,-15.839668 -38.891882,-15.582707 -38.534926,-15.332224 -38.173455,-15.088302 -37.807589,-14.851023 -37.437451,-14.620465 -37.063163,-14.396706 -36.684851,-14.17982 -36.302641,-13.96988 -35.91666,-13.766956 -35.527038,-13.571115 -35.133904,-13.382423 -34.737389,-13.200943 -34.337625,-13.026735 -33.934747,-12.859857 -33.528887,-12.700365 -33.120183,-12.548313 -32.70877,-12.40375 -32.294785,-12.266726 -31.878366,-12.137286 -31.459653,-12.015472 -31.038785,-11.901327 -30.615902,-11.794887 -30.191145,-11.696188 -29.764657,-11.605264 -29.33658,-11.522144 -28.907056,-11.446857 -28.476228,-11.379427 -28.044241,-11.319877 -27.611238,-11.268227 -27.177364,-11.224493 -26.742763,-11.188692 -26.307581,-11.160834 -25.871963,-11.140928 -25.436054,-11.128982 -25,-11.125"/>
</g>
<g id="DC_Circuit_route2">
<polygon id="000001671BB071B0" class="l0d0" points="130,11.125 130,8.875 150,8.875 150.455944,8.878979 150.911749,8.890915 151.367277,8.910803 151.822388,8.938639 152.276944,8.974414 152.730806,9.018115 153.183837,9.069732 153.635897,9.129247 154.08685,9.196642 154.536559,9.271897 154.984885,9.35499 155.431693,9.445894 155.876846,9.544582 156.32021,9.651024 156.761648,9.765188 157.201026,9.887038 157.638211,10.016538 158.073069,10.153649 158.505468,10.298327 158.935276,10.45053 159.362363,10.610211 159.786597,10.777322 160.207851,10.951811 160.625995,11.133625 161.040902,11.322709 161.452446,11.519006 161.860502,11.722455 162.264945,11.932994 162.665651,12.15056 163.0625,12.375086 163.45537,12.606504 163.844141,12.844743 164.228695,13.089731 164.608915,13.341393 164.984684,13.599653 165.35589,13.864431 165.722417,14.135647 166.084156,14.413219 166.440995,14.697062 166.792826,14.987089 167.139542,15.283212 167.481037,15.585341 167.817207,15.893385 168.14795,16.207248 168.473165,16.526835 168.792752,16.85205 169.106615,17.182793 169.414659,17.518963 169.716788,17.860458 170.012911,18.207174 170.302938,18.559005 170.586781,18.915844 170.864353,19.277583 171.135569,19.64411 171.400347,20.015316 171.658607,20.391085 171.910269,20.771305 172.155257,21.155859 172.393496,21.54463 172.624914,21.9375 172.84944,22.334349 173.067006,22.735055 173.277545,23.139498 173.480994,23.547554 173.677291,23.959098 173.866375,24.374005 174.048189,24.792149 174.222678,25.213403 174.389789,25.637637 174.54947,26.064724 174.701673,26.494532 174.846351,26.926931 174.983462,27.361789 175.112962,27.798974 175.234812,28.238352 175.348976,28.67979 175.455418,29.123154 175.554106,29.568307 175.64501,30.015115 175.728103,30.463441 175.803358,30.91315 175.870753,31.364103 175.930268,31.816163 175.981885,32.269194 176.025586,32.723056 176.061361,33.177612 176.089197,33.632723 176.109085,34.088251 176.121021,34.544056 176.125,35 176.125,50 176.128982,50.436054 176.140928,50.871963 176.160834,51.307581 176.188692,51.742763 176.224493,52.177364 176.268227,52.611238 176.319877,53.044241 176.379427,53.476228 176.446857,53.907056 176.522144,54.33658 176.605264,54.764657 176.696188,55.191145 176.794887,55.615902 176.901327,56.038785 177.015472,56.459653 177.137286,56.878366 177.266726,57.294785 177.40375,57.70877 177.548313,58.120183 177.700365,58.528887 177.859857,58.934747 178.026735,59.337625 178.200943,59.737389 178.382423,60.133904 178.571115,60.527038 178.766956,60.91666 178.96988,61.302641 179.17982,61.684851 179.396706,62.063163 179.620465,62.437451 179.851023,62.807589 180.088302,63.173455 180.332224,63.534926 180.582707,63.891882 180.839668,64.244203 181.103021,64.591772 181.372678,64.934474 181.64855,65.272193 181.930543,65.604818 182.218564,65.932237 182.512517,66.25434 182.812305,66.571021 183.117826,66.882174 183.428979,67.187695 183.74566,67.487483 184.067763,67.781436 184.395182,68.069457 184.727807,68.35145 185.065526,68.627322 185.408228,68.896979 185.755797,69.160332 186.108118,69.417293 186.465074,69.667776 186.826545,69.911698 187.192411,70.148977 187.562549,70.379535 187.936837,70.603294 188.315149,70.82018 188.697359,71.03012 189.08334,71.233044 189.472962,71.428885 189.866096,71.617577 190.262611,71.799057 190.662375,71.973265 191.065253,72.140143 191.471113,72.299635 191.879817,72.451687 192.29123,72.59625 192.705215,72.733274 193.121634,72.862714 193.540347,72.984528 193.961215,73.098673 194.384098,73.205113 194.808855,73.303812 195.235343,73.394736 195.66342,73.477856 196.092944,73.553143 196.523772,73.620573 196.955759,73.680123 197.388762,73.731773 197.822636,73.775507 198.257237,73.811308 198.692419,73.839166 199.128037,73.859072 199.563946,73.871018 200,73.875 200,73.875 200,76.125 200,76.125 199.544056,76.121021 199.088251,76.109085 198.632723,76.089197 198.177612,76.061361 197.723056,76.025586 197.269194,75.981885 196.816163,75.930268 196.364103,75.870753 195.91315,75.803358 195.463441,75.728103 195.015115,75.64501 194.568307,75.554106 194.123154,75.455418 193.67979,75.348976 193.238352,75.234812 192.798974,75.112962 192.361789,74.983462 191.926931,74.846351 191.494532,74.701673 191.064724,74.54947 190.637637,74.389789 190.213403,74.222678 189.792149,74.048189 189.374005,73.866375 188.959098,73.677291 188.547554,73.480994 188.139498,73.277545 187.735055,73.067006 187.334349,72.84944 186.9375,72.624914 186.54463,72.393496 186.155859,72.155257 185.771305,71.910269 185.391085,71.658607 185.015316,71.400347 184.64411,71.135569 184.277583,70.864353 183.915844,70.586781 183.559005,70.302938 183.207174,70.012911 182.860458,69.716788 182.518963,69.414659 182.182793,69.106615 181.85205,68.792752 181.526835,68.473165 181.207248,68.14795 180.893385,67.817207 180.585341,67.481037 180.283212,67.139542 179.987089,66.792826 179.697062,66.440995 179.413219,66.084156 179.135647,65.722417 178.864431,65.35589 178.599653,64.984684 178.341393,64.608915 178.089731,64.228695 177.844743,63.844141 177.606504,63.45537 177.375086,63.0625 177.15056,62.665651 176.932994,62.264945 176.722455,61.860502 176.519006,61.452446 176.322709,61.040902 176.133625,60.625995 175.951811,60.207851 175.777322,59.786597 175.610211,59.362363 175.45053,58.935276 175.298327,58.505468 175.153649,58.073069 175.016538,57.638211 174.887038,57.201026 174.765188,56.761648 174.651024,56.32021 174.544582,55.876846 174.445894,55.431693 174.35499,54.984885 174.271897,54.536559 174.196642,54.08685 174.129247,53.635897 174.069732,53.183837 174.018115,52.730806 173.974414,52.276944 173.938639,51.822388 173.910803,51.367277 173.890915,50.911749 173.878979,50.455944 173.875,50 173.875,35 173.871018,34.563946 173.859072,34.128037 173.839166,33.692419 173.811308,33.257237 173.775507,32.822636 173.731773,32.388762 173.680123,31.955759 173.620573,31.523772 173.553143,31.092944 173.477856,30.66342 173.394736,30.235343 173.303812,29.808855 173.205113,29.384098 173.098673,28.961215 172.984528,28.540347 172.862714,28.121634 172.733274,27.705215 172.59625,27.29123 172.451687,26.879817 172.299635,26.471113 172.140143,26.065253 171.973265,25.662375 171.799057,25.262611 171.617577,24.866096 171.428885,24.472962 171.233044,24.08334 171.03012,23.697359 170.82018,23.315149 170.603294,22.936837 170.379535,22.562549 170.148977,22.192411 169.911698,21.826545 169.667776,21.465074 169.417293,21.108118 169.160332,20.755797 168.896979,20.408228 168.627322,20.065526 168.35145,19.727807 168.069457,19.395182 167.781436,19.067763 167.487483,18.74566 167.187695,18.428979 166.882174,18.117826 166.571021,17.812305 166.25434,17.512517 165.932237,17.218564 165.604818,16.930543 165.272193,16.64855 164.934474,16.372678 164.591772,16.103021 164.244203,15.839668 163.891882,15.582707 163.534926,15.332224 163.173455,15.088302 162.807589,14.851023 162.437451,14.620465 162.063163,14.396706 161.684851,14.17982 161.302641,13.96988 160.91666,13.766956 160.527038,13.571115 160.133904,13.382423 159.737389,13.200943 159.337625,13.026735 158.934747,12.859857 158.528887,12.700365 158.120183,12.548313 157.70877,12.40375 157.294785,12.266726 156.878366,12.137286 156.459653,12.015472 156.038785,11.901327 155.615902,11.794887 155.191145,11.696188 154.764657,11.605264 154.33658,11.522144 153.907056,11.446857 153.476228,11.379427 153.044241,11.319877 152.611238,11.268227 152.177364,11.224493 151.742763,11.188692 151.307581,11.160834 150.871963,11.140928 150.436054,11.128982 150,11.125"/>
</g>
<g id="DC_Circuit_route3">
<polygon id="000001671BB073E0" class="l0d0" points="130,-8.875 130,-11.125 150,-11.125 150.436054,-11.128982 150.871963,-11.140928 151.307581,-11.160834 151.742763,-11.188692 152.177364,-11.224493 152.611238,-11.268227 153.044241,-11.319877 153.476228,-11.379427 153.907056,-11.446857 154.33658,-11.522144 154.764657,-11.605264 155.191145,-11.696188 155.615902,-11.794887 156.038785,-11.901327 156.459653,-12.015472 156.878366,-12.137286 157.294785,-12.266726 157.70877,-12.40375 158.120183,-12.548313 158.528887,-12.700365 158.934747,-12.859857 159.337625,-13.026735 159.737389,-13.200943 160.133904,-13.382423 160.527038,-13.571115 160.91666,-13.766956 161.302641,-13.96988 161.684851,-14.17982 162.063163,-14.396706 162.437451,-14.620465 162.807589,-14.851023 163.173455,-15.088302 163.534926,-15.332224 163.891882,-15.582707 164.244203,-15.839668 164.591772,-16.103021 164.934474,-16.372678 165.272193,-16.64855 165.604818,-16.930543 165.932237,-17.218564 166.25434,-17.512517 166.571021,-17.812305 166.882174,-18.117826 167.187695,-18.428979 167.487483,-18.74566 167.781436,-19.067763 168.069457,-19.395182 168.35145,-19.727807 168.627322,-20.065526 168.896979,-20.408228 169.160332,-20.755797 169.417293,-21.108118 169.667776,-21.465074 169.911698,-21.826545 170.148977,-22.192411 170.379535,-22.562549 170.603294,-22.936837 170.82018,-23.315149 171.03012,-23.697359 171.233044,-24.08334 171.428885,-24.472962 171.617577,-24.866096 171.799057,-25.262611 171.973265,-25.662375 172.140143,-26.065253 172.299635,-26.471113 172.451687,-26.879817 172.59625,-27.29123 172.733274,-27.705215 172.862714,-28.121634 172.984528,-28.540347 173.098673,-28.961215 173.205113,-29.384098 173.303812,-29.808855 173.394736,-30.235343 173.477856,-30.66342 173.553143,-31.092944 173.620573,-31.523772 173.680123,-31.955759 173.731773,-32.388762 173.775507,-32.822636 173.811308,-33.257237 173.839166,-33.692419 173.859072,-34.128037 173.871018,-34.563946 173.875,-35 173.875,-50 173.878979,-50.455944 173.890915,-50.911749 173.910803,-51.367277 173.938639,-51.822388 173.974414,-52.276944 174.018115,-52.730806 174.069732,-53.183837 174.129247,-53.635897 174.196642,-54.08685 174.271897,-54.536559 174.35499,-54.984885 174.445894,-55.431693 174.544582,-55.876846 174.651024,-56.32021 174.765188,-56.761648 174.887038,-57.201026 175.016538,-57.638211 175.153649,-58.073069 175.298327,-58.505468 175.45053,-58.935276 175.610211,-59.362363 175.777322,-59.786597 175.951811,-60.207851 176.133625,-60.625995 176.322709,-61.040902 176.519006,-61.452446 176.722455,-61.860502 176.932994,-62.264945 177.15056,-62.665651 177.375086,-63.0625 177.606504,-63.45537 177.844743,-63.844141 178.089731,-64.228695 178.341393,-64.608915 178.599653,-64.984684 178.864431,-65.35589 179.135647,-65.722417 179.413219,-66.084156 179.697062,-66.440995 179.987089,-66.792826 180.283212,-67.139542 180.585341,-67.481037 180.893385,-67.817207 181.207248,-68.14795 181.526835,-68.473165 181.85205,-68.792752 182.182793,-69.106615 182.518963,-69.414659 182.860458,-69.716788 183.207174,-70.012911 183.559005,-70.302938 183.915844,-70.586781 184.277583,-70.864353 184.64411,-71.135569 185.015316,-71.400347 185.391085,-71.658607 185.771305,-71.910269 186.155859,-72.155257 186.54463,-72.393496 186.9375,-72.624914 187.334349,-72.84944 187.735055,-73.067006 188.139498,-73.277545 188.547554,-73.480994 188.959098,-73.677291 189.374005,-73.866375 189.792149,-74.048189 190.213403,-74.222678 190.637637,-74.389789 191.064724,-74.54947 191.494532,-74.701673 191.926931,-74.846351 192.361789,-74.983462 192.798974,-75.112962 193.238352,-75.234812 193.67979,-75.348976 194.123154,-75.455418 194.568307,-75.554106 195.015115,-75.64501 195.463441,-75.728103 195.91315,-75.803358 196.364103,-75.870753 196.816163,-75.930268 197.269194,-75.981885 197.723056,-76.025586 198.177612,-76.061361 198.632723,-76.089197 199.088251,-76.109085 199.544056,-76.121021 200,-76.125 200,-76.125 200,-73.875 200,-73.875 199.563946,-73.871018 199.128037,-73.859072 198.692419,-73.839166 198.257237,-73.811308 197.822636,-73.775507 197.388762,-73.731773 196.955759,-73.680123 196.523772,-73.620573 196.092944,-73.553143 195.66342,-73.477856 195.235343,-73.394736 194.808855,-73.303812 194.384098,-73.205113 193.961215,-73.098673 193.540347,-72.984528 193.121634,-72.862714 192.705215,-72.733274 192.29123,-72.59625 191.879817,-72.451687 191.471113,-72.299635 191.065253,-72.140143 190.662375,-71.973265 190.262611,-71.799057 189.866096,-71.617577 189.472962,-71.428885 189.08334,-71.233044 188.697359,-71.03012 188.315149,-70.82018 187.936837,-70.603294 187.562549,-70.379535 187.192411,-70.148977 186.826545,-69.911698 186.465074,-69.667776 186.108118,-69.417293 185.755797,-69.160332 185.408228,-68.896979 185.065526,-68.627322 184.727807,-68.35145 184.395182,-68.069457 184.067763,-67.781436 183.74566,-67.487483 183.428979,-67.187695 183.117826,-66.882174 182.812305,-66.571021 182.512517,-66.25434 182.218564,-65.932237 181.930543,-65.604818 181.64855,-65.272193 181.372678,-64.934474 181.103021,-64.591772 180.839668,-64.244203 180.582707,-63.891882 180.332224,-63.534926 180.088302,-63.173455 179.851023,-62.807589 179.620465,-62.437451 179.396706,-62.063163 179.17982,-61.684851 178.96988,-61.302641 178.766956,-60.91666 178.571115,-60.527038 178.382423,-60.133904 178.200943,-59.737389 178.026735,-59.337625 177.859857,-58.934747 177.700365,-58.528887 177.548313,-58.120183 177.40375,-57.70877 177.266726,-57.294785 177.137286,-56.878366 177.015472,-56.459653 176.901327,-56.038785 176.794887,-55.615902 176.696188,-55.191145 176.605264,-54.764657 176.522144,-54.33658 176.446857,-53.907056 176.379427,-53.476228 176.319877,-53.044241 176.268227,-52.611238 176.224493,-52.177364 176.188692,-51.742763 176.160834,-51.307581 176.140928,-50.871963 176.128982,-50.436054 176.125,-50 176.125,-35 176.121021,-34.544056 176.109085,-34.088251 176.089197,-33.632723 176.061361,-33.177612 176.025586,-32.723056 175.981885,-32.269194 175.930268,-31.816163 175.870753,-31.364103 175.803358,-30.91315 175.728103,-30.463441 175.64501,-30.015115 175.554106,-29.568307 175.455418,-29.123154 175.348976,-28.67979 175.234812,-28.238352 175.112962,-27.798974 174.983462,-27.361789 174.846351,-26.926931 174.701673,-26.494532 174.54947,-26.064724 174.389789,-25.637637 174.222678,-25.213403 174.048189,-24.792149 173.866375,-24.374005 173.677291,-23.959098 173.480994,-23.547554 173.277545,-23.139498 173.067006,-22.735055 172.84944,-22.334349 172.624914,-21.9375 172.393496,-21.54463 172.155257,-21.155859 171.910269,-20.771305 171.658607,-20.391085 171.400347,-20.015316 171.135569,-19.64411 170.864353,-19.277583 170.586781,-18.915844 170.302938,-18.559005 170.012911,-18.207174 169.716788,-17.860458 169.414659,-17.518963 169.106615,-17.182793 168.792752,-16.85205 168.473165,-16.526835 168.14795,-16.207248 167.817207,-15.893385 167.481037,-15.585341 167.139542,-15.283212 166.792826,-14.987089 166.440995,-14.697062 166.084156,-14.413219 165.722417,-14.135647 165.35589,-13.864431 164.984684,-13.599653 164.608915,-13.341393 164.228695,-13.089731 163.844141,-12.844743 163.45537,-12.606504 163.0625,-12.375086 162.665651,-12.15056 162.264945,-11.932994 161.860502,-11.722455 161.452446,-11.519006 161.040902,-11.322709 160.625995,-11.133625 160.207851,-10.951811 159.786597,-10.777322 159.362363,-10.610211 158.935276,-10.45053 158.505468,-10.298327 158.073069,-10.153649 157.638211,-10.016538 157.201026,-9.887038 156.761648,-9.765188 156.32021,-9.651024 155.876846,-9.544582 155.431693,-9.445894 154.984885,-9.35499 154.536559,-9.271897 154.08685,-9.196642 153.635897,-9.129247 153.183837,-9.069732 152.730806,-9.018115 152.276944,-8.974414 151.822388,-8.938639 151.367277,-8.910803 150.911749,-8.890915 150.455944,-8.878979 150,-8.875"/>
</g>
<g id="DC_Circuit_route0">
<polygon id="000001671BB07920" class="l0d0" points="0,8.875 0,11.125 -25,11.125 -25.436054,11.128982 -25.871963,11.140928 -26.307581,11.160834 -26.742763,11.188692 -27.177364,11.224493 -27.611238,11.268227 -28.044241,11.319877 -28.476228,11.379427 -28.907056,11.446857 -29.33658,11.522144 -29.764657,11.605264 -30.191145,11.696188 -30.615902,11.794887 -31.038785,11.901327 -31.459653,12.015472 -31.878366,12.137286 -32.294785,12.266726 -32.70877,12.40375 -33.120183,12.548313 -33.528887,12.700365 -33.934747,12.859857 -34.337625,13.026735 -34.737389,13.200943 -35.133904,13.382423 -35.527038,13.571115 -35.91666,13.766956 -36.302641,13.96988 -36.684851,14.17982 -37.063163,14.396706 -37.437451,14.620465 -37.807589,14.851023 -38.173455,15.088302 -38.534926,15.332224 -38.891882,15.582707 -39.244203,15.839668 -39.591772,16.103021 -39.934474,16.372678 -40.272193,16.64855 -40.604818,16.930543 -40.932237,17.218564 -41.25434,17.512517 -41.571021,17.812305 -41.882174,18.117826 -42.187695,18.428979 -42.487483,18.74566 -42.781436,19.067763 -43.069457,19.395182 -43.35145,19.727807 -43.627322,20.065526 -43.896979,20.408228 -44.160332,20.755797 -44.417293,21.108118 -44.667776,21.465074 -44.911698,21.826545 -45.148977,22.192411 -45.379535,22.562549 -45.603294,22.936837 -45.82018,23.315149 -46.03012,23.697359 -46.233044,24.08334 -46.428885,24.472962 -46.617577,24.866096 -46.799057,25.262611 -46.973265,25.662375 -47.140143,26.065253 -47.299635,26.471113 -47.451687,26.879817 -47.59625,27.29123 -47.733274,27.705215 -47.862714,28.121634 -47.984528,28.540347 -48.098673,28.961215 -48.205113,29.384098 -48.303812,29.808855 -48.394736,30.235343 -48.477856,30.66342 -48.553143,31.092944 -48.620573,31.523772 -48.680123,31.955759 -48.731773,32.388762 -48.775507,32.822636 -48.811308,33.257237 -48.839166,33.692419 -48.859072,34.128037 -48.871018,34.563946 -48.875,35 -48.875,50 -48.878979,50.455944 -48.890915,50.911749 -48.910803,51.367277 -48.938639,51.822388 -48.974414,52.276944 -49.018115,52.730806 -49.069732,53.183837 -49.129247,53.635897 -49.196642,54.08685 -49.271897,54.536559 -49.35499,54.984885 -49.445894,55.431693 -49.544582,55.876846 -49.651024,56.32021 -49.765188,56.761648 -49.887038,57.201026 -50.016538,57.638211 -50.153649,58.073069 -50.298327,58.505468 -50.45053,58.935276 -50.610211,59.362363 -50.777322,59.786597 -50.951811,60.207851 -51.133625,60.625995 -51.322709,61.040902 -51.519006,61.452446 -51.722455,61.860502 -51.932994,62.264945 -52.15056,62.665651 -52.375086,63.0625 -52.606504,63.45537 -52.844743,63.844141 -53.089731,64.228695 -53.341393,64.608915 -53.599653,64.984684 -53.864431,65.35589 -54.135647,65.722417 -54.413219,66.084156 -54.697062,66.440995 -54.987089,66.792826 -55.283212,67.139542 -55.585341,67.481037 -55.893385,67.817207 -56.207248,68.14795 -56.526835,68.473165 -56.85205,68.792752 -57.182793,69.106615 -57.518963,69.414659 -57.860458,69.716788 -58.207174,70.012911 -58.559005,70.302938 -58.915844,70.586781 -59.277583,70.864353 -59.64411,71.135569 -60.015316,71.400347 -60.391085,71.658607 -60.771305,71.910269 -61.155859,72.155257 -61.54463,72.393496 -61.9375,72.624914 -62.334349,72.84944 -62.735055,73.067006 -63.139498,73.277545 -63.547554,73.480994 -63.959098,73.677291 -64.374005,73.866375 -64.792149,74.048189 -65.213403,74.222678 -65.637637,74.389789 -66.064724,74.54947 -66.494532,74.701673 -66.926931,74.846351 -67.361789,74.983462 -67.798974,75.112962 -68.238352,75.234812 -68.67979,75.348976 -69.123154,75.455418 -69.568307,75.554106 -70.015115,75.64501 -70.463441,75.728103 -70.91315,75.803358 -71.364103,75.870753 -71.816163,75.930268 -72.269194,75.981885 -72.723056,76.025586 -73.177612,76.061361 -73.632723,76.089197 -74.088251,76.109085 -74.544056,76.121021 -75,76.125 -75,76.125 -75,73.875 -75,73.875 -74.563946,73.871018 -74.128037,73.859072 -73.692419,73.839166 -73.257237,73.811308 -72.822636,73.775507 -72.388762,73.731773 -71.955759,73.680123 -71.523772,73.620573 -71.092944,73.553143 -70.66342,73.477856 -70.235343,73.394736 -69.808855,73.303812 -69.384098,73.205113 -68.961215,73.098673 -68.540347,72.984528 -68.121634,72.862714 -67.705215,72.733274 -67.29123,72.59625 -66.879817,72.451687 -66.471113,72.299635 -66.065253,72.140143 -65.662375,71.973265 -65.262611,71.799057 -64.866096,71.617577 -64.472962,71.428885 -64.08334,71.233044 -63.697359,71.03012 -63.315149,70.82018 -62.936837,70.603294 -62.562549,70.379535 -62.192411,70.148977 -61.826545,69.911698 -61.465074,69.667776 -61.108118,69.417293 -60.755797,69.160332 -60.408228,68.896979 -60.065526,68.627322 -59.727807,68.35145 -59.395182,68.069457 -59.067763,67.781436 -58.74566,67.487483 -58.428979,67.187695 -58.117826,66.882174 -57.812305,66.571021 -57.512517,66.25434 -57.218564,65.932237 -56.930543,65.604818 -56.64855,65.272193 -56.372678,64.934474 -56.103021,64.591772 -55.839668,64.244203 -55.582707,63.891882 -55.332224,63.534926 -55.088302,63.173455 -54.851023,62.807589 -54.620465,62.437451 -54.396706,62.063163 -54.17982,61.684851 -53.96988,61.302641 -53.766956,60.91666 -53.571115,60.527038 -53.382423,60.133904 -53.200943,59.737389 -53.026735,59.337625 -52.859857,58.934747 -52.700365,58.528887 -52.548313,58.120183 -52.40375,57.70877 -52.266726,57.294785 -52.137286,56.878366 -52.015472,56.459653 -51.901327,56.038785 -51.794887,55.615902 -51.696188,55.191145 -51.605264,54.764657 -51.522144,54.33658 -51.446857,53.907056 -51.379427,53.476228 -51.319877,53.044241 -51.268227,52.611238 -51.224493,52.177364 -51.188692,51.742763 -51.160834,51.307581 -51.140928,50.871963 -51.128982,50.436054 -51.125,50 -51.125,35 -51.121021,34.544056 -51.109085,34.088251 -51.089197,33.632723 -51.061361,33.177612 -51.025586,32.723056 -50.981885,32.269194 -50.930268,31.816163 -50.870753,31.364103 -50.803358,30.91315 -50.728103,30.463441 -50.64501,30.015115 -50.554106,29.568307 -50.455418,29.123154 -50.348976,28.67979 -50.234812,28.238352 -50.112962,27.798974 -49.983462,27.361789 -49.846351,26.926931 -49.701673,26.494532 -49.54947,26.064724 -49.389789,25.637637 -49.222678,25.213403 -49.048189,24.792149 -48.866375,24.374005 -48.677291,23.959098 -48.480994,23.547554 -48.277545,23.139498 -48.067006,22.735055 -47.84944,22.334349 -47.624914,21.9375 -47.393496,21.54463 -47.155257,21.155859 -46.910269,20.771305 -46.658607,20.391085 -46.400347,20.015316 -46.135569,19.64411 -45.864353,19.277583 -45.586781,18.915844 -45.302938,18.559005 -45.012911,18.207174 -44.716788,17.860458 -44.414659,17.518963 -44.106615,17.182793 -43.792752,16.85205 -43.473165,16.526835 -43.14795,16.207248 -42.817207,15.893385 -42.481037,15.585341 -42.139542,15.283212 -41.792826,14.987089 -41.440995,14.697062 -41.084156,14.413219 -40.722417,14.135647 -40.35589,13.864431 -39.984684,13.599653 -39.608915,13.341393 -39.228695,13.089731 -38.844141,12.844743 -38.45537,12.606504 -38.0625,12.375086 -37.665651,12.15056 -37.264945,11.932994 -36.860502,11.722455 -36.452446,11.519006 -36.040902,11.322709 -35.625995,11.133625 -35.207851,10.951811 -34.786597,10.777322 -34.362363,10.610211 -33.935276,10.45053 -33.505468,10.298327 -33.073069,10.153649 -32.638211,10.016538 -32.201026,9.887038 -31.761648,9.765188 -31.32021,9.651024 -30.876846,9.544582 -30.431693,9.445894 -29.984885,9.35499 -29.536559,9.271897 -29.08685,9.196642 -28.635897,9.129247 -28.183837,9.069732 -27.730806,9.018115 -27.276944,8.974414 -26.822388,8.938639 -26.367277,8.910803 -25.911749,8.890915 -25.455944,8.878979 -25,8.875"/>
</g>
<g id="GC">
<polygon id="000001671BB06F80" class="l0d0" points="-84.085,-39.05 -84.37,-38.455 -84.65,-37.865 -84.925,-37.265 -85.19,-36.665 -85.46,-36.065 -85.72,-35.465 -85.975,-34.855 -86.225,-34.25 -86.475,-33.645 -86.72,-33.035 -86.96,-32.42 -87.19,-31.81 -87.425,-31.195 -87.65,-30.575 -87.865,-29.96 -88.085,-29.335 -88.295,-28.715 -88.505,-28.09 -88.705,-27.47 -88.905,-26.84 -89.095,-26.215 -89.285,-25.585 -89.47,-24.955 -89.65,-24.325 -89.825,-23.69 -89.995,-23.055 -90.16,-22.42 -90.325,-21.785 -90.48,-21.145 -90.635,-20.51 -90.78,-19.865 -90.925,-19.225 -91.06,-18.585 -91.195,-17.94 -91.325,-17.295 -91.445,-16.65 -91.565,-16.005 -91.68,-15.36 -91.79,-14.71 -91.895,-14.065 -91.995,-13.415 -92.09,-12.765 -92.18,-12.115 -92.27,-11.465 -92.35,-10.81 -92.425,-10.16 -92.495,-9.505 -92.565,-8.855 -92.625,-8.2 -92.68,-7.545 -92.735,-6.89 -92.785,-6.235 -92.825,-5.58 -92.865,-4.925 -92.9,-4.265 -92.93,-3.61 -92.95,-2.955 -92.97,-2.3 -92.985,-1.64 -92.995,-0.985 -93,-0.325 -93,0.325 -92.995,0.985 -92.985,1.64 -92.97,2.3 -92.95,2.955 -92.93,3.61 -92.9,4.265 -92.865,4.925 -92.825,5.58 -92.785,6.235 -92.735,6.89 -92.68,7.545 -92.625,8.2 -92.565,8.855 -92.495,9.505 -92.425,10.16 -92.35,10.81 -92.27,11.465 -92.18,12.115 -92.09,12.765 -91.995,13.415 -91.895,14.065 -91.79,14.71 -91.68,15.36 -91.565,16.005 -91.445,16.65 -91.325,17.295 -91.195,17.94 -91.06,18.585 -90.925,19.225 -90.78,19.865 -90.635,20.51 -90.48,21.145 -90.325,21.785 -90.16,22.42 -89.995,23.055 -89.825,23.69 -89.65,24.325 -89.47,24.955 -89.285,25.585 -89.095,26.215 -88.905,26.84 -88.705,27.47 -88.505,28.09 -88.295,28.715 -88.085,29.335 -87.865,29.96 -87.65,30.575 -87.425,31.195 -87.19,31.81 -86.96,32.42 -86.72,33.035 -86.475,33.645 -86.225,34.25 -85.975,34.855 -85.72,35.465 -85.46,36.065 -85.19,36.665 -84.925,37.265 -84.65,37.865 -84.37,38.455 -84.085,39.05 -3,1.125 -3,-1.125"/>
<polygon id="000001671BB07290" class="l0d0" points="-3,-1.125 -3,1.125 0,1.125 0,-1.125"/>
<polygon id="000001671BB07530" class="l0d0" points="-0.655,-0.12 -0.655,-0.12 -0.64,-0.12 -0.64,-0.12"/>
<polygon id="000001671BB06EA0" class="l2d0" points="-75.98,-35.145 -76.245,-34.585 -76.51,-34.02 -76.765,-33.455 -77.02,-32.89 -77.275,-32.32 -77.515,-31.75 -77.76,-31.175 -77.995,-30.605 -78.23,-30.025 -78.455,-29.45 -78.68,-28.87 -78.9,-28.285 -79.115,-27.705 -79.325,-27.12 -79.53,-26.53 -79.73,-25.945 -79.93,-25.355 -80.12,-24.765 -80.31,-24.17 -80.495,-23.575 -80.67,-22.985 -80.845,-22.385 -81.015,-21.79 -81.18,-21.19 -81.34,-20.59 -81.495,-19.985 -81.645,-19.385 -81.79,-18.78 -81.935,-18.175 -82.07,-17.57 -82.205,-16.96 -82.33,-16.355 -82.455,-15.745 -82.57,-15.135 -82.685,-14.525 -82.795,-13.91 -82.9,-13.3 -83,-12.685 -83.095,-12.07 -83.185,-11.455 -83.27,-10.84 -83.35,-10.225 -83.425,-9.61 -83.5,-8.99 -83.565,-8.375 -83.63,-7.755 -83.685,-7.135 -83.735,-6.52 -83.785,-5.9 -83.83,-5.275 -83.865,-4.66 -83.9,-4.04 -83.93,-3.415 -83.95,-2.795 -83.97,-2.175 -83.985,-1.555 -83.995,-0.935 -84,-0.31 -84,0.31 -83.995,0.935 -83.985,1.555 -83.97,2.175 -83.95,2.795 -83.93,3.415 -83.9,4.04 -83.865,4.66 -83.83,5.275 -83.785,5.9 -83.735,6.52 -83.685,7.135 -83.63,7.755 -83.565,8.375 -83.5,8.99 -83.425,9.61 -83.35,10.225 -83.27,10.84 -83.185,11.455 -83.095,12.07 -83,12.685 -82.9,13.3 -82.795,13.91 -82.685,14.525 -82.57,15.135 -82.455,15.745 -82.33,16.355 -82.205,16.96 -82.07,17.57 -81.935,18.175 -81.79,18.78 -81.645,19.385 -81.495,19.985 -81.34,20.59 -81.18,21.19 -81.015,21.79 -80.845,22.385 -80.67,22.985 -80.495,23.575 -80.31,24.17 -80.12,24.765 -79.93,25.355 -79.73,25.945 -79.53,26.53 -79.325,27.12 -79.115,27.705 -78.9,28.285 -78.68,28.87 -78.455,29.45 -78.23,30.025 -77.995,30.605 -77.76,31.175 -77.515,31.75 -77.275,32.32 -77.02,32.89 -76.765,33.455 -76.51,34.02 -76.245,34.585 -75.98,35.145 -74.63,34.495 -74.89,33.94 -75.155,33.38 -75.41,32.825 -75.66,32.26 -75.91,31.7 -76.15,31.13 -76.39,30.565 -76.625,29.995 -76.855,29.425 -77.08,28.855 -77.3,28.28 -77.515,27.705 -77.73,27.125 -77.935,26.545 -78.14,25.97 -78.34,25.385 -78.535,24.8 -78.725,24.215 -78.905,23.63 -79.09,23.04 -79.265,22.45 -79.435,21.86 -79.6,21.27 -79.765,20.675 -79.925,20.08 -80.075,19.485 -80.225,18.89 -80.365,18.29 -80.51,17.69 -80.64,17.09 -80.77,16.49 -80.9,15.89 -81.02,15.28 -81.13,14.68 -81.245,14.075 -81.35,13.465 -81.455,12.86 -81.55,12.255 -81.64,11.645 -81.73,11.035 -81.815,10.43 -81.89,9.815 -81.965,9.205 -82.035,8.595 -82.1,7.985 -82.16,7.37 -82.21,6.76 -82.265,6.145 -82.31,5.53 -82.345,4.915 -82.385,4.305 -82.415,3.69 -82.44,3.075 -82.46,2.46 -82.48,1.845 -82.49,1.23 -82.495,0.615 -82.5,0 -82.495,-0.615 -82.49,-1.23 -82.48,-1.845 -82.46,-2.46 -82.44,-3.075 -82.415,-3.69 -82.385,-4.305 -82.345,-4.915 -82.31,-5.53 -82.265,-6.145 -82.21,-6.76 -82.16,-7.37 -82.1,-7.985 -82.035,-8.595 -81.965,-9.205 -81.89,-9.815 -81.815,-10.43 -81.73,-11.035 -81.64,-11.645 -81.55,-12.255 -81.455,-12.86 -81.35,-13.465 -81.245,-14.075 -81.13,-14.68 -81.02,-15.28 -80.9,-15.89 -80.77,-16.49 -80.64,-17.09 -80.51,-17.69 -80.365,-18.29 -80.225,-18.89 -80.075,-19.485 -79.925,-20.08 -79.765,-20.675 -79.6,-21.27 -79.435,-21.86 -79.265,-22.45 -79.09,-23.04 -78.905,-23.63 -78.725,-24.215 -78.535,-24.8 -78.34,-25.385 -78.14,-25.97 -77.935,-26.545 -77.73,-27.125 -77.515,-27.705 -77.3,-28.28 -77.08,-28.855 -76.855,-29.425 -76.625,-29.995 -76.39,-30.565 -76.15,-31.13 -75.91,-31.7 -75.66,-32.26 -75.41,-32.825 -75.155,-33.38 -74.89,-33.94 -74.63,-34.495"/>
<polygon id="000001671BB07300" class="l2d0" points="-73.275,-33.845 -73.54,-33.29 -73.8,-32.735 -74.055,-32.175 -74.305,-31.615 -74.555,-31.05 -74.795,-30.485 -75.035,-29.92 -75.265,-29.35 -75.495,-28.78 -75.72,-28.21 -75.94,-27.635 -76.155,-27.065 -76.365,-26.485 -76.57,-25.91 -76.775,-25.325 -76.97,-24.745 -77.165,-24.16 -77.35,-23.575 -77.535,-22.99 -77.71,-22.405 -77.885,-21.815 -78.055,-21.225 -78.22,-20.63 -78.38,-20.04 -78.535,-19.445 -78.685,-18.85 -78.835,-18.255 -78.975,-17.655 -79.115,-17.06 -79.245,-16.46 -79.37,-15.855 -79.495,-15.255 -79.61,-14.65 -79.725,-14.05 -79.835,-13.445 -79.935,-12.835 -80.035,-12.23 -80.13,-11.625 -80.215,-11.02 -80.3,-10.41 -80.38,-9.8 -80.455,-9.19 -80.525,-8.58 -80.59,-7.97 -80.65,-7.36 -80.71,-6.745 -80.755,-6.135 -80.805,-5.525 -80.845,-4.91 -80.885,-4.295 -80.915,-3.685 -80.94,-3.07 -80.96,-2.455 -80.98,-1.84 -80.99,-1.225 -80.995,-0.615 -81,0 -80.995,0.615 -80.99,1.225 -80.98,1.84 -80.96,2.455 -80.94,3.07 -80.915,3.685 -80.885,4.295 -80.845,4.91 -80.805,5.525 -80.755,6.135 -80.71,6.745 -80.65,7.36 -80.59,7.97 -80.525,8.58 -80.455,9.19 -80.38,9.8 -80.3,10.41 -80.215,11.02 -80.13,11.625 -80.035,12.23 -79.935,12.835 -79.835,13.445 -79.725,14.05 -79.61,14.65 -79.495,15.255 -79.37,15.855 -79.245,16.46 -79.115,17.06 -78.975,17.655 -78.835,18.255 -78.685,18.85 -78.535,19.445 -78.38,20.04 -78.22,20.63 -78.055,21.225 -77.885,21.815 -77.71,22.405 -77.535,22.99 -77.35,23.575 -77.165,24.16 -76.97,24.745 -76.775,25.325 -76.57,25.91 -76.365,26.485 -76.155,27.065 -75.94,27.635 -75.72,28.21 -75.495,28.78 -75.265,29.35 -75.035,29.92 -74.795,30.485 -74.555,31.05 -74.305,31.615 -74.055,32.175 -73.8,32.735 -73.54,33.29 -73.275,33.845 -71.925,33.19 -72.185,32.645 -72.445,32.095 -72.695,31.54 -72.945,30.985 -73.19,30.43 -73.43,29.87 -73.66,29.31 -73.895,28.75 -74.12,28.185 -74.34,27.62 -74.56,27.05 -74.77,26.48 -74.98,25.91 -75.185,25.34 -75.38,24.765 -75.575,24.19 -75.765,23.61 -75.95,23.03 -76.13,22.45 -76.31,21.87 -76.48,21.29 -76.645,20.705 -76.805,20.12 -76.965,19.53 -77.12,18.94 -77.265,18.355 -77.41,17.765 -77.545,17.17 -77.68,16.58 -77.81,15.985 -77.935,15.39 -78.055,14.795 -78.17,14.195 -78.28,13.6 -78.385,13 -78.49,12.4 -78.585,11.8 -78.675,11.2 -78.76,10.6 -78.845,10 -78.92,9.395 -78.995,8.795 -79.06,8.185 -79.12,7.585 -79.18,6.98 -79.235,6.37 -79.28,5.765 -79.325,5.16 -79.365,4.555 -79.4,3.95 -79.43,3.34 -79.45,2.735 -79.47,2.125 -79.485,1.52 -79.495,0.91 -79.5,0.305 -79.5,-0.305 -79.495,-0.91 -79.485,-1.52 -79.47,-2.125 -79.45,-2.735 -79.43,-3.34 -79.4,-3.95 -79.365,-4.555 -79.325,-5.16 -79.28,-5.765 -79.235,-6.37 -79.18,-6.98 -79.12,-7.585 -79.06,-8.185 -78.995,-8.795 -78.92,-9.395 -78.845,-10 -78.76,-10.6 -78.675,-11.2 -78.585,-11.8 -78.49,-12.4 -78.385,-13 -78.28,-13.6 -78.17,-14.195 -78.055,-14.795 -77.935,-15.39 -77.81,-15.985 -77.68,-16.58 -77.545,-17.17 -77.41,-17.765 -77.265,-18.355 -77.12,-18.94 -76.965,-19.53 -76.805,-20.12 -76.645,-20.705 -76.48,-21.29 -76.31,-21.87 -76.13,-22.45 -75.95,-23.03 -75.765,-23.61 -75.575,-24.19 -75.38,-24.765 -75.185,-25.34 -74.98,-25.91 -74.77,-26.48 -74.56,-27.05 -74.34,-27.62 -74.12,-28.185 -73.895,-28.75 -73.66,-29.31 -73.43,-29.87 -73.19,-30.43 -72.945,-30.985 -72.695,-31.54 -72.445,-32.095 -72.185,-32.645 -71.925,-33.19"/>
<polygon id="000001671BB07370" class="l2d0" points="-70.57,-32.54 -70.83,-32 -71.085,-31.455 -71.335,-30.905 -71.58,-30.36 -71.825,-29.81 -72.06,-29.255 -72.29,-28.7 -72.52,-28.145 -72.74,-27.59 -72.96,-27.025 -73.175,-26.465 -73.385,-25.9 -73.59,-25.34 -73.79,-24.77 -73.985,-24.205 -74.18,-23.635 -74.365,-23.06 -74.55,-22.49 -74.725,-21.915 -74.9,-21.34 -75.07,-20.765 -75.235,-20.185 -75.395,-19.605 -75.545,-19.025 -75.695,-18.44 -75.845,-17.86 -75.985,-17.275 -76.12,-16.69 -76.25,-16.105 -76.375,-15.515 -76.5,-14.925 -76.615,-14.335 -76.73,-13.745 -76.835,-13.155 -76.94,-12.565 -77.04,-11.97 -77.135,-11.375 -77.22,-10.78 -77.305,-10.19 -77.385,-9.59 -77.46,-8.995 -77.53,-8.395 -77.59,-7.8 -77.65,-7.205 -77.71,-6.605 -77.76,-6.005 -77.805,-5.405 -77.845,-4.805 -77.885,-4.205 -77.915,-3.605 -77.94,-3.005 -77.96,-2.405 -77.98,-1.805 -77.99,-1.205 -77.995,-0.6 -78,0 -77.995,0.6 -77.99,1.205 -77.98,1.805 -77.96,2.405 -77.94,3.005 -77.915,3.605 -77.885,4.205 -77.845,4.805 -77.805,5.405 -77.76,6.005 -77.71,6.605 -77.65,7.205 -77.59,7.8 -77.53,8.395 -77.46,8.995 -77.385,9.59 -77.305,10.19 -77.22,10.78 -77.135,11.375 -77.04,11.97 -76.94,12.565 -76.835,13.155 -76.73,13.745 -76.615,14.335 -76.5,14.925 -76.375,15.515 -76.25,16.105 -76.12,16.69 -75.985,17.275 -75.845,17.86 -75.695,18.44 -75.545,19.025 -75.395,19.605 -75.235,20.185 -75.07,20.765 -74.9,21.34 -74.725,21.915 -74.55,22.49 -74.365,23.06 -74.18,23.635 -73.985,24.205 -73.79,24.77 -73.59,25.34 -73.385,25.9 -73.175,26.465 -72.96,27.025 -72.74,27.59 -72.52,28.145 -72.29,28.7 -72.06,29.255 -71.825,29.81 -71.58,30.36 -71.335,30.905 -71.085,31.455 -70.83,32 -70.57,32.54 -69.22,31.89 -69.475,31.355 -69.73,30.815 -69.975,30.275 -70.22,29.735 -70.455,29.185 -70.69,28.64 -70.92,28.09 -71.145,27.545 -71.365,26.99 -71.58,26.435 -71.795,25.88 -72,25.325 -72.2,24.765 -72.4,24.205 -72.595,23.645 -72.785,23.08 -72.965,22.515 -73.145,21.95 -73.325,21.38 -73.49,20.81 -73.66,20.24 -73.82,19.67 -73.975,19.095 -74.125,18.52 -74.275,17.945 -74.42,17.365 -74.555,16.79 -74.69,16.21 -74.82,15.63 -74.945,15.05 -75.065,14.465 -75.175,13.885 -75.29,13.3 -75.395,12.715 -75.49,12.13 -75.59,11.54 -75.68,10.955 -75.765,10.37 -75.845,9.775 -75.925,9.19 -75.995,8.6 -76.06,8.005 -76.125,7.415 -76.18,6.825 -76.235,6.235 -76.285,5.64 -76.325,5.05 -76.365,4.455 -76.4,3.86 -76.43,3.265 -76.45,2.675 -76.47,2.08 -76.485,1.485 -76.495,0.89 -76.5,0.295 -76.5,-0.295 -76.495,-0.89 -76.485,-1.485 -76.47,-2.08 -76.45,-2.675 -76.43,-3.265 -76.4,-3.86 -76.365,-4.455 -76.325,-5.05 -76.285,-5.64 -76.235,-6.235 -76.18,-6.825 -76.125,-7.415 -76.06,-8.005 -75.995,-8.6 -75.925,-9.19 -75.845,-9.775 -75.765,-10.37 -75.68,-10.955 -75.59,-11.54 -75.49,-12.13 -75.395,-12.715 -75.29,-13.3 -75.175,-13.885 -75.065,-14.465 -74.945,-15.05 -74.82,-15.63 -74.69,-16.21 -74.555,-16.79 -74.42,-17.365 -74.275,-17.945 -74.125,-18.52 -73.975,-19.095 -73.82,-19.67 -73.66,-20.24 -73.49,-20.81 -73.325,-21.38 -73.145,-21.95 -72.965,-22.515 -72.785,-23.08 -72.595,-23.645 -72.4,-24.205 -72.2,-24.765 -72,-25.325 -71.795,-25.88 -71.58,-26.435 -71.365,-26.99 -71.145,-27.545 -70.92,-28.09 -70.69,-28.64 -70.455,-29.185 -70.22,-29.735 -69.975,-30.275 -69.73,-30.815 -69.475,-31.355 -69.22,-31.89"/>
<polygon id="000001671BB07760" class="l2d0" points="-67.87,-31.24 -68.125,-30.71 -68.37,-30.175 -68.615,-29.645 -68.855,-29.105 -69.09,-28.57 -69.32,-28.025 -69.545,-27.485 -69.77,-26.94 -69.985,-26.395 -70.2,-25.85 -70.41,-25.3 -70.615,-24.745 -70.81,-24.195 -71.005,-23.64 -71.2,-23.085 -71.385,-22.525 -71.565,-21.97 -71.74,-21.41 -71.915,-20.845 -72.085,-20.285 -72.245,-19.72 -72.405,-19.155 -72.56,-18.59 -72.71,-18.02 -72.85,-17.45 -72.995,-16.88 -73.13,-16.31 -73.26,-15.735 -73.385,-15.16 -73.505,-14.585 -73.625,-14.01 -73.735,-13.435 -73.84,-12.855 -73.945,-12.28 -74.045,-11.695 -74.135,-11.12 -74.225,-10.535 -74.305,-9.955 -74.39,-9.375 -74.46,-8.79 -74.53,-8.21 -74.595,-7.625 -74.655,-7.04 -74.71,-6.455 -74.76,-5.87 -74.805,-5.285 -74.845,-4.7 -74.885,-4.11 -74.915,-3.525 -74.94,-2.935 -74.96,-2.35 -74.98,-1.76 -74.99,-1.175 -74.995,-0.59 -75,0 -74.995,0.59 -74.99,1.175 -74.98,1.76 -74.96,2.35 -74.94,2.935 -74.915,3.525 -74.885,4.11 -74.845,4.7 -74.805,5.285 -74.76,5.87 -74.71,6.455 -74.655,7.04 -74.595,7.625 -74.53,8.21 -74.46,8.79 -74.39,9.375 -74.305,9.955 -74.225,10.535 -74.135,11.12 -74.045,11.695 -73.945,12.28 -73.84,12.855 -73.735,13.435 -73.625,14.01 -73.505,14.585 -73.385,15.16 -73.26,15.735 -73.13,16.31 -72.995,16.88 -72.85,17.45 -72.71,18.02 -72.56,18.59 -72.405,19.155 -72.245,19.72 -72.085,20.285 -71.915,20.845 -71.74,21.41 -71.565,21.97 -71.385,22.525 -71.2,23.085 -71.005,23.64 -70.81,24.195 -70.615,24.745 -70.41,25.3 -70.2,25.85 -69.985,26.395 -69.77,26.94 -69.545,27.485 -69.32,28.025 -69.09,28.57 -68.855,29.105 -68.615,29.645 -68.37,30.175 -68.125,30.71 -67.87,31.24 -66.52,30.59 -66.77,30.065 -67.015,29.54 -67.255,29.01 -67.49,28.48 -67.725,27.95 -67.955,27.415 -68.175,26.88 -68.395,26.34 -68.61,25.805 -68.82,25.26 -69.025,24.715 -69.225,24.175 -69.425,23.63 -69.615,23.08 -69.805,22.53 -69.985,21.98 -70.165,21.425 -70.34,20.875 -70.51,20.315 -70.675,19.76 -70.835,19.205 -70.99,18.645 -71.14,18.085 -71.29,17.52 -71.43,16.96 -71.57,16.395 -71.7,15.83 -71.83,15.265 -71.95,14.695 -72.07,14.125 -72.185,13.555 -72.295,12.985 -72.4,12.415 -72.5,11.845 -72.595,11.27 -72.685,10.7 -72.77,10.125 -72.85,9.55 -72.925,8.975 -73,8.395 -73.065,7.82 -73.13,7.245 -73.185,6.665 -73.235,6.085 -73.285,5.51 -73.325,4.93 -73.365,4.35 -73.4,3.77 -73.43,3.19 -73.45,2.615 -73.47,2.03 -73.485,1.45 -73.495,0.87 -73.5,0.29 -73.5,-0.29 -73.495,-0.87 -73.485,-1.45 -73.47,-2.03 -73.45,-2.615 -73.43,-3.19 -73.4,-3.77 -73.365,-4.35 -73.325,-4.93 -73.285,-5.51 -73.235,-6.085 -73.185,-6.665 -73.13,-7.245 -73.065,-7.82 -73,-8.395 -72.925,-8.975 -72.85,-9.55 -72.77,-10.125 -72.685,-10.7 -72.595,-11.27 -72.5,-11.845 -72.4,-12.415 -72.295,-12.985 -72.185,-13.555 -72.07,-14.125 -71.95,-14.695 -71.83,-15.265 -71.7,-15.83 -71.57,-16.395 -71.43,-16.96 -71.29,-17.52 -71.14,-18.085 -70.99,-18.645 -70.835,-19.205 -70.675,-19.76 -70.51,-20.315 -70.34,-20.875 -70.165,-21.425 -69.985,-21.98 -69.805,-22.53 -69.615,-23.08 -69.425,-23.63 -69.225,-24.175 -69.025,-24.715 -68.82,-25.26 -68.61,-25.805 -68.395,-26.34 -68.175,-26.88 -67.955,-27.415 -67.725,-27.95 -67.49,-28.48 -67.255,-29.01 -67.015,-29.54 -66.77,-30.065 -66.52,-30.59"/>
<polygon id="000001671BB076F0" class="l2d0" points="-65.165,-29.935 -65.415,-29.42 -65.655,-28.9 -65.895,-28.38 -66.13,-27.855 -66.355,-27.33 -66.58,-26.8 -66.8,-26.275 -67.02,-25.74 -67.23,-25.21 -67.435,-24.675 -67.64,-24.14 -67.84,-23.6 -68.035,-23.06 -68.225,-22.52 -68.405,-21.975 -68.585,-21.43 -68.765,-20.885 -68.935,-20.335 -69.1,-19.79 -69.265,-19.24 -69.42,-18.685 -69.575,-18.135 -69.725,-17.58 -69.865,-17.025 -70.005,-16.47 -70.14,-15.91 -70.27,-15.355 -70.395,-14.795 -70.515,-14.235 -70.63,-13.67 -70.745,-13.11 -70.85,-12.545 -70.955,-11.98 -71.05,-11.42 -71.14,-10.85 -71.23,-10.285 -71.315,-9.715 -71.39,-9.145 -71.465,-8.58 -71.53,-8.01 -71.6,-7.44 -71.66,-6.87 -71.71,-6.3 -71.765,-5.725 -71.81,-5.155 -71.845,-4.585 -71.885,-4.01 -71.915,-3.44 -71.94,-2.87 -71.96,-2.29 -71.98,-1.72 -71.99,-1.145 -71.995,-0.575 -72,0 -71.995,0.575 -71.99,1.145 -71.98,1.72 -71.96,2.29 -71.94,2.87 -71.915,3.44 -71.885,4.01 -71.845,4.585 -71.81,5.155 -71.765,5.725 -71.71,6.3 -71.66,6.87 -71.6,7.44 -71.53,8.01 -71.465,8.58 -71.39,9.145 -71.315,9.715 -71.23,10.285 -71.14,10.85 -71.05,11.42 -70.955,11.98 -70.85,12.545 -70.745,13.11 -70.63,13.67 -70.515,14.235 -70.395,14.795 -70.27,15.355 -70.14,15.91 -70.005,16.47 -69.865,17.025 -69.725,17.58 -69.575,18.135 -69.42,18.685 -69.265,19.24 -69.1,19.79 -68.935,20.335 -68.765,20.885 -68.585,21.43 -68.405,21.975 -68.225,22.52 -68.035,23.06 -67.84,23.6 -67.64,24.14 -67.435,24.675 -67.23,25.21 -67.02,25.74 -66.8,26.275 -66.58,26.8 -66.355,27.33 -66.13,27.855 -65.895,28.38 -65.655,28.9 -65.415,29.42 -65.165,29.935 -63.815,29.285 -64.06,28.77 -64.3,28.255 -64.54,27.73 -64.775,27.21 -65,26.69 -65.225,26.16 -65.445,25.63 -65.66,25.105 -65.87,24.575 -66.075,24.04 -66.275,23.505 -66.475,22.97 -66.665,22.43 -66.85,21.89 -67.035,21.35 -67.215,20.805 -67.39,20.26 -67.555,19.715 -67.72,19.165 -67.88,18.62 -68.035,18.07 -68.185,17.515 -68.335,16.965 -68.475,16.41 -68.615,15.855 -68.74,15.3 -68.87,14.74 -68.995,14.185 -69.11,13.625 -69.225,13.06 -69.335,12.5 -69.435,11.94 -69.535,11.375 -69.625,10.81 -69.715,10.25 -69.8,9.685 -69.88,9.115 -69.955,8.55 -70.025,7.985 -70.09,7.415 -70.15,6.845 -70.205,6.28 -70.255,5.71 -70.305,5.14 -70.345,4.57 -70.38,4 -70.415,3.43 -70.44,2.855 -70.46,2.285 -70.48,1.715 -70.49,1.145 -70.495,0.575 -70.5,0 -70.495,-0.575 -70.49,-1.145 -70.48,-1.715 -70.46,-2.285 -70.44,-2.855 -70.415,-3.43 -70.38,-4 -70.345,-4.57 -70.305,-5.14 -70.255,-5.71 -70.205,-6.28 -70.15,-6.845 -70.09,-7.415 -70.025,-7.985 -69.955,-8.55 -69.88,-9.115 -69.8,-9.685 -69.715,-10.25 -69.625,-10.81 -69.535,-11.375 -69.435,-11.94 -69.335,-12.5 -69.225,-13.06 -69.11,-13.625 -68.995,-14.185 -68.87,-14.74 -68.74,-15.3 -68.615,-15.855 -68.475,-16.41 -68.335,-16.965 -68.185,-17.515 -68.035,-18.07 -67.88,-18.62 -67.72,-19.165 -67.555,-19.715 -67.39,-20.26 -67.215,-20.805 -67.035,-21.35 -66.85,-21.89 -66.665,-22.43 -66.475,-22.97 -66.275,-23.505 -66.075,-24.04 -65.87,-24.575 -65.66,-25.105 -65.445,-25.63 -65.225,-26.16 -65,-26.69 -64.775,-27.21 -64.54,-27.73 -64.3,-28.255 -64.06,-28.77 -63.815,-29.285"/>
<polygon id="000001671BB07BC0" class="l2d0" points="-62.465,-28.635 -62.705,-28.13 -62.945,-27.615 -63.18,-27.1 -63.41,-26.585 -63.635,-26.07 -63.855,-25.55 -64.07,-25.03 -64.28,-24.505 -64.49,-23.98 -64.69,-23.455 -64.89,-22.925 -65.085,-22.4 -65.275,-21.865 -65.455,-21.335 -65.635,-20.795 -65.815,-20.26 -65.985,-19.72 -66.15,-19.185 -66.31,-18.645 -66.47,-18.1 -66.62,-17.56 -66.77,-17.015 -66.91,-16.465 -67.05,-15.92 -67.185,-15.37 -67.315,-14.825 -67.435,-14.275 -67.555,-13.72 -67.675,-13.17 -67.78,-12.615 -67.885,-12.065 -67.99,-11.51 -68.085,-10.95 -68.175,-10.395 -68.26,-9.835 -68.345,-9.28 -68.42,-8.72 -68.495,-8.16 -68.56,-7.6 -68.625,-7.04 -68.68,-6.475 -68.735,-5.915 -68.78,-5.355 -68.825,-4.79 -68.865,-4.23 -68.9,-3.665 -68.93,-3.1 -68.95,-2.54 -68.97,-1.975 -68.985,-1.41 -68.995,-0.845 -69,-0.28 -69,0.28 -68.995,0.845 -68.985,1.41 -68.97,1.975 -68.95,2.54 -68.93,3.1 -68.9,3.665 -68.865,4.23 -68.825,4.79 -68.78,5.355 -68.735,5.915 -68.68,6.475 -68.625,7.04 -68.56,7.6 -68.495,8.16 -68.42,8.72 -68.345,9.28 -68.26,9.835 -68.175,10.395 -68.085,10.95 -67.99,11.51 -67.885,12.065 -67.78,12.615 -67.675,13.17 -67.555,13.72 -67.435,14.275 -67.315,14.825 -67.185,15.37 -67.05,15.92 -66.91,16.465 -66.77,17.015 -66.62,17.56 -66.47,18.1 -66.31,18.645 -66.15,19.185 -65.985,19.72 -65.815,20.26 -65.635,20.795 -65.455,21.335 -65.275,21.865 -65.085,22.4 -64.89,22.925 -64.69,23.455 -64.49,23.98 -64.28,24.505 -64.07,25.03 -63.855,25.55 -63.635,26.07 -63.41,26.585 -63.18,27.1 -62.945,27.615 -62.705,28.13 -62.465,28.635 -61.115,27.985 -61.355,27.485 -61.585,26.98 -61.82,26.47 -62.045,25.96 -62.265,25.45 -62.485,24.94 -62.695,24.425 -62.905,23.91 -63.11,23.39 -63.31,22.87 -63.505,22.35 -63.695,21.83 -63.88,21.305 -64.06,20.78 -64.24,20.25 -64.415,19.72 -64.58,19.19 -64.745,18.655 -64.9,18.125 -65.055,17.59 -65.205,17.05 -65.35,16.515 -65.49,15.975 -65.625,15.435 -65.755,14.895 -65.885,14.35 -66.005,13.81 -66.12,13.265 -66.235,12.72 -66.34,12.175 -66.445,11.625 -66.54,11.08 -66.635,10.53 -66.725,9.98 -66.805,9.43 -66.885,8.88 -66.96,8.33 -67.03,7.775 -67.095,7.22 -67.155,6.67 -67.21,6.115 -67.26,5.56 -67.305,5.005 -67.345,4.45 -67.385,3.895 -67.415,3.34 -67.44,2.785 -67.46,2.225 -67.48,1.67 -67.49,1.115 -67.495,0.56 -67.5,0 -67.495,-0.56 -67.49,-1.115 -67.48,-1.67 -67.46,-2.225 -67.44,-2.785 -67.415,-3.34 -67.385,-3.895 -67.345,-4.45 -67.305,-5.005 -67.26,-5.56 -67.21,-6.115 -67.155,-6.67 -67.095,-7.22 -67.03,-7.775 -66.96,-8.33 -66.885,-8.88 -66.805,-9.43 -66.725,-9.98 -66.635,-10.53 -66.54,-11.08 -66.445,-11.625 -66.34,-12.175 -66.235,-12.72 -66.12,-13.265 -66.005,-13.81 -65.885,-14.35 -65.755,-14.895 -65.625,-15.435 -65.49,-15.975 -65.35,-16.515 -65.205,-17.05 -65.055,-17.59 -64.9,-18.125 -64.745,-18.655 -64.58,-19.19 -64.415,-19.72 -64.24,-20.25 -64.06,-20.78 -63.88,-21.305 -63.695,-21.83 -63.505,-22.35 -63.31,-22.87 -63.11,-23.39 -62.905,-23.91 -62.695,-24.425 -62.485,-24.94 -62.265,-25.45 -62.045,-25.96 -61.82,-26.47 -61.585,-26.98 -61.355,-27.485 -61.115,-27.985"/>
<polygon id="000001671BB06F10" class="l2d0" points="-59.76,-27.335 -59.995,-26.84 -60.23,-26.34 -60.455,-25.84 -60.68,-25.34 -60.895,-24.835 -61.115,-24.33 -61.325,-23.825 -61.525,-23.315 -61.73,-22.805 -61.925,-22.29 -62.12,-21.775 -62.305,-21.26 -62.485,-20.74 -62.665,-20.225 -62.84,-19.705 -63.01,-19.18 -63.175,-18.655 -63.335,-18.13 -63.49,-17.605 -63.64,-17.08 -63.79,-16.55 -63.93,-16.015 -64.07,-15.485 -64.2,-14.955 -64.33,-14.42 -64.45,-13.885 -64.57,-13.35 -64.685,-12.815 -64.795,-12.275 -64.895,-11.735 -65,-11.195 -65.095,-10.655 -65.185,-10.115 -65.27,-9.57 -65.35,-9.025 -65.425,-8.485 -65.5,-7.94 -65.565,-7.395 -65.63,-6.85 -65.685,-6.305 -65.735,-5.755 -65.785,-5.21 -65.825,-4.66 -65.865,-4.115 -65.9,-3.565 -65.93,-3.02 -65.95,-2.47 -65.97,-1.92 -65.985,-1.37 -65.995,-0.825 -66,-0.275 -66,0.275 -65.995,0.825 -65.985,1.37 -65.97,1.92 -65.95,2.47 -65.93,3.02 -65.9,3.565 -65.865,4.115 -65.825,4.66 -65.785,5.21 -65.735,5.755 -65.685,6.305 -65.63,6.85 -65.565,7.395 -65.5,7.94 -65.425,8.485 -65.35,9.025 -65.27,9.57 -65.185,10.115 -65.095,10.655 -65,11.195 -64.895,11.735 -64.795,12.275 -64.685,12.815 -64.57,13.35 -64.45,13.885 -64.33,14.42 -64.2,14.955 -64.07,15.485 -63.93,16.015 -63.79,16.55 -63.64,17.08 -63.49,17.605 -63.335,18.13 -63.175,18.655 -63.01,19.18 -62.84,19.705 -62.665,20.225 -62.485,20.74 -62.305,21.26 -62.12,21.775 -61.925,22.29 -61.73,22.805 -61.525,23.315 -61.325,23.825 -61.115,24.33 -60.895,24.835 -60.68,25.34 -60.455,25.84 -60.23,26.34 -59.995,26.84 -59.76,27.335 -58.41,26.685 -58.64,26.195 -58.87,25.705 -59.095,25.21 -59.315,24.715 -59.53,24.22 -59.74,23.72 -59.945,23.225 -60.15,22.72 -60.35,22.215 -60.54,21.71 -60.73,21.205 -60.915,20.695 -61.09,20.185 -61.27,19.67 -61.44,19.16 -61.605,18.645 -61.765,18.125 -61.925,17.61 -62.08,17.09 -62.225,16.57 -62.37,16.045 -62.51,15.525 -62.645,15 -62.77,14.475 -62.9,13.95 -63.02,13.42 -63.13,12.89 -63.245,12.365 -63.35,11.83 -63.455,11.3 -63.55,10.765 -63.64,10.235 -63.73,9.7 -63.815,9.165 -63.89,8.63 -63.965,8.095 -64.035,7.555 -64.1,7.02 -64.16,6.485 -64.21,5.945 -64.265,5.405 -64.31,4.865 -64.345,4.325 -64.385,3.785 -64.415,3.245 -64.44,2.705 -64.46,2.165 -64.48,1.625 -64.49,1.085 -64.495,0.54 -64.5,0 -64.495,-0.54 -64.49,-1.085 -64.48,-1.625 -64.46,-2.165 -64.44,-2.705 -64.415,-3.245 -64.385,-3.785 -64.345,-4.325 -64.31,-4.865 -64.265,-5.405 -64.21,-5.945 -64.16,-6.485 -64.1,-7.02 -64.035,-7.555 -63.965,-8.095 -63.89,-8.63 -63.815,-9.165 -63.73,-9.7 -63.64,-10.235 -63.55,-10.765 -63.455,-11.3 -63.35,-11.83 -63.245,-12.365 -63.13,-12.89 -63.02,-13.42 -62.9,-13.95 -62.77,-14.475 -62.645,-15 -62.51,-15.525 -62.37,-16.045 -62.225,-16.57 -62.08,-17.09 -61.925,-17.61 -61.765,-18.125 -61.605,-18.645 -61.44,-19.16 -61.27,-19.67 -61.09,-20.185 -60.915,-20.695 -60.73,-21.205 -60.54,-21.71 -60.35,-22.215 -60.15,-22.72 -59.945,-23.225 -59.74,-23.72 -59.53,-24.22 -59.315,-24.715 -59.095,-25.21 -58.87,-25.705 -58.64,-26.195 -58.41,-26.685"/>
<polygon id="000001671BB06FF0" class="l2d0" points="-57.055,-26.035 -57.29,-25.55 -57.515,-25.06 -57.74,-24.565 -57.955,-24.075 -58.175,-23.585 -58.38,-23.085 -58.585,-22.585 -58.79,-22.085 -58.985,-21.585 -59.175,-21.08 -59.36,-20.575 -59.545,-20.07 -59.72,-19.565 -59.895,-19.055 -60.065,-18.54 -60.23,-18.025 -60.385,-17.515 -60.545,-17 -60.695,-16.48 -60.835,-15.965 -60.98,-15.44 -61.115,-14.92 -61.25,-14.4 -61.375,-13.875 -61.495,-13.35 -61.615,-12.825 -61.725,-12.3 -61.835,-11.77 -61.94,-11.245 -62.035,-10.715 -62.13,-10.18 -62.22,-9.65 -62.305,-9.12 -62.38,-8.585 -62.455,-8.055 -62.525,-7.52 -62.59,-6.985 -62.65,-6.45 -62.71,-5.915 -62.755,-5.38 -62.805,-4.84 -62.845,-4.305 -62.885,-3.77 -62.915,-3.23 -62.94,-2.69 -62.96,-2.155 -62.98,-1.615 -62.99,-1.075 -62.995,-0.54 -63,0 -62.995,0.54 -62.99,1.075 -62.98,1.615 -62.96,2.155 -62.94,2.69 -62.915,3.23 -62.885,3.77 -62.845,4.305 -62.805,4.84 -62.755,5.38 -62.71,5.915 -62.65,6.45 -62.59,6.985 -62.525,7.52 -62.455,8.055 -62.38,8.585 -62.305,9.12 -62.22,9.65 -62.13,10.18 -62.035,10.715 -61.94,11.245 -61.835,11.77 -61.725,12.3 -61.615,12.825 -61.495,13.35 -61.375,13.875 -61.25,14.4 -61.115,14.92 -60.98,15.44 -60.835,15.965 -60.695,16.48 -60.545,17 -60.385,17.515 -60.23,18.025 -60.065,18.54 -59.895,19.055 -59.72,19.565 -59.545,20.07 -59.36,20.575 -59.175,21.08 -58.985,21.585 -58.79,22.085 -58.585,22.585 -58.38,23.085 -58.175,23.585 -57.955,24.075 -57.74,24.565 -57.515,25.06 -57.29,25.55 -57.055,26.035 -55.705,25.385 -55.935,24.905 -56.155,24.425 -56.375,23.94 -56.59,23.455 -56.8,22.97 -57.01,22.48 -57.21,21.985 -57.41,21.495 -57.6,21.005 -57.79,20.505 -57.97,20.005 -58.15,19.51 -58.325,19.01 -58.495,18.505 -58.66,18.005 -58.82,17.495 -58.98,16.99 -59.13,16.48 -59.275,15.97 -59.42,15.46 -59.56,14.95 -59.69,14.435 -59.82,13.92 -59.945,13.405 -60.065,12.89 -60.175,12.37 -60.29,11.85 -60.395,11.33 -60.49,10.81 -60.59,10.29 -60.68,9.765 -60.765,9.245 -60.845,8.72 -60.925,8.195 -60.995,7.67 -61.06,7.145 -61.125,6.615 -61.18,6.09 -61.235,5.56 -61.285,5.035 -61.325,4.505 -61.365,3.975 -61.4,3.445 -61.43,2.915 -61.45,2.385 -61.47,1.855 -61.485,1.325 -61.495,0.795 -61.5,0.265 -61.5,-0.265 -61.495,-0.795 -61.485,-1.325 -61.47,-1.855 -61.45,-2.385 -61.43,-2.915 -61.4,-3.445 -61.365,-3.975 -61.325,-4.505 -61.285,-5.035 -61.235,-5.56 -61.18,-6.09 -61.125,-6.615 -61.06,-7.145 -60.995,-7.67 -60.925,-8.195 -60.845,-8.72 -60.765,-9.245 -60.68,-9.765 -60.59,-10.29 -60.49,-10.81 -60.395,-11.33 -60.29,-11.85 -60.175,-12.37 -60.065,-12.89 -59.945,-13.405 -59.82,-13.92 -59.69,-14.435 -59.56,-14.95 -59.42,-15.46 -59.275,-15.97 -59.13,-16.48 -58.98,-16.99 -58.82,-17.495 -58.66,-18.005 -58.495,-18.505 -58.325,-19.01 -58.15,-19.51 -57.97,-20.005 -57.79,-20.505 -57.6,-21.005 -57.41,-21.495 -57.21,-21.985 -57.01,-22.48 -56.8,-22.97 -56.59,-23.455 -56.375,-23.94 -56.155,-24.425 -55.935,-24.905 -55.705,-25.385"/>
<polygon id="000001671BB075A0" class="l2d0" points="-54.355,-24.73 -54.58,-24.26 -54.8,-23.785 -55.015,-23.31 -55.225,-22.835 -55.435,-22.355 -55.635,-21.875 -55.835,-21.39 -56.03,-20.905 -56.215,-20.42 -56.405,-19.93 -56.585,-19.44 -56.755,-18.95 -56.93,-18.455 -57.095,-17.96 -57.26,-17.465 -57.415,-16.97 -57.57,-16.465 -57.715,-15.97 -57.86,-15.465 -58,-14.965 -58.135,-14.455 -58.265,-13.955 -58.39,-13.445 -58.51,-12.94 -58.63,-12.43 -58.74,-11.92 -58.85,-11.41 -58.95,-10.895 -59.045,-10.385 -59.14,-9.87 -59.225,-9.355 -59.31,-8.84 -59.39,-8.32 -59.465,-7.805 -59.53,-7.29 -59.595,-6.77 -59.655,-6.25 -59.71,-5.735 -59.76,-5.215 -59.805,-4.69 -59.845,-4.175 -59.885,-3.65 -59.915,-3.13 -59.94,-2.61 -59.96,-2.09 -59.98,-1.565 -59.99,-1.045 -59.995,-0.52 -60,0 -59.995,0.52 -59.99,1.045 -59.98,1.565 -59.96,2.09 -59.94,2.61 -59.915,3.13 -59.885,3.65 -59.845,4.175 -59.805,4.69 -59.76,5.215 -59.71,5.735 -59.655,6.25 -59.595,6.77 -59.53,7.29 -59.465,7.805 -59.39,8.32 -59.31,8.84 -59.225,9.355 -59.14,9.87 -59.045,10.385 -58.95,10.895 -58.85,11.41 -58.74,11.92 -58.63,12.43 -58.51,12.94 -58.39,13.445 -58.265,13.955 -58.135,14.455 -58,14.965 -57.86,15.465 -57.715,15.97 -57.57,16.465 -57.415,16.97 -57.26,17.465 -57.095,17.96 -56.93,18.455 -56.755,18.95 -56.585,19.44 -56.405,19.93 -56.215,20.42 -56.03,20.905 -55.835,21.39 -55.635,21.875 -55.435,22.355 -55.225,22.835 -55.015,23.31 -54.8,23.785 -54.58,24.26 -54.355,24.73 -53.005,24.08 -53.225,23.615 -53.44,23.15 -53.65,22.685 -53.86,22.215 -54.065,21.74 -54.265,21.27 -54.46,20.795 -54.65,20.315 -54.835,19.835 -55.015,19.355 -55.19,18.875 -55.365,18.39 -55.535,17.905 -55.695,17.42 -55.855,16.93 -56.01,16.44 -56.16,15.95 -56.305,15.455 -56.445,14.965 -56.58,14.47 -56.71,13.97 -56.84,13.475 -56.96,12.975 -57.08,12.475 -57.19,11.975 -57.3,11.47 -57.405,10.97 -57.505,10.465 -57.6,9.96 -57.69,9.455 -57.775,8.95 -57.855,8.44 -57.93,7.93 -58,7.425 -58.07,6.915 -58.13,6.405 -58.185,5.895 -58.24,5.385 -58.285,4.87 -58.33,4.36 -58.365,3.85 -58.4,3.335 -58.43,2.825 -58.45,2.31 -58.47,1.795 -58.485,1.285 -58.495,0.77 -58.5,0.26 -58.5,-0.26 -58.495,-0.77 -58.485,-1.285 -58.47,-1.795 -58.45,-2.31 -58.43,-2.825 -58.4,-3.335 -58.365,-3.85 -58.33,-4.36 -58.285,-4.87 -58.24,-5.385 -58.185,-5.895 -58.13,-6.405 -58.07,-6.915 -58,-7.425 -57.93,-7.93 -57.855,-8.44 -57.775,-8.95 -57.69,-9.455 -57.6,-9.96 -57.505,-10.465 -57.405,-10.97 -57.3,-11.47 -57.19,-11.975 -57.08,-12.475 -56.96,-12.975 -56.84,-13.475 -56.71,-13.97 -56.58,-14.47 -56.445,-14.965 -56.305,-15.455 -56.16,-15.95 -56.01,-16.44 -55.855,-16.93 -55.695,-17.42 -55.535,-17.905 -55.365,-18.39 -55.19,-18.875 -55.015,-19.355 -54.835,-19.835 -54.65,-20.315 -54.46,-20.795 -54.265,-21.27 -54.065,-21.74 -53.86,-22.215 -53.65,-22.685 -53.44,-23.15 -53.225,-23.615 -53.005,-24.08"/>
<polygon id="000001671BB07C30" class="l2d0" points="-51.65,-23.43 -51.875,-22.97 -52.085,-22.505 -52.295,-22.04 -52.505,-21.575 -52.705,-21.105 -52.9,-20.635 -53.095,-20.165 -53.285,-19.69 -53.465,-19.21 -53.645,-18.735 -53.82,-18.255 -53.99,-17.775 -54.155,-17.29 -54.32,-16.81 -54.475,-16.325 -54.625,-15.835 -54.775,-15.35 -54.915,-14.855 -55.055,-14.365 -55.19,-13.875 -55.315,-13.38 -55.44,-12.885 -55.56,-12.39 -55.675,-11.89 -55.785,-11.395 -55.89,-10.895 -55.99,-10.395 -56.085,-9.895 -56.18,-9.39 -56.265,-8.89 -56.345,-8.385 -56.42,-7.88 -56.495,-7.375 -56.56,-6.87 -56.625,-6.365 -56.68,-5.855 -56.735,-5.35 -56.785,-4.84 -56.825,-4.33 -56.865,-3.82 -56.9,-3.315 -56.93,-2.805 -56.95,-2.295 -56.97,-1.785 -56.985,-1.275 -56.995,-0.765 -57,-0.255 -57,0.255 -56.995,0.765 -56.985,1.275 -56.97,1.785 -56.95,2.295 -56.93,2.805 -56.9,3.315 -56.865,3.82 -56.825,4.33 -56.785,4.84 -56.735,5.35 -56.68,5.855 -56.625,6.365 -56.56,6.87 -56.495,7.375 -56.42,7.88 -56.345,8.385 -56.265,8.89 -56.18,9.39 -56.085,9.895 -55.99,10.395 -55.89,10.895 -55.785,11.395 -55.675,11.89 -55.56,12.39 -55.44,12.885 -55.315,13.38 -55.19,13.875 -55.055,14.365 -54.915,14.855 -54.775,15.35 -54.625,15.835 -54.475,16.325 -54.32,16.81 -54.155,17.29 -53.99,17.775 -53.82,18.255 -53.645,18.735 -53.465,19.21 -53.285,19.69 -53.095,20.165 -52.9,20.635 -52.705,21.105 -52.505,21.575 -52.295,22.04 -52.085,22.505 -51.875,22.97 -51.65,23.43 -50.3,22.78 -50.515,22.325 -50.725,21.87 -50.935,21.415 -51.135,20.955 -51.335,20.495 -51.53,20.035 -51.715,19.57 -51.9,19.105 -52.085,18.635 -52.255,18.165 -52.43,17.695 -52.595,17.22 -52.76,16.745 -52.915,16.27 -53.065,15.795 -53.215,15.315 -53.36,14.835 -53.5,14.35 -53.635,13.87 -53.765,13.385 -53.89,12.9 -54.01,12.415 -54.125,11.93 -54.24,11.44 -54.345,10.945 -54.445,10.46 -54.545,9.965 -54.64,9.475 -54.725,8.98 -54.81,8.485 -54.89,7.99 -54.965,7.495 -55.03,7 -55.095,6.5 -55.155,6.005 -55.21,5.505 -55.26,5.005 -55.305,4.505 -55.345,4.01 -55.385,3.505 -55.415,3.005 -55.44,2.505 -55.46,2.005 -55.48,1.505 -55.49,1 -55.495,0.5 -55.5,0 -55.495,-0.5 -55.49,-1 -55.48,-1.505 -55.46,-2.005 -55.44,-2.505 -55.415,-3.005 -55.385,-3.505 -55.345,-4.01 -55.305,-4.505 -55.26,-5.005 -55.21,-5.505 -55.155,-6.005 -55.095,-6.5 -55.03,-7 -54.965,-7.495 -54.89,-7.99 -54.81,-8.485 -54.725,-8.98 -54.64,-9.475 -54.545,-9.965 -54.445,-10.46 -54.345,-10.945 -54.24,-11.44 -54.125,-11.93 -54.01,-12.415 -53.89,-12.9 -53.765,-13.385 -53.635,-13.87 -53.5,-14.35 -53.36,-14.835 -53.215,-15.315 -53.065,-15.795 -52.915,-16.27 -52.76,-16.745 -52.595,-17.22 -52.43,-17.695 -52.255,-18.165 -52.085,-18.635 -51.9,-19.105 -51.715,-19.57 -51.53,-20.035 -51.335,-20.495 -51.135,-20.955 -50.935,-21.415 -50.725,-21.87 -50.515,-22.325 -50.3,-22.78"/>
<polygon id="000001671BB077D0" class="l2d0" points="-48.95,-22.13 -49.16,-21.685 -49.37,-21.235 -49.57,-20.79 -49.77,-20.335 -49.96,-19.885 -50.155,-19.43 -50.335,-18.975 -50.52,-18.52 -50.695,-18.055 -50.87,-17.6 -51.035,-17.135 -51.2,-16.67 -51.355,-16.205 -51.51,-15.735 -51.66,-15.265 -51.805,-14.795 -51.95,-14.325 -52.085,-13.85 -52.215,-13.375 -52.34,-12.905 -52.465,-12.425 -52.58,-11.95 -52.695,-11.47 -52.805,-10.99 -52.905,-10.505 -53.005,-10.025 -53.1,-9.545 -53.19,-9.055 -53.275,-8.575 -53.355,-8.09 -53.43,-7.6 -53.5,-7.115 -53.57,-6.625 -53.63,-6.14 -53.685,-5.65 -53.74,-5.16 -53.785,-4.67 -53.83,-4.18 -53.865,-3.69 -53.9,-3.2 -53.93,-2.705 -53.95,-2.215 -53.97,-1.72 -53.985,-1.23 -53.995,-0.74 -54,-0.245 -54,0.245 -53.995,0.74 -53.985,1.23 -53.97,1.72 -53.95,2.215 -53.93,2.705 -53.9,3.2 -53.865,3.69 -53.83,4.18 -53.785,4.67 -53.74,5.16 -53.685,5.65 -53.63,6.14 -53.57,6.625 -53.5,7.115 -53.43,7.6 -53.355,8.09 -53.275,8.575 -53.19,9.055 -53.1,9.545 -53.005,10.025 -52.905,10.505 -52.805,10.99 -52.695,11.47 -52.58,11.95 -52.465,12.425 -52.34,12.905 -52.215,13.375 -52.085,13.85 -51.95,14.325 -51.805,14.795 -51.66,15.265 -51.51,15.735 -51.355,16.205 -51.2,16.67 -51.035,17.135 -50.87,17.6 -50.695,18.055 -50.52,18.52 -50.335,18.975 -50.155,19.43 -49.96,19.885 -49.77,20.335 -49.57,20.79 -49.37,21.235 -49.16,21.685 -48.95,22.13 -47.6,21.475 -47.81,21.035 -48.01,20.59 -48.215,20.15 -48.41,19.7 -48.605,19.255 -48.79,18.8 -48.97,18.35 -49.15,17.895 -49.325,17.44 -49.495,16.98 -49.66,16.52 -49.82,16.06 -49.975,15.595 -50.13,15.135 -50.275,14.665 -50.42,14.2 -50.555,13.735 -50.69,13.265 -50.82,12.79 -50.945,12.32 -51.065,11.845 -51.175,11.37 -51.285,10.895 -51.39,10.42 -51.49,9.94 -51.59,9.46 -51.68,8.98 -51.765,8.5 -51.845,8.02 -51.925,7.54 -51.995,7.055 -52.06,6.575 -52.125,6.085 -52.18,5.605 -52.235,5.12 -52.285,4.63 -52.325,4.145 -52.365,3.66 -52.4,3.17 -52.43,2.685 -52.45,2.195 -52.47,1.71 -52.485,1.22 -52.495,0.73 -52.5,0.245 -52.5,-0.245 -52.495,-0.73 -52.485,-1.22 -52.47,-1.71 -52.45,-2.195 -52.43,-2.685 -52.4,-3.17 -52.365,-3.66 -52.325,-4.145 -52.285,-4.63 -52.235,-5.12 -52.18,-5.605 -52.125,-6.085 -52.06,-6.575 -51.995,-7.055 -51.925,-7.54 -51.845,-8.02 -51.765,-8.5 -51.68,-8.98 -51.59,-9.46 -51.49,-9.94 -51.39,-10.42 -51.285,-10.895 -51.175,-11.37 -51.065,-11.845 -50.945,-12.32 -50.82,-12.79 -50.69,-13.265 -50.555,-13.735 -50.42,-14.2 -50.275,-14.665 -50.13,-15.135 -49.975,-15.595 -49.82,-16.06 -49.66,-16.52 -49.495,-16.98 -49.325,-17.44 -49.15,-17.895 -48.97,-18.35 -48.79,-18.8 -48.605,-19.255 -48.41,-19.7 -48.215,-20.15 -48.01,-20.59 -47.81,-21.035 -47.6,-21.475"/>
<polygon id="000001671BB07840" class="l2d0" points="-46.25,-20.825 -46.45,-20.395 -46.655,-19.96 -46.85,-19.525 -47.045,-19.085 -47.23,-18.645 -47.415,-18.205 -47.595,-17.76 -47.77,-17.315 -47.94,-16.865 -48.105,-16.415 -48.265,-15.965 -48.425,-15.515 -48.575,-15.06 -48.725,-14.605 -48.865,-14.15 -49.005,-13.69 -49.14,-13.23 -49.27,-12.77 -49.395,-12.31 -49.515,-11.845 -49.63,-11.38 -49.745,-10.915 -49.85,-10.45 -49.95,-9.98 -50.05,-9.51 -50.14,-9.04 -50.23,-8.57 -50.315,-8.1 -50.39,-7.625 -50.465,-7.155 -50.53,-6.68 -50.6,-6.205 -50.66,-5.73 -50.71,-5.255 -50.76,-4.78 -50.81,-4.3 -50.845,-3.825 -50.885,-3.35 -50.915,-2.87 -50.94,-2.395 -50.96,-1.915 -50.98,-1.435 -50.99,-0.955 -50.995,-0.48 -51,0 -50.995,0.48 -50.99,0.955 -50.98,1.435 -50.96,1.915 -50.94,2.395 -50.915,2.87 -50.885,3.35 -50.845,3.825 -50.81,4.3 -50.76,4.78 -50.71,5.255 -50.66,5.73 -50.6,6.205 -50.53,6.68 -50.465,7.155 -50.39,7.625 -50.315,8.1 -50.23,8.57 -50.14,9.04 -50.05,9.51 -49.95,9.98 -49.85,10.45 -49.745,10.915 -49.63,11.38 -49.515,11.845 -49.395,12.31 -49.27,12.77 -49.14,13.23 -49.005,13.69 -48.865,14.15 -48.725,14.605 -48.575,15.06 -48.425,15.515 -48.265,15.965 -48.105,16.415 -47.94,16.865 -47.77,17.315 -47.595,17.76 -47.415,18.205 -47.23,18.645 -47.045,19.085 -46.85,19.525 -46.655,19.96 -46.45,20.395 -46.25,20.825 -44.895,20.175 -45.1,19.745 -45.295,19.315 -45.49,18.885 -45.685,18.45 -45.87,18.015 -46.05,17.575 -46.225,17.135 -46.4,16.695 -46.57,16.25 -46.73,15.805 -46.89,15.355 -47.045,14.91 -47.195,14.46 -47.34,14.005 -47.48,13.555 -47.615,13.1 -47.75,12.645 -47.875,12.19 -47.995,11.73 -48.115,11.27 -48.225,10.81 -48.335,10.345 -48.44,9.885 -48.535,9.42 -48.63,8.955 -48.715,8.49 -48.805,8.02 -48.88,7.555 -48.955,7.085 -49.025,6.62 -49.09,6.145 -49.15,5.675 -49.21,5.205 -49.255,4.735 -49.305,4.265 -49.345,3.79 -49.385,3.32 -49.415,2.845 -49.44,2.37 -49.46,1.895 -49.48,1.42 -49.49,0.95 -49.495,0.475 -49.5,0 -49.495,-0.475 -49.49,-0.95 -49.48,-1.42 -49.46,-1.895 -49.44,-2.37 -49.415,-2.845 -49.385,-3.32 -49.345,-3.79 -49.305,-4.265 -49.255,-4.735 -49.21,-5.205 -49.15,-5.675 -49.09,-6.145 -49.025,-6.62 -48.955,-7.085 -48.88,-7.555 -48.805,-8.02 -48.715,-8.49 -48.63,-8.955 -48.535,-9.42 -48.44,-9.885 -48.335,-10.345 -48.225,-10.81 -48.115,-11.27 -47.995,-11.73 -47.875,-12.19 -47.75,-12.645 -47.615,-13.1 -47.48,-13.555 -47.34,-14.005 -47.195,-14.46 -47.045,-14.91 -46.89,-15.355 -46.73,-15.805 -46.57,-16.25 -46.4,-16.695 -46.225,-17.135 -46.05,-17.575 -45.87,-18.015 -45.685,-18.45 -45.49,-18.885 -45.295,-19.315 -45.1,-19.745 -44.895,-20.175"/>
<polygon id="000001671BB078B0" class="l2d0" points="-43.545,-19.525 -43.745,-19.105 -43.94,-18.685 -44.125,-18.26 -44.315,-17.835 -44.495,-17.41 -44.675,-16.98 -44.845,-16.55 -45.015,-16.115 -45.18,-15.68 -45.34,-15.245 -45.495,-14.81 -45.645,-14.37 -45.79,-13.93 -45.935,-13.485 -46.07,-13.04 -46.2,-12.595 -46.33,-12.15 -46.45,-11.705 -46.57,-11.255 -46.685,-10.805 -46.795,-10.355 -46.895,-9.9 -47,-9.445 -47.09,-8.99 -47.185,-8.54 -47.27,-8.08 -47.35,-7.625 -47.425,-7.165 -47.495,-6.71 -47.565,-6.245 -47.625,-5.785 -47.685,-5.33 -47.735,-4.865 -47.785,-4.405 -47.825,-3.94 -47.865,-3.48 -47.9,-3.015 -47.93,-2.555 -47.95,-2.09 -47.97,-1.625 -47.985,-1.16 -47.995,-0.695 -48,-0.23 -48,0.23 -47.995,0.695 -47.985,1.16 -47.97,1.625 -47.95,2.09 -47.93,2.555 -47.9,3.015 -47.865,3.48 -47.825,3.94 -47.785,4.405 -47.735,4.865 -47.685,5.33 -47.625,5.785 -47.565,6.245 -47.495,6.71 -47.425,7.165 -47.35,7.625 -47.27,8.08 -47.185,8.54 -47.09,8.99 -47,9.445 -46.895,9.9 -46.795,10.355 -46.685,10.805 -46.57,11.255 -46.45,11.705 -46.33,12.15 -46.2,12.595 -46.07,13.04 -45.935,13.485 -45.79,13.93 -45.645,14.37 -45.495,14.81 -45.34,15.245 -45.18,15.68 -45.015,16.115 -44.845,16.55 -44.675,16.98 -44.495,17.41 -44.315,17.835 -44.125,18.26 -43.94,18.685 -43.745,19.105 -43.545,19.525 -42.19,18.875 -42.39,18.46 -42.58,18.04 -42.77,17.62 -42.955,17.2 -43.135,16.78 -43.31,16.355 -43.48,15.925 -43.645,15.5 -43.805,15.07 -43.96,14.635 -44.115,14.205 -44.26,13.77 -44.405,13.33 -44.545,12.895 -44.68,12.455 -44.81,12.015 -44.93,11.575 -45.05,11.13 -45.17,10.685 -45.28,10.24 -45.385,9.79 -45.485,9.34 -45.58,8.895 -45.67,8.445 -45.76,7.99 -45.84,7.54 -45.92,7.09 -45.99,6.635 -46.06,6.18 -46.12,5.725 -46.18,5.27 -46.235,4.81 -46.28,4.355 -46.325,3.9 -46.365,3.44 -46.4,2.98 -46.43,2.525 -46.45,2.065 -46.47,1.61 -46.485,1.15 -46.495,0.69 -46.5,0.23 -46.5,-0.23 -46.495,-0.69 -46.485,-1.15 -46.47,-1.61 -46.45,-2.065 -46.43,-2.525 -46.4,-2.98 -46.365,-3.44 -46.325,-3.9 -46.28,-4.355 -46.235,-4.81 -46.18,-5.27 -46.12,-5.725 -46.06,-6.18 -45.99,-6.635 -45.92,-7.09 -45.84,-7.54 -45.76,-7.99 -45.67,-8.445 -45.58,-8.895 -45.485,-9.34 -45.385,-9.79 -45.28,-10.24 -45.17,-10.685 -45.05,-11.13 -44.93,-11.575 -44.81,-12.015 -44.68,-12.455 -44.545,-12.895 -44.405,-13.33 -44.26,-13.77 -44.115,-14.205 -43.96,-14.635 -43.805,-15.07 -43.645,-15.5 -43.48,-15.925 -43.31,-16.355 -43.135,-16.78 -42.955,-17.2 -42.77,-17.62 -42.58,-18.04 -42.39,-18.46 -42.19,-18.875"/>
<polygon id="000001671BB070D0" class="l2d0" points="-40.84,-18.22 -41.035,-17.815 -41.22,-17.41 -41.405,-17 -41.585,-16.59 -41.76,-16.175 -41.93,-15.76 -42.095,-15.345 -42.26,-14.925 -42.415,-14.505 -42.565,-14.08 -42.715,-13.66 -42.86,-13.235 -43,-12.805 -43.135,-12.38 -43.265,-11.95 -43.39,-11.52 -43.51,-11.09 -43.625,-10.655 -43.735,-10.22 -43.845,-9.785 -43.945,-9.345 -44.045,-8.905 -44.135,-8.47 -44.225,-8.03 -44.31,-7.585 -44.39,-7.145 -44.465,-6.7 -44.53,-6.26 -44.595,-5.815 -44.655,-5.37 -44.71,-4.925 -44.76,-4.48 -44.805,-4.03 -44.845,-3.585 -44.885,-3.14 -44.915,-2.69 -44.94,-2.245 -44.96,-1.795 -44.98,-1.345 -44.99,-0.895 -44.995,-0.45 -45,0 -44.995,0.45 -44.99,0.895 -44.98,1.345 -44.96,1.795 -44.94,2.245 -44.915,2.69 -44.885,3.14 -44.845,3.585 -44.805,4.03 -44.76,4.48 -44.71,4.925 -44.655,5.37 -44.595,5.815 -44.53,6.26 -44.465,6.7 -44.39,7.145 -44.31,7.585 -44.225,8.03 -44.135,8.47 -44.045,8.905 -43.945,9.345 -43.845,9.785 -43.735,10.22 -43.625,10.655 -43.51,11.09 -43.39,11.52 -43.265,11.95 -43.135,12.38 -43,12.805 -42.86,13.235 -42.715,13.66 -42.565,14.08 -42.415,14.505 -42.26,14.925 -42.095,15.345 -41.93,15.76 -41.76,16.175 -41.585,16.59 -41.405,17 -41.22,17.41 -41.035,17.815 -40.84,18.22 -39.49,17.57 -39.68,17.17 -39.865,16.77 -40.045,16.365 -40.225,15.955 -40.395,15.55 -40.565,15.14 -40.73,14.725 -40.885,14.315 -41.04,13.9 -41.19,13.48 -41.335,13.06 -41.475,12.64 -41.615,12.22 -41.745,11.795 -41.87,11.37 -41.995,10.945 -42.11,10.52 -42.22,10.09 -42.33,9.66 -42.435,9.23 -42.535,8.795 -42.625,8.365 -42.715,7.93 -42.8,7.495 -42.88,7.055 -42.955,6.62 -43.025,6.185 -43.09,5.745 -43.15,5.305 -43.205,4.865 -43.255,4.425 -43.305,3.985 -43.345,3.545 -43.38,3.1 -43.415,2.66 -43.44,2.215 -43.46,1.775 -43.48,1.33 -43.49,0.89 -43.495,0.445 -43.5,0 -43.495,-0.445 -43.49,-0.89 -43.48,-1.33 -43.46,-1.775 -43.44,-2.215 -43.415,-2.66 -43.38,-3.1 -43.345,-3.545 -43.305,-3.985 -43.255,-4.425 -43.205,-4.865 -43.15,-5.305 -43.09,-5.745 -43.025,-6.185 -42.955,-6.62 -42.88,-7.055 -42.8,-7.495 -42.715,-7.93 -42.625,-8.365 -42.535,-8.795 -42.435,-9.23 -42.33,-9.66 -42.22,-10.09 -42.11,-10.52 -41.995,-10.945 -41.87,-11.37 -41.745,-11.795 -41.615,-12.22 -41.475,-12.64 -41.335,-13.06 -41.19,-13.48 -41.04,-13.9 -40.885,-14.315 -40.73,-14.725 -40.565,-15.14 -40.395,-15.55 -40.225,-15.955 -40.045,-16.365 -39.865,-16.77 -39.68,-17.17 -39.49,-17.57"/>
</g>
</defs>
<rect x="-191.05" y="-137.1" width="507.1" height="274.2" fill="none" stroke="none"/>
<g id="DC_Circuit" transform="scale(1 -1)">
<use transform="translate(0 0)" xlink:href="#DC"/>
<use transform="translate(-75 75)" xlink:href="#GC"/>
<use transform="translate(-75 -75)" xlink:href="#GC"/>
<use transform="translate(200 75) rotate(180)" xlink:href="#GC"/>
<use transform="translate(200 -75) rotate(180)" xlink:href="#GC"/>
<use transform="translate(0 0)" xlink:href="#DC_Circuit_route0"/>
<use transform="translate(0 0)" xlink:href="#DC_Circuit_route1"/>
<use transform="translate(0 0)" xlink:href="#DC_Circuit_route2"/>
<use transform="translate(0 0)" xlink:href="#DC_Circuit_route3"/>
</g>
</svg>