<?xml version="1.0" encoding="UTF-8"?>
<svg xmlns="http://www.w3.org/2000/svg" xmlns:xlink="http://www.w3.org/1999/xlink" width="300" height="73.951007" viewBox="-13.636486 -36.975504 300 73.951007">
<defs>
<style type="text/css">
.l0d0 {fill:darkorange;stroke:chocolate;}
</style>
</defs>
<rect x="-13.636486" y="-36.975504" width="300" height="73.951007" fill="none" stroke="none"/>
<g id="Directional_Coupler" transform="scale(1 -1)">
<polygon id="0000027AA2B8BAC0" class="l0d0" points="1.34927,-23.328251 2.698418,-23.295613 4.047325,-23.241313 5.395872,-23.165496 6.743944,-23.068366 9.438222,-22.811252 12.12933,-22.472697 14.816534,-22.056262 17.499204,-21.566295 20.176821,-21.007865 22.848975,-20.386697 25.51535,-19.709101 28.175715,-18.981904 30.829909,-18.212369 33.477826,-17.408127 38.754589,-15.727422 49.231275,-12.30796 51.834453,-11.489002 54.431286,-10.700262 57.021843,-9.949163 59.606228,-9.242716 62.184604,-8.587463 64.757201,-7.989417 67.324334,-7.454008 69.886414,-6.986044 72.443962,-6.589682 74.997604,-6.268404 77.548076,-6.025 80.096208,-5.861566 82.006313,-5.792338 83.916131,-5.769226 110.139762,-5.769226 136.363514,-5.769226 162.587267,-5.769226 188.81102,-5.769226 191.357352,-5.810302 193.904649,-5.933183 196.453842,-6.13682 199.005802,-6.419467 201.561311,-6.778679 204.121053,-7.21132 206.685602,-7.713567 209.255421,-8.280936 211.830874,-8.908301 214.412231,-9.589937 216.999685,-10.319559 219.59337,-11.090382 222.193369,-11.895181 227.412495,-13.576018 232.657246,-15.29817 237.927621,-16.995458 240.572372,-17.814097 243.223438,-18.601959 245.880734,-19.351258 248.544128,-20.054537 251.213426,-20.704741 253.888357,-21.295295 256.568559,-21.82017 259.253567,-22.27396 261.942808,-22.651951 264.6356,-22.95018 265.983085,-23.068366 267.331157,-23.165496 268.679704,-23.241313 270.028611,-23.295613 271.377759,-23.328251 272.726907,-23.33914 272.727151,-18.618864 270.817333,-18.595752 268.907228,-18.526524 266.359096,-18.36309 263.808624,-18.119686 261.254982,-17.798408 258.697434,-17.402046 256.135354,-16.934083 253.568221,-16.398673 250.995624,-15.800627 248.417248,-15.145374 245.832863,-14.438927 243.242306,-13.687828 240.645473,-12.899089 238.042295,-12.080131 227.565609,-8.660668 222.288846,-6.979963 219.640929,-6.175721 216.986735,-5.406186 214.32637,-4.678989 211.659995,-4.001393 208.987841,-3.380225 206.310224,-2.821795 203.627554,-2.331828 200.94035,-1.915393 198.249242,-1.576838 195.554964,-1.319724 194.206892,-1.222594 192.858345,-1.146777 191.509438,-1.092477 190.16029,-1.059839 188.81102,-1.04895 162.587267,-1.04895 136.363514,-1.04895 110.139762,-1.04895 83.915887,-1.04895 82.566739,-1.059839 81.217591,-1.092477 79.868684,-1.146777 78.520137,-1.222594 77.172065,-1.319724 75.82458,-1.43791 73.131788,-1.736139 70.442547,-2.11413 67.757539,-2.567921 65.077337,-3.092795 62.402406,-3.683349 59.733108,-4.333553 57.069714,-5.036832 54.412418,-5.786131 51.761352,-6.573993 49.116601,-7.392632 43.846226,-9.08992 38.601475,-10.812073 33.382349,-12.492909 30.78235,-13.297708 28.188665,-14.068531 25.601211,-14.798153 23.019854,-15.479789 20.444401,-16.107154 17.874582,-16.674523 15.310033,-17.17677 12.750291,-17.609411 10.194782,-17.968623 7.642822,-18.25127 5.093629,-18.454907 2.546332,-18.577788 -0.000122,-18.618864 0.000122,-23.33914"/>
<polygon id="0000027AA2B8B190" class="l0d0" points="2.546332,18.577788 5.093629,18.454907 7.642822,18.25127 10.194782,17.968623 12.750291,17.609411 15.310033,17.17677 17.874582,16.674523 20.444401,16.107154 23.019854,15.479789 25.601211,14.798153 28.188665,14.068531 30.78235,13.297708 33.382349,12.492909 38.601475,10.812073 43.846226,9.08992 49.116601,7.392632 51.761352,6.573993 54.412418,5.786131 57.069714,5.036832 59.733108,4.333553 62.402406,3.683349 65.077337,3.092795 67.757539,2.567921 70.442547,2.11413 73.131788,1.736139 75.82458,1.43791 77.172065,1.319724 78.520137,1.222594 79.868684,1.146777 81.217591,1.092477 82.566739,1.059839 83.915887,1.04895 110.139762,1.04895 136.363514,1.04895 162.587267,1.04895 188.81102,1.04895 190.16029,1.059839 191.509438,1.092477 192.858345,1.146777 194.206892,1.222594 195.554964,1.319724 198.249242,1.576838 200.94035,1.915393 203.627554,2.331828 206.310224,2.821795 208.987841,3.380225 211.659995,4.001393 214.32637,4.678989 216.986735,5.406186 219.640929,6.175721 222.288846,6.979963 227.565609,8.660668 238.042295,12.080131 240.645473,12.899089 243.242306,13.687828 245.832863,14.438927 248.417248,15.145374 250.995624,15.800627 253.568221,16.398673 256.135354,16.934083 258.697434,17.402046 261.254982,17.798408 263.808624,18.119686 266.359096,18.36309 268.907228,18.526524 270.817333,18.595752 272.727151,18.618864 272.726907,23.33914 271.377759,23.328251 270.028611,23.295613 268.679704,23.241313 267.331157,23.165496 265.983085,23.068366 264.6356,22.95018 261.942808,22.651951 259.253567,22.27396 256.568559,21.82017 253.888357,21.295295 251.213426,20.704741 248.544128,20.054537 245.880734,19.351258 243.223438,18.601959 240.572372,17.814097 237.927621,16.995458 232.657246,15.29817 227.412495,13.576018 222.193369,11.895181 219.59337,11.090382 216.999685,10.319559 214.412231,9.589937 211.830874,8.908301 209.255421,8.280936 206.685602,7.713567 204.121053,7.21132 201.561311,6.778679 199.005802,6.419467 196.453842,6.13682 193.904649,5.933183 191.357352,5.810302 188.81102,5.769226 162.587267,5.769226 136.363514,5.769226 110.139762,5.769226 83.916131,5.769226 82.006313,5.792338 80.096208,5.861566 77.548076,6.025 74.997604,6.268404 72.443962,6.589682 69.886414,6.986044 67.324334,7.454008 64.757201,7.989417 62.184604,8.587463 59.606228,9.242716 57.021843,9.949163 54.431286,10.700262 51.834453,11.489002 49.231275,12.30796 38.754589,15.727422 33.477826,17.408127 30.829909,18.212369 28.175715,18.981904 25.51535,19.709101 22.848975,20.386697 20.176821,21.007865 17.499204,21.566295 14.816534,22.056262 12.12933,22.472697 9.438222,22.811252 6.743944,23.068366 5.395872,23.165496 4.047325,23.241313 2.698418,23.295613 1.34927,23.328251 0.000122,23.33914 -0.000122,18.618864"/>
</g>
</svg>