<?xml version="1.0" encoding="UTF-8"?>
<svg xmlns="http://www.w3.org/2000/svg" xmlns:xlink="http://www.w3.org/1999/xlink" width="122.76" height="104.88" viewBox="-117.18 -52.44 122.76 104.88">
<defs>
<style type="text/css">
.l0d0 {fill:darkorange;stroke:chocolate;}
.l2d0 {stroke: #BE0032; fill: #BE0032; fill-opacity: 0.5;}
</style>
</defs>
<rect x="-117.18" y="-52.44" width="122.76" height="104.88" fill="none" stroke="none"/>
<g id="GC" transform="scale(1 -1)">
<polygon id="000001671BB06F80" class="l0d0" points="-100.902,-46.86 -101.244,-46.146 -101.58,-45.438 -101.91,-44.718 -102.228,-43.998 -102.552,-43.278 -102.864,-42.558 -103.17,-41.826 -103.47,-41.1 -103.77,-40.374 -104.064,-39.642 -104.352,-38.904 -104.628,-38.172 -104.91,-37.434 -105.18,-36.69 -105.438,-35.952 -105.702,-35.202 -105.954,-34.458 -106.206,-33.708 -106.446,-32.964 -106.686,-32.208 -106.914,-31.458 -107.142,-30.702 -107.364,-29.946 -107.58,-29.19 -107.79,-28.428 -107.994,-27.666 -108.192,-26.904 -108.39,-26.142 -108.576,-25.374 -108.762,-24.612 -108.936,-23.838 -109.11,-23.07 -109.272,-22.302 -109.434,-21.528 -109.59,-20.754 -109.734,-19.98 -109.878,-19.206 -110.016,-18.432 -110.148,-17.652 -110.274,-16.878 -110.394,-16.098 -110.508,-15.318 -110.616,-14.538 -110.724,-13.758 -110.82,-12.972 -110.91,-12.192 -110.994,-11.406 -111.078,-10.626 -111.15,-9.84 -111.216,-9.054 -111.282,-8.268 -111.342,-7.482 -111.39,-6.696 -111.438,-5.91 -111.48,-5.118 -111.516,-4.332 -111.54,-3.546 -111.564,-2.76 -111.582,-1.968 -111.594,-1.182 -111.6,-0.39 -111.6,0.39 -111.594,1.182 -111.582,1.968 -111.564,2.76 -111.54,3.546 -111.516,4.332 -111.48,5.118 -111.438,5.91 -111.39,6.696 -111.342,7.482 -111.282,8.268 -111.216,9.054 -111.15,9.84 -111.078,10.626 -110.994,11.406 -110.91,12.192 -110.82,12.972 -110.724,13.758 -110.616,14.538 -110.508,15.318 -110.394,16.098 -110.274,16.878 -110.148,17.652 -110.016,18.432 -109.878,19.206 -109.734,19.98 -109.59,20.754 -109.434,21.528 -109.272,22.302 -109.11,23.07 -108.936,23.838 -108.762,24.612 -108.576,25.374 -108.39,26.142 -108.192,26.904 -107.994,27.666 -107.79,28.428 -107.58,29.19 -107.364,29.946 -107.142,30.702 -106.914,31.458 -106.686,32.208 -106.446,32.964 -106.206,33.708 -105.954,34.458 -105.702,35.202 -105.438,35.952 -105.18,36.69 -104.91,37.434 -104.628,38.172 -104.352,38.904 -104.064,39.642 -103.77,40.374 -103.47,41.1 -103.17,41.826 -102.864,42.558 -102.552,43.278 -102.228,43.998 -101.91,44.718 -101.58,45.438 -101.244,46.146 -100.902,46.86 -3.6,1.35 -3.6,-1.35"/>
<polygon id="000001671BB07290" class="l0d0" points="-3.6,-1.35 -3.6,1.35 0,1.35 0,-1.35"/>
<polygon id="000001671BB07530" class="l0d0" points="-0.786,-0.144 -0.786,-0.144 -0.768,-0.144 -0.768,-0.144"/>
<polygon id="000001671BB06EA0" class="l2d0" points="-91.176,-42.174 -91.494,-41.502 -91.812,-40.824 -92.118,-40.146 -92.424,-39.468 -92.73,-38.784 -93.018,-38.1 -93.312,-37.41 -93.594,-36.726 -93.876,-36.03 -94.146,-35.34 -94.416,-34.644 -94.68,-33.942 -94.938,-33.246 -95.19,-32.544 -95.436,-31.836 -95.676,-31.134 -95.916,-30.426 -96.144,-29.718 -96.372,-29.004 -96.594,-28.29 -96.804,-27.582 -97.014,-26.862 -97.218,-26.148 -97.416,-25.428 -97.608,-24.708 -97.794,-23.982 -97.974,-23.262 -98.148,-22.536 -98.322,-21.81 -98.484,-21.084 -98.646,-20.352 -98.796,-19.626 -98.946,-18.894 -99.084,-18.162 -99.222,-17.43 -99.354,-16.692 -99.48,-15.96 -99.6,-15.222 -99.714,-14.484 -99.822,-13.746 -99.924,-13.008 -100.02,-12.27 -100.11,-11.532 -100.2,-10.788 -100.278,-10.05 -100.356,-9.306 -100.422,-8.562 -100.482,-7.824 -100.542,-7.08 -100.596,-6.33 -100.638,-5.592 -100.68,-4.848 -100.716,-4.098 -100.74,-3.354 -100.764,-2.61 -100.782,-1.866 -100.794,-1.122 -100.8,-0.372 -100.8,0.372 -100.794,1.122 -100.782,1.866 -100.764,2.61 -100.74,3.354 -100.716,4.098 -100.68,4.848 -100.638,5.592 -100.596,6.33 -100.542,7.08 -100.482,7.824 -100.422,8.562 -100.356,9.306 -100.278,10.05 -100.2,10.788 -100.11,11.532 -100.02,12.27 -99.924,13.008 -99.822,13.746 -99.714,14.484 -99.6,15.222 -99.48,15.96 -99.354,16.692 -99.222,17.43 -99.084,18.162 -98.946,18.894 -98.796,19.626 -98.646,20.352 -98.484,21.084 -98.322,21.81 -98.148,22.536 -97.974,23.262 -97.794,23.982 -97.608,24.708 -97.416,25.428 -97.218,26.148 -97.014,26.862 -96.804,27.582 -96.594,28.29 -96.372,29.004 -96.144,29.718 -95.916,30.426 -95.676,31.134 -95.436,31.836 -95.19,32.544 -94.938,33.246 -94.68,33.942 -94.416,34.644 -94.146,35.34 -93.876,36.03 -93.594,36.726 -93.312,37.41 -93.018,38.1 -92.73,38.784 -92.424,39.468 -92.118,40.146 -91.812,40.824 -91.494,41.502 -91.176,42.174 -89.556,41.394 -89.868,40.728 -90.186,40.056 -90.492,39.39 -90.792,38.712 -91.092,38.04 -91.38,37.356 -91.668,36.678 -91.95,35.994 -92.226,35.31 -92.496,34.626 -92.76,33.936 -93.018,33.246 -93.276,32.55 -93.522,31.854 -93.768,31.164 -94.008,30.462 -94.242,29.76 -94.47,29.058 -94.686,28.356 -94.908,27.648 -95.118,26.94 -95.322,26.232 -95.52,25.524 -95.718,24.81 -95.91,24.096 -96.09,23.382 -96.27,22.668 -96.438,21.948 -96.612,21.228 -96.768,20.508 -96.924,19.788 -97.08,19.068 -97.224,18.336 -97.356,17.616 -97.494,16.89 -97.62,16.158 -97.746,15.432 -97.86,14.706 -97.968,13.974 -98.076,13.242 -98.178,12.516 -98.268,11.778 -98.358,11.046 -98.442,10.314 -98.52,9.582 -98.592,8.844 -98.652,8.112 -98.718,7.374 -98.772,6.636 -98.814,5.898 -98.862,5.166 -98.898,4.428 -98.928,3.69 -98.952,2.952 -98.976,2.214 -98.988,1.476 -98.994,0.738 -99,0 -98.994,-0.738 -98.988,-1.476 -98.976,-2.214 -98.952,-2.952 -98.928,-3.69 -98.898,-4.428 -98.862,-5.166 -98.814,-5.898 -98.772,-6.636 -98.718,-7.374 -98.652,-8.112 -98.592,-8.844 -98.52,-9.582 -98.442,-10.314 -98.358,-11.046 -98.268,-11.778 -98.178,-12.516 -98.076,-13.242 -97.968,-13.974 -97.86,-14.706 -97.746,-15.432 -97.62,-16.158 -97.494,-16.89 -97.356,-17.616 -97.224,-18.336 -97.08,-19.068 -96.924,-19.788 -96.768,-20.508 -96.612,-21.228 -96.438,-21.948 -96.27,-22.668 -96.09,-23.382 -95.91,-24.096 -95.718,-24.81 -95.52,-25.524 -95.322,-26.232 -95.118,-26.94 -94.908,-27.648 -94.686,-28.356 -94.47,-29.058 -94.242,-29.76 -94.008,-30.462 -93.768,-31.164 -93.522,-31.854 -93.276,-32.55 -93.018,-33.246 -92.76,-33.936 -92.496,-34.626 -92.226,-35.31 -91.95,-35.994 -91.668,-36.678 -91.38,-37.356 -91.092,-38.04 -90.792,-38.712 -90.492,-39.39 -90.186,-40.056 -89.868,-40.728 -89.556,-41.394"/>
<polygon id="000001671BB07300" class="l2d0" points="-87.93,-40.614 -88.248,-39.948 -88.56,-39.282 -88.866,-38.61 -89.166,-37.938 -89.466,-37.26 -89.754,-36.582 -90.042,-35.904 -90.318,-35.22 -90.594,-34.536 -90.864,-33.852 -91.128,-33.162 -91.386,-32.478 -91.638,-31.782 -91.884,-31.092 -92.13,-30.39 -92.364,-29.694 -92.598,-28.992 -92.82,-28.29 -93.042,-27.588 -93.252,-26.886 -93.462,-26.178 -93.666,-25.47 -93.864,-24.756 -94.056,-24.048 -94.242,-23.334 -94.422,-22.62 -94.602,-21.906 -94.77,-21.186 -94.938,-20.472 -95.094,-19.752 -95.244,-19.026 -95.394,-18.306 -95.532,-17.58 -95.67,-16.86 -95.802,-16.134 -95.922,-15.402 -96.042,-14.676 -96.156,-13.95 -96.258,-13.224 -96.36,-12.492 -96.456,-11.76 -96.546,-11.028 -96.63,-10.296 -96.708,-9.564 -96.78,-8.832 -96.852,-8.094 -96.906,-7.362 -96.966,-6.63 -97.014,-5.892 -97.062,-5.154 -97.098,-4.422 -97.128,-3.684 -97.152,-2.946 -97.176,-2.208 -97.188,-1.47 -97.194,-0.738 -97.2,0 -97.194,0.738 -97.188,1.47 -97.176,2.208 -97.152,2.946 -97.128,3.684 -97.098,4.422 -97.062,5.154 -97.014,5.892 -96.966,6.63 -96.906,7.362 -96.852,8.094 -96.78,8.832 -96.708,9.564 -96.63,10.296 -96.546,11.028 -96.456,11.76 -96.36,12.492 -96.258,13.224 -96.156,13.95 -96.042,14.676 -95.922,15.402 -95.802,16.134 -95.67,16.86 -95.532,17.58 -95.394,18.306 -95.244,19.026 -95.094,19.752 -94.938,20.472 -94.77,21.186 -94.602,21.906 -94.422,22.62 -94.242,23.334 -94.056,24.048 -93.864,24.756 -93.666,25.47 -93.462,26.178 -93.252,26.886 -93.042,27.588 -92.82,28.29 -92.598,28.992 -92.364,29.694 -92.13,30.39 -91.884,31.092 -91.638,31.782 -91.386,32.478 -91.128,33.162 -90.864,33.852 -90.594,34.536 -90.318,35.22 -90.042,35.904 -89.754,36.582 -89.466,37.26 -89.166,37.938 -88.866,38.61 -88.56,39.282 -88.248,39.948 -87.93,40.614 -86.31,39.828 -86.622,39.174 -86.934,38.514 -87.234,37.848 -87.534,37.182 -87.828,36.516 -88.116,35.844 -88.392,35.172 -88.674,34.5 -88.944,33.822 -89.208,33.144 -89.472,32.46 -89.724,31.776 -89.976,31.092 -90.222,30.408 -90.456,29.718 -90.69,29.028 -90.918,28.332 -91.14,27.636 -91.356,26.94 -91.572,26.244 -91.776,25.548 -91.974,24.846 -92.166,24.144 -92.358,23.436 -92.544,22.728 -92.718,22.026 -92.892,21.318 -93.054,20.604 -93.216,19.896 -93.372,19.182 -93.522,18.468 -93.666,17.754 -93.804,17.034 -93.936,16.32 -94.062,15.6 -94.188,14.88 -94.302,14.16 -94.41,13.44 -94.512,12.72 -94.614,12 -94.704,11.274 -94.794,10.554 -94.872,9.822 -94.944,9.102 -95.016,8.376 -95.082,7.644 -95.136,6.918 -95.19,6.192 -95.238,5.466 -95.28,4.74 -95.316,4.008 -95.34,3.282 -95.364,2.55 -95.382,1.824 -95.394,1.092 -95.4,0.366 -95.4,-0.366 -95.394,-1.092 -95.382,-1.824 -95.364,-2.55 -95.34,-3.282 -95.316,-4.008 -95.28,-4.74 -95.238,-5.466 -95.19,-6.192 -95.136,-6.918 -95.082,-7.644 -95.016,-8.376 -94.944,-9.102 -94.872,-9.822 -94.794,-10.554 -94.704,-11.274 -94.614,-12 -94.512,-12.72 -94.41,-13.44 -94.302,-14.16 -94.188,-14.88 -94.062,-15.6 -93.936,-16.32 -93.804,-17.034 -93.666,-17.754 -93.522,-18.468 -93.372,-19.182 -93.216,-19.896 -93.054,-20.604 -92.892,-21.318 -92.718,-22.026 -92.544,-22.728 -92.358,-23.436 -92.166,-24.144 -91.974,-24.846 -91.776,-25.548 -91.572,-26.244 -91.356,-26.94 -91.14,-27.636 -90.918,-28.332 -90.69,-29.028 -90.456,-29.718 -90.222,-30.408 -89.976,-31.092 -89.724,-31.776 -89.472,-32.46 -89.208,-33.144 -88.944,-33.822 -88.674,-34.5 -88.392,-35.172 -88.116,-35.844 -87.828,-36.516 -87.534,-37.182 -87.234,-37.848 -86.934,-38.514 -86.622,-39.174 -86.31,-39.828"/>
<polygon id="000001671BB07370" class="l2d0" points="-84.684,-39.048 -84.996,-38.4 -85.302,-37.746 -85.602,-37.086 -85.896,-36.432 -86.19,-35.772 -86.472,-35.106 -86.748,-34.44 -87.024,-33.774 -87.288,-33.108 -87.552,-32.43 -87.81,-31.758 -88.062,-31.08 -88.308,-30.408 -88.548,-29.724 -88.782,-29.046 -89.016,-28.362 -89.238,-27.672 -89.46,-26.988 -89.67,-26.298 -89.88,-25.608 -90.084,-24.918 -90.282,-24.222 -90.474,-23.526 -90.654,-22.83 -90.834,-22.128 -91.014,-21.432 -91.182,-20.73 -91.344,-20.028 -91.5,-19.326 -91.65,-18.618 -91.8,-17.91 -91.938,-17.202 -92.076,-16.494 -92.202,-15.786 -92.328,-15.078 -92.448,-14.364 -92.562,-13.65 -92.664,-12.936 -92.766,-12.228 -92.862,-11.508 -92.952,-10.794 -93.036,-10.074 -93.108,-9.36 -93.18,-8.646 -93.252,-7.926 -93.312,-7.206 -93.366,-6.486 -93.414,-5.766 -93.462,-5.046 -93.498,-4.326 -93.528,-3.606 -93.552,-2.886 -93.576,-2.166 -93.588,-1.446 -93.594,-0.72 -93.6,0 -93.594,0.72 -93.588,1.446 -93.576,2.166 -93.552,2.886 -93.528,3.606 -93.498,4.326 -93.462,5.046 -93.414,5.766 -93.366,6.486 -93.312,7.206 -93.252,7.926 -93.18,8.646 -93.108,9.36 -93.036,10.074 -92.952,10.794 -92.862,11.508 -92.766,12.228 -92.664,12.936 -92.562,13.65 -92.448,14.364 -92.328,15.078 -92.202,15.786 -92.076,16.494 -91.938,17.202 -91.8,17.91 -91.65,18.618 -91.5,19.326 -91.344,20.028 -91.182,20.73 -91.014,21.432 -90.834,22.128 -90.654,22.83 -90.474,23.526 -90.282,24.222 -90.084,24.918 -89.88,25.608 -89.67,26.298 -89.46,26.988 -89.238,27.672 -89.016,28.362 -88.782,29.046 -88.548,29.724 -88.308,30.408 -88.062,31.08 -87.81,31.758 -87.552,32.43 -87.288,33.108 -87.024,33.774 -86.748,34.44 -86.472,35.106 -86.19,35.772 -85.896,36.432 -85.602,37.086 -85.302,37.746 -84.996,38.4 -84.684,39.048 -83.064,38.268 -83.37,37.626 -83.676,36.978 -83.97,36.33 -84.264,35.682 -84.546,35.022 -84.828,34.368 -85.104,33.708 -85.374,33.054 -85.638,32.388 -85.896,31.722 -86.154,31.056 -86.4,30.39 -86.64,29.718 -86.88,29.046 -87.114,28.374 -87.342,27.696 -87.558,27.018 -87.774,26.34 -87.99,25.656 -88.188,24.972 -88.392,24.288 -88.584,23.604 -88.77,22.914 -88.95,22.224 -89.13,21.534 -89.304,20.838 -89.466,20.148 -89.628,19.452 -89.784,18.756 -89.934,18.06 -90.078,17.358 -90.21,16.662 -90.348,15.96 -90.474,15.258 -90.588,14.556 -90.708,13.848 -90.816,13.146 -90.918,12.444 -91.014,11.73 -91.11,11.028 -91.194,10.32 -91.272,9.606 -91.35,8.898 -91.416,8.19 -91.482,7.482 -91.542,6.768 -91.59,6.06 -91.638,5.346 -91.68,4.632 -91.716,3.918 -91.74,3.21 -91.764,2.496 -91.782,1.782 -91.794,1.068 -91.8,0.354 -91.8,-0.354 -91.794,-1.068 -91.782,-1.782 -91.764,-2.496 -91.74,-3.21 -91.716,-3.918 -91.68,-4.632 -91.638,-5.346 -91.59,-6.06 -91.542,-6.768 -91.482,-7.482 -91.416,-8.19 -91.35,-8.898 -91.272,-9.606 -91.194,-10.32 -91.11,-11.028 -91.014,-11.73 -90.918,-12.444 -90.816,-13.146 -90.708,-13.848 -90.588,-14.556 -90.474,-15.258 -90.348,-15.96 -90.21,-16.662 -90.078,-17.358 -89.934,-18.06 -89.784,-18.756 -89.628,-19.452 -89.466,-20.148 -89.304,-20.838 -89.13,-21.534 -88.95,-22.224 -88.77,-22.914 -88.584,-23.604 -88.392,-24.288 -88.188,-24.972 -87.99,-25.656 -87.774,-26.34 -87.558,-27.018 -87.342,-27.696 -87.114,-28.374 -86.88,-29.046 -86.64,-29.718 -86.4,-30.39 -86.154,-31.056 -85.896,-31.722 -85.638,-32.388 -85.374,-33.054 -85.104,-33.708 -84.828,-34.368 -84.546,-35.022 -84.264,-35.682 -83.97,-36.33 -83.676,-36.978 -83.37,-37.626 -83.064,-38.268"/>
<polygon id="000001671BB07760" class="l2d0" points="-81.444,-37.488 -81.75,-36.852 -82.044,-36.21 -82.338,-35.574 -82.626,-34.926 -82.908,-34.284 -83.184,-33.63 -83.454,-32.982 -83.724,-32.328 -83.982,-31.674 -84.24,-31.02 -84.492,-30.36 -84.738,-29.694 -84.972,-29.034 -85.206,-28.368 -85.44,-27.702 -85.662,-27.03 -85.878,-26.364 -86.088,-25.692 -86.298,-25.014 -86.502,-24.342 -86.694,-23.664 -86.886,-22.986 -87.072,-22.308 -87.252,-21.624 -87.42,-20.94 -87.594,-20.256 -87.756,-19.572 -87.912,-18.882 -88.062,-18.192 -88.206,-17.502 -88.35,-16.812 -88.482,-16.122 -88.608,-15.426 -88.734,-14.736 -88.854,-14.034 -88.962,-13.344 -89.07,-12.642 -89.166,-11.946 -89.268,-11.25 -89.352,-10.548 -89.436,-9.852 -89.514,-9.15 -89.586,-8.448 -89.652,-7.746 -89.712,-7.044 -89.766,-6.342 -89.814,-5.64 -89.862,-4.932 -89.898,-4.23 -89.928,-3.522 -89.952,-2.82 -89.976,-2.112 -89.988,-1.41 -89.994,-0.708 -90,0 -89.994,0.708 -89.988,1.41 -89.976,2.112 -89.952,2.82 -89.928,3.522 -89.898,4.23 -89.862,4.932 -89.814,5.64 -89.766,6.342 -89.712,7.044 -89.652,7.746 -89.586,8.448 -89.514,9.15 -89.436,9.852 -89.352,10.548 -89.268,11.25 -89.166,11.946 -89.07,12.642 -88.962,13.344 -88.854,14.034 -88.734,14.736 -88.608,15.426 -88.482,16.122 -88.35,16.812 -88.206,17.502 -88.062,18.192 -87.912,18.882 -87.756,19.572 -87.594,20.256 -87.42,20.94 -87.252,21.624 -87.072,22.308 -86.886,22.986 -86.694,23.664 -86.502,24.342 -86.298,25.014 -86.088,25.692 -85.878,26.364 -85.662,27.03 -85.44,27.702 -85.206,28.368 -84.972,29.034 -84.738,29.694 -84.492,30.36 -84.24,31.02 -83.982,31.674 -83.724,32.328 -83.454,32.982 -83.184,33.63 -82.908,34.284 -82.626,34.926 -82.338,35.574 -82.044,36.21 -81.75,36.852 -81.444,37.488 -79.824,36.708 -80.124,36.078 -80.418,35.448 -80.706,34.812 -80.988,34.176 -81.27,33.54 -81.546,32.898 -81.81,32.256 -82.074,31.608 -82.332,30.966 -82.584,30.312 -82.83,29.658 -83.07,29.01 -83.31,28.356 -83.538,27.696 -83.766,27.036 -83.982,26.376 -84.198,25.71 -84.408,25.05 -84.612,24.378 -84.81,23.712 -85.002,23.046 -85.188,22.374 -85.368,21.702 -85.548,21.024 -85.716,20.352 -85.884,19.674 -86.04,18.996 -86.196,18.318 -86.34,17.634 -86.484,16.95 -86.622,16.266 -86.754,15.582 -86.88,14.898 -87,14.214 -87.114,13.524 -87.222,12.84 -87.324,12.15 -87.42,11.46 -87.51,10.77 -87.6,10.074 -87.678,9.384 -87.756,8.694 -87.822,7.998 -87.882,7.302 -87.942,6.612 -87.99,5.916 -88.038,5.22 -88.08,4.524 -88.116,3.828 -88.14,3.138 -88.164,2.436 -88.182,1.74 -88.194,1.044 -88.2,0.348 -88.2,-0.348 -88.194,-1.044 -88.182,-1.74 -88.164,-2.436 -88.14,-3.138 -88.116,-3.828 -88.08,-4.524 -88.038,-5.22 -87.99,-5.916 -87.942,-6.612 -87.882,-7.302 -87.822,-7.998 -87.756,-8.694 -87.678,-9.384 -87.6,-10.074 -87.51,-10.77 -87.42,-11.46 -87.324,-12.15 -87.222,-12.84 -87.114,-13.524 -87,-14.214 -86.88,-14.898 -86.754,-15.582 -86.622,-16.266 -86.484,-16.95 -86.34,-17.634 -86.196,-18.318 -86.04,-18.996 -85.884,-19.674 -85.716,-20.352 -85.548,-21.024 -85.368,-21.702 -85.188,-22.374 -85.002,-23.046 -84.81,-23.712 -84.612,-24.378 -84.408,-25.05 -84.198,-25.71 -83.982,-26.376 -83.766,-27.036 -83.538,-27.696 -83.31,-28.356 -83.07,-29.01 -82.83,-29.658 -82.584,-30.312 -82.332,-30.966 -82.074,-31.608 -81.81,-32.256 -81.546,-32.898 -81.27,-33.54 -80.988,-34.176 -80.706,-34.812 -80.418,-35.448 -80.124,-36.078 -79.824,-36.708"/>
<polygon id="000001671BB076F0" class="l2d0" points="-78.198,-35.922 -78.498,-35.304 -78.786,-34.68 -79.074,-34.056 -79.356,-33.426 -79.626,-32.796 -79.896,-32.16 -80.16,-31.53 -80.424,-30.888 -80.676,-30.252 -80.922,-29.61 -81.168,-28.968 -81.408,-28.32 -81.642,-27.672 -81.87,-27.024 -82.086,-26.37 -82.302,-25.716 -82.518,-25.062 -82.722,-24.402 -82.92,-23.748 -83.118,-23.088 -83.304,-22.422 -83.49,-21.762 -83.67,-21.096 -83.838,-20.43 -84.006,-19.764 -84.168,-19.092 -84.324,-18.426 -84.474,-17.754 -84.618,-17.082 -84.756,-16.404 -84.894,-15.732 -85.02,-15.054 -85.146,-14.376 -85.26,-13.704 -85.368,-13.02 -85.476,-12.342 -85.578,-11.658 -85.668,-10.974 -85.758,-10.296 -85.836,-9.612 -85.92,-8.928 -85.992,-8.244 -86.052,-7.56 -86.118,-6.87 -86.172,-6.186 -86.214,-5.502 -86.262,-4.812 -86.298,-4.128 -86.328,-3.444 -86.352,-2.748 -86.376,-2.064 -86.388,-1.374 -86.394,-0.69 -86.4,0 -86.394,0.69 -86.388,1.374 -86.376,2.064 -86.352,2.748 -86.328,3.444 -86.298,4.128 -86.262,4.812 -86.214,5.502 -86.172,6.186 -86.118,6.87 -86.052,7.56 -85.992,8.244 -85.92,8.928 -85.836,9.612 -85.758,10.296 -85.668,10.974 -85.578,11.658 -85.476,12.342 -85.368,13.02 -85.26,13.704 -85.146,14.376 -85.02,15.054 -84.894,15.732 -84.756,16.404 -84.618,17.082 -84.474,17.754 -84.324,18.426 -84.168,19.092 -84.006,19.764 -83.838,20.43 -83.67,21.096 -83.49,21.762 -83.304,22.422 -83.118,23.088 -82.92,23.748 -82.722,24.402 -82.518,25.062 -82.302,25.716 -82.086,26.37 -81.87,27.024 -81.642,27.672 -81.408,28.32 -81.168,28.968 -80.922,29.61 -80.676,30.252 -80.424,30.888 -80.16,31.53 -79.896,32.16 -79.626,32.796 -79.356,33.426 -79.074,34.056 -78.786,34.68 -78.498,35.304 -78.198,35.922 -76.578,35.142 -76.872,34.524 -77.16,33.906 -77.448,33.276 -77.73,32.652 -78,32.028 -78.27,31.392 -78.534,30.756 -78.792,30.126 -79.044,29.49 -79.29,28.848 -79.53,28.206 -79.77,27.564 -79.998,26.916 -80.22,26.268 -80.442,25.62 -80.658,24.966 -80.868,24.312 -81.066,23.658 -81.264,22.998 -81.456,22.344 -81.642,21.684 -81.822,21.018 -82.002,20.358 -82.17,19.692 -82.338,19.026 -82.488,18.36 -82.644,17.688 -82.794,17.022 -82.932,16.35 -83.07,15.672 -83.202,15 -83.322,14.328 -83.442,13.65 -83.55,12.972 -83.658,12.3 -83.76,11.622 -83.856,10.938 -83.946,10.26 -84.03,9.582 -84.108,8.898 -84.18,8.214 -84.246,7.536 -84.306,6.852 -84.366,6.168 -84.414,5.484 -84.456,4.8 -84.498,4.116 -84.528,3.426 -84.552,2.742 -84.576,2.058 -84.588,1.374 -84.594,0.69 -84.6,0 -84.594,-0.69 -84.588,-1.374 -84.576,-2.058 -84.552,-2.742 -84.528,-3.426 -84.498,-4.116 -84.456,-4.8 -84.414,-5.484 -84.366,-6.168 -84.306,-6.852 -84.246,-7.536 -84.18,-8.214 -84.108,-8.898 -84.03,-9.582 -83.946,-10.26 -83.856,-10.938 -83.76,-11.622 -83.658,-12.3 -83.55,-12.972 -83.442,-13.65 -83.322,-14.328 -83.202,-15 -83.07,-15.672 -82.932,-16.35 -82.794,-17.022 -82.644,-17.688 -82.488,-18.36 -82.338,-19.026 -82.17,-19.692 -82.002,-20.358 -81.822,-21.018 -81.642,-21.684 -81.456,-22.344 -81.264,-22.998 -81.066,-23.658 -80.868,-24.312 -80.658,-24.966 -80.442,-25.62 -80.22,-26.268 -79.998,-26.916 -79.77,-27.564 -79.53,-28.206 -79.29,-28.848 -79.044,-29.49 -78.792,-30.126 -78.534,-30.756 -78.27,-31.392 -78,-32.028 -77.73,-32.652 -77.448,-33.276 -77.16,-33.906 -76.872,-34.524 -76.578,-35.142"/>
<polygon id="000001671BB07BC0" class="l2d0" points="-74.958,-34.362 -75.246,-33.756 -75.534,-33.138 -75.816,-32.52 -76.092,-31.902 -76.362,-31.284 -76.626,-30.66 -76.884,-30.036 -77.136,-29.406 -77.388,-28.776 -77.628,-28.146 -77.868,-27.51 -78.102,-26.88 -78.33,-26.238 -78.546,-25.602 -78.762,-24.954 -78.978,-24.312 -79.182,-23.664 -79.38,-23.022 -79.572,-22.374 -79.764,-21.72 -79.944,-21.072 -80.124,-20.418 -80.292,-19.758 -80.46,-19.104 -80.622,-18.444 -80.778,-17.79 -80.922,-17.13 -81.066,-16.464 -81.21,-15.804 -81.336,-15.138 -81.462,-14.478 -81.588,-13.812 -81.702,-13.14 -81.81,-12.474 -81.912,-11.802 -82.014,-11.136 -82.104,-10.464 -82.194,-9.792 -82.272,-9.12 -82.35,-8.448 -82.416,-7.77 -82.482,-7.098 -82.536,-6.426 -82.59,-5.748 -82.638,-5.076 -82.68,-4.398 -82.716,-3.72 -82.74,-3.048 -82.764,-2.37 -82.782,-1.692 -82.794,-1.014 -82.8,-0.336 -82.8,0.336 -82.794,1.014 -82.782,1.692 -82.764,2.37 -82.74,3.048 -82.716,3.72 -82.68,4.398 -82.638,5.076 -82.59,5.748 -82.536,6.426 -82.482,7.098 -82.416,7.77 -82.35,8.448 -82.272,9.12 -82.194,9.792 -82.104,10.464 -82.014,11.136 -81.912,11.802 -81.81,12.474 -81.702,13.14 -81.588,13.812 -81.462,14.478 -81.336,15.138 -81.21,15.804 -81.066,16.464 -80.922,17.13 -80.778,17.79 -80.622,18.444 -80.46,19.104 -80.292,19.758 -80.124,20.418 -79.944,21.072 -79.764,21.72 -79.572,22.374 -79.38,23.022 -79.182,23.664 -78.978,24.312 -78.762,24.954 -78.546,25.602 -78.33,26.238 -78.102,26.88 -77.868,27.51 -77.628,28.146 -77.388,28.776 -77.136,29.406 -76.884,30.036 -76.626,30.66 -76.362,31.284 -76.092,31.902 -75.816,32.52 -75.534,33.138 -75.246,33.756 -74.958,34.362 -73.338,33.582 -73.626,32.982 -73.902,32.376 -74.184,31.764 -74.454,31.152 -74.718,30.54 -74.982,29.928 -75.234,29.31 -75.486,28.692 -75.732,28.068 -75.972,27.444 -76.206,26.82 -76.434,26.196 -76.656,25.566 -76.872,24.936 -77.088,24.3 -77.298,23.664 -77.496,23.028 -77.694,22.386 -77.88,21.75 -78.066,21.108 -78.246,20.46 -78.42,19.818 -78.588,19.17 -78.75,18.522 -78.906,17.874 -79.062,17.22 -79.206,16.572 -79.344,15.918 -79.482,15.264 -79.608,14.61 -79.734,13.95 -79.848,13.296 -79.962,12.636 -80.07,11.976 -80.166,11.316 -80.262,10.656 -80.352,9.996 -80.436,9.33 -80.514,8.664 -80.586,8.004 -80.652,7.338 -80.712,6.672 -80.766,6.006 -80.814,5.34 -80.862,4.674 -80.898,4.008 -80.928,3.342 -80.952,2.67 -80.976,2.004 -80.988,1.338 -80.994,0.672 -81,0 -80.994,-0.672 -80.988,-1.338 -80.976,-2.004 -80.952,-2.67 -80.928,-3.342 -80.898,-4.008 -80.862,-4.674 -80.814,-5.34 -80.766,-6.006 -80.712,-6.672 -80.652,-7.338 -80.586,-8.004 -80.514,-8.664 -80.436,-9.33 -80.352,-9.996 -80.262,-10.656 -80.166,-11.316 -80.07,-11.976 -79.962,-12.636 -79.848,-13.296 -79.734,-13.95 -79.608,-14.61 -79.482,-15.264 -79.344,-15.918 -79.206,-16.572 -79.062,-17.22 -78.906,-17.874 -78.75,-18.522 -78.588,-19.17 -78.42,-19.818 -78.246,-20.46 -78.066,-21.108 -77.88,-21.75 -77.694,-22.386 -77.496,-23.028 -77.298,-23.664 -77.088,-24.3 -76.872,-24.936 -76.656,-25.566 -76.434,-26.196 -76.206,-26.82 -75.972,-27.444 -75.732,-28.068 -75.486,-28.692 -75.234,-29.31 -74.982,-29.928 -74.718,-30.54 -74.454,-31.152 -74.184,-31.764 -73.902,-32.376 -73.626,-32.982 -73.338,-33.582"/>
<polygon id="000001671BB06F10" class="l2d0" points="-71.712,-32.802 -71.994,-32.208 -72.276,-31.608 -72.546,-31.008 -72.816,-30.408 -73.074,-29.802 -73.338,-29.196 -73.59,-28.59 -73.83,-27.978 -74.076,-27.366 -74.31,-26.748 -74.544,-26.13 -74.766,-25.512 -74.982,-24.888 -75.198,-24.27 -75.408,-23.646 -75.612,-23.016 -75.81,-22.386 -76.002,-21.756 -76.188,-21.126 -76.368,-20.496 -76.548,-19.86 -76.716,-19.218 -76.884,-18.582 -77.04,-17.946 -77.196,-17.304 -77.34,-16.662 -77.484,-16.02 -77.622,-15.378 -77.754,-14.73 -77.874,-14.082 -78,-13.434 -78.114,-12.786 -78.222,-12.138 -78.324,-11.484 -78.42,-10.83 -78.51,-10.182 -78.6,-9.528 -78.678,-8.874 -78.756,-8.22 -78.822,-7.566 -78.882,-6.906 -78.942,-6.252 -78.99,-5.592 -79.038,-4.938 -79.08,-4.278 -79.116,-3.624 -79.14,-2.964 -79.164,-2.304 -79.182,-1.644 -79.194,-0.99 -79.2,-0.33 -79.2,0.33 -79.194,0.99 -79.182,1.644 -79.164,2.304 -79.14,2.964 -79.116,3.624 -79.08,4.278 -79.038,4.938 -78.99,5.592 -78.942,6.252 -78.882,6.906 -78.822,7.566 -78.756,8.22 -78.678,8.874 -78.6,9.528 -78.51,10.182 -78.42,10.83 -78.324,11.484 -78.222,12.138 -78.114,12.786 -78,13.434 -77.874,14.082 -77.754,14.73 -77.622,15.378 -77.484,16.02 -77.34,16.662 -77.196,17.304 -77.04,17.946 -76.884,18.582 -76.716,19.218 -76.548,19.86 -76.368,20.496 -76.188,21.126 -76.002,21.756 -75.81,22.386 -75.612,23.016 -75.408,23.646 -75.198,24.27 -74.982,24.888 -74.766,25.512 -74.544,26.13 -74.31,26.748 -74.076,27.366 -73.83,27.978 -73.59,28.59 -73.338,29.196 -73.074,29.802 -72.816,30.408 -72.546,31.008 -72.276,31.608 -71.994,32.208 -71.712,32.802 -70.092,32.022 -70.368,31.434 -70.644,30.846 -70.914,30.252 -71.178,29.658 -71.436,29.064 -71.688,28.464 -71.934,27.87 -72.18,27.264 -72.42,26.658 -72.648,26.052 -72.876,25.446 -73.098,24.834 -73.308,24.222 -73.524,23.604 -73.728,22.992 -73.926,22.374 -74.118,21.75 -74.31,21.132 -74.496,20.508 -74.67,19.884 -74.844,19.254 -75.012,18.63 -75.174,18 -75.324,17.37 -75.48,16.74 -75.624,16.104 -75.756,15.468 -75.894,14.838 -76.02,14.196 -76.146,13.56 -76.26,12.918 -76.368,12.282 -76.476,11.64 -76.578,10.998 -76.668,10.356 -76.758,9.714 -76.842,9.066 -76.92,8.424 -76.992,7.782 -77.052,7.134 -77.118,6.486 -77.172,5.838 -77.214,5.19 -77.262,4.542 -77.298,3.894 -77.328,3.246 -77.352,2.598 -77.376,1.95 -77.388,1.302 -77.394,0.648 -77.4,0 -77.394,-0.648 -77.388,-1.302 -77.376,-1.95 -77.352,-2.598 -77.328,-3.246 -77.298,-3.894 -77.262,-4.542 -77.214,-5.19 -77.172,-5.838 -77.118,-6.486 -77.052,-7.134 -76.992,-7.782 -76.92,-8.424 -76.842,-9.066 -76.758,-9.714 -76.668,-10.356 -76.578,-10.998 -76.476,-11.64 -76.368,-12.282 -76.26,-12.918 -76.146,-13.56 -76.02,-14.196 -75.894,-14.838 -75.756,-15.468 -75.624,-16.104 -75.48,-16.74 -75.324,-17.37 -75.174,-18 -75.012,-18.63 -74.844,-19.254 -74.67,-19.884 -74.496,-20.508 -74.31,-21.132 -74.118,-21.75 -73.926,-22.374 -73.728,-22.992 -73.524,-23.604 -73.308,-24.222 -73.098,-24.834 -72.876,-25.446 -72.648,-26.052 -72.42,-26.658 -72.18,-27.264 -71.934,-27.87 -71.688,-28.464 -71.436,-29.064 -71.178,-29.658 -70.914,-30.252 -70.644,-30.846 -70.368,-31.434 -70.092,-32.022"/>
<polygon id="000001671BB06FF0" class="l2d0" points="-68.466,-31.242 -68.748,-30.66 -69.018,-30.072 -69.288,-29.478 -69.546,-28.89 -69.81,-28.302 -70.056,-27.702 -70.302,-27.102 -70.548,-26.502 -70.782,-25.902 -71.01,-25.296 -71.232,-24.69 -71.454,-24.084 -71.664,-23.478 -71.874,-22.866 -72.078,-22.248 -72.276,-21.63 -72.462,-21.018 -72.654,-20.4 -72.834,-19.776 -73.002,-19.158 -73.176,-18.528 -73.338,-17.904 -73.5,-17.28 -73.65,-16.65 -73.794,-16.02 -73.938,-15.39 -74.07,-14.76 -74.202,-14.124 -74.328,-13.494 -74.442,-12.858 -74.556,-12.216 -74.664,-11.58 -74.766,-10.944 -74.856,-10.302 -74.946,-9.666 -75.03,-9.024 -75.108,-8.382 -75.18,-7.74 -75.252,-7.098 -75.306,-6.456 -75.366,-5.808 -75.414,-5.166 -75.462,-4.524 -75.498,-3.876 -75.528,-3.228 -75.552,-2.586 -75.576,-1.938 -75.588,-1.29 -75.594,-0.648 -75.6,0 -75.594,0.648 -75.588,1.29 -75.576,1.938 -75.552,2.586 -75.528,3.228 -75.498,3.876 -75.462,4.524 -75.414,5.166 -75.366,5.808 -75.306,6.456 -75.252,7.098 -75.18,7.74 -75.108,8.382 -75.03,9.024 -74.946,9.666 -74.856,10.302 -74.766,10.944 -74.664,11.58 -74.556,12.216 -74.442,12.858 -74.328,13.494 -74.202,14.124 -74.07,14.76 -73.938,15.39 -73.794,16.02 -73.65,16.65 -73.5,17.28 -73.338,17.904 -73.176,18.528 -73.002,19.158 -72.834,19.776 -72.654,20.4 -72.462,21.018 -72.276,21.63 -72.078,22.248 -71.874,22.866 -71.664,23.478 -71.454,24.084 -71.232,24.69 -71.01,25.296 -70.782,25.902 -70.548,26.502 -70.302,27.102 -70.056,27.702 -69.81,28.302 -69.546,28.89 -69.288,29.478 -69.018,30.072 -68.748,30.66 -68.466,31.242 -66.846,30.462 -67.122,29.886 -67.386,29.31 -67.65,28.728 -67.908,28.146 -68.16,27.564 -68.412,26.976 -68.652,26.382 -68.892,25.794 -69.12,25.206 -69.348,24.606 -69.564,24.006 -69.78,23.412 -69.99,22.812 -70.194,22.206 -70.392,21.606 -70.584,20.994 -70.776,20.388 -70.956,19.776 -71.13,19.164 -71.304,18.552 -71.472,17.94 -71.628,17.322 -71.784,16.704 -71.934,16.086 -72.078,15.468 -72.21,14.844 -72.348,14.22 -72.474,13.596 -72.588,12.972 -72.708,12.348 -72.816,11.718 -72.918,11.094 -73.014,10.464 -73.11,9.834 -73.194,9.204 -73.272,8.574 -73.35,7.938 -73.416,7.308 -73.482,6.672 -73.542,6.042 -73.59,5.406 -73.638,4.77 -73.68,4.134 -73.716,3.498 -73.74,2.862 -73.764,2.226 -73.782,1.59 -73.794,0.954 -73.8,0.318 -73.8,-0.318 -73.794,-0.954 -73.782,-1.59 -73.764,-2.226 -73.74,-2.862 -73.716,-3.498 -73.68,-4.134 -73.638,-4.77 -73.59,-5.406 -73.542,-6.042 -73.482,-6.672 -73.416,-7.308 -73.35,-7.938 -73.272,-8.574 -73.194,-9.204 -73.11,-9.834 -73.014,-10.464 -72.918,-11.094 -72.816,-11.718 -72.708,-12.348 -72.588,-12.972 -72.474,-13.596 -72.348,-14.22 -72.21,-14.844 -72.078,-15.468 -71.934,-16.086 -71.784,-16.704 -71.628,-17.322 -71.472,-17.94 -71.304,-18.552 -71.13,-19.164 -70.956,-19.776 -70.776,-20.388 -70.584,-20.994 -70.392,-21.606 -70.194,-22.206 -69.99,-22.812 -69.78,-23.412 -69.564,-24.006 -69.348,-24.606 -69.12,-25.206 -68.892,-25.794 -68.652,-26.382 -68.412,-26.976 -68.16,-27.564 -67.908,-28.146 -67.65,-28.728 -67.386,-29.31 -67.122,-29.886 -66.846,-30.462"/>
<polygon id="000001671BB075A0" class="l2d0" points="-65.226,-29.676 -65.496,-29.112 -65.76,-28.542 -66.018,-27.972 -66.27,-27.402 -66.522,-26.826 -66.762,-26.25 -67.002,-25.668 -67.236,-25.086 -67.458,-24.504 -67.686,-23.916 -67.902,-23.328 -68.106,-22.74 -68.316,-22.146 -68.514,-21.552 -68.712,-20.958 -68.898,-20.364 -69.084,-19.758 -69.258,-19.164 -69.432,-18.558 -69.6,-17.958 -69.762,-17.346 -69.918,-16.746 -70.068,-16.134 -70.212,-15.528 -70.356,-14.916 -70.488,-14.304 -70.62,-13.692 -70.74,-13.074 -70.854,-12.462 -70.968,-11.844 -71.07,-11.226 -71.172,-10.608 -71.268,-9.984 -71.358,-9.366 -71.436,-8.748 -71.514,-8.124 -71.586,-7.5 -71.652,-6.882 -71.712,-6.258 -71.766,-5.628 -71.814,-5.01 -71.862,-4.38 -71.898,-3.756 -71.928,-3.132 -71.952,-2.508 -71.976,-1.878 -71.988,-1.254 -71.994,-0.624 -72,0 -71.994,0.624 -71.988,1.254 -71.976,1.878 -71.952,2.508 -71.928,3.132 -71.898,3.756 -71.862,4.38 -71.814,5.01 -71.766,5.628 -71.712,6.258 -71.652,6.882 -71.586,7.5 -71.514,8.124 -71.436,8.748 -71.358,9.366 -71.268,9.984 -71.172,10.608 -71.07,11.226 -70.968,11.844 -70.854,12.462 -70.74,13.074 -70.62,13.692 -70.488,14.304 -70.356,14.916 -70.212,15.528 -70.068,16.134 -69.918,16.746 -69.762,17.346 -69.6,17.958 -69.432,18.558 -69.258,19.164 -69.084,19.758 -68.898,20.364 -68.712,20.958 -68.514,21.552 -68.316,22.146 -68.106,22.74 -67.902,23.328 -67.686,23.916 -67.458,24.504 -67.236,25.086 -67.002,25.668 -66.762,26.25 -66.522,26.826 -66.27,27.402 -66.018,27.972 -65.76,28.542 -65.496,29.112 -65.226,29.676 -63.606,28.896 -63.87,28.338 -64.128,27.78 -64.38,27.222 -64.632,26.658 -64.878,26.088 -65.118,25.524 -65.352,24.954 -65.58,24.378 -65.802,23.802 -66.018,23.226 -66.228,22.65 -66.438,22.068 -66.642,21.486 -66.834,20.904 -67.026,20.316 -67.212,19.728 -67.392,19.14 -67.566,18.546 -67.734,17.958 -67.896,17.364 -68.052,16.764 -68.208,16.17 -68.352,15.57 -68.496,14.97 -68.628,14.37 -68.76,13.764 -68.886,13.164 -69.006,12.558 -69.12,11.952 -69.228,11.346 -69.33,10.74 -69.426,10.128 -69.516,9.516 -69.6,8.91 -69.684,8.298 -69.756,7.686 -69.822,7.074 -69.888,6.462 -69.942,5.844 -69.996,5.232 -70.038,4.62 -70.08,4.002 -70.116,3.39 -70.14,2.772 -70.164,2.154 -70.182,1.542 -70.194,0.924 -70.2,0.312 -70.2,-0.312 -70.194,-0.924 -70.182,-1.542 -70.164,-2.154 -70.14,-2.772 -70.116,-3.39 -70.08,-4.002 -70.038,-4.62 -69.996,-5.232 -69.942,-5.844 -69.888,-6.462 -69.822,-7.074 -69.756,-7.686 -69.684,-8.298 -69.6,-8.91 -69.516,-9.516 -69.426,-10.128 -69.33,-10.74 -69.228,-11.346 -69.12,-11.952 -69.006,-12.558 -68.886,-13.164 -68.76,-13.764 -68.628,-14.37 -68.496,-14.97 -68.352,-15.57 -68.208,-16.17 -68.052,-16.764 -67.896,-17.364 -67.734,-17.958 -67.566,-18.546 -67.392,-19.14 -67.212,-19.728 -67.026,-20.316 -66.834,-20.904 -66.642,-21.486 -66.438,-22.068 -66.228,-22.65 -66.018,-23.226 -65.802,-23.802 -65.58,-24.378 -65.352,-24.954 -65.118,-25.524 -64.878,-26.088 -64.632,-26.658 -64.38,-27.222 -64.128,-27.78 -63.87,-28.338 -63.606,-28.896"/>
<polygon id="000001671BB07C30" class="l2d0" points="-61.98,-28.116 -62.25,-27.564 -62.502,-27.006 -62.754,-26.448 -63.006,-25.89 -63.246,-25.326 -63.48,-24.762 -63.714,-24.198 -63.942,-23.628 -64.158,-23.052 -64.374,-22.482 -64.584,-21.906 -64.788,-21.33 -64.986,-20.748 -65.184,-20.172 -65.37,-19.59 -65.55,-19.002 -65.73,-18.42 -65.898,-17.826 -66.066,-17.238 -66.228,-16.65 -66.378,-16.056 -66.528,-15.462 -66.672,-14.868 -66.81,-14.268 -66.942,-13.674 -67.068,-13.074 -67.188,-12.474 -67.302,-11.874 -67.416,-11.268 -67.518,-10.668 -67.614,-10.062 -67.704,-9.456 -67.794,-8.85 -67.872,-8.244 -67.95,-7.638 -68.016,-7.026 -68.082,-6.42 -68.142,-5.808 -68.19,-5.196 -68.238,-4.584 -68.28,-3.978 -68.316,-3.366 -68.34,-2.754 -68.364,-2.142 -68.382,-1.53 -68.394,-0.918 -68.4,-0.306 -68.4,0.306 -68.394,0.918 -68.382,1.53 -68.364,2.142 -68.34,2.754 -68.316,3.366 -68.28,3.978 -68.238,4.584 -68.19,5.196 -68.142,5.808 -68.082,6.42 -68.016,7.026 -67.95,7.638 -67.872,8.244 -67.794,8.85 -67.704,9.456 -67.614,10.062 -67.518,10.668 -67.416,11.268 -67.302,11.874 -67.188,12.474 -67.068,13.074 -66.942,13.674 -66.81,14.268 -66.672,14.868 -66.528,15.462 -66.378,16.056 -66.228,16.65 -66.066,17.238 -65.898,17.826 -65.73,18.42 -65.55,19.002 -65.37,19.59 -65.184,20.172 -64.986,20.748 -64.788,21.33 -64.584,21.906 -64.374,22.482 -64.158,23.052 -63.942,23.628 -63.714,24.198 -63.48,24.762 -63.246,25.326 -63.006,25.89 -62.754,26.448 -62.502,27.006 -62.25,27.564 -61.98,28.116 -60.36,27.336 -60.618,26.79 -60.87,26.244 -61.122,25.698 -61.362,25.146 -61.602,24.594 -61.836,24.042 -62.058,23.484 -62.28,22.926 -62.502,22.362 -62.706,21.798 -62.916,21.234 -63.114,20.664 -63.312,20.094 -63.498,19.524 -63.678,18.954 -63.858,18.378 -64.032,17.802 -64.2,17.22 -64.362,16.644 -64.518,16.062 -64.668,15.48 -64.812,14.898 -64.95,14.316 -65.088,13.728 -65.214,13.134 -65.334,12.552 -65.454,11.958 -65.568,11.37 -65.67,10.776 -65.772,10.182 -65.868,9.588 -65.958,8.994 -66.036,8.4 -66.114,7.8 -66.186,7.206 -66.252,6.606 -66.312,6.006 -66.366,5.406 -66.414,4.812 -66.462,4.206 -66.498,3.606 -66.528,3.006 -66.552,2.406 -66.576,1.806 -66.588,1.2 -66.594,0.6 -66.6,0 -66.594,-0.6 -66.588,-1.2 -66.576,-1.806 -66.552,-2.406 -66.528,-3.006 -66.498,-3.606 -66.462,-4.206 -66.414,-4.812 -66.366,-5.406 -66.312,-6.006 -66.252,-6.606 -66.186,-7.206 -66.114,-7.8 -66.036,-8.4 -65.958,-8.994 -65.868,-9.588 -65.772,-10.182 -65.67,-10.776 -65.568,-11.37 -65.454,-11.958 -65.334,-12.552 -65.214,-13.134 -65.088,-13.728 -64.95,-14.316 -64.812,-14.898 -64.668,-15.48 -64.518,-16.062 -64.362,-16.644 -64.2,-17.22 -64.032,-17.802 -63.858,-18.378 -63.678,-18.954 -63.498,-19.524 -63.312,-20.094 -63.114,-20.664 -62.916,-21.234 -62.706,-21.798 -62.502,-22.362 -62.28,-22.926 -62.058,-23.484 -61.836,-24.042 -61.602,-24.594 -61.362,-25.146 -61.122,-25.698 -60.87,-26.244 -60.618,-26.79 -60.36,-27.336"/>
<polygon id="000001671BB077D0" class="l2d0" points="-58.74,-26.556 -58.992,-26.022 -59.244,-25.482 -59.484,-24.948 -59.724,-24.402 -59.952,-23.862 -60.186,-23.316 -60.402,-22.77 -60.624,-22.224 -60.834,-21.666 -61.044,-21.12 -61.242,-20.562 -61.44,-20.004 -61.626,-19.446 -61.812,-18.882 -61.992,-18.318 -62.166,-17.754 -62.34,-17.19 -62.502,-16.62 -62.658,-16.05 -62.808,-15.486 -62.958,-14.91 -63.096,-14.34 -63.234,-13.764 -63.366,-13.188 -63.486,-12.606 -63.606,-12.03 -63.72,-11.454 -63.828,-10.866 -63.93,-10.29 -64.026,-9.708 -64.116,-9.12 -64.2,-8.538 -64.284,-7.95 -64.356,-7.368 -64.422,-6.78 -64.488,-6.192 -64.542,-5.604 -64.596,-5.016 -64.638,-4.428 -64.68,-3.84 -64.716,-3.246 -64.74,-2.658 -64.764,-2.064 -64.782,-1.476 -64.794,-0.888 -64.8,-0.294 -64.8,0.294 -64.794,0.888 -64.782,1.476 -64.764,2.064 -64.74,2.658 -64.716,3.246 -64.68,3.84 -64.638,4.428 -64.596,5.016 -64.542,5.604 -64.488,6.192 -64.422,6.78 -64.356,7.368 -64.284,7.95 -64.2,8.538 -64.116,9.12 -64.026,9.708 -63.93,10.29 -63.828,10.866 -63.72,11.454 -63.606,12.03 -63.486,12.606 -63.366,13.188 -63.234,13.764 -63.096,14.34 -62.958,14.91 -62.808,15.486 -62.658,16.05 -62.502,16.62 -62.34,17.19 -62.166,17.754 -61.992,18.318 -61.812,18.882 -61.626,19.446 -61.44,20.004 -61.242,20.562 -61.044,21.12 -60.834,21.666 -60.624,22.224 -60.402,22.77 -60.186,23.316 -59.952,23.862 -59.724,24.402 -59.484,24.948 -59.244,25.482 -58.992,26.022 -58.74,26.556 -57.12,25.77 -57.372,25.242 -57.612,24.708 -57.858,24.18 -58.092,23.64 -58.326,23.106 -58.548,22.56 -58.764,22.02 -58.98,21.474 -59.19,20.928 -59.394,20.376 -59.592,19.824 -59.784,19.272 -59.97,18.714 -60.156,18.162 -60.33,17.598 -60.504,17.04 -60.666,16.482 -60.828,15.918 -60.984,15.348 -61.134,14.784 -61.278,14.214 -61.41,13.644 -61.542,13.074 -61.668,12.504 -61.788,11.928 -61.908,11.352 -62.016,10.776 -62.118,10.2 -62.214,9.624 -62.31,9.048 -62.394,8.466 -62.472,7.89 -62.55,7.302 -62.616,6.726 -62.682,6.144 -62.742,5.556 -62.79,4.974 -62.838,4.392 -62.88,3.804 -62.916,3.222 -62.94,2.634 -62.964,2.052 -62.982,1.464 -62.994,0.876 -63,0.294 -63,-0.294 -62.994,-0.876 -62.982,-1.464 -62.964,-2.052 -62.94,-2.634 -62.916,-3.222 -62.88,-3.804 -62.838,-4.392 -62.79,-4.974 -62.742,-5.556 -62.682,-6.144 -62.616,-6.726 -62.55,-7.302 -62.472,-7.89 -62.394,-8.466 -62.31,-9.048 -62.214,-9.624 -62.118,-10.2 -62.016,-10.776 -61.908,-11.352 -61.788,-11.928 -61.668,-12.504 -61.542,-13.074 -61.41,-13.644 -61.278,-14.214 -61.134,-14.784 -60.984,-15.348 -60.828,-15.918 -60.666,-16.482 -60.504,-17.04 -60.33,-17.598 -60.156,-18.162 -59.97,-18.714 -59.784,-19.272 -59.592,-19.824 -59.394,-20.376 -59.19,-20.928 -58.98,-21.474 -58.764,-22.02 -58.548,-22.56 -58.326,-23.106 -58.092,-23.64 -57.858,-24.18 -57.612,-24.708 -57.372,-25.242 -57.12,-25.77"/>
<polygon id="000001671BB07840" class="l2d0" points="-55.5,-24.99 -55.74,-24.474 -55.986,-23.952 -56.22,-23.43 -56.454,-22.902 -56.676,-22.374 -56.898,-21.846 -57.114,-21.312 -57.324,-20.778 -57.528,-20.238 -57.726,-19.698 -57.918,-19.158 -58.11,-18.618 -58.29,-18.072 -58.47,-17.526 -58.638,-16.98 -58.806,-16.428 -58.968,-15.876 -59.124,-15.324 -59.274,-14.772 -59.418,-14.214 -59.556,-13.656 -59.694,-13.098 -59.82,-12.54 -59.94,-11.976 -60.06,-11.412 -60.168,-10.848 -60.276,-10.284 -60.378,-9.72 -60.468,-9.15 -60.558,-8.586 -60.636,-8.016 -60.72,-7.446 -60.792,-6.876 -60.852,-6.306 -60.912,-5.736 -60.972,-5.16 -61.014,-4.59 -61.062,-4.02 -61.098,-3.444 -61.128,-2.874 -61.152,-2.298 -61.176,-1.722 -61.188,-1.146 -61.194,-0.576 -61.2,0 -61.194,0.576 -61.188,1.146 -61.176,1.722 -61.152,2.298 -61.128,2.874 -61.098,3.444 -61.062,4.02 -61.014,4.59 -60.972,5.16 -60.912,5.736 -60.852,6.306 -60.792,6.876 -60.72,7.446 -60.636,8.016 -60.558,8.586 -60.468,9.15 -60.378,9.72 -60.276,10.284 -60.168,10.848 -60.06,11.412 -59.94,11.976 -59.82,12.54 -59.694,13.098 -59.556,13.656 -59.418,14.214 -59.274,14.772 -59.124,15.324 -58.968,15.876 -58.806,16.428 -58.638,16.98 -58.47,17.526 -58.29,18.072 -58.11,18.618 -57.918,19.158 -57.726,19.698 -57.528,20.238 -57.324,20.778 -57.114,21.312 -56.898,21.846 -56.676,22.374 -56.454,22.902 -56.22,23.43 -55.986,23.952 -55.74,24.474 -55.5,24.99 -53.874,24.21 -54.12,23.694 -54.354,23.178 -54.588,22.662 -54.822,22.14 -55.044,21.618 -55.26,21.09 -55.47,20.562 -55.68,20.034 -55.884,19.5 -56.076,18.966 -56.268,18.426 -56.454,17.892 -56.634,17.352 -56.808,16.806 -56.976,16.266 -57.138,15.72 -57.3,15.174 -57.45,14.628 -57.594,14.076 -57.738,13.524 -57.87,12.972 -58.002,12.414 -58.128,11.862 -58.242,11.304 -58.356,10.746 -58.458,10.188 -58.566,9.624 -58.656,9.066 -58.746,8.502 -58.83,7.944 -58.908,7.374 -58.98,6.81 -59.052,6.246 -59.106,5.682 -59.166,5.118 -59.214,4.548 -59.262,3.984 -59.298,3.414 -59.328,2.844 -59.352,2.274 -59.376,1.704 -59.388,1.14 -59.394,0.57 -59.4,0 -59.394,-0.57 -59.388,-1.14 -59.376,-1.704 -59.352,-2.274 -59.328,-2.844 -59.298,-3.414 -59.262,-3.984 -59.214,-4.548 -59.166,-5.118 -59.106,-5.682 -59.052,-6.246 -58.98,-6.81 -58.908,-7.374 -58.83,-7.944 -58.746,-8.502 -58.656,-9.066 -58.566,-9.624 -58.458,-10.188 -58.356,-10.746 -58.242,-11.304 -58.128,-11.862 -58.002,-12.414 -57.87,-12.972 -57.738,-13.524 -57.594,-14.076 -57.45,-14.628 -57.3,-15.174 -57.138,-15.72 -56.976,-16.266 -56.808,-16.806 -56.634,-17.352 -56.454,-17.892 -56.268,-18.426 -56.076,-18.966 -55.884,-19.5 -55.68,-20.034 -55.47,-20.562 -55.26,-21.09 -55.044,-21.618 -54.822,-22.14 -54.588,-22.662 -54.354,-23.178 -54.12,-23.694 -53.874,-24.21"/>
<polygon id="000001671BB078B0" class="l2d0" points="-52.254,-23.43 -52.494,-22.926 -52.728,-22.422 -52.95,-21.912 -53.178,-21.402 -53.394,-20.892 -53.61,-20.376 -53.814,-19.86 -54.018,-19.338 -54.216,-18.816 -54.408,-18.294 -54.594,-17.772 -54.774,-17.244 -54.948,-16.716 -55.122,-16.182 -55.284,-15.648 -55.44,-15.114 -55.596,-14.58 -55.74,-14.046 -55.884,-13.506 -56.022,-12.966 -56.154,-12.426 -56.274,-11.88 -56.4,-11.334 -56.508,-10.788 -56.622,-10.248 -56.724,-9.696 -56.82,-9.15 -56.91,-8.598 -56.994,-8.052 -57.078,-7.494 -57.15,-6.942 -57.222,-6.396 -57.282,-5.838 -57.342,-5.286 -57.39,-4.728 -57.438,-4.176 -57.48,-3.618 -57.516,-3.066 -57.54,-2.508 -57.564,-1.95 -57.582,-1.392 -57.594,-0.834 -57.6,-0.276 -57.6,0.276 -57.594,0.834 -57.582,1.392 -57.564,1.95 -57.54,2.508 -57.516,3.066 -57.48,3.618 -57.438,4.176 -57.39,4.728 -57.342,5.286 -57.282,5.838 -57.222,6.396 -57.15,6.942 -57.078,7.494 -56.994,8.052 -56.91,8.598 -56.82,9.15 -56.724,9.696 -56.622,10.248 -56.508,10.788 -56.4,11.334 -56.274,11.88 -56.154,12.426 -56.022,12.966 -55.884,13.506 -55.74,14.046 -55.596,14.58 -55.44,15.114 -55.284,15.648 -55.122,16.182 -54.948,16.716 -54.774,17.244 -54.594,17.772 -54.408,18.294 -54.216,18.816 -54.018,19.338 -53.814,19.86 -53.61,20.376 -53.394,20.892 -53.178,21.402 -52.95,21.912 -52.728,22.422 -52.494,22.926 -52.254,23.43 -50.628,22.65 -50.868,22.152 -51.096,21.648 -51.324,21.144 -51.546,20.64 -51.762,20.136 -51.972,19.626 -52.176,19.11 -52.374,18.6 -52.566,18.084 -52.752,17.562 -52.938,17.046 -53.112,16.524 -53.286,15.996 -53.454,15.474 -53.616,14.946 -53.772,14.418 -53.916,13.89 -54.06,13.356 -54.204,12.822 -54.336,12.288 -54.462,11.748 -54.582,11.208 -54.696,10.674 -54.804,10.134 -54.912,9.588 -55.008,9.048 -55.104,8.508 -55.188,7.962 -55.272,7.416 -55.344,6.87 -55.416,6.324 -55.482,5.772 -55.536,5.226 -55.59,4.68 -55.638,4.128 -55.68,3.576 -55.716,3.03 -55.74,2.478 -55.764,1.932 -55.782,1.38 -55.794,0.828 -55.8,0.276 -55.8,-0.276 -55.794,-0.828 -55.782,-1.38 -55.764,-1.932 -55.74,-2.478 -55.716,-3.03 -55.68,-3.576 -55.638,-4.128 -55.59,-4.68 -55.536,-5.226 -55.482,-5.772 -55.416,-6.324 -55.344,-6.87 -55.272,-7.416 -55.188,-7.962 -55.104,-8.508 -55.008,-9.048 -54.912,-9.588 -54.804,-10.134 -54.696,-10.674 -54.582,-11.208 -54.462,-11.748 -54.336,-12.288 -54.204,-12.822 -54.06,-13.356 -53.916,-13.89 -53.772,-14.418 -53.616,-14.946 -53.454,-15.474 -53.286,-15.996 -53.112,-16.524 -52.938,-17.046 -52.752,-17.562 -52.566,-18.084 -52.374,-18.6 -52.176,-19.11 -51.972,-19.626 -51.762,-20.136 -51.546,-20.64 -51.324,-21.144 -51.096,-21.648 -50.868,-22.152 -50.628,-22.65"/>
<polygon id="000001671BB070D0" class="l2d0" points="-49.008,-21.864 -49.242,-21.378 -49.464,-20.892 -49.686,-20.4 -49.902,-19.908 -50.112,-19.41 -50.316,-18.912 -50.514,-18.414 -50.712,-17.91 -50.898,-17.406 -51.078,-16.896 -51.258,-16.392 -51.432,-15.882 -51.6,-15.366 -51.762,-14.856 -51.918,-14.34 -52.068,-13.824 -52.212,-13.308 -52.35,-12.786 -52.482,-12.264 -52.614,-11.742 -52.734,-11.214 -52.854,-10.686 -52.962,-10.164 -53.07,-9.636 -53.172,-9.102 -53.268,-8.574 -53.358,-8.04 -53.436,-7.512 -53.514,-6.978 -53.586,-6.444 -53.652,-5.91 -53.712,-5.376 -53.766,-4.836 -53.814,-4.302 -53.862,-3.768 -53.898,-3.228 -53.928,-2.694 -53.952,-2.154 -53.976,-1.614 -53.988,-1.074 -53.994,-0.54 -54,0 -53.994,0.54 -53.988,1.074 -53.976,1.614 -53.952,2.154 -53.928,2.694 -53.898,3.228 -53.862,3.768 -53.814,4.302 -53.766,4.836 -53.712,5.376 -53.652,5.91 -53.586,6.444 -53.514,6.978 -53.436,7.512 -53.358,8.04 -53.268,8.574 -53.172,9.102 -53.07,9.636 -52.962,10.164 -52.854,10.686 -52.734,11.214 -52.614,11.742 -52.482,12.264 -52.35,12.786 -52.212,13.308 -52.068,13.824 -51.918,14.34 -51.762,14.856 -51.6,15.366 -51.432,15.882 -51.258,16.392 -51.078,16.896 -50.898,17.406 -50.712,17.91 -50.514,18.414 -50.316,18.912 -50.112,19.41 -49.902,19.908 -49.686,20.4 -49.464,20.892 -49.242,21.378 -49.008,21.864 -47.388,21.084 -47.616,20.604 -47.838,20.124 -48.054,19.638 -48.27,19.146 -48.474,18.66 -48.678,18.168 -48.876,17.67 -49.062,17.178 -49.248,16.68 -49.428,16.176 -49.602,15.672 -49.77,15.168 -49.938,14.664 -50.094,14.154 -50.244,13.644 -50.394,13.134 -50.532,12.624 -50.664,12.108 -50.796,11.592 -50.922,11.076 -51.042,10.554 -51.15,10.038 -51.258,9.516 -51.36,8.994 -51.456,8.466 -51.546,7.944 -51.63,7.422 -51.708,6.894 -51.78,6.366 -51.846,5.838 -51.906,5.31 -51.966,4.782 -52.014,4.254 -52.056,3.72 -52.098,3.192 -52.128,2.658 -52.152,2.13 -52.176,1.596 -52.188,1.068 -52.194,0.534 -52.2,0 -52.194,-0.534 -52.188,-1.068 -52.176,-1.596 -52.152,-2.13 -52.128,-2.658 -52.098,-3.192 -52.056,-3.72 -52.014,-4.254 -51.966,-4.782 -51.906,-5.31 -51.846,-5.838 -51.78,-6.366 -51.708,-6.894 -51.63,-7.422 -51.546,-7.944 -51.456,-8.466 -51.36,-8.994 -51.258,-9.516 -51.15,-10.038 -51.042,-10.554 -50.922,-11.076 -50.796,-11.592 -50.664,-12.108 -50.532,-12.624 -50.394,-13.134 -50.244,-13.644 -50.094,-14.154 -49.938,-14.664 -49.77,-15.168 -49.602,-15.672 -49.428,-16.176 -49.248,-16.68 -49.062,-17.178 -48.876,-17.67 -48.678,-18.168 -48.474,-18.66 -48.27,-19.146 -48.054,-19.638 -47.838,-20.124 -47.616,-20.604 -47.388,-21.084"/>
</g>
</svg>