<?xml version="1.0" encoding="UTF-8"?>
<svg xmlns="http://www.w3.org/2000/svg" xmlns:xlink="http://www.w3.org/1999/xlink" width="300" height="256.31085" viewBox="-277.565982 -128.155425 300 256.31085">
<defs>
<style type="text/css">
.l0d0 {fill:darkorange;stroke:chocolate;}
.l2d0 {stroke: #BE0032; fill: #BE0032; fill-opacity: 0.5;}
</style>
</defs>
<rect x="-277.565982" y="-128.155425" width="300" height="256.31085" fill="none" stroke="none"/>
<g id="Grating_Coupler" transform="scale(1 -1)">
<polygon id="000002068B73D9B0" class="l0d0" points="-237.791789,-114.519062 -238.618768,-112.777126 -239.43695,-111.035191 -240.246334,-109.284457 -241.029326,-107.524927 -241.812317,-105.765396 -242.577713,-103.997067 -243.325513,-102.219941 -244.064516,-100.442815 -244.794721,-98.665689 -245.507331,-96.870968 -246.211144,-95.076246 -246.897361,-93.281525 -247.57478,-91.478006 -248.234604,-89.665689 -248.876833,-87.853372 -249.510264,-86.032258 -250.134897,-84.211144 -250.741935,-82.381232 -251.340176,-80.55132 -251.920821,-78.71261 -252.483871,-76.8739 -253.038123,-75.026393 -253.583578,-73.178886 -254.111437,-71.331378 -254.621701,-69.475073 -255.123167,-67.609971 -255.607038,-65.744868 -256.082111,-63.879765 -256.539589,-62.014663 -256.98827,-60.140762 -257.419355,-58.258065 -257.841642,-56.384164 -258.246334,-54.501466 -258.633431,-52.609971 -259.01173,-50.718475 -259.372434,-48.826979 -259.72434,-46.935484 -260.058651,-45.043988 -260.384164,-43.143695 -260.692082,-41.243402 -260.982405,-39.334311 -261.26393,-37.434018 -261.527859,-35.524927 -261.782991,-33.615836 -262.020528,-31.706745 -262.240469,-29.788856 -262.451613,-27.879765 -262.653959,-25.961877 -262.829912,-24.043988 -262.997067,-22.1261 -263.155425,-20.199413 -263.296188,-18.281525 -263.419355,-16.363636 -263.533724,-14.43695 -263.630499,-12.510264 -263.718475,-10.592375 -263.788856,-8.665689 -263.841642,-6.739003 -263.88563,-4.812317 -263.912023,-2.88563 -263.929619,-0.958944 -263.929619,0.958944 -263.912023,2.88563 -263.88563,4.812317 -263.841642,6.739003 -263.788856,8.665689 -263.718475,10.592375 -263.630499,12.510264 -263.533724,14.43695 -263.419355,16.363636 -263.296188,18.281525 -263.155425,20.199413 -262.997067,22.1261 -262.829912,24.043988 -262.653959,25.961877 -262.451613,27.879765 -262.240469,29.788856 -262.020528,31.706745 -261.782991,33.615836 -261.527859,35.524927 -261.26393,37.434018 -260.982405,39.334311 -260.692082,41.243402 -260.384164,43.143695 -260.058651,45.043988 -259.72434,46.935484 -259.372434,48.826979 -259.01173,50.718475 -258.633431,52.609971 -258.246334,54.501466 -257.841642,56.384164 -257.419355,58.258065 -256.98827,60.140762 -256.539589,62.014663 -256.082111,63.879765 -255.607038,65.744868 -255.123167,67.609971 -254.621701,69.475073 -254.111437,71.331378 -253.583578,73.178886 -253.038123,75.026393 -252.483871,76.8739 -251.920821,78.71261 -251.340176,80.55132 -250.741935,82.381232 -250.134897,84.211144 -249.510264,86.032258 -248.876833,87.853372 -248.234604,89.665689 -247.57478,91.478006 -246.897361,93.281525 -246.211144,95.076246 -245.507331,96.870968 -244.794721,98.665689 -244.064516,100.442815 -243.325513,102.219941 -242.577713,103.997067 -241.812317,105.765396 -241.029326,107.524927 -240.246334,109.284457 -239.43695,111.035191 -238.618768,112.777126 -237.791789,114.519062 0,1.979472 0,-1.979472"/>
<polygon id="000002068B73E3C0" class="l0d0" points="0,-1.979472 0,1.979472 8.797654,1.979472 8.797654,-1.979472"/>
<polygon id="000002068B73DF60" class="l0d0" points="6.879765,-0.351906 6.879765,-0.351906 6.914956,-0.351906 6.914956,-0.351906"/>
<polygon id="000002068B73E430" class="l2d0" points="-214.01173,-103.064516 -214.794721,-101.419355 -215.568915,-99.765396 -216.325513,-98.111437 -217.073314,-96.44868 -217.812317,-94.777126 -218.524927,-93.105572 -219.237537,-91.42522 -219.932551,-89.744868 -220.609971,-88.055718 -221.278592,-86.357771 -221.938416,-84.659824 -222.580645,-82.953079 -223.214076,-81.246334 -223.829912,-79.530792 -224.428152,-77.806452 -225.017595,-76.082111 -225.59824,-74.357771 -226.16129,-72.624633 -226.715543,-70.882698 -227.252199,-69.140762 -227.771261,-67.398827 -228.281525,-65.648094 -228.782991,-63.897361 -229.266862,-62.13783 -229.733138,-60.378299 -230.190616,-58.609971 -230.630499,-56.85044 -231.061584,-55.073314 -231.475073,-53.304985 -231.879765,-51.527859 -232.266862,-49.741935 -232.645161,-47.956012 -233.005865,-46.170088 -233.348974,-44.384164 -233.683284,-42.589443 -234.008798,-40.794721 -234.316716,-39 -234.607038,-37.205279 -234.879765,-35.40176 -235.152493,-33.59824 -235.398827,-31.794721 -235.636364,-29.991202 -235.856305,-28.178886 -236.067449,-26.366569 -236.260997,-24.554252 -236.445748,-22.741935 -236.612903,-20.929619 -236.762463,-19.117302 -236.903226,-17.296188 -237.035191,-15.475073 -237.140762,-13.662757 -237.237537,-11.841642 -237.325513,-10.020528 -237.395894,-8.199413 -237.44868,-6.378299 -237.492669,-4.557185 -237.519062,-2.73607 -237.536657,-0.914956 -237.536657,0.914956 -237.519062,2.73607 -237.492669,4.557185 -237.44868,6.378299 -237.395894,8.199413 -237.325513,10.020528 -237.237537,11.841642 -237.140762,13.662757 -237.035191,15.475073 -236.903226,17.296188 -236.762463,19.117302 -236.612903,20.929619 -236.445748,22.741935 -236.260997,24.554252 -236.067449,26.366569 -235.856305,28.178886 -235.636364,29.991202 -235.398827,31.794721 -235.152493,33.59824 -234.879765,35.40176 -234.607038,37.205279 -234.316716,39 -234.008798,40.794721 -233.683284,42.589443 -233.348974,44.384164 -233.005865,46.170088 -232.645161,47.956012 -232.266862,49.741935 -231.879765,51.527859 -231.475073,53.304985 -231.061584,55.073314 -230.630499,56.85044 -230.190616,58.609971 -229.733138,60.378299 -229.266862,62.13783 -228.782991,63.897361 -228.281525,65.648094 -227.771261,67.398827 -227.252199,69.140762 -226.715543,70.882698 -226.16129,72.624633 -225.59824,74.357771 -225.017595,76.082111 -224.428152,77.806452 -223.829912,79.530792 -223.214076,81.246334 -222.580645,82.953079 -221.938416,84.659824 -221.278592,86.357771 -220.609971,88.055718 -219.932551,89.744868 -219.237537,91.42522 -218.524927,93.105572 -217.812317,94.777126 -217.073314,96.44868 -216.325513,98.111437 -215.568915,99.765396 -214.794721,101.419355 -214.01173,103.064516 -210.052786,101.155425 -210.826979,99.527859 -211.592375,97.891496 -212.340176,96.255132 -213.079179,94.609971 -213.809384,92.956012 -214.521994,91.293255 -215.217009,89.630499 -215.903226,87.967742 -216.580645,86.296188 -217.240469,84.615836 -217.891496,82.935484 -218.524927,81.246334 -219.14956,79.548387 -219.756598,77.85044 -220.354839,76.152493 -220.935484,74.43695 -221.507331,72.730205 -222.061584,71.014663 -222.59824,69.290323 -223.134897,67.565982 -223.645161,65.841642 -224.146628,64.108504 -224.639296,62.375367 -225.11437,60.633431 -225.580645,58.891496 -226.029326,57.140762 -226.460411,55.390029 -226.882698,53.639296 -227.296188,51.879765 -227.683284,50.120235 -228.070381,48.351906 -228.439883,46.592375 -228.791789,44.815249 -229.1261,43.046921 -229.451613,41.269795 -229.768328,39.492669 -230.067449,37.715543 -230.348974,35.938416 -230.621701,34.152493 -230.876833,32.366569 -231.123167,30.580645 -231.351906,28.785924 -231.571848,27 -231.774194,25.205279 -231.958944,23.410557 -232.134897,21.615836 -232.293255,19.821114 -232.442815,18.026393 -232.57478,16.222874 -232.68915,14.419355 -232.794721,12.624633 -232.882698,10.821114 -232.961877,9.017595 -233.02346,7.214076 -233.076246,5.410557 -233.111437,3.607038 -233.129032,1.803519 -233.13783,0 -233.129032,-1.803519 -233.111437,-3.607038 -233.076246,-5.410557 -233.02346,-7.214076 -232.961877,-9.017595 -232.882698,-10.821114 -232.794721,-12.624633 -232.68915,-14.419355 -232.57478,-16.222874 -232.442815,-18.026393 -232.293255,-19.821114 -232.134897,-21.615836 -231.958944,-23.410557 -231.774194,-25.205279 -231.571848,-27 -231.351906,-28.785924 -231.123167,-30.580645 -230.876833,-32.366569 -230.621701,-34.152493 -230.348974,-35.938416 -230.067449,-37.715543 -229.768328,-39.492669 -229.451613,-41.269795 -229.1261,-43.046921 -228.791789,-44.815249 -228.439883,-46.592375 -228.070381,-48.351906 -227.683284,-50.120235 -227.296188,-51.879765 -226.882698,-53.639296 -226.460411,-55.390029 -226.029326,-57.140762 -225.580645,-58.891496 -225.11437,-60.633431 -224.639296,-62.375367 -224.146628,-64.108504 -223.645161,-65.841642 -223.134897,-67.565982 -222.59824,-69.290323 -222.061584,-71.014663 -221.507331,-72.730205 -220.935484,-74.43695 -220.354839,-76.152493 -219.756598,-77.85044 -219.14956,-79.548387 -218.524927,-81.246334 -217.891496,-82.935484 -217.240469,-84.615836 -216.580645,-86.296188 -215.903226,-87.967742 -215.217009,-89.630499 -214.521994,-91.293255 -213.809384,-92.956012 -213.079179,-94.609971 -212.340176,-96.255132 -211.592375,-97.891496 -210.826979,-99.527859 -210.052786,-101.155425"/>
<polygon id="000002068B73E120" class="l2d0" points="-206.085044,-99.246334 -206.859238,-97.618768 -207.624633,-95.991202 -208.372434,-94.354839 -209.111437,-92.709677 -209.832845,-91.055718 -210.545455,-89.40176 -211.240469,-87.739003 -211.926686,-86.076246 -212.595308,-84.404692 -213.255132,-82.733138 -213.897361,-81.043988 -214.530792,-79.363636 -215.146628,-77.665689 -215.753666,-75.97654 -216.343109,-74.269795 -216.923754,-72.56305 -217.486804,-70.856305 -218.041056,-69.140762 -218.577713,-67.42522 -219.096774,-65.70088 -219.607038,-63.967742 -220.108504,-62.243402 -220.592375,-60.501466 -221.058651,-58.768328 -221.516129,-57.026393 -221.956012,-55.27566 -222.387097,-53.533724 -222.800587,-51.774194 -223.205279,-50.02346 -223.592375,-48.26393 -223.961877,-46.495601 -224.322581,-44.73607 -224.665689,-42.967742 -225,-41.199413 -225.316716,-39.422287 -225.615836,-37.645161 -225.906158,-35.868035 -226.187683,-34.090909 -226.442815,-32.313783 -226.68915,-30.527859 -226.926686,-28.741935 -227.146628,-26.956012 -227.348974,-25.16129 -227.542522,-23.375367 -227.718475,-21.580645 -227.88563,-19.785924 -228.026393,-17.991202 -228.167155,-16.196481 -228.281525,-14.40176 -228.395894,-12.59824 -228.483871,-10.803519 -228.56305,-9 -228.624633,-7.205279 -228.677419,-5.40176 -228.71261,-3.59824 -228.730205,-1.803519 -228.739003,0 -228.730205,1.803519 -228.71261,3.59824 -228.677419,5.40176 -228.624633,7.205279 -228.56305,9 -228.483871,10.803519 -228.395894,12.59824 -228.281525,14.40176 -228.167155,16.196481 -228.026393,17.991202 -227.88563,19.785924 -227.718475,21.580645 -227.542522,23.375367 -227.348974,25.16129 -227.146628,26.956012 -226.926686,28.741935 -226.68915,30.527859 -226.442815,32.313783 -226.187683,34.090909 -225.906158,35.868035 -225.615836,37.645161 -225.316716,39.422287 -225,41.199413 -224.665689,42.967742 -224.322581,44.73607 -223.961877,46.495601 -223.592375,48.26393 -223.205279,50.02346 -222.800587,51.774194 -222.387097,53.533724 -221.956012,55.27566 -221.516129,57.026393 -221.058651,58.768328 -220.592375,60.501466 -220.108504,62.243402 -219.607038,63.967742 -219.096774,65.70088 -218.577713,67.42522 -218.041056,69.140762 -217.486804,70.856305 -216.923754,72.56305 -216.343109,74.269795 -215.753666,75.97654 -215.146628,77.665689 -214.530792,79.363636 -213.897361,81.043988 -213.255132,82.733138 -212.595308,84.404692 -211.926686,86.076246 -211.240469,87.739003 -210.545455,89.40176 -209.832845,91.055718 -209.111437,92.709677 -208.372434,94.354839 -207.624633,95.991202 -206.859238,97.618768 -206.085044,99.246334 -202.1261,97.337243 -202.891496,95.727273 -203.648094,94.117302 -204.387097,92.489736 -205.117302,90.870968 -205.829912,89.234604 -206.533724,87.59824 -207.219941,85.953079 -207.897361,84.307918 -208.557185,82.653959 -209.208211,80.991202 -209.85044,79.328446 -210.466276,77.656891 -211.082111,75.985337 -211.680352,74.304985 -212.260997,72.624633 -212.832845,70.935484 -213.387097,69.237537 -213.932551,67.539589 -214.460411,65.841642 -214.979472,64.134897 -215.480938,62.428152 -215.964809,60.71261 -216.439883,58.997067 -216.906158,57.272727 -217.354839,55.548387 -217.785924,53.824047 -218.208211,52.090909 -218.612903,50.357771 -219.008798,48.615836 -219.387097,46.8739 -219.756598,45.131965 -220.108504,43.381232 -220.442815,41.630499 -220.768328,39.879765 -221.076246,38.129032 -221.375367,36.369501 -221.656891,34.609971 -221.920821,32.85044 -222.175953,31.082111 -222.41349,29.322581 -222.642229,27.554252 -222.853372,25.785924 -223.055718,24.008798 -223.231672,22.240469 -223.407625,20.463343 -223.557185,18.686217 -223.697947,16.909091 -223.829912,15.131965 -223.944282,13.354839 -224.041056,11.577713 -224.129032,9.800587 -224.199413,8.014663 -224.252199,6.237537 -224.296188,4.451613 -224.322581,2.674487 -224.340176,0.888563 -224.340176,-0.888563 -224.322581,-2.674487 -224.296188,-4.451613 -224.252199,-6.237537 -224.199413,-8.014663 -224.129032,-9.800587 -224.041056,-11.577713 -223.944282,-13.354839 -223.829912,-15.131965 -223.697947,-16.909091 -223.557185,-18.686217 -223.407625,-20.463343 -223.231672,-22.240469 -223.055718,-24.008798 -222.853372,-25.785924 -222.642229,-27.554252 -222.41349,-29.322581 -222.175953,-31.082111 -221.920821,-32.85044 -221.656891,-34.609971 -221.375367,-36.369501 -221.076246,-38.129032 -220.768328,-39.879765 -220.442815,-41.630499 -220.108504,-43.381232 -219.756598,-45.131965 -219.387097,-46.8739 -219.008798,-48.615836 -218.612903,-50.357771 -218.208211,-52.090909 -217.785924,-53.824047 -217.354839,-55.548387 -216.906158,-57.272727 -216.439883,-58.997067 -215.964809,-60.71261 -215.480938,-62.428152 -214.979472,-64.134897 -214.460411,-65.841642 -213.932551,-67.539589 -213.387097,-69.237537 -212.832845,-70.935484 -212.260997,-72.624633 -211.680352,-74.304985 -211.082111,-75.985337 -210.466276,-77.656891 -209.85044,-79.328446 -209.208211,-80.991202 -208.557185,-82.653959 -207.897361,-84.307918 -207.219941,-85.953079 -206.533724,-87.59824 -205.829912,-89.234604 -205.117302,-90.870968 -204.387097,-92.489736 -203.648094,-94.117302 -202.891496,-95.727273 -202.1261,-97.337243"/>
<polygon id="000002068B73E5F0" class="l2d0" points="-198.158358,-95.428152 -198.914956,-93.835777 -199.662757,-92.243402 -200.392962,-90.633431 -201.11437,-89.032258 -201.826979,-87.41349 -202.521994,-85.794721 -203.199413,-84.167155 -203.868035,-82.539589 -204.519062,-80.903226 -205.16129,-79.258065 -205.794721,-77.612903 -206.410557,-75.958944 -207.008798,-74.304985 -207.59824,-72.642229 -208.170088,-70.979472 -208.733138,-69.307918 -209.28739,-67.627566 -209.824047,-65.947214 -210.343109,-64.266862 -210.853372,-62.577713 -211.346041,-60.888563 -211.829912,-59.190616 -212.296188,-57.492669 -212.744868,-55.785924 -213.184751,-54.079179 -213.615836,-52.372434 -214.029326,-50.656891 -214.42522,-48.941349 -214.812317,-47.225806 -215.181818,-45.501466 -215.542522,-43.768328 -215.88563,-42.043988 -216.211144,-40.31085 -216.527859,-38.577713 -216.835777,-36.844575 -217.1261,-35.102639 -217.398827,-33.360704 -217.653959,-31.618768 -217.900293,-29.876833 -218.13783,-28.1261 -218.357771,-26.375367 -218.560117,-24.624633 -218.744868,-22.8739 -218.920821,-21.123167 -219.087977,-19.363636 -219.237537,-17.604106 -219.369501,-15.853372 -219.492669,-14.093842 -219.59824,-12.334311 -219.686217,-10.57478 -219.765396,-8.815249 -219.826979,-7.046921 -219.879765,-5.28739 -219.914956,-3.527859 -219.932551,-1.759531 -219.941349,0 -219.932551,1.759531 -219.914956,3.527859 -219.879765,5.28739 -219.826979,7.046921 -219.765396,8.815249 -219.686217,10.57478 -219.59824,12.334311 -219.492669,14.093842 -219.369501,15.853372 -219.237537,17.604106 -219.087977,19.363636 -218.920821,21.123167 -218.744868,22.8739 -218.560117,24.624633 -218.357771,26.375367 -218.13783,28.1261 -217.900293,29.876833 -217.653959,31.618768 -217.398827,33.360704 -217.1261,35.102639 -216.835777,36.844575 -216.527859,38.577713 -216.211144,40.31085 -215.88563,42.043988 -215.542522,43.768328 -215.181818,45.501466 -214.812317,47.225806 -214.42522,48.941349 -214.029326,50.656891 -213.615836,52.372434 -213.184751,54.079179 -212.744868,55.785924 -212.296188,57.492669 -211.829912,59.190616 -211.346041,60.888563 -210.853372,62.577713 -210.343109,64.266862 -209.824047,65.947214 -209.28739,67.627566 -208.733138,69.307918 -208.170088,70.979472 -207.59824,72.642229 -207.008798,74.304985 -206.410557,75.958944 -205.794721,77.612903 -205.16129,79.258065 -204.519062,80.903226 -203.868035,82.539589 -203.199413,84.167155 -202.521994,85.794721 -201.826979,87.41349 -201.11437,89.032258 -200.392962,90.633431 -199.662757,92.243402 -198.914956,93.835777 -198.158358,95.428152 -194.199413,93.519062 -194.947214,91.944282 -195.686217,90.369501 -196.407625,88.785924 -197.120235,87.193548 -197.815249,85.592375 -198.501466,83.991202 -199.178886,82.381232 -199.83871,80.771261 -200.480938,79.152493 -201.11437,77.524927 -201.739003,75.897361 -202.346041,74.269795 -202.935484,72.624633 -203.516129,70.979472 -204.087977,69.334311 -204.642229,67.680352 -205.178886,66.026393 -205.706745,64.363636 -206.225806,62.70088 -206.718475,61.029326 -207.211144,59.357771 -207.686217,57.677419 -208.143695,55.997067 -208.583578,54.307918 -209.02346,52.627566 -209.43695,50.929619 -209.841642,49.240469 -210.237537,47.533724 -210.615836,45.835777 -210.97654,44.129032 -211.328446,42.422287 -211.662757,40.715543 -211.98827,39 -212.296188,37.284457 -212.58651,35.568915 -212.868035,33.844575 -213.131965,32.129032 -213.387097,30.404692 -213.624633,28.671554 -213.853372,26.947214 -214.064516,25.214076 -214.258065,23.480938 -214.442815,21.747801 -214.609971,20.014663 -214.768328,18.281525 -214.909091,16.539589 -215.032258,14.806452 -215.146628,13.064516 -215.243402,11.322581 -215.331378,9.580645 -215.40176,7.83871 -215.454545,6.096774 -215.498534,4.354839 -215.524927,2.612903 -215.542522,0.870968 -215.542522,-0.870968 -215.524927,-2.612903 -215.498534,-4.354839 -215.454545,-6.096774 -215.40176,-7.83871 -215.331378,-9.580645 -215.243402,-11.322581 -215.146628,-13.064516 -215.032258,-14.806452 -214.909091,-16.539589 -214.768328,-18.281525 -214.609971,-20.014663 -214.442815,-21.747801 -214.258065,-23.480938 -214.064516,-25.214076 -213.853372,-26.947214 -213.624633,-28.671554 -213.387097,-30.404692 -213.131965,-32.129032 -212.868035,-33.844575 -212.58651,-35.568915 -212.296188,-37.284457 -211.98827,-39 -211.662757,-40.715543 -211.328446,-42.422287 -210.97654,-44.129032 -210.615836,-45.835777 -210.237537,-47.533724 -209.841642,-49.240469 -209.43695,-50.929619 -209.02346,-52.627566 -208.583578,-54.307918 -208.143695,-55.997067 -207.686217,-57.677419 -207.211144,-59.357771 -206.718475,-61.029326 -206.225806,-62.70088 -205.706745,-64.363636 -205.178886,-66.026393 -204.642229,-67.680352 -204.087977,-69.334311 -203.516129,-70.979472 -202.935484,-72.624633 -202.346041,-74.269795 -201.739003,-75.897361 -201.11437,-77.524927 -200.480938,-79.152493 -199.83871,-80.771261 -199.178886,-82.381232 -198.501466,-83.991202 -197.815249,-85.592375 -197.120235,-87.193548 -196.407625,-88.785924 -195.686217,-90.369501 -194.947214,-91.944282 -194.199413,-93.519062"/>
<polygon id="000002068B73DFD0" class="l2d0" points="-190.231672,-91.609971 -190.979472,-90.052786 -191.70088,-88.495601 -192.422287,-86.929619 -193.1261,-85.354839 -193.812317,-83.780059 -194.489736,-82.187683 -195.14956,-80.604106 -195.800587,-79.002933 -196.442815,-77.410557 -197.067449,-75.800587 -197.683284,-74.190616 -198.281525,-72.571848 -198.86217,-70.953079 -199.434018,-69.325513 -199.997067,-67.697947 -200.542522,-66.061584 -201.070381,-64.42522 -201.589443,-62.780059 -202.099707,-61.134897 -202.592375,-59.489736 -203.067449,-57.826979 -203.533724,-56.173021 -203.982405,-54.510264 -204.422287,-52.83871 -204.844575,-51.175953 -205.258065,-49.495601 -205.653959,-47.824047 -206.041056,-46.143695 -206.410557,-44.463343 -206.762463,-42.774194 -207.105572,-41.085044 -207.439883,-39.395894 -207.747801,-37.697947 -208.046921,-36.008798 -208.337243,-34.302053 -208.609971,-32.604106 -208.8739,-30.897361 -209.111437,-29.199413 -209.348974,-27.492669 -209.560117,-25.777126 -209.771261,-24.070381 -209.956012,-22.354839 -210.131965,-20.639296 -210.290323,-18.923754 -210.439883,-17.208211 -210.571848,-15.492669 -210.695015,-13.777126 -210.800587,-12.052786 -210.888563,-10.337243 -210.967742,-8.612903 -211.029326,-6.888563 -211.082111,-5.164223 -211.117302,-3.44868 -211.134897,-1.72434 -211.143695,0 -211.134897,1.72434 -211.117302,3.44868 -211.082111,5.164223 -211.029326,6.888563 -210.967742,8.612903 -210.888563,10.337243 -210.800587,12.052786 -210.695015,13.777126 -210.571848,15.492669 -210.439883,17.208211 -210.290323,18.923754 -210.131965,20.639296 -209.956012,22.354839 -209.771261,24.070381 -209.560117,25.777126 -209.348974,27.492669 -209.111437,29.199413 -208.8739,30.897361 -208.609971,32.604106 -208.337243,34.302053 -208.046921,36.008798 -207.747801,37.697947 -207.439883,39.395894 -207.105572,41.085044 -206.762463,42.774194 -206.410557,44.463343 -206.041056,46.143695 -205.653959,47.824047 -205.258065,49.495601 -204.844575,51.175953 -204.422287,52.83871 -203.982405,54.510264 -203.533724,56.173021 -203.067449,57.826979 -202.592375,59.489736 -202.099707,61.134897 -201.589443,62.780059 -201.070381,64.42522 -200.542522,66.061584 -199.997067,67.697947 -199.434018,69.325513 -198.86217,70.953079 -198.281525,72.571848 -197.683284,74.190616 -197.067449,75.800587 -196.442815,77.410557 -195.800587,79.002933 -195.14956,80.604106 -194.489736,82.187683 -193.812317,83.780059 -193.1261,85.354839 -192.422287,86.929619 -191.70088,88.495601 -190.979472,90.052786 -190.231672,91.609971 -186.272727,89.70088 -187.002933,88.170088 -187.72434,86.621701 -188.428152,85.073314 -189.123167,83.516129 -189.809384,81.958944 -190.478006,80.392962 -191.129032,78.826979 -191.771261,77.243402 -192.404692,75.668622 -193.020528,74.076246 -193.618768,72.483871 -194.208211,70.891496 -194.788856,69.290323 -195.351906,67.680352 -195.906158,66.070381 -196.442815,64.451613 -196.961877,62.832845 -197.472141,61.214076 -197.973607,59.577713 -198.457478,57.950147 -198.923754,56.313783 -199.381232,54.677419 -199.829912,53.032258 -200.260997,51.378299 -200.674487,49.733138 -201.079179,48.079179 -201.466276,46.416422 -201.844575,44.762463 -202.205279,43.099707 -202.548387,41.428152 -202.882698,39.756598 -203.208211,38.085044 -203.516129,36.41349 -203.806452,34.733138 -204.087977,33.052786 -204.351906,31.372434 -204.59824,29.692082 -204.835777,28.002933 -205.064516,26.313783 -205.27566,24.624633 -205.469208,22.935484 -205.653959,21.246334 -205.821114,19.548387 -205.970674,17.85044 -206.111437,16.16129 -206.234604,14.463343 -206.348974,12.756598 -206.445748,11.058651 -206.533724,9.360704 -206.604106,7.662757 -206.656891,5.956012 -206.70088,4.258065 -206.727273,2.55132 -206.744868,0.853372 -206.744868,-0.853372 -206.727273,-2.55132 -206.70088,-4.258065 -206.656891,-5.956012 -206.604106,-7.662757 -206.533724,-9.360704 -206.445748,-11.058651 -206.348974,-12.756598 -206.234604,-14.463343 -206.111437,-16.16129 -205.970674,-17.85044 -205.821114,-19.548387 -205.653959,-21.246334 -205.469208,-22.935484 -205.27566,-24.624633 -205.064516,-26.313783 -204.835777,-28.002933 -204.59824,-29.692082 -204.351906,-31.372434 -204.087977,-33.052786 -203.806452,-34.733138 -203.516129,-36.41349 -203.208211,-38.085044 -202.882698,-39.756598 -202.548387,-41.428152 -202.205279,-43.099707 -201.844575,-44.762463 -201.466276,-46.416422 -201.079179,-48.079179 -200.674487,-49.733138 -200.260997,-51.378299 -199.829912,-53.032258 -199.381232,-54.677419 -198.923754,-56.313783 -198.457478,-57.950147 -197.973607,-59.577713 -197.472141,-61.214076 -196.961877,-62.832845 -196.442815,-64.451613 -195.906158,-66.070381 -195.351906,-67.680352 -194.788856,-69.290323 -194.208211,-70.891496 -193.618768,-72.483871 -193.020528,-74.076246 -192.404692,-75.668622 -191.771261,-77.243402 -191.129032,-78.826979 -190.478006,-80.392962 -189.809384,-81.958944 -189.123167,-83.516129 -188.428152,-85.073314 -187.72434,-86.621701 -187.002933,-88.170088 -186.272727,-89.70088"/>
<polygon id="000002068B73E190" class="l2d0" points="-182.304985,-87.791789 -183.035191,-86.278592 -183.739003,-84.756598 -184.442815,-83.225806 -185.129032,-81.686217 -185.797654,-80.146628 -186.457478,-78.59824 -187.099707,-77.049853 -187.741935,-75.483871 -188.357771,-73.926686 -188.964809,-72.360704 -189.56305,-70.785924 -190.143695,-69.202346 -190.715543,-67.627566 -191.269795,-66.035191 -191.806452,-64.442815 -192.334311,-62.85044 -192.853372,-61.249267 -193.354839,-59.639296 -193.847507,-58.029326 -194.322581,-56.419355 -194.780059,-54.800587 -195.228739,-53.181818 -195.668622,-51.554252 -196.090909,-49.926686 -196.495601,-48.29912 -196.891496,-46.662757 -197.269795,-45.026393 -197.639296,-43.381232 -197.991202,-41.744868 -198.334311,-40.090909 -198.659824,-38.445748 -198.97654,-36.791789 -199.27566,-35.13783 -199.557185,-33.483871 -199.829912,-31.821114 -200.085044,-30.158358 -200.331378,-28.495601 -200.560117,-26.824047 -200.780059,-25.16129 -200.973607,-23.489736 -201.167155,-21.818182 -201.343109,-20.146628 -201.501466,-18.475073 -201.651026,-16.794721 -201.782991,-15.123167 -201.897361,-13.442815 -202.002933,-11.762463 -202.090909,-10.082111 -202.170088,-8.410557 -202.231672,-6.721408 -202.284457,-5.041056 -202.319648,-3.360704 -202.337243,-1.680352 -202.346041,0 -202.337243,1.680352 -202.319648,3.360704 -202.284457,5.041056 -202.231672,6.721408 -202.170088,8.410557 -202.090909,10.082111 -202.002933,11.762463 -201.897361,13.442815 -201.782991,15.123167 -201.651026,16.794721 -201.501466,18.475073 -201.343109,20.146628 -201.167155,21.818182 -200.973607,23.489736 -200.780059,25.16129 -200.560117,26.824047 -200.331378,28.495601 -200.085044,30.158358 -199.829912,31.821114 -199.557185,33.483871 -199.27566,35.13783 -198.97654,36.791789 -198.659824,38.445748 -198.334311,40.090909 -197.991202,41.744868 -197.639296,43.381232 -197.269795,45.026393 -196.891496,46.662757 -196.495601,48.29912 -196.090909,49.926686 -195.668622,51.554252 -195.228739,53.181818 -194.780059,54.800587 -194.322581,56.419355 -193.847507,58.029326 -193.354839,59.639296 -192.853372,61.249267 -192.334311,62.85044 -191.806452,64.442815 -191.269795,66.035191 -190.715543,67.627566 -190.143695,69.202346 -189.56305,70.785924 -188.964809,72.360704 -188.357771,73.926686 -187.741935,75.483871 -187.099707,77.049853 -186.457478,78.59824 -185.797654,80.146628 -185.129032,81.686217 -184.442815,83.225806 -183.739003,84.756598 -183.035191,86.278592 -182.304985,87.791789 -178.346041,85.882698 -179.067449,84.369501 -179.771261,82.856305 -180.466276,81.325513 -181.152493,79.794721 -181.821114,78.26393 -182.472141,76.715543 -183.123167,75.167155 -183.747801,73.618768 -184.363636,72.061584 -184.970674,70.495601 -185.560117,68.929619 -186.140762,67.354839 -186.703812,65.771261 -187.249267,64.187683 -187.785924,62.604106 -188.313783,61.01173 -188.824047,59.410557 -189.316716,57.809384 -189.800587,56.208211 -190.266862,54.59824 -190.72434,52.98827 -191.164223,51.369501 -191.595308,49.750733 -192.008798,48.123167 -192.41349,46.495601 -192.791789,44.868035 -193.170088,43.231672 -193.530792,41.595308 -193.8739,39.950147 -194.208211,38.304985 -194.524927,36.659824 -194.824047,35.014663 -195.11437,33.360704 -195.387097,31.706745 -195.651026,30.052786 -195.897361,28.398827 -196.134897,26.73607 -196.354839,25.073314 -196.557185,23.410557 -196.750733,21.747801 -196.926686,20.076246 -197.085044,18.41349 -197.234604,16.741935 -197.375367,15.070381 -197.489736,13.398827 -197.595308,11.727273 -197.692082,10.055718 -197.771261,8.375367 -197.832845,6.703812 -197.88563,5.032258 -197.920821,3.351906 -197.938416,1.680352 -197.947214,0 -197.938416,-1.680352 -197.920821,-3.351906 -197.88563,-5.032258 -197.832845,-6.703812 -197.771261,-8.375367 -197.692082,-10.055718 -197.595308,-11.727273 -197.489736,-13.398827 -197.375367,-15.070381 -197.234604,-16.741935 -197.085044,-18.41349 -196.926686,-20.076246 -196.750733,-21.747801 -196.557185,-23.410557 -196.354839,-25.073314 -196.134897,-26.73607 -195.897361,-28.398827 -195.651026,-30.052786 -195.387097,-31.706745 -195.11437,-33.360704 -194.824047,-35.014663 -194.524927,-36.659824 -194.208211,-38.304985 -193.8739,-39.950147 -193.530792,-41.595308 -193.170088,-43.231672 -192.791789,-44.868035 -192.41349,-46.495601 -192.008798,-48.123167 -191.595308,-49.750733 -191.164223,-51.369501 -190.72434,-52.98827 -190.266862,-54.59824 -189.800587,-56.208211 -189.316716,-57.809384 -188.824047,-59.410557 -188.313783,-61.01173 -187.785924,-62.604106 -187.249267,-64.187683 -186.703812,-65.771261 -186.140762,-67.354839 -185.560117,-68.929619 -184.970674,-70.495601 -184.363636,-72.061584 -183.747801,-73.618768 -183.123167,-75.167155 -182.472141,-76.715543 -181.821114,-78.26393 -181.152493,-79.794721 -180.466276,-81.325513 -179.771261,-82.856305 -179.067449,-84.369501 -178.346041,-85.882698"/>
<polygon id="000002068B73DBE0" class="l2d0" points="-174.378299,-83.973607 -175.090909,-82.486804 -175.794721,-80.982405 -176.480938,-79.478006 -177.14956,-77.964809 -177.809384,-76.451613 -178.460411,-74.929619 -179.093842,-73.398827 -179.709677,-71.868035 -180.316716,-70.328446 -180.914956,-68.780059 -181.495601,-67.231672 -182.067449,-65.683284 -182.621701,-64.117302 -183.158358,-62.560117 -183.686217,-60.985337 -184.205279,-59.419355 -184.706745,-57.835777 -185.190616,-56.260997 -185.665689,-54.677419 -186.123167,-53.085044 -186.571848,-51.492669 -187.002933,-49.891496 -187.42522,-48.290323 -187.829912,-46.68915 -188.225806,-45.079179 -188.604106,-43.469208 -188.964809,-41.859238 -189.316716,-40.240469 -189.659824,-38.621701 -189.97654,-36.994135 -190.284457,-35.375367 -190.583578,-33.747801 -190.865103,-32.111437 -191.129032,-30.483871 -191.384164,-28.847507 -191.630499,-27.211144 -191.85044,-25.57478 -192.061584,-23.929619 -192.26393,-22.284457 -192.44868,-20.639296 -192.615836,-18.994135 -192.765396,-17.348974 -192.906158,-15.703812 -193.038123,-14.049853 -193.152493,-12.404692 -193.249267,-10.750733 -193.337243,-9.096774 -193.407625,-7.442815 -193.460411,-5.788856 -193.504399,-4.134897 -193.530792,-2.480938 -193.548387,-0.826979 -193.548387,0.826979 -193.530792,2.480938 -193.504399,4.134897 -193.460411,5.788856 -193.407625,7.442815 -193.337243,9.096774 -193.249267,10.750733 -193.152493,12.404692 -193.038123,14.049853 -192.906158,15.703812 -192.765396,17.348974 -192.615836,18.994135 -192.44868,20.639296 -192.26393,22.284457 -192.061584,23.929619 -191.85044,25.57478 -191.630499,27.211144 -191.384164,28.847507 -191.129032,30.483871 -190.865103,32.111437 -190.583578,33.747801 -190.284457,35.375367 -189.97654,36.994135 -189.659824,38.621701 -189.316716,40.240469 -188.964809,41.859238 -188.604106,43.469208 -188.225806,45.079179 -187.829912,46.68915 -187.42522,48.290323 -187.002933,49.891496 -186.571848,51.492669 -186.123167,53.085044 -185.665689,54.677419 -185.190616,56.260997 -184.706745,57.835777 -184.205279,59.419355 -183.686217,60.985337 -183.158358,62.560117 -182.621701,64.117302 -182.067449,65.683284 -181.495601,67.231672 -180.914956,68.780059 -180.316716,70.328446 -179.709677,71.868035 -179.093842,73.398827 -178.460411,74.929619 -177.809384,76.451613 -177.14956,77.964809 -176.480938,79.478006 -175.794721,80.982405 -175.090909,82.486804 -174.378299,83.973607 -170.419355,82.073314 -171.123167,80.595308 -171.809384,79.117302 -172.486804,77.630499 -173.146628,76.134897 -173.797654,74.639296 -174.439883,73.134897 -175.064516,71.630499 -175.671554,70.117302 -176.269795,68.595308 -176.859238,67.073314 -177.431085,65.542522 -177.985337,64.01173 -178.530792,62.472141 -179.067449,60.932551 -179.58651,59.384164 -180.096774,57.826979 -180.580645,56.269795 -181.064516,54.71261 -181.530792,53.146628 -181.979472,51.580645 -182.419355,50.005865 -182.841642,48.431085 -183.255132,46.847507 -183.651026,45.26393 -184.038123,43.680352 -184.407625,42.087977 -184.759531,40.495601 -185.102639,38.903226 -185.43695,37.302053 -185.753666,35.70088 -186.052786,34.090909 -186.334311,32.489736 -186.615836,30.879765 -186.870968,29.269795 -187.117302,27.651026 -187.346041,26.041056 -187.565982,24.422287 -187.768328,22.803519 -187.961877,21.175953 -188.13783,19.557185 -188.296188,17.929619 -188.445748,16.302053 -188.577713,14.674487 -188.70088,13.046921 -188.806452,11.419355 -188.894428,9.791789 -188.973607,8.164223 -189.035191,6.527859 -189.087977,4.900293 -189.123167,3.26393 -189.140762,1.636364 -189.14956,0 -189.140762,-1.636364 -189.123167,-3.26393 -189.087977,-4.900293 -189.035191,-6.527859 -188.973607,-8.164223 -188.894428,-9.791789 -188.806452,-11.419355 -188.70088,-13.046921 -188.577713,-14.674487 -188.445748,-16.302053 -188.296188,-17.929619 -188.13783,-19.557185 -187.961877,-21.175953 -187.768328,-22.803519 -187.565982,-24.422287 -187.346041,-26.041056 -187.117302,-27.651026 -186.870968,-29.269795 -186.615836,-30.879765 -186.334311,-32.489736 -186.052786,-34.090909 -185.753666,-35.70088 -185.43695,-37.302053 -185.102639,-38.903226 -184.759531,-40.495601 -184.407625,-42.087977 -184.038123,-43.680352 -183.651026,-45.26393 -183.255132,-46.847507 -182.841642,-48.431085 -182.419355,-50.005865 -181.979472,-51.580645 -181.530792,-53.146628 -181.064516,-54.71261 -180.580645,-56.269795 -180.096774,-57.826979 -179.58651,-59.384164 -179.067449,-60.932551 -178.530792,-62.472141 -177.985337,-64.01173 -177.431085,-65.542522 -176.859238,-67.073314 -176.269795,-68.595308 -175.671554,-70.117302 -175.064516,-71.630499 -174.439883,-73.134897 -173.797654,-74.639296 -173.146628,-76.134897 -172.486804,-77.630499 -171.809384,-79.117302 -171.123167,-80.595308 -170.419355,-82.073314"/>
<polygon id="000002068B73E200" class="l2d0" points="-166.451613,-80.164223 -167.146628,-78.703812 -167.824047,-77.243402 -168.492669,-75.782991 -169.143695,-74.313783 -169.785924,-72.835777 -170.419355,-71.348974 -171.035191,-69.86217 -171.633431,-68.366569 -172.222874,-66.870968 -172.803519,-65.366569 -173.366569,-63.86217 -173.912023,-62.348974 -174.44868,-60.826979 -174.97654,-59.304985 -175.486804,-57.782991 -175.979472,-56.252199 -176.463343,-54.71261 -176.929619,-53.173021 -177.387097,-51.624633 -177.835777,-50.085044 -178.266862,-48.527859 -178.680352,-46.970674 -179.085044,-45.41349 -179.472141,-43.856305 -179.85044,-42.290323 -180.211144,-40.715543 -180.554252,-39.14956 -180.888563,-37.57478 -181.214076,-35.991202 -181.513196,-34.416422 -181.812317,-32.832845 -182.093842,-31.240469 -182.357771,-29.656891 -182.604106,-28.064516 -182.841642,-26.472141 -183.070381,-24.879765 -183.281525,-23.28739 -183.475073,-21.686217 -183.659824,-20.085044 -183.826979,-18.483871 -183.97654,-16.882698 -184.117302,-15.281525 -184.240469,-13.671554 -184.354839,-12.070381 -184.451613,-10.460411 -184.539589,-8.85044 -184.609971,-7.240469 -184.662757,-5.630499 -184.706745,-4.020528 -184.733138,-2.419355 -184.750733,-0.809384 -184.750733,0.809384 -184.733138,2.419355 -184.706745,4.020528 -184.662757,5.630499 -184.609971,7.240469 -184.539589,8.85044 -184.451613,10.460411 -184.354839,12.070381 -184.240469,13.671554 -184.117302,15.281525 -183.97654,16.882698 -183.826979,18.483871 -183.659824,20.085044 -183.475073,21.686217 -183.281525,23.28739 -183.070381,24.879765 -182.841642,26.472141 -182.604106,28.064516 -182.357771,29.656891 -182.093842,31.240469 -181.812317,32.832845 -181.513196,34.416422 -181.214076,35.991202 -180.888563,37.57478 -180.554252,39.14956 -180.211144,40.715543 -179.85044,42.290323 -179.472141,43.856305 -179.085044,45.41349 -178.680352,46.970674 -178.266862,48.527859 -177.835777,50.085044 -177.387097,51.624633 -176.929619,53.173021 -176.463343,54.71261 -175.979472,56.252199 -175.486804,57.782991 -174.97654,59.304985 -174.44868,60.826979 -173.912023,62.348974 -173.366569,63.86217 -172.803519,65.366569 -172.222874,66.870968 -171.633431,68.366569 -171.035191,69.86217 -170.419355,71.348974 -169.785924,72.835777 -169.143695,74.313783 -168.492669,75.782991 -167.824047,77.243402 -167.146628,78.703812 -166.451613,80.164223 -162.492669,78.255132 -163.170088,76.821114 -163.847507,75.378299 -164.498534,73.935484 -165.140762,72.483871 -165.774194,71.032258 -166.398827,69.56305 -166.997067,68.102639 -167.595308,66.624633 -168.175953,65.146628 -168.739003,63.668622 -169.293255,62.181818 -169.83871,60.686217 -170.357771,59.190616 -170.876833,57.686217 -171.378299,56.181818 -171.86217,54.677419 -172.337243,53.155425 -172.803519,51.642229 -173.252199,50.120235 -173.683284,48.589443 -174.105572,47.058651 -174.510264,45.527859 -174.906158,43.98827 -175.284457,42.44868 -175.653959,40.909091 -176.005865,39.360704 -176.340176,37.803519 -176.674487,36.255132 -176.982405,34.697947 -177.281525,33.140762 -177.56305,31.57478 -177.835777,30.017595 -178.090909,28.451613 -178.337243,26.876833 -178.565982,25.31085 -178.785924,23.73607 -178.98827,22.16129 -179.173021,20.58651 -179.348974,19.01173 -179.507331,17.428152 -179.656891,15.853372 -179.788856,14.269795 -179.903226,12.686217 -180.008798,11.102639 -180.096774,9.519062 -180.175953,7.935484 -180.237537,6.343109 -180.290323,4.759531 -180.325513,3.175953 -180.343109,1.583578 -180.351906,0 -180.343109,-1.583578 -180.325513,-3.175953 -180.290323,-4.759531 -180.237537,-6.343109 -180.175953,-7.935484 -180.096774,-9.519062 -180.008798,-11.102639 -179.903226,-12.686217 -179.788856,-14.269795 -179.656891,-15.853372 -179.507331,-17.428152 -179.348974,-19.01173 -179.173021,-20.58651 -178.98827,-22.16129 -178.785924,-23.73607 -178.565982,-25.31085 -178.337243,-26.876833 -178.090909,-28.451613 -177.835777,-30.017595 -177.56305,-31.57478 -177.281525,-33.140762 -176.982405,-34.697947 -176.674487,-36.255132 -176.340176,-37.803519 -176.005865,-39.360704 -175.653959,-40.909091 -175.284457,-42.44868 -174.906158,-43.98827 -174.510264,-45.527859 -174.105572,-47.058651 -173.683284,-48.589443 -173.252199,-50.120235 -172.803519,-51.642229 -172.337243,-53.155425 -171.86217,-54.677419 -171.378299,-56.181818 -170.876833,-57.686217 -170.357771,-59.190616 -169.83871,-60.686217 -169.293255,-62.181818 -168.739003,-63.668622 -168.175953,-65.146628 -167.595308,-66.624633 -166.997067,-68.102639 -166.398827,-69.56305 -165.774194,-71.032258 -165.140762,-72.483871 -164.498534,-73.935484 -163.847507,-75.378299 -163.170088,-76.821114 -162.492669,-78.255132"/>
<polygon id="000002068B73E660" class="l2d0" points="-158.524927,-76.346041 -159.211144,-74.920821 -159.870968,-73.486804 -160.521994,-72.043988 -161.164223,-70.601173 -161.797654,-69.158358 -162.404692,-67.697947 -163.01173,-66.237537 -163.601173,-64.768328 -164.173021,-63.29912 -164.73607,-61.821114 -165.281525,-60.343109 -165.818182,-58.856305 -166.337243,-57.369501 -166.847507,-55.8739 -167.340176,-54.369501 -167.824047,-52.865103 -168.290323,-51.360704 -168.747801,-49.847507 -169.187683,-48.334311 -169.609971,-46.812317 -170.02346,-45.281525 -170.428152,-43.759531 -170.815249,-42.228739 -171.184751,-40.68915 -171.545455,-39.14956 -171.888563,-37.609971 -172.214076,-36.070381 -172.530792,-34.521994 -172.83871,-32.973607 -173.129032,-31.416422 -173.40176,-29.859238 -173.665689,-28.302053 -173.912023,-26.744868 -174.140762,-25.178886 -174.360704,-23.621701 -174.56305,-22.055718 -174.756598,-20.480938 -174.932551,-18.914956 -175.099707,-17.348974 -175.240469,-15.774194 -175.381232,-14.199413 -175.495601,-12.624633 -175.609971,-11.049853 -175.697947,-9.475073 -175.777126,-7.891496 -175.83871,-6.316716 -175.891496,-4.733138 -175.926686,-3.158358 -175.944282,-1.583578 -175.953079,0 -175.944282,1.583578 -175.926686,3.158358 -175.891496,4.733138 -175.83871,6.316716 -175.777126,7.891496 -175.697947,9.475073 -175.609971,11.049853 -175.495601,12.624633 -175.381232,14.199413 -175.240469,15.774194 -175.099707,17.348974 -174.932551,18.914956 -174.756598,20.480938 -174.56305,22.055718 -174.360704,23.621701 -174.140762,25.178886 -173.912023,26.744868 -173.665689,28.302053 -173.40176,29.859238 -173.129032,31.416422 -172.83871,32.973607 -172.530792,34.521994 -172.214076,36.070381 -171.888563,37.609971 -171.545455,39.14956 -171.184751,40.68915 -170.815249,42.228739 -170.428152,43.759531 -170.02346,45.281525 -169.609971,46.812317 -169.187683,48.334311 -168.747801,49.847507 -168.290323,51.360704 -167.824047,52.865103 -167.340176,54.369501 -166.847507,55.8739 -166.337243,57.369501 -165.818182,58.856305 -165.281525,60.343109 -164.73607,61.821114 -164.173021,63.29912 -163.601173,64.768328 -163.01173,66.237537 -162.404692,67.697947 -161.797654,69.158358 -161.164223,70.601173 -160.521994,72.043988 -159.870968,73.486804 -159.211144,74.920821 -158.524927,76.346041 -154.565982,74.43695 -155.234604,73.029326 -155.88563,71.621701 -156.527859,70.205279 -157.16129,68.780059 -157.777126,67.354839 -158.384164,65.920821 -158.973607,64.478006 -159.554252,63.035191 -160.117302,61.592375 -160.671554,60.131965 -161.208211,58.671554 -161.73607,57.211144 -162.246334,55.741935 -162.747801,54.272727 -163.231672,52.794721 -163.697947,51.307918 -164.164223,49.821114 -164.604106,48.334311 -165.035191,46.83871 -165.457478,45.343109 -165.86217,43.83871 -166.249267,42.334311 -166.627566,40.821114 -166.98827,39.307918 -167.340176,37.794721 -167.674487,36.272727 -168,34.750733 -168.307918,33.228739 -168.59824,31.706745 -168.879765,30.175953 -169.143695,28.636364 -169.398827,27.105572 -169.636364,25.565982 -169.865103,24.026393 -170.076246,22.486804 -170.269795,20.947214 -170.454545,19.398827 -170.621701,17.859238 -170.780059,16.31085 -170.920821,14.762463 -171.043988,13.205279 -171.158358,11.656891 -171.255132,10.108504 -171.343109,8.55132 -171.41349,6.994135 -171.466276,5.445748 -171.510264,3.888563 -171.536657,2.331378 -171.554252,0.774194 -171.554252,-0.774194 -171.536657,-2.331378 -171.510264,-3.888563 -171.466276,-5.445748 -171.41349,-6.994135 -171.343109,-8.55132 -171.255132,-10.108504 -171.158358,-11.656891 -171.043988,-13.205279 -170.920821,-14.762463 -170.780059,-16.31085 -170.621701,-17.859238 -170.454545,-19.398827 -170.269795,-20.947214 -170.076246,-22.486804 -169.865103,-24.026393 -169.636364,-25.565982 -169.398827,-27.105572 -169.143695,-28.636364 -168.879765,-30.175953 -168.59824,-31.706745 -168.307918,-33.228739 -168,-34.750733 -167.674487,-36.272727 -167.340176,-37.794721 -166.98827,-39.307918 -166.627566,-40.821114 -166.249267,-42.334311 -165.86217,-43.83871 -165.457478,-45.343109 -165.035191,-46.83871 -164.604106,-48.334311 -164.164223,-49.821114 -163.697947,-51.307918 -163.231672,-52.794721 -162.747801,-54.272727 -162.246334,-55.741935 -161.73607,-57.211144 -161.208211,-58.671554 -160.671554,-60.131965 -160.117302,-61.592375 -159.554252,-63.035191 -158.973607,-64.478006 -158.384164,-65.920821 -157.777126,-67.354839 -157.16129,-68.780059 -156.527859,-70.205279 -155.88563,-71.621701 -155.234604,-73.029326 -154.565982,-74.43695"/>
<polygon id="000002068B73E740" class="l2d0" points="-150.59824,-72.527859 -151.258065,-71.146628 -151.909091,-69.756598 -152.533724,-68.357771 -153.158358,-66.958944 -153.765396,-65.55132 -154.354839,-64.143695 -154.935484,-62.727273 -155.507331,-61.302053 -156.061584,-59.876833 -156.607038,-58.451613 -157.134897,-57.008798 -157.645161,-55.565982 -158.146628,-54.123167 -158.639296,-52.671554 -159.11437,-51.219941 -159.580645,-49.759531 -160.029326,-48.290323 -160.460411,-46.829912 -160.882698,-45.351906 -161.296188,-43.882698 -161.692082,-42.395894 -162.070381,-40.917889 -162.439883,-39.431085 -162.791789,-37.944282 -163.134897,-36.44868 -163.460411,-34.953079 -163.777126,-33.457478 -164.076246,-31.953079 -164.357771,-30.44868 -164.630499,-28.944282 -164.88563,-27.431085 -165.131965,-25.917889 -165.360704,-24.404692 -165.580645,-22.891496 -165.782991,-21.378299 -165.967742,-19.856305 -166.143695,-18.334311 -166.31085,-16.812317 -166.451613,-15.290323 -166.583578,-13.759531 -166.706745,-12.237537 -166.812317,-10.706745 -166.900293,-9.184751 -166.979472,-7.653959 -167.041056,-6.123167 -167.093842,-4.592375 -167.129032,-3.061584 -167.146628,-1.530792 -167.155425,0 -167.146628,1.530792 -167.129032,3.061584 -167.093842,4.592375 -167.041056,6.123167 -166.979472,7.653959 -166.900293,9.184751 -166.812317,10.706745 -166.706745,12.237537 -166.583578,13.759531 -166.451613,15.290323 -166.31085,16.812317 -166.143695,18.334311 -165.967742,19.856305 -165.782991,21.378299 -165.580645,22.891496 -165.360704,24.404692 -165.131965,25.917889 -164.88563,27.431085 -164.630499,28.944282 -164.357771,30.44868 -164.076246,31.953079 -163.777126,33.457478 -163.460411,34.953079 -163.134897,36.44868 -162.791789,37.944282 -162.439883,39.431085 -162.070381,40.917889 -161.692082,42.395894 -161.296188,43.882698 -160.882698,45.351906 -160.460411,46.829912 -160.029326,48.290323 -159.580645,49.759531 -159.11437,51.219941 -158.639296,52.671554 -158.146628,54.123167 -157.645161,55.565982 -157.134897,57.008798 -156.607038,58.451613 -156.061584,59.876833 -155.507331,61.302053 -154.935484,62.727273 -154.354839,64.143695 -153.765396,65.55132 -153.158358,66.958944 -152.533724,68.357771 -151.909091,69.756598 -151.258065,71.146628 -150.59824,72.527859 -146.639296,70.618768 -147.281525,69.255132 -147.923754,67.891496 -148.539589,66.519062 -149.155425,65.146628 -149.744868,63.756598 -150.334311,62.375367 -150.906158,60.97654 -151.460411,59.577713 -152.005865,58.170088 -152.533724,56.762463 -153.052786,55.354839 -153.56305,53.929619 -154.055718,52.513196 -154.530792,51.079179 -154.997067,49.645161 -155.454545,48.211144 -155.894428,46.768328 -156.316716,45.325513 -156.730205,43.882698 -157.1261,42.431085 -157.513196,40.970674 -157.891496,39.510264 -158.243402,38.049853 -158.595308,36.580645 -158.920821,35.111437 -159.237537,33.642229 -159.545455,32.164223 -159.835777,30.686217 -160.117302,29.208211 -160.381232,27.730205 -160.627566,26.243402 -160.865103,24.756598 -161.085044,23.260997 -161.296188,21.774194 -161.489736,20.278592 -161.665689,18.782991 -161.832845,17.28739 -161.991202,15.791789 -162.131965,14.28739 -162.255132,12.791789 -162.360704,11.28739 -162.466276,9.782991 -162.545455,8.278592 -162.615836,6.774194 -162.668622,5.269795 -162.71261,3.765396 -162.739003,2.260997 -162.756598,0.756598 -162.756598,-0.756598 -162.739003,-2.260997 -162.71261,-3.765396 -162.668622,-5.269795 -162.615836,-6.774194 -162.545455,-8.278592 -162.466276,-9.782991 -162.360704,-11.28739 -162.255132,-12.791789 -162.131965,-14.28739 -161.991202,-15.791789 -161.832845,-17.28739 -161.665689,-18.782991 -161.489736,-20.278592 -161.296188,-21.774194 -161.085044,-23.260997 -160.865103,-24.756598 -160.627566,-26.243402 -160.381232,-27.730205 -160.117302,-29.208211 -159.835777,-30.686217 -159.545455,-32.164223 -159.237537,-33.642229 -158.920821,-35.111437 -158.595308,-36.580645 -158.243402,-38.049853 -157.891496,-39.510264 -157.513196,-40.970674 -157.1261,-42.431085 -156.730205,-43.882698 -156.316716,-45.325513 -155.894428,-46.768328 -155.454545,-48.211144 -154.997067,-49.645161 -154.530792,-51.079179 -154.055718,-52.513196 -153.56305,-53.929619 -153.052786,-55.354839 -152.533724,-56.762463 -152.005865,-58.170088 -151.460411,-59.577713 -150.906158,-60.97654 -150.334311,-62.375367 -149.744868,-63.756598 -149.155425,-65.146628 -148.539589,-66.519062 -147.923754,-67.891496 -147.281525,-69.255132 -146.639296,-70.618768"/>
<polygon id="000002068B73E040" class="l2d0" points="-142.671554,-68.709677 -143.322581,-67.354839 -143.947214,-66 -144.56305,-64.636364 -145.170088,-63.272727 -145.759531,-61.891496 -146.340176,-60.510264 -146.903226,-59.129032 -147.457478,-57.739003 -147.994135,-56.340176 -148.521994,-54.941349 -149.032258,-53.533724 -149.533724,-52.1261 -150.017595,-50.709677 -150.492669,-49.293255 -150.950147,-47.868035 -151.398827,-46.442815 -151.829912,-45.008798 -152.243402,-43.565982 -152.648094,-42.131965 -153.043988,-40.68915 -153.422287,-39.237537 -153.782991,-37.785924 -154.134897,-36.334311 -154.469208,-34.8739 -154.794721,-33.41349 -155.102639,-31.944282 -155.392962,-30.483871 -155.674487,-29.014663 -155.947214,-27.536657 -156.202346,-26.067449 -156.439883,-24.589443 -156.659824,-23.111437 -156.870968,-21.624633 -157.073314,-20.146628 -157.258065,-18.659824 -157.42522,-17.173021 -157.57478,-15.686217 -157.72434,-14.199413 -157.847507,-12.703812 -157.961877,-11.208211 -158.058651,-9.721408 -158.146628,-8.225806 -158.217009,-6.730205 -158.269795,-5.234604 -158.313783,-3.739003 -158.340176,-2.243402 -158.357771,-0.747801 -158.357771,0.747801 -158.340176,2.243402 -158.313783,3.739003 -158.269795,5.234604 -158.217009,6.730205 -158.146628,8.225806 -158.058651,9.721408 -157.961877,11.208211 -157.847507,12.703812 -157.72434,14.199413 -157.57478,15.686217 -157.42522,17.173021 -157.258065,18.659824 -157.073314,20.146628 -156.870968,21.624633 -156.659824,23.111437 -156.439883,24.589443 -156.202346,26.067449 -155.947214,27.536657 -155.674487,29.014663 -155.392962,30.483871 -155.102639,31.944282 -154.794721,33.41349 -154.469208,34.8739 -154.134897,36.334311 -153.782991,37.785924 -153.422287,39.237537 -153.043988,40.68915 -152.648094,42.131965 -152.243402,43.565982 -151.829912,45.008798 -151.398827,46.442815 -150.950147,47.868035 -150.492669,49.293255 -150.017595,50.709677 -149.533724,52.1261 -149.032258,53.533724 -148.521994,54.941349 -147.994135,56.340176 -147.457478,57.739003 -146.903226,59.129032 -146.340176,60.510264 -145.759531,61.891496 -145.170088,63.272727 -144.56305,64.636364 -143.947214,66 -143.322581,67.354839 -142.671554,68.709677 -138.71261,66.800587 -139.346041,65.472141 -139.961877,64.134897 -140.568915,62.797654 -141.158358,61.451613 -141.739003,60.105572 -142.31085,58.750733 -142.865103,57.387097 -143.40176,56.02346 -143.938416,54.651026 -144.44868,53.269795 -144.950147,51.888563 -145.442815,50.498534 -145.917889,49.108504 -146.375367,47.718475 -146.824047,46.319648 -147.26393,44.912023 -147.686217,43.504399 -148.090909,42.087977 -148.486804,40.671554 -148.8739,39.255132 -149.234604,37.829912 -149.595308,36.404692 -149.929619,34.979472 -150.26393,33.545455 -150.571848,32.102639 -150.870968,30.668622 -151.16129,29.225806 -151.434018,27.782991 -151.68915,26.331378 -151.935484,24.879765 -152.164223,23.428152 -152.384164,21.97654 -152.58651,20.524927 -152.771261,19.064516 -152.947214,17.604106 -153.11437,16.143695 -153.255132,14.683284 -153.387097,13.214076 -153.510264,11.753666 -153.615836,10.284457 -153.703812,8.815249 -153.782991,7.346041 -153.844575,5.876833 -153.897361,4.407625 -153.932551,2.938416 -153.950147,1.469208 -153.958944,0 -153.950147,-1.469208 -153.932551,-2.938416 -153.897361,-4.407625 -153.844575,-5.876833 -153.782991,-7.346041 -153.703812,-8.815249 -153.615836,-10.284457 -153.510264,-11.753666 -153.387097,-13.214076 -153.255132,-14.683284 -153.11437,-16.143695 -152.947214,-17.604106 -152.771261,-19.064516 -152.58651,-20.524927 -152.384164,-21.97654 -152.164223,-23.428152 -151.935484,-24.879765 -151.68915,-26.331378 -151.434018,-27.782991 -151.16129,-29.225806 -150.870968,-30.668622 -150.571848,-32.102639 -150.26393,-33.545455 -149.929619,-34.979472 -149.595308,-36.404692 -149.234604,-37.829912 -148.8739,-39.255132 -148.486804,-40.671554 -148.090909,-42.087977 -147.686217,-43.504399 -147.26393,-44.912023 -146.824047,-46.319648 -146.375367,-47.718475 -145.917889,-49.108504 -145.442815,-50.498534 -144.950147,-51.888563 -144.44868,-53.269795 -143.938416,-54.651026 -143.40176,-56.02346 -142.865103,-57.387097 -142.31085,-58.750733 -141.739003,-60.105572 -141.158358,-61.451613 -140.568915,-62.797654 -139.961877,-64.134897 -139.346041,-65.472141 -138.71261,-66.800587"/>
<polygon id="000002068B73E7B0" class="l2d0" points="-134.744868,-64.891496 -135.369501,-63.589443 -135.97654,-62.278592 -136.57478,-60.967742 -137.155425,-59.639296 -137.718475,-58.319648 -138.281525,-56.982405 -138.818182,-55.645161 -139.354839,-54.307918 -139.8739,-52.953079 -140.375367,-51.607038 -140.868035,-50.243402 -141.343109,-48.888563 -141.809384,-47.516129 -142.258065,-46.143695 -142.697947,-44.771261 -143.129032,-43.390029 -143.542522,-42.008798 -143.938416,-40.618768 -144.325513,-39.228739 -144.695015,-37.83871 -145.055718,-36.439883 -145.398827,-35.041056 -145.733138,-33.633431 -146.049853,-32.225806 -146.348974,-30.809384 -146.639296,-29.40176 -146.920821,-27.985337 -147.184751,-26.560117 -147.431085,-25.143695 -147.668622,-23.718475 -147.888563,-22.293255 -148.099707,-20.859238 -148.293255,-19.434018 -148.469208,-18 -148.636364,-16.565982 -148.794721,-15.131965 -148.935484,-13.697947 -149.058651,-12.255132 -149.164223,-10.821114 -149.269795,-9.378299 -149.348974,-7.935484 -149.419355,-6.492669 -149.472141,-5.049853 -149.516129,-3.607038 -149.542522,-2.164223 -149.560117,-0.721408 -149.560117,0.721408 -149.542522,2.164223 -149.516129,3.607038 -149.472141,5.049853 -149.419355,6.492669 -149.348974,7.935484 -149.269795,9.378299 -149.164223,10.821114 -149.058651,12.255132 -148.935484,13.697947 -148.794721,15.131965 -148.636364,16.565982 -148.469208,18 -148.293255,19.434018 -148.099707,20.859238 -147.888563,22.293255 -147.668622,23.718475 -147.431085,25.143695 -147.184751,26.560117 -146.920821,27.985337 -146.639296,29.40176 -146.348974,30.809384 -146.049853,32.225806 -145.733138,33.633431 -145.398827,35.041056 -145.055718,36.439883 -144.695015,37.83871 -144.325513,39.228739 -143.938416,40.618768 -143.542522,42.008798 -143.129032,43.390029 -142.697947,44.771261 -142.258065,46.143695 -141.809384,47.516129 -141.343109,48.888563 -140.868035,50.243402 -140.375367,51.607038 -139.8739,52.953079 -139.354839,54.307918 -138.818182,55.645161 -138.281525,56.982405 -137.718475,58.319648 -137.155425,59.639296 -136.57478,60.967742 -135.97654,62.278592 -135.369501,63.589443 -134.744868,64.891496 -130.785924,62.982405 -131.40176,61.68915 -132,60.387097 -132.589443,59.085044 -133.170088,57.774194 -133.733138,56.463343 -134.278592,55.134897 -134.815249,53.806452 -135.343109,52.478006 -135.853372,51.140762 -136.354839,49.794721 -136.83871,48.44868 -137.304985,47.093842 -137.762463,45.739003 -138.211144,44.384164 -138.642229,43.01173 -139.055718,41.648094 -139.460411,40.27566 -139.856305,38.894428 -140.234604,37.513196 -140.595308,36.131965 -140.947214,34.741935 -141.281525,33.343109 -141.59824,31.953079 -141.906158,30.554252 -142.205279,29.155425 -142.486804,27.747801 -142.750733,26.340176 -143.005865,24.932551 -143.243402,23.524927 -143.472141,22.108504 -143.683284,20.692082 -143.876833,19.27566 -144.061584,17.85044 -144.228739,16.434018 -144.387097,15.008798 -144.527859,13.583578 -144.651026,12.158358 -144.765396,10.733138 -144.86217,9.29912 -144.950147,7.8739 -145.020528,6.439883 -145.073314,5.014663 -145.117302,3.580645 -145.143695,2.146628 -145.16129,0.71261 -145.16129,-0.71261 -145.143695,-2.146628 -145.117302,-3.580645 -145.073314,-5.014663 -145.020528,-6.439883 -144.950147,-7.8739 -144.86217,-9.29912 -144.765396,-10.733138 -144.651026,-12.158358 -144.527859,-13.583578 -144.387097,-15.008798 -144.228739,-16.434018 -144.061584,-17.85044 -143.876833,-19.27566 -143.683284,-20.692082 -143.472141,-22.108504 -143.243402,-23.524927 -143.005865,-24.932551 -142.750733,-26.340176 -142.486804,-27.747801 -142.205279,-29.155425 -141.906158,-30.554252 -141.59824,-31.953079 -141.281525,-33.343109 -140.947214,-34.741935 -140.595308,-36.131965 -140.234604,-37.513196 -139.856305,-38.894428 -139.460411,-40.27566 -139.055718,-41.648094 -138.642229,-43.01173 -138.211144,-44.384164 -137.762463,-45.739003 -137.304985,-47.093842 -136.83871,-48.44868 -136.354839,-49.794721 -135.853372,-51.140762 -135.343109,-52.478006 -134.815249,-53.806452 -134.278592,-55.134897 -133.733138,-56.463343 -133.170088,-57.774194 -132.589443,-59.085044 -132,-60.387097 -131.40176,-61.68915 -130.785924,-62.982405"/>
<polygon id="000002068B73E4A0" class="l2d0" points="-126.826979,-61.073314 -127.42522,-59.806452 -128.014663,-58.530792 -128.595308,-57.255132 -129.158358,-55.970674 -129.71261,-54.677419 -130.249267,-53.384164 -130.777126,-52.082111 -131.28739,-50.771261 -131.788856,-49.460411 -132.272727,-48.140762 -132.747801,-46.821114 -133.205279,-45.492669 -133.653959,-44.164223 -134.085044,-42.826979 -134.507331,-41.489736 -134.912023,-40.143695 -135.307918,-38.797654 -135.686217,-37.451613 -136.055718,-36.096774 -136.407625,-34.733138 -136.750733,-33.369501 -137.076246,-32.005865 -137.384164,-30.642229 -137.683284,-29.269795 -137.973607,-27.888563 -138.246334,-26.516129 -138.501466,-25.134897 -138.747801,-23.753666 -138.97654,-22.363636 -139.187683,-20.982405 -139.390029,-19.592375 -139.583578,-18.202346 -139.759531,-16.803519 -139.917889,-15.41349 -140.058651,-14.014663 -140.199413,-12.615836 -140.313783,-11.217009 -140.419355,-9.818182 -140.507331,-8.419355 -140.58651,-7.020528 -140.648094,-5.612903 -140.70088,-4.214076 -140.73607,-2.806452 -140.753666,-1.407625 -140.762463,0 -140.753666,1.407625 -140.73607,2.806452 -140.70088,4.214076 -140.648094,5.612903 -140.58651,7.020528 -140.507331,8.419355 -140.419355,9.818182 -140.313783,11.217009 -140.199413,12.615836 -140.058651,14.014663 -139.917889,15.41349 -139.759531,16.803519 -139.583578,18.202346 -139.390029,19.592375 -139.187683,20.982405 -138.97654,22.363636 -138.747801,23.753666 -138.501466,25.134897 -138.246334,26.516129 -137.973607,27.888563 -137.683284,29.269795 -137.384164,30.642229 -137.076246,32.005865 -136.750733,33.369501 -136.407625,34.733138 -136.055718,36.096774 -135.686217,37.451613 -135.307918,38.797654 -134.912023,40.143695 -134.507331,41.489736 -134.085044,42.826979 -133.653959,44.164223 -133.205279,45.492669 -132.747801,46.821114 -132.272727,48.140762 -131.788856,49.460411 -131.28739,50.771261 -130.777126,52.082111 -130.249267,53.384164 -129.71261,54.677419 -129.158358,55.970674 -128.595308,57.255132 -128.014663,58.530792 -127.42522,59.806452 -126.826979,61.073314 -122.859238,59.164223 -123.457478,57.906158 -124.038123,56.648094 -124.609971,55.381232 -125.173021,54.105572 -125.718475,52.829912 -126.246334,51.536657 -126.765396,50.252199 -127.27566,48.958944 -127.768328,47.656891 -128.243402,46.346041 -128.709677,45.035191 -129.167155,43.72434 -129.607038,42.404692 -130.029326,41.076246 -130.442815,39.747801 -130.83871,38.419355 -131.225806,37.082111 -131.595308,35.744868 -131.956012,34.398827 -132.29912,33.052786 -132.624633,31.697947 -132.941349,30.343109 -133.249267,28.98827 -133.539589,27.624633 -133.812317,26.260997 -134.067449,24.897361 -134.322581,23.524927 -134.55132,22.152493 -134.771261,20.780059 -134.973607,19.407625 -135.167155,18.026393 -135.343109,16.645161 -135.510264,15.26393 -135.651026,13.882698 -135.791789,12.501466 -135.906158,11.111437 -136.020528,9.730205 -136.108504,8.340176 -136.187683,6.950147 -136.249267,5.560117 -136.302053,4.170088 -136.337243,2.780059 -136.354839,1.390029 -136.363636,0 -136.354839,-1.390029 -136.337243,-2.780059 -136.302053,-4.170088 -136.249267,-5.560117 -136.187683,-6.950147 -136.108504,-8.340176 -136.020528,-9.730205 -135.906158,-11.111437 -135.791789,-12.501466 -135.651026,-13.882698 -135.510264,-15.26393 -135.343109,-16.645161 -135.167155,-18.026393 -134.973607,-19.407625 -134.771261,-20.780059 -134.55132,-22.152493 -134.322581,-23.524927 -134.067449,-24.897361 -133.812317,-26.260997 -133.539589,-27.624633 -133.249267,-28.98827 -132.941349,-30.343109 -132.624633,-31.697947 -132.29912,-33.052786 -131.956012,-34.398827 -131.595308,-35.744868 -131.225806,-37.082111 -130.83871,-38.419355 -130.442815,-39.747801 -130.029326,-41.076246 -129.607038,-42.404692 -129.167155,-43.72434 -128.709677,-45.035191 -128.243402,-46.346041 -127.768328,-47.656891 -127.27566,-48.958944 -126.765396,-50.252199 -126.246334,-51.536657 -125.718475,-52.829912 -125.173021,-54.105572 -124.609971,-55.381232 -124.038123,-56.648094 -123.457478,-57.906158 -122.859238,-59.164223"/>
<polygon id="000002068B73E2E0" class="l2d0" points="-118.900293,-57.255132 -119.480938,-56.02346 -120.052786,-54.791789 -120.607038,-53.55132 -121.16129,-52.302053 -121.68915,-51.052786 -122.208211,-49.794721 -122.718475,-48.527859 -123.211144,-47.260997 -123.695015,-45.985337 -124.16129,-44.709677 -124.618768,-43.42522 -125.058651,-42.140762 -125.480938,-40.847507 -125.903226,-39.545455 -126.29912,-38.243402 -126.686217,-36.941349 -127.064516,-35.630499 -127.42522,-34.319648 -127.768328,-33 -128.102639,-31.680352 -128.428152,-30.360704 -128.727273,-29.032258 -129.026393,-27.703812 -129.29912,-26.366569 -129.571848,-25.038123 -129.818182,-23.70088 -130.055718,-22.354839 -130.284457,-21.017595 -130.486804,-19.671554 -130.68915,-18.316716 -130.865103,-16.970674 -131.041056,-15.624633 -131.190616,-14.269795 -131.331378,-12.914956 -131.454545,-11.560117 -131.568915,-10.205279 -131.665689,-8.841642 -131.753666,-7.486804 -131.824047,-6.123167 -131.876833,-4.768328 -131.920821,-3.404692 -131.947214,-2.041056 -131.964809,-0.677419 -131.964809,0.677419 -131.947214,2.041056 -131.920821,3.404692 -131.876833,4.768328 -131.824047,6.123167 -131.753666,7.486804 -131.665689,8.841642 -131.568915,10.205279 -131.454545,11.560117 -131.331378,12.914956 -131.190616,14.269795 -131.041056,15.624633 -130.865103,16.970674 -130.68915,18.316716 -130.486804,19.671554 -130.284457,21.017595 -130.055718,22.354839 -129.818182,23.70088 -129.571848,25.038123 -129.29912,26.366569 -129.026393,27.703812 -128.727273,29.032258 -128.428152,30.360704 -128.102639,31.680352 -127.768328,33 -127.42522,34.319648 -127.064516,35.630499 -126.686217,36.941349 -126.29912,38.243402 -125.903226,39.545455 -125.480938,40.847507 -125.058651,42.140762 -124.618768,43.42522 -124.16129,44.709677 -123.695015,45.985337 -123.211144,47.260997 -122.718475,48.527859 -122.208211,49.794721 -121.68915,51.052786 -121.16129,52.302053 -120.607038,53.55132 -120.052786,54.791789 -119.480938,56.02346 -118.900293,57.255132 -114.932551,55.346041 -115.513196,54.131965 -116.076246,52.909091 -116.630499,51.677419 -117.167155,50.445748 -117.695015,49.205279 -118.205279,47.964809 -118.706745,46.706745 -119.190616,45.457478 -119.665689,44.190616 -120.123167,42.923754 -120.571848,41.656891 -121.002933,40.381232 -121.42522,39.096774 -121.829912,37.812317 -122.225806,36.527859 -122.604106,35.234604 -122.964809,33.941349 -123.316716,32.639296 -123.659824,31.328446 -123.985337,30.026393 -124.293255,28.715543 -124.592375,27.395894 -124.8739,26.085044 -125.13783,24.765396 -125.392962,23.43695 -125.630499,22.117302 -125.859238,20.788856 -126.070381,19.460411 -126.272727,18.123167 -126.457478,16.785924 -126.624633,15.457478 -126.782991,14.111437 -126.923754,12.774194 -127.055718,11.43695 -127.170088,10.090909 -127.266862,8.744868 -127.354839,7.407625 -127.42522,6.061584 -127.478006,4.715543 -127.521994,3.369501 -127.548387,2.02346 -127.565982,0.677419 -127.565982,-0.677419 -127.548387,-2.02346 -127.521994,-3.369501 -127.478006,-4.715543 -127.42522,-6.061584 -127.354839,-7.407625 -127.266862,-8.744868 -127.170088,-10.090909 -127.055718,-11.43695 -126.923754,-12.774194 -126.782991,-14.111437 -126.624633,-15.457478 -126.457478,-16.785924 -126.272727,-18.123167 -126.070381,-19.460411 -125.859238,-20.788856 -125.630499,-22.117302 -125.392962,-23.43695 -125.13783,-24.765396 -124.8739,-26.085044 -124.592375,-27.395894 -124.293255,-28.715543 -123.985337,-30.026393 -123.659824,-31.328446 -123.316716,-32.639296 -122.964809,-33.941349 -122.604106,-35.234604 -122.225806,-36.527859 -121.829912,-37.812317 -121.42522,-39.096774 -121.002933,-40.381232 -120.571848,-41.656891 -120.123167,-42.923754 -119.665689,-44.190616 -119.190616,-45.457478 -118.706745,-46.706745 -118.205279,-47.964809 -117.695015,-49.205279 -117.167155,-50.445748 -116.630499,-51.677419 -116.076246,-52.909091 -115.513196,-54.131965 -114.932551,-55.346041"/>
<polygon id="000002068B73E890" class="l2d0" points="-110.973607,-53.43695 -111.536657,-52.249267 -112.082111,-51.052786 -112.627566,-49.856305 -113.155425,-48.651026 -113.665689,-47.43695 -114.167155,-46.222874 -114.651026,-45 -115.1261,-43.768328 -115.592375,-42.536657 -116.032258,-41.296188 -116.472141,-40.055718 -116.894428,-38.815249 -117.29912,-37.557185 -117.695015,-36.307918 -118.073314,-35.041056 -118.442815,-33.782991 -118.794721,-32.516129 -119.13783,-31.240469 -119.463343,-29.964809 -119.780059,-28.68915 -120.079179,-27.404692 -120.360704,-26.120235 -120.633431,-24.835777 -120.897361,-23.542522 -121.143695,-22.249267 -121.372434,-20.956012 -121.592375,-19.653959 -121.794721,-18.360704 -121.979472,-17.058651 -122.155425,-15.747801 -122.313783,-14.445748 -122.463343,-13.134897 -122.595308,-11.824047 -122.718475,-10.513196 -122.824047,-9.202346 -122.912023,-7.891496 -122.991202,-6.580645 -123.052786,-5.260997 -123.105572,-3.950147 -123.140762,-2.630499 -123.158358,-1.319648 -123.167155,0 -123.158358,1.319648 -123.140762,2.630499 -123.105572,3.950147 -123.052786,5.260997 -122.991202,6.580645 -122.912023,7.891496 -122.824047,9.202346 -122.718475,10.513196 -122.595308,11.824047 -122.463343,13.134897 -122.313783,14.445748 -122.155425,15.747801 -121.979472,17.058651 -121.794721,18.360704 -121.592375,19.653959 -121.372434,20.956012 -121.143695,22.249267 -120.897361,23.542522 -120.633431,24.835777 -120.360704,26.120235 -120.079179,27.404692 -119.780059,28.68915 -119.463343,29.964809 -119.13783,31.240469 -118.794721,32.516129 -118.442815,33.782991 -118.073314,35.041056 -117.695015,36.307918 -117.29912,37.557185 -116.894428,38.815249 -116.472141,40.055718 -116.032258,41.296188 -115.592375,42.536657 -115.1261,43.768328 -114.651026,45 -114.167155,46.222874 -113.665689,47.43695 -113.155425,48.651026 -112.627566,49.856305 -112.082111,51.052786 -111.536657,52.249267 -110.973607,53.43695 -107.005865,51.527859 -107.560117,50.357771 -108.105572,49.178886 -108.642229,47.991202 -109.16129,46.794721 -109.662757,45.59824 -110.155425,44.40176 -110.639296,43.187683 -111.105572,41.973607 -111.554252,40.759531 -111.994135,39.536657 -112.42522,38.304985 -112.829912,37.073314 -113.234604,35.832845 -113.621701,34.592375 -113.991202,33.343109 -114.351906,32.093842 -114.695015,30.844575 -115.020528,29.58651 -115.337243,28.328446 -115.645161,27.061584 -115.935484,25.794721 -116.208211,24.527859 -116.472141,23.252199 -116.718475,21.97654 -116.947214,20.692082 -117.167155,19.416422 -117.378299,18.131965 -117.571848,16.847507 -117.747801,15.554252 -117.906158,14.269795 -118.055718,12.97654 -118.196481,11.683284 -118.31085,10.390029 -118.416422,9.087977 -118.513196,7.794721 -118.592375,6.501466 -118.653959,5.199413 -118.706745,3.897361 -118.741935,2.604106 -118.759531,1.302053 -118.768328,0 -118.759531,-1.302053 -118.741935,-2.604106 -118.706745,-3.897361 -118.653959,-5.199413 -118.592375,-6.501466 -118.513196,-7.794721 -118.416422,-9.087977 -118.31085,-10.390029 -118.196481,-11.683284 -118.055718,-12.97654 -117.906158,-14.269795 -117.747801,-15.554252 -117.571848,-16.847507 -117.378299,-18.131965 -117.167155,-19.416422 -116.947214,-20.692082 -116.718475,-21.97654 -116.472141,-23.252199 -116.208211,-24.527859 -115.935484,-25.794721 -115.645161,-27.061584 -115.337243,-28.328446 -115.020528,-29.58651 -114.695015,-30.844575 -114.351906,-32.093842 -113.991202,-33.343109 -113.621701,-34.592375 -113.234604,-35.832845 -112.829912,-37.073314 -112.42522,-38.304985 -111.994135,-39.536657 -111.554252,-40.759531 -111.105572,-41.973607 -110.639296,-43.187683 -110.155425,-44.40176 -109.662757,-45.59824 -109.16129,-46.794721 -108.642229,-47.991202 -108.105572,-49.178886 -107.560117,-50.357771 -107.005865,-51.527859"/>
</g>
</svg>