<?xml version="1.0" encoding="UTF-8"?>
<svg xmlns="http://www.w3.org/2000/svg" xmlns:xlink="http://www.w3.org/1999/xlink" width="600" height="287.376622" viewBox="-300 -196.711037 600 287.376622">
<defs>
<style type="text/css">
.l0d0 {fill:darkorange;stroke:chocolate;}
.l2d0 {stroke: #BE0032; fill: #BE0032; fill-opacity: 0.5;}
</style>
<g id="RingResonator">
<polygon id="0000022F9E877790" class="l0d0" points="82.99513,86.444805 82.988629,87.48357 82.969128,88.522173 82.936628,89.56045 82.891137,90.598239 82.83266,91.635378 82.761207,92.671703 82.676788,93.707052 82.579418,94.741265 82.469112,95.774177 82.345886,96.805628 82.20976,97.835456 82.060756,98.863499 81.898896,99.889597 81.724206,100.913589 81.536714,101.935314 81.336448,102.954612 81.123441,103.971324 80.897725,104.985291 80.659337,105.996353 80.408312,107.004352 80.144691,108.00913 79.868515,109.01053 79.579827,110.008395 79.278672,111.002569 78.965098,111.992896 78.639153,112.97922 78.300889,113.961388 77.950359,114.939245 77.587618,115.912638 77.212722,116.881414 76.82573,117.845423 76.426703,118.804513 76.015703,119.758533 75.592795,120.707335 75.158045,121.650769 74.711521,122.588688 74.253293,123.520944 73.783432,124.447393 73.302014,125.367888 72.809112,126.282286 72.304804,127.190443 71.789169,128.092216 71.262287,128.987466 70.724242,129.876051 70.175118,130.757832 69.615001,131.632672 69.043977,132.500432 68.462138,133.360977 67.869574,134.214173 67.266377,135.059886 66.652643,135.897982 66.028468,136.728332 65.393948,137.550804 64.749184,138.36527 64.094277,139.171603 63.429329,139.969676 62.754445,140.759363 62.06973,141.540542 61.375291,142.31309 60.671237,143.076886 59.957679,143.83181 59.234728,144.577744 58.502498,145.314571 57.761103,146.042176 57.010659,146.760444 56.251284,147.469264 55.483097,148.168524 54.706219,148.858115 53.92077,149.537928 53.126874,150.207857 52.324656,150.867798 51.514241,151.517646 50.695756,152.1573 49.869328,152.78666 49.035089,153.405627 48.193168,154.014104 47.343697,154.611996 46.48681,155.199209 45.62264,155.775652 44.751323,156.341233 43.872996,156.895865 42.987795,157.43946 42.09586,157.971934 41.197331,158.493202 40.292348,159.003184 39.381053,159.501798 38.463588,159.988968 37.540099,160.464617 36.610728,160.928671 35.675622,161.381055 34.734927,161.821701 33.78879,162.250539 32.837361,162.667501 31.880787,163.072522 30.919219,163.465539 29.952807,163.846491 28.981703,164.215317 28.006059,164.571959 27.026028,164.916363 26.041763,165.248474 25.053418,165.568239 24.061148,165.87561 23.065109,166.170537 22.065457,166.452975 21.062348,166.722879 20.05594,166.980206 19.046389,167.224918 18.033855,167.456975 17.018496,167.676341 16.000471,167.882981 14.979939,168.076864 13.957061,168.257958 12.931996,168.426236 11.904905,168.581672 10.87595,168.724239 9.84529,168.853918 8.813088,168.970686 7.779506,169.074527 6.744704,169.165423 5.708847,169.24336 4.672095,169.308326 3.634611,169.360312 2.596557,169.399308 1.558097,169.425308 0.519393,169.43831 -0.519393,169.43831 -1.558097,169.425308 -2.596557,169.399308 -3.634611,169.360312 -4.672095,169.308326 -5.708847,169.24336 -6.744704,169.165423 -7.779506,169.074527 -8.813088,168.970686 -9.84529,168.853918 -10.87595,168.724239 -11.904905,168.581672 -12.931996,168.426236 -13.957061,168.257958 -14.979939,168.076864 -16.000471,167.882981 -17.018496,167.676341 -18.033855,167.456975 -19.046389,167.224918 -20.05594,166.980206 -21.062348,166.722879 -22.065457,166.452975 -23.065109,166.170537 -24.061148,165.87561 -25.053418,165.568239 -26.041763,165.248474 -27.026028,164.916363 -28.006059,164.571959 -28.981703,164.215317 -29.952807,163.846491 -30.919219,163.465539 -31.880787,163.072522 -32.837361,162.667501 -33.78879,162.250539 -34.734927,161.821701 -35.675622,161.381055 -36.610728,160.928671 -37.540099,160.464617 -38.463588,159.988968 -39.381053,159.501798 -40.292348,159.003184 -41.197331,158.493202 -42.09586,157.971934 -42.987795,157.43946 -43.872996,156.895865 -44.751323,156.341233 -45.62264,155.775652 -46.48681,155.199209 -47.343697,154.611996 -48.193168,154.014104 -49.035089,153.405627 -49.869328,152.78666 -50.695756,152.1573 -51.514241,151.517646 -52.324656,150.867798 -53.126874,150.207857 -53.92077,149.537928 -54.706219,148.858115 -55.483097,148.168524 -56.251284,147.469264 -57.010659,146.760444 -57.761103,146.042176 -58.502498,145.314571 -59.234728,144.577744 -59.957679,143.83181 -60.671237,143.076886 -61.375291,142.31309 -62.06973,141.540542 -62.754445,140.759363 -63.429329,139.969676 -64.094277,139.171603 -64.749184,138.36527 -65.393948,137.550804 -66.028468,136.728332 -66.652643,135.897982 -67.266377,135.059886 -67.869574,134.214173 -68.462138,133.360977 -69.043977,132.500432 -69.615001,131.632672 -70.175118,130.757832 -70.724242,129.876051 -71.262287,128.987466 -71.789169,128.092216 -72.304804,127.190443 -72.809112,126.282286 -73.302014,125.367888 -73.783432,124.447393 -74.253293,123.520944 -74.711521,122.588688 -75.158045,121.650769 -75.592795,120.707335 -76.015703,119.758533 -76.426703,118.804513 -76.82573,117.845423 -77.212722,116.881414 -77.587618,115.912638 -77.950359,114.939245 -78.300889,113.961388 -78.639153,112.97922 -78.965098,111.992896 -79.278672,111.002569 -79.579827,110.008395 -79.868515,109.01053 -80.144691,108.00913 -80.408312,107.004352 -80.659337,105.996353 -80.897725,104.985291 -81.123441,103.971324 -81.336448,102.954612 -81.536714,101.935314 -81.724206,100.913589 -81.898896,99.889597 -82.060756,98.863499 -82.20976,97.835456 -82.345886,96.805628 -82.469112,95.774177 -82.579418,94.741265 -82.676788,93.707052 -82.761207,92.671703 -82.83266,91.635378 -82.891137,90.598239 -82.936628,89.56045 -82.969128,88.522173 -82.988629,87.48357 -82.99513,86.444805 -82.988629,85.40604 -82.969128,84.367437 -82.936628,83.32916 -82.891137,82.291371 -82.83266,81.254233 -82.761207,80.217908 -82.676788,79.182558 -82.579418,78.148346 -82.469112,77.115433 -82.345886,76.083983 -82.20976,75.054155 -82.060756,74.026111 -81.898896,73.000013 -81.724206,71.976022 -81.536714,70.954297 -81.336448,69.934998 -81.123441,68.918286 -80.897725,67.90432 -80.659337,66.893258 -80.408312,65.885259 -80.144691,64.88048 -79.868515,63.87908 -79.579827,62.881215 -79.278672,61.887041 -78.965098,60.896715 -78.639153,59.91039 -78.300889,58.928223 -77.950359,57.950366 -77.587618,56.976973 -77.212722,56.008196 -76.82573,55.044187 -76.426703,54.085098 -76.015703,53.131077 -75.592795,52.182276 -75.158045,51.238842 -74.711521,50.300923 -74.253293,49.368666 -73.783432,48.442218 -73.302014,47.521722 -72.809112,46.607325 -72.304804,45.699168 -71.789169,44.797394 -71.262287,43.902144 -70.724242,43.013559 -70.175118,42.131778 -69.615001,41.256939 -69.043977,40.389178 -68.462138,39.528633 -67.869574,38.675437 -67.266377,37.829725 -66.652643,36.991628 -66.028468,36.161279 -65.393948,35.338806 -64.749184,34.52434 -64.094277,33.718007 -63.429329,32.919935 -62.754445,32.130247 -62.06973,31.349068 -61.375291,30.57652 -60.671237,29.812725 -59.957679,29.057801 -59.234728,28.311867 -58.502498,27.575039 -57.761103,26.847435 -57.010659,26.129166 -56.251284,25.420346 -55.483097,24.721086 -54.706219,24.031496 -53.92077,23.351682 -53.126874,22.681753 -52.324656,22.021813 -51.514241,21.371965 -50.695756,20.732311 -49.869328,20.102951 -49.035089,19.483984 -48.193168,18.875506 -47.343697,18.277614 -46.48681,17.690401 -45.62264,17.113958 -44.751323,16.548377 -43.872996,15.993745 -42.987795,15.45015 -42.09586,14.917677 -41.197331,14.396408 -40.292348,13.886427 -39.381053,13.387812 -38.463588,12.900642 -37.540099,12.424993 -36.610728,11.96094 -35.675622,11.508555 -34.734927,11.067909 -33.78879,10.639072 -32.837361,10.22211 -31.880787,9.817088 -30.919219,9.424071 -29.952807,9.04312 -28.981703,8.674294 -28.006059,8.317651 -27.026028,7.973247 -26.041763,7.641137 -25.053418,7.321371 -24.061148,7.014001 -23.065109,6.719073 -22.065457,6.436636 -21.062348,6.166732 -20.05594,5.909404 -19.046389,5.664692 -18.033855,5.432635 -17.018496,5.21327 -16.000471,5.006629 -14.979939,4.812747 -13.957061,4.631652 -12.931996,4.463374 -11.904905,4.307939 -10.87595,4.165371 -9.84529,4.035693 -8.813088,3.918924 -7.779506,3.815084 -6.744704,3.724188 -5.708847,3.646251 -4.672095,3.581284 -3.634611,3.529299 -2.596557,3.490303 -1.558097,3.464302 -0.519393,3.451301 0.519393,3.451301 1.558097,3.464302 2.596557,3.490303 3.634611,3.529299 4.672095,3.581284 5.708847,3.646251 6.744704,3.724188 7.779506,3.815084 8.813088,3.918924 9.84529,4.035693 10.87595,4.165371 11.904905,4.307939 12.931996,4.463374 13.957061,4.631652 14.979939,4.812747 16.000471,5.006629 17.018496,5.21327 18.033855,5.432635 19.046389,5.664692 20.05594,5.909404 21.062348,6.166732 22.065457,6.436636 23.065109,6.719073 24.061148,7.014001 25.053418,7.321371 26.041763,7.641137 27.026028,7.973247 28.006059,8.317651 28.981703,8.674294 29.952807,9.04312 30.919219,9.424071 31.880787,9.817088 32.837361,10.22211 33.78879,10.639072 34.734927,11.067909 35.675622,11.508555 36.610728,11.96094 37.540099,12.424993 38.463588,12.900642 39.381053,13.387812 40.292348,13.886427 41.197331,14.396408 42.09586,14.917677 42.987795,15.45015 43.872996,15.993745 44.751323,16.548377 45.62264,17.113958 46.48681,17.690401 47.343697,18.277614 48.193168,18.875506 49.035089,19.483984 49.869328,20.102951 50.695756,20.732311 51.514241,21.371965 52.324656,22.021813 53.126874,22.681753 53.92077,23.351682 54.706219,24.031496 55.483097,24.721086 56.251284,25.420346 57.010659,26.129166 57.761103,26.847435 58.502498,27.575039 59.234728,28.311867 59.957679,29.057801 60.671237,29.812725 61.375291,30.57652 62.06973,31.349068 62.754445,32.130247 63.429329,32.919935 64.094277,33.718007 64.749184,34.52434 65.393948,35.338806 66.028468,36.161279 66.652643,36.991628 67.266377,37.829725 67.869574,38.675437 68.462138,39.528633 69.043977,40.389178 69.615001,41.256939 70.175118,42.131778 70.724242,43.013559 71.262287,43.902144 71.789169,44.797394 72.304804,45.699168 72.809112,46.607325 73.302014,47.521722 73.783432,48.442218 74.253293,49.368666 74.711521,50.300923 75.158045,51.238842 75.592795,52.182276 76.015703,53.131077 76.426703,54.085098 76.82573,55.044187 77.212722,56.008196 77.587618,56.976973 77.950359,57.950366 78.300889,58.928223 78.639153,59.91039 78.965098,60.896715 79.278672,61.887041 79.579827,62.881215 79.868515,63.87908 80.144691,64.88048 80.408312,65.885259 80.659337,66.893258 80.897725,67.90432 81.123441,68.918286 81.336448,69.934998 81.536714,70.954297 81.724206,71.976022 81.898896,73.000013 82.060756,74.026111 82.20976,75.054155 82.345886,76.083983 82.469112,77.115433 82.579418,78.148346 82.676788,79.182558 82.761207,80.217908 82.83266,81.254233 82.891137,82.291371 82.936628,83.32916 82.969128,84.367437 82.988629,85.40604 82.99513,86.444805 79.342532,86.444805 79.336036,85.429509 79.316548,84.41438 79.284072,83.399583 79.238613,82.385284 79.180178,81.371651 79.108777,80.358848 79.024422,79.347042 78.927126,78.336398 78.816905,77.327082 78.693778,76.319258 78.557765,75.313093 78.408888,74.308751 78.24717,73.306396 78.07264,72.306193 77.885325,71.308305 77.685256,70.312895 77.472465,69.320127 77.246988,68.330164 77.008862,67.343167 76.758126,66.359297 76.494819,65.378717 76.218987,64.401586 75.930673,63.428066 75.629926,62.458314 75.316794,61.49249 74.991328,60.530752 74.653582,59.573257 74.303612,58.620163 73.941474,57.671625 73.567228,56.727799 73.180935,55.78884 72.782658,54.8549 72.372463,53.926133 71.950417,53.002691 71.516588,52.084726 71.071049,51.172387 70.613871,50.265824 70.14513,49.365186 69.664903,48.470619 69.173267,47.582271 68.670305,46.700287 68.156097,45.824811 67.630728,44.955987 67.094285,44.093956 66.546855,43.238861 65.988527,42.390841 65.419394,41.550035 64.839548,40.716581 64.249084,39.890614 63.648099,39.072271 63.036692,38.261686 62.414962,37.458991 61.783011,36.664317 61.140943,35.877795 60.488864,35.099554 59.826879,34.32972 59.155097,33.568421 58.473628,32.81578 57.782584,32.071922 57.082078,31.336967 56.372224,30.611036 55.653139,29.894248 54.924941,29.18672 54.187749,28.488569 53.441683,27.799908 52.686866,27.120851 51.923422,26.451508 51.151474,25.791989 50.371151,25.142402 49.582579,24.502854 48.785888,23.873449 47.981207,23.25429 47.16867,22.645479 46.348409,22.047115 45.520558,21.459297 44.685253,20.88212 43.84263,20.31568 42.992828,19.760068 42.135986,19.215376 41.272244,18.681693 40.401743,18.159107 39.524627,17.647703 38.641038,17.147564 37.751122,16.658773 36.855023,16.18141 35.95289,15.715553 35.044869,15.261278 34.131109,14.818659 33.211761,14.387769 32.286974,13.96868 31.356899,13.561458 30.42169,13.166171 29.481499,12.782884 28.536481,12.411659 27.58679,12.052558 26.632581,11.705638 25.674011,11.370957 24.711236,11.04857 23.744416,10.738529 22.773707,10.440886 21.799268,10.155688 20.82126,9.882983 19.839843,9.622815 18.855176,9.375228 17.867422,9.14026 16.876742,8.917952 15.883299,8.708338 14.887254,8.511455 13.888772,8.327333 12.888015,8.156003 11.885148,7.997494 10.880335,7.85183 9.87374,7.719036 8.865528,7.599134 7.855864,7.492143 6.844914,7.398081 5.832843,7.316963 4.819817,7.248803 3.806002,7.193611 2.791563,7.151397 1.776668,7.122167 0.761481,7.105927 -0.25383,7.102679 -1.2691,7.112423 -2.284162,7.135158 -3.29885,7.170881 -4.312998,7.219585 -5.326439,7.281262 -6.339009,7.355903 -7.35054,7.443495 -8.360867,7.544023 -9.369826,7.657472 -10.37725,7.783823 -11.382975,7.923054 -12.386835,8.075144 -13.388668,8.240067 -14.388308,8.417797 -15.385591,8.608303 -16.380356,8.811556 -17.372438,9.027521 -18.361675,9.256164 -19.347905,9.497446 -20.330968,9.751329 -21.3107,10.017771 -22.286944,10.296728 -23.259537,10.588155 -24.228322,10.892003 -25.193139,11.208224 -26.153831,11.536764 -27.11024,11.877571 -28.06221,12.230589 -29.009584,12.59576 -29.952208,12.973024 -30.889927,13.362318 -31.822588,13.763581 -32.750038,14.176745 -33.672124,14.601744 -34.588697,15.038507 -35.499606,15.486963 -36.404702,15.947038 -37.303836,16.418658 -38.196862,16.901745 -39.083632,17.39622 -39.964003,17.902002 -40.837829,18.419008 -41.704969,18.947153 -42.565278,19.486351 -43.418618,20.036514 -44.264847,20.597552 -45.103828,21.169372 -45.935424,21.751882 -46.759497,22.344985 -47.575913,22.948585 -48.384538,23.562582 -49.18524,24.186877 -49.977888,24.821367 -50.762352,25.465947 -51.538503,26.120513 -52.306215,26.784958 -53.065361,27.459172 -53.815818,28.143045 -54.557462,28.836465 -55.290172,29.539319 -56.013828,30.251491 -56.728312,30.972866 -57.433506,31.703324 -58.129296,32.442746 -58.815566,33.191011 -59.492205,33.947996 -60.159102,34.713578 -60.816148,35.487631 -61.463235,36.270029 -62.100258,37.060643 -62.727111,37.859344 -63.343692,38.666001 -63.9499,39.480482 -64.545637,40.302653 -65.130804,41.13238 -65.705305,41.969528 -66.269047,42.813958 -66.821938,43.665533 -67.363885,44.524113 -67.894802,45.389558 -68.414601,46.261726 -68.923197,47.140474 -69.420506,48.025659 -69.906447,48.917134 -70.380941,49.814755 -70.84391,50.718374 -71.295278,51.627844 -71.734971,52.543015 -72.162917,53.463737 -72.579046,54.38986 -72.983291,55.321233 -73.375583,56.257702 -73.755861,57.199114 -74.12406,58.145315 -74.480122,59.09615 -74.823987,60.051464 -75.155599,61.0111 -75.474905,61.974901 -75.781851,62.942709 -76.076387,63.914365 -76.358466,64.889711 -76.628041,65.868586 -76.885068,66.850831 -77.129504,67.836284 -77.36131,68.824785 -77.580448,69.816171 -77.786882,70.81028 -77.980579,71.806949 -78.161505,72.806015 -78.329632,73.807315 -78.484933,74.810684 -78.627381,75.815958 -78.756954,76.822973 -78.87363,77.831563 -78.97739,78.841564 -79.068218,79.85281 -79.146097,80.865135 -79.211017,81.878374 -79.262965,82.892361 -79.301933,83.906929 -79.327916,84.921913 -79.340908,85.937147 -79.340908,86.952463 -79.327916,87.967697 -79.301933,88.982681 -79.262965,89.997249 -79.211017,91.011236 -79.146097,92.024475 -79.068218,93.0368 -78.97739,94.048046 -78.87363,95.058047 -78.756954,96.066637 -78.627381,97.073652 -78.484933,98.078926 -78.329632,99.082295 -78.161505,100.083595 -77.980579,101.082661 -77.786882,102.07933 -77.580448,103.073439 -77.36131,104.064825 -77.129504,105.053326 -76.885068,106.03878 -76.628041,107.021024 -76.358466,107.9999 -76.076387,108.975246 -75.781851,109.946902 -75.474905,110.91471 -75.155599,111.87851 -74.823987,112.838146 -74.480122,113.79346 -74.12406,114.744295 -73.755861,115.690497 -73.375583,116.631909 -72.983291,117.568378 -72.579046,118.49975 -72.162917,119.425873 -71.734971,120.346596 -71.295278,121.261767 -70.84391,122.171236 -70.380941,123.074855 -69.906447,123.972476 -69.420506,124.863952 -68.923197,125.749136 -68.414601,126.627884 -67.894802,127.500052 -67.363885,128.365497 -66.821938,129.224077 -66.269047,130.075652 -65.705305,130.920083 -65.130804,131.75723 -64.545637,132.586957 -63.9499,133.409129 -63.343692,134.22361 -62.727111,135.030266 -62.100258,135.828967 -61.463235,136.619581 -60.816148,137.401979 -60.159102,138.176032 -59.492205,138.941614 -58.815566,139.6986 -58.129296,140.446865 -57.433506,141.186287 -56.728312,141.916745 -56.013828,142.638119 -55.290172,143.350291 -54.557462,144.053145 -53.815818,144.746565 -53.065361,145.430438 -52.306215,146.104652 -51.538503,146.769097 -50.762352,147.423663 -49.977888,148.068244 -49.18524,148.702733 -48.384538,149.327028 -47.575913,149.941026 -46.759497,150.544625 -45.935424,151.137728 -45.103828,151.720238 -44.264847,152.292058 -43.418618,152.853096 -42.565278,153.403259 -41.704969,153.942457 -40.837829,154.470603 -39.964003,154.987609 -39.083632,155.493391 -38.196862,155.987865 -37.303836,156.470952 -36.404702,156.942572 -35.499606,157.402648 -34.588697,157.851104 -33.672124,158.287867 -32.750038,158.712865 -31.822588,159.126029 -30.889927,159.527292 -29.952208,159.916587 -29.009584,160.293851 -28.06221,160.659021 -27.11024,161.012039 -26.153831,161.352846 -25.193139,161.681387 -24.228322,161.997607 -23.259537,162.301455 -22.286944,162.592882 -21.3107,162.871839 -20.330968,163.138281 -19.347905,163.392164 -18.361675,163.633447 -17.372438,163.862089 -16.380356,164.078055 -15.385591,164.281307 -14.388308,164.471814 -13.388668,164.649543 -12.386835,164.814466 -11.382975,164.966556 -10.37725,165.105788 -9.369826,165.232138 -8.360867,165.345587 -7.35054,165.446115 -6.339009,165.533707 -5.326439,165.608348 -4.312998,165.670025 -3.29885,165.718729 -2.284162,165.754452 -1.2691,165.777187 -0.25383,165.786932 0.761481,165.783683 1.776668,165.767443 2.791563,165.738214 3.806002,165.696 4.819817,165.640808 5.832843,165.572647 6.844914,165.491529 7.855864,165.397467 8.865528,165.290476 9.87374,165.170574 10.880335,165.037781 11.885148,164.892117 12.888015,164.733607 13.888772,164.562277 14.887254,164.378156 15.883299,164.181272 16.876742,163.971659 17.867422,163.74935 18.855176,163.514383 19.839843,163.266795 20.82126,163.006627 21.799268,162.733922 22.773707,162.448724 23.744416,162.151081 24.711236,161.84104 25.674011,161.518653 26.632581,161.183972 27.58679,160.837053 28.536481,160.477951 29.481499,160.106726 30.42169,159.723439 31.356899,159.328153 32.286974,158.920931 33.211761,158.501841 34.131109,158.070951 35.044869,157.628333 35.95289,157.174058 36.855023,156.7082 37.751122,156.230837 38.641038,155.742046 39.524627,155.241908 40.401743,154.730504 41.272244,154.207917 42.135986,153.674234 42.992828,153.129543 43.84263,152.573931 44.685253,152.00749 45.520558,151.430313 46.348409,150.842495 47.16867,150.244131 47.981207,149.63532 48.785888,149.016162 49.582579,148.386757 50.371151,147.747208 51.151474,147.097622 51.923422,146.438103 52.686866,145.76876 53.441683,145.089702 54.187749,144.401041 54.924941,143.70289 55.653139,142.995363 56.372224,142.278575 57.082078,141.552644 57.782584,140.817689 58.473628,140.07383 59.155097,139.321189 59.826879,138.55989 60.488864,137.790057 61.140943,137.011815 61.783011,136.225293 62.414962,135.43062 63.036692,134.627924 63.648099,133.817339 64.249084,132.998996 64.839548,132.17303 65.419394,131.339575 65.988527,130.498769 66.546855,129.650749 67.094285,128.795654 67.630728,127.933624 68.156097,127.064799 68.670305,126.189324 69.173267,125.307339 69.664903,124.418991 70.14513,123.524425 70.613871,122.623786 71.071049,121.717223 71.516588,120.804884 71.950417,119.886919 72.372463,118.963477 72.782658,118.03471 73.180935,117.100771 73.567228,116.161811 73.941474,115.217985 74.303612,114.269447 74.653582,113.316353 74.991328,112.358859 75.316794,111.397121 75.629926,110.431297 75.930673,109.461545 76.218987,108.488024 76.494819,107.510893 76.758126,106.530313 77.008862,105.546444 77.246988,104.559447 77.472465,103.569483 77.685256,102.576715 77.885325,101.581306 78.07264,100.583417 78.24717,99.583214 78.408888,98.580859 78.557765,97.576517 78.693778,96.570352 78.816905,95.562529 78.927126,94.553213 79.024422,93.542569 79.108777,92.530762 79.180178,91.51796 79.238613,90.504326 79.284072,89.490028 79.316548,88.47523 79.336036,87.460101 79.342532,86.444805"/>
<polygon id="0000022F9E8774F0" class="l0d0" points="-81.168831,-1.826299 81.168831,-1.826299 81.168831,1.826299 -81.168831,1.826299"/>
</g>
<g id="Grating_Coupler">
<polygon id="0000022F9E877800" class="l0d0" points="-136.501623,-63.392857 -136.964286,-62.426948 -137.418831,-61.469156 -137.86526,-60.49513 -138.295455,-59.521104 -138.733766,-58.547078 -139.155844,-57.573052 -139.569805,-56.582792 -139.975649,-55.600649 -140.381494,-54.618506 -140.779221,-53.628247 -141.168831,-52.62987 -141.542208,-51.63961 -141.923701,-50.641234 -142.288961,-49.63474 -142.637987,-48.636364 -142.99513,-47.621753 -143.336039,-46.61526 -143.676948,-45.600649 -144.001623,-44.594156 -144.326299,-43.571429 -144.63474,-42.556818 -144.943182,-41.534091 -145.243506,-40.511364 -145.535714,-39.488636 -145.819805,-38.457792 -146.095779,-37.426948 -146.363636,-36.396104 -146.631494,-35.36526 -146.883117,-34.326299 -147.13474,-33.295455 -147.37013,-32.248377 -147.605519,-31.209416 -147.824675,-30.170455 -148.043831,-29.123377 -148.25487,-28.076299 -148.449675,-27.029221 -148.644481,-25.982143 -148.831169,-24.935065 -149.00974,-23.87987 -149.180195,-22.832792 -149.342532,-21.777597 -149.496753,-20.722403 -149.642857,-19.667208 -149.788961,-18.612013 -149.918831,-17.548701 -150.040584,-16.493506 -150.154221,-15.430195 -150.267857,-14.375 -150.36526,-13.311688 -150.454545,-12.248377 -150.543831,-11.185065 -150.625,-10.121753 -150.689935,-9.058442 -150.75487,-7.99513 -150.811688,-6.923701 -150.86039,-5.86039 -150.892857,-4.797078 -150.925325,-3.733766 -150.949675,-2.662338 -150.965909,-1.599026 -150.974026,-0.527597 -150.974026,0.527597 -150.965909,1.599026 -150.949675,2.662338 -150.925325,3.733766 -150.892857,4.797078 -150.86039,5.86039 -150.811688,6.923701 -150.75487,7.99513 -150.689935,9.058442 -150.625,10.121753 -150.543831,11.185065 -150.454545,12.248377 -150.36526,13.311688 -150.267857,14.375 -150.154221,15.430195 -150.040584,16.493506 -149.918831,17.548701 -149.788961,18.612013 -149.642857,19.667208 -149.496753,20.722403 -149.342532,21.777597 -149.180195,22.832792 -149.00974,23.87987 -148.831169,24.935065 -148.644481,25.982143 -148.449675,27.029221 -148.25487,28.076299 -148.043831,29.123377 -147.824675,30.170455 -147.605519,31.209416 -147.37013,32.248377 -147.13474,33.295455 -146.883117,34.326299 -146.631494,35.36526 -146.363636,36.396104 -146.095779,37.426948 -145.819805,38.457792 -145.535714,39.488636 -145.243506,40.511364 -144.943182,41.534091 -144.63474,42.556818 -144.326299,43.571429 -144.001623,44.594156 -143.676948,45.600649 -143.336039,46.61526 -142.99513,47.621753 -142.637987,48.636364 -142.288961,49.63474 -141.923701,50.641234 -141.542208,51.63961 -141.168831,52.62987 -140.779221,53.628247 -140.381494,54.618506 -139.975649,55.600649 -139.569805,56.582792 -139.155844,57.573052 -138.733766,58.547078 -138.295455,59.521104 -137.86526,60.49513 -137.418831,61.469156 -136.964286,62.426948 -136.501623,63.392857 -4.87013,1.826299 -4.87013,-1.826299"/>
<polygon id="0000022F9E877170" class="l0d0" points="-4.87013,-1.826299 -4.87013,1.826299 0,1.826299 0,-1.826299"/>
<polygon id="0000022F9E877560" class="l0d0" points="-1.063312,-0.194805 -1.063312,-0.194805 -1.038961,-0.194805 -1.038961,-0.194805"/>
<polygon id="0000022F9E876AE0" class="l2d0" points="-123.344156,-57.053571 -123.774351,-56.144481 -124.204545,-55.227273 -124.618506,-54.310065 -125.032468,-53.392857 -125.446429,-52.467532 -125.836039,-51.542208 -126.233766,-50.608766 -126.61526,-49.683442 -126.996753,-48.741883 -127.362013,-47.808442 -127.727273,-46.866883 -128.084416,-45.917208 -128.433442,-44.975649 -128.774351,-44.025974 -129.107143,-43.068182 -129.431818,-42.118506 -129.756494,-41.160714 -130.064935,-40.202922 -130.373377,-39.237013 -130.673701,-38.271104 -130.957792,-37.313312 -131.241883,-36.339286 -131.517857,-35.373377 -131.785714,-34.399351 -132.045455,-33.425325 -132.297078,-32.443182 -132.540584,-31.469156 -132.775974,-30.487013 -133.011364,-29.50487 -133.230519,-28.522727 -133.449675,-27.532468 -133.652597,-26.550325 -133.855519,-25.560065 -134.042208,-24.569805 -134.228896,-23.579545 -134.407468,-22.581169 -134.577922,-21.590909 -134.74026,-20.592532 -134.894481,-19.594156 -135.040584,-18.595779 -135.178571,-17.597403 -135.308442,-16.599026 -135.430195,-15.600649 -135.551948,-14.594156 -135.657468,-13.595779 -135.762987,-12.589286 -135.852273,-11.582792 -135.933442,-10.584416 -136.01461,-9.577922 -136.087662,-8.563312 -136.144481,-7.564935 -136.201299,-6.558442 -136.25,-5.543831 -136.282468,-4.537338 -136.314935,-3.530844 -136.339286,-2.524351 -136.355519,-1.517857 -136.363636,-0.503247 -136.363636,0.503247 -136.355519,1.517857 -136.339286,2.524351 -136.314935,3.530844 -136.282468,4.537338 -136.25,5.543831 -136.201299,6.558442 -136.144481,7.564935 -136.087662,8.563312 -136.01461,9.577922 -135.933442,10.584416 -135.852273,11.582792 -135.762987,12.589286 -135.657468,13.595779 -135.551948,14.594156 -135.430195,15.600649 -135.308442,16.599026 -135.178571,17.597403 -135.040584,18.595779 -134.894481,19.594156 -134.74026,20.592532 -134.577922,21.590909 -134.407468,22.581169 -134.228896,23.579545 -134.042208,24.569805 -133.855519,25.560065 -133.652597,26.550325 -133.449675,27.532468 -133.230519,28.522727 -133.011364,29.50487 -132.775974,30.487013 -132.540584,31.469156 -132.297078,32.443182 -132.045455,33.425325 -131.785714,34.399351 -131.517857,35.373377 -131.241883,36.339286 -130.957792,37.313312 -130.673701,38.271104 -130.373377,39.237013 -130.064935,40.202922 -129.756494,41.160714 -129.431818,42.118506 -129.107143,43.068182 -128.774351,44.025974 -128.433442,44.975649 -128.084416,45.917208 -127.727273,46.866883 -127.362013,47.808442 -126.996753,48.741883 -126.61526,49.683442 -126.233766,50.608766 -125.836039,51.542208 -125.446429,52.467532 -125.032468,53.392857 -124.618506,54.310065 -124.204545,55.227273 -123.774351,56.144481 -123.344156,57.053571 -121.152597,55.998377 -121.574675,55.097403 -122.00487,54.188312 -122.418831,53.287338 -122.824675,52.37013 -123.230519,51.461039 -123.62013,50.535714 -124.00974,49.618506 -124.391234,48.693182 -124.76461,47.767857 -125.12987,46.842532 -125.487013,45.909091 -125.836039,44.975649 -126.185065,44.034091 -126.517857,43.092532 -126.850649,42.159091 -127.175325,41.209416 -127.491883,40.25974 -127.800325,39.310065 -128.092532,38.36039 -128.392857,37.402597 -128.676948,36.444805 -128.952922,35.487013 -129.220779,34.529221 -129.488636,33.563312 -129.748377,32.597403 -129.991883,31.631494 -130.23539,30.665584 -130.462662,29.691558 -130.698052,28.717532 -130.909091,27.743506 -131.12013,26.769481 -131.331169,25.795455 -131.525974,24.805195 -131.704545,23.831169 -131.891234,22.849026 -132.061688,21.858766 -132.232143,20.876623 -132.386364,19.894481 -132.532468,18.904221 -132.678571,17.913961 -132.816558,16.931818 -132.938312,15.933442 -133.060065,14.943182 -133.173701,13.952922 -133.279221,12.962662 -133.376623,11.964286 -133.457792,10.974026 -133.547078,9.975649 -133.62013,8.977273 -133.676948,7.978896 -133.741883,6.988636 -133.790584,5.99026 -133.831169,4.991883 -133.863636,3.993506 -133.896104,2.99513 -133.912338,1.996753 -133.920455,0.998377 -133.928571,0 -133.920455,-0.998377 -133.912338,-1.996753 -133.896104,-2.99513 -133.863636,-3.993506 -133.831169,-4.991883 -133.790584,-5.99026 -133.741883,-6.988636 -133.676948,-7.978896 -133.62013,-8.977273 -133.547078,-9.975649 -133.457792,-10.974026 -133.376623,-11.964286 -133.279221,-12.962662 -133.173701,-13.952922 -133.060065,-14.943182 -132.938312,-15.933442 -132.816558,-16.931818 -132.678571,-17.913961 -132.532468,-18.904221 -132.386364,-19.894481 -132.232143,-20.876623 -132.061688,-21.858766 -131.891234,-22.849026 -131.704545,-23.831169 -131.525974,-24.805195 -131.331169,-25.795455 -131.12013,-26.769481 -130.909091,-27.743506 -130.698052,-28.717532 -130.462662,-29.691558 -130.23539,-30.665584 -129.991883,-31.631494 -129.748377,-32.597403 -129.488636,-33.563312 -129.220779,-34.529221 -128.952922,-35.487013 -128.676948,-36.444805 -128.392857,-37.402597 -128.092532,-38.36039 -127.800325,-39.310065 -127.491883,-40.25974 -127.175325,-41.209416 -126.850649,-42.159091 -126.517857,-43.092532 -126.185065,-44.034091 -125.836039,-44.975649 -125.487013,-45.909091 -125.12987,-46.842532 -124.76461,-47.767857 -124.391234,-48.693182 -124.00974,-49.618506 -123.62013,-50.535714 -123.230519,-51.461039 -122.824675,-52.37013 -122.418831,-53.287338 -122.00487,-54.188312 -121.574675,-55.097403 -121.152597,-55.998377"/>
<polygon id="0000022F9E876CA0" class="l2d0" points="-118.952922,-54.943182 -119.383117,-54.042208 -119.805195,-53.141234 -120.219156,-52.232143 -120.625,-51.323052 -121.030844,-50.405844 -121.420455,-49.488636 -121.810065,-48.571429 -122.183442,-47.646104 -122.556818,-46.720779 -122.922078,-45.795455 -123.279221,-44.862013 -123.628247,-43.936688 -123.969156,-42.99513 -124.301948,-42.061688 -124.63474,-41.112013 -124.951299,-40.170455 -125.267857,-39.220779 -125.568182,-38.271104 -125.868506,-37.321429 -126.152597,-36.371753 -126.436688,-35.413961 -126.712662,-34.456169 -126.980519,-33.49026 -127.24026,-32.532468 -127.491883,-31.566558 -127.73539,-30.600649 -127.978896,-29.63474 -128.206169,-28.660714 -128.433442,-27.694805 -128.644481,-26.720779 -128.847403,-25.738636 -129.050325,-24.76461 -129.237013,-23.782468 -129.423701,-22.808442 -129.602273,-21.826299 -129.76461,-20.836039 -129.926948,-19.853896 -130.081169,-18.871753 -130.219156,-17.88961 -130.357143,-16.899351 -130.487013,-15.909091 -130.608766,-14.918831 -130.722403,-13.928571 -130.827922,-12.938312 -130.925325,-11.948052 -131.022727,-10.949675 -131.095779,-9.959416 -131.176948,-8.969156 -131.241883,-7.970779 -131.306818,-6.972403 -131.355519,-5.982143 -131.396104,-4.983766 -131.428571,-3.98539 -131.461039,-2.987013 -131.477273,-1.988636 -131.48539,-0.998377 -131.493506,0 -131.48539,0.998377 -131.477273,1.988636 -131.461039,2.987013 -131.428571,3.98539 -131.396104,4.983766 -131.355519,5.982143 -131.306818,6.972403 -131.241883,7.970779 -131.176948,8.969156 -131.095779,9.959416 -131.022727,10.949675 -130.925325,11.948052 -130.827922,12.938312 -130.722403,13.928571 -130.608766,14.918831 -130.487013,15.909091 -130.357143,16.899351 -130.219156,17.88961 -130.081169,18.871753 -129.926948,19.853896 -129.76461,20.836039 -129.602273,21.826299 -129.423701,22.808442 -129.237013,23.782468 -129.050325,24.76461 -128.847403,25.738636 -128.644481,26.720779 -128.433442,27.694805 -128.206169,28.660714 -127.978896,29.63474 -127.73539,30.600649 -127.491883,31.566558 -127.24026,32.532468 -126.980519,33.49026 -126.712662,34.456169 -126.436688,35.413961 -126.152597,36.371753 -125.868506,37.321429 -125.568182,38.271104 -125.267857,39.220779 -124.951299,40.170455 -124.63474,41.112013 -124.301948,42.061688 -123.969156,42.99513 -123.628247,43.936688 -123.279221,44.862013 -122.922078,45.795455 -122.556818,46.720779 -122.183442,47.646104 -121.810065,48.571429 -121.420455,49.488636 -121.030844,50.405844 -120.625,51.323052 -120.219156,52.232143 -119.805195,53.141234 -119.383117,54.042208 -118.952922,54.943182 -116.761364,53.87987 -117.183442,52.99513 -117.605519,52.102273 -118.011364,51.201299 -118.417208,50.300325 -118.814935,49.399351 -119.204545,48.49026 -119.577922,47.581169 -119.959416,46.672078 -120.324675,45.75487 -120.681818,44.837662 -121.038961,43.912338 -121.37987,42.987013 -121.720779,42.061688 -122.053571,41.136364 -122.37013,40.202922 -122.686688,39.269481 -122.99513,38.327922 -123.295455,37.386364 -123.587662,36.444805 -123.87987,35.503247 -124.155844,34.561688 -124.423701,33.612013 -124.683442,32.662338 -124.943182,31.704545 -125.194805,30.746753 -125.430195,29.797078 -125.665584,28.839286 -125.88474,27.873377 -126.103896,26.915584 -126.314935,25.949675 -126.517857,24.983766 -126.712662,24.017857 -126.899351,23.043831 -127.077922,22.077922 -127.248377,21.103896 -127.418831,20.12987 -127.573052,19.155844 -127.719156,18.181818 -127.857143,17.207792 -127.99513,16.233766 -128.116883,15.251623 -128.238636,14.277597 -128.344156,13.287338 -128.441558,12.313312 -128.538961,11.331169 -128.628247,10.340909 -128.701299,9.358766 -128.774351,8.376623 -128.839286,7.394481 -128.896104,6.412338 -128.944805,5.422078 -128.977273,4.439935 -129.00974,3.449675 -129.034091,2.467532 -129.050325,1.477273 -129.058442,0.49513 -129.058442,-0.49513 -129.050325,-1.477273 -129.034091,-2.467532 -129.00974,-3.449675 -128.977273,-4.439935 -128.944805,-5.422078 -128.896104,-6.412338 -128.839286,-7.394481 -128.774351,-8.376623 -128.701299,-9.358766 -128.628247,-10.340909 -128.538961,-11.331169 -128.441558,-12.313312 -128.344156,-13.287338 -128.238636,-14.277597 -128.116883,-15.251623 -127.99513,-16.233766 -127.857143,-17.207792 -127.719156,-18.181818 -127.573052,-19.155844 -127.418831,-20.12987 -127.248377,-21.103896 -127.077922,-22.077922 -126.899351,-23.043831 -126.712662,-24.017857 -126.517857,-24.983766 -126.314935,-25.949675 -126.103896,-26.915584 -125.88474,-27.873377 -125.665584,-28.839286 -125.430195,-29.797078 -125.194805,-30.746753 -124.943182,-31.704545 -124.683442,-32.662338 -124.423701,-33.612013 -124.155844,-34.561688 -123.87987,-35.503247 -123.587662,-36.444805 -123.295455,-37.386364 -122.99513,-38.327922 -122.686688,-39.269481 -122.37013,-40.202922 -122.053571,-41.136364 -121.720779,-42.061688 -121.37987,-42.987013 -121.038961,-43.912338 -120.681818,-44.837662 -120.324675,-45.75487 -119.959416,-46.672078 -119.577922,-47.581169 -119.204545,-48.49026 -118.814935,-49.399351 -118.417208,-50.300325 -118.011364,-51.201299 -117.605519,-52.102273 -117.183442,-52.99513 -116.761364,-53.87987"/>
<polygon id="0000022F9E877250" class="l2d0" points="-114.561688,-52.824675 -114.983766,-51.948052 -115.397727,-51.063312 -115.803571,-50.170455 -116.201299,-49.285714 -116.599026,-48.392857 -116.980519,-47.491883 -117.353896,-46.590909 -117.727273,-45.689935 -118.084416,-44.788961 -118.441558,-43.871753 -118.790584,-42.962662 -119.131494,-42.045455 -119.464286,-41.136364 -119.788961,-40.211039 -120.105519,-39.293831 -120.422078,-38.368506 -120.722403,-37.435065 -121.022727,-36.50974 -121.306818,-35.576299 -121.590909,-34.642857 -121.866883,-33.709416 -122.13474,-32.767857 -122.394481,-31.826299 -122.637987,-30.88474 -122.881494,-29.935065 -123.125,-28.993506 -123.352273,-28.043831 -123.571429,-27.094156 -123.782468,-26.144481 -123.98539,-25.186688 -124.188312,-24.228896 -124.375,-23.271104 -124.561688,-22.313312 -124.732143,-21.355519 -124.902597,-20.397727 -125.064935,-19.431818 -125.219156,-18.465909 -125.357143,-17.5 -125.49513,-16.542208 -125.625,-15.568182 -125.746753,-14.602273 -125.86039,-13.628247 -125.957792,-12.662338 -126.055195,-11.696429 -126.152597,-10.722403 -126.233766,-9.748377 -126.306818,-8.774351 -126.371753,-7.800325 -126.436688,-6.826299 -126.48539,-5.852273 -126.525974,-4.878247 -126.558442,-3.904221 -126.590909,-2.930195 -126.607143,-1.956169 -126.61526,-0.974026 -126.623377,0 -126.61526,0.974026 -126.607143,1.956169 -126.590909,2.930195 -126.558442,3.904221 -126.525974,4.878247 -126.48539,5.852273 -126.436688,6.826299 -126.371753,7.800325 -126.306818,8.774351 -126.233766,9.748377 -126.152597,10.722403 -126.055195,11.696429 -125.957792,12.662338 -125.86039,13.628247 -125.746753,14.602273 -125.625,15.568182 -125.49513,16.542208 -125.357143,17.5 -125.219156,18.465909 -125.064935,19.431818 -124.902597,20.397727 -124.732143,21.355519 -124.561688,22.313312 -124.375,23.271104 -124.188312,24.228896 -123.98539,25.186688 -123.782468,26.144481 -123.571429,27.094156 -123.352273,28.043831 -123.125,28.993506 -122.881494,29.935065 -122.637987,30.88474 -122.394481,31.826299 -122.13474,32.767857 -121.866883,33.709416 -121.590909,34.642857 -121.306818,35.576299 -121.022727,36.50974 -120.722403,37.435065 -120.422078,38.368506 -120.105519,39.293831 -119.788961,40.211039 -119.464286,41.136364 -119.131494,42.045455 -118.790584,42.962662 -118.441558,43.871753 -118.084416,44.788961 -117.727273,45.689935 -117.353896,46.590909 -116.980519,47.491883 -116.599026,48.392857 -116.201299,49.285714 -115.803571,50.170455 -115.397727,51.063312 -114.983766,51.948052 -114.561688,52.824675 -112.37013,51.769481 -112.784091,50.900974 -113.198052,50.024351 -113.595779,49.147727 -113.993506,48.271104 -114.375,47.378247 -114.756494,46.493506 -115.12987,45.600649 -115.49513,44.715909 -115.852273,43.814935 -116.201299,42.913961 -116.550325,42.012987 -116.883117,41.112013 -117.207792,40.202922 -117.532468,39.293831 -117.849026,38.38474 -118.157468,37.467532 -118.449675,36.550325 -118.741883,35.633117 -119.034091,34.707792 -119.301948,33.782468 -119.577922,32.857143 -119.837662,31.931818 -120.089286,30.998377 -120.332792,30.064935 -120.576299,29.131494 -120.811688,28.189935 -121.030844,27.256494 -121.25,26.314935 -121.461039,25.373377 -121.663961,24.431818 -121.858766,23.482143 -122.037338,22.540584 -122.224026,21.590909 -122.394481,20.641234 -122.548701,19.691558 -122.711039,18.733766 -122.857143,17.784091 -122.99513,16.834416 -123.125,15.868506 -123.25487,14.918831 -123.368506,13.961039 -123.474026,12.99513 -123.579545,12.037338 -123.668831,11.079545 -123.758117,10.121753 -123.839286,9.155844 -123.904221,8.198052 -123.969156,7.232143 -124.025974,6.266234 -124.074675,5.300325 -124.107143,4.342532 -124.13961,3.376623 -124.163961,2.410714 -124.180195,1.444805 -124.188312,0.478896 -124.188312,-0.478896 -124.180195,-1.444805 -124.163961,-2.410714 -124.13961,-3.376623 -124.107143,-4.342532 -124.074675,-5.300325 -124.025974,-6.266234 -123.969156,-7.232143 -123.904221,-8.198052 -123.839286,-9.155844 -123.758117,-10.121753 -123.668831,-11.079545 -123.579545,-12.037338 -123.474026,-12.99513 -123.368506,-13.961039 -123.25487,-14.918831 -123.125,-15.868506 -122.99513,-16.834416 -122.857143,-17.784091 -122.711039,-18.733766 -122.548701,-19.691558 -122.394481,-20.641234 -122.224026,-21.590909 -122.037338,-22.540584 -121.858766,-23.482143 -121.663961,-24.431818 -121.461039,-25.373377 -121.25,-26.314935 -121.030844,-27.256494 -120.811688,-28.189935 -120.576299,-29.131494 -120.332792,-30.064935 -120.089286,-30.998377 -119.837662,-31.931818 -119.577922,-32.857143 -119.301948,-33.782468 -119.034091,-34.707792 -118.741883,-35.633117 -118.449675,-36.550325 -118.157468,-37.467532 -117.849026,-38.38474 -117.532468,-39.293831 -117.207792,-40.202922 -116.883117,-41.112013 -116.550325,-42.012987 -116.201299,-42.913961 -115.852273,-43.814935 -115.49513,-44.715909 -115.12987,-45.600649 -114.756494,-46.493506 -114.375,-47.378247 -113.993506,-48.271104 -113.595779,-49.147727 -113.198052,-50.024351 -112.784091,-50.900974 -112.37013,-51.769481"/>
<polygon id="0000022F9E8776B0" class="l2d0" points="-110.178571,-50.714286 -110.592532,-49.853896 -110.99026,-48.98539 -111.387987,-48.125 -111.777597,-47.248377 -112.159091,-46.37987 -112.532468,-45.49513 -112.897727,-44.618506 -113.262987,-43.733766 -113.612013,-42.849026 -113.961039,-41.964286 -114.301948,-41.071429 -114.63474,-40.170455 -114.951299,-39.277597 -115.267857,-38.376623 -115.584416,-37.475649 -115.88474,-36.566558 -116.176948,-35.665584 -116.461039,-34.756494 -116.74513,-33.839286 -117.021104,-32.930195 -117.280844,-32.012987 -117.540584,-31.095779 -117.792208,-30.178571 -118.035714,-29.253247 -118.262987,-28.327922 -118.498377,-27.402597 -118.717532,-26.477273 -118.928571,-25.543831 -119.131494,-24.61039 -119.326299,-23.676948 -119.521104,-22.743506 -119.699675,-21.810065 -119.87013,-20.868506 -120.040584,-19.935065 -120.202922,-18.98539 -120.349026,-18.051948 -120.49513,-17.102273 -120.625,-16.160714 -120.762987,-15.219156 -120.876623,-14.269481 -120.99026,-13.327922 -121.095779,-12.378247 -121.193182,-11.428571 -121.282468,-10.478896 -121.363636,-9.529221 -121.436688,-8.579545 -121.501623,-7.62987 -121.566558,-6.672078 -121.61526,-5.722403 -121.655844,-4.76461 -121.688312,-3.814935 -121.720779,-2.857143 -121.737013,-1.907468 -121.74513,-0.957792 -121.753247,0 -121.74513,0.957792 -121.737013,1.907468 -121.720779,2.857143 -121.688312,3.814935 -121.655844,4.76461 -121.61526,5.722403 -121.566558,6.672078 -121.501623,7.62987 -121.436688,8.579545 -121.363636,9.529221 -121.282468,10.478896 -121.193182,11.428571 -121.095779,12.378247 -120.99026,13.327922 -120.876623,14.269481 -120.762987,15.219156 -120.625,16.160714 -120.49513,17.102273 -120.349026,18.051948 -120.202922,18.98539 -120.040584,19.935065 -119.87013,20.868506 -119.699675,21.810065 -119.521104,22.743506 -119.326299,23.676948 -119.131494,24.61039 -118.928571,25.543831 -118.717532,26.477273 -118.498377,27.402597 -118.262987,28.327922 -118.035714,29.253247 -117.792208,30.178571 -117.540584,31.095779 -117.280844,32.012987 -117.021104,32.930195 -116.74513,33.839286 -116.461039,34.756494 -116.176948,35.665584 -115.88474,36.566558 -115.584416,37.475649 -115.267857,38.376623 -114.951299,39.277597 -114.63474,40.170455 -114.301948,41.071429 -113.961039,41.964286 -113.612013,42.849026 -113.262987,43.733766 -112.897727,44.618506 -112.532468,45.49513 -112.159091,46.37987 -111.777597,47.248377 -111.387987,48.125 -110.99026,48.98539 -110.592532,49.853896 -110.178571,50.714286 -107.987013,49.659091 -108.392857,48.806818 -108.790584,47.954545 -109.180195,47.094156 -109.561688,46.233766 -109.943182,45.373377 -110.316558,44.50487 -110.673701,43.636364 -111.030844,42.75974 -111.37987,41.891234 -111.720779,41.006494 -112.053571,40.121753 -112.378247,39.24513 -112.702922,38.36039 -113.011364,37.467532 -113.319805,36.574675 -113.612013,35.681818 -113.904221,34.780844 -114.188312,33.887987 -114.464286,32.978896 -114.732143,32.077922 -114.991883,31.176948 -115.243506,30.267857 -115.487013,29.358766 -115.730519,28.441558 -115.957792,27.532468 -116.185065,26.61526 -116.396104,25.698052 -116.607143,24.780844 -116.801948,23.855519 -116.996753,22.930195 -117.183442,22.00487 -117.362013,21.079545 -117.532468,20.154221 -117.694805,19.228896 -117.849026,18.295455 -117.99513,17.37013 -118.133117,16.436688 -118.262987,15.503247 -118.38474,14.569805 -118.506494,13.628247 -118.612013,12.694805 -118.717532,11.761364 -118.806818,10.819805 -118.887987,9.878247 -118.969156,8.944805 -119.034091,8.003247 -119.099026,7.061688 -119.155844,6.12013 -119.204545,5.178571 -119.237013,4.24513 -119.269481,3.295455 -119.293831,2.353896 -119.310065,1.412338 -119.318182,0.470779 -119.318182,-0.470779 -119.310065,-1.412338 -119.293831,-2.353896 -119.269481,-3.295455 -119.237013,-4.24513 -119.204545,-5.178571 -119.155844,-6.12013 -119.099026,-7.061688 -119.034091,-8.003247 -118.969156,-8.944805 -118.887987,-9.878247 -118.806818,-10.819805 -118.717532,-11.761364 -118.612013,-12.694805 -118.506494,-13.628247 -118.38474,-14.569805 -118.262987,-15.503247 -118.133117,-16.436688 -117.99513,-17.37013 -117.849026,-18.295455 -117.694805,-19.228896 -117.532468,-20.154221 -117.362013,-21.079545 -117.183442,-22.00487 -116.996753,-22.930195 -116.801948,-23.855519 -116.607143,-24.780844 -116.396104,-25.698052 -116.185065,-26.61526 -115.957792,-27.532468 -115.730519,-28.441558 -115.487013,-29.358766 -115.243506,-30.267857 -114.991883,-31.176948 -114.732143,-32.077922 -114.464286,-32.978896 -114.188312,-33.887987 -113.904221,-34.780844 -113.612013,-35.681818 -113.319805,-36.574675 -113.011364,-37.467532 -112.702922,-38.36039 -112.378247,-39.24513 -112.053571,-40.121753 -111.720779,-41.006494 -111.37987,-41.891234 -111.030844,-42.75974 -110.673701,-43.636364 -110.316558,-44.50487 -109.943182,-45.373377 -109.561688,-46.233766 -109.180195,-47.094156 -108.790584,-47.954545 -108.392857,-48.806818 -107.987013,-49.659091"/>
<polygon id="0000022F9E876B50" class="l2d0" points="-105.787338,-48.595779 -106.193182,-47.75974 -106.582792,-46.915584 -106.972403,-46.071429 -107.353896,-45.219156 -107.719156,-44.366883 -108.084416,-43.506494 -108.441558,-42.654221 -108.798701,-41.785714 -109.13961,-40.925325 -109.472403,-40.056818 -109.805195,-39.188312 -110.12987,-38.311688 -110.446429,-37.435065 -110.75487,-36.558442 -111.047078,-35.673701 -111.339286,-34.788961 -111.631494,-33.904221 -111.907468,-33.011364 -112.175325,-32.126623 -112.443182,-31.233766 -112.694805,-30.332792 -112.946429,-29.439935 -113.189935,-28.538961 -113.417208,-27.637987 -113.644481,-26.737013 -113.863636,-25.827922 -114.074675,-24.926948 -114.277597,-24.017857 -114.472403,-23.108766 -114.659091,-22.191558 -114.845779,-21.282468 -115.016234,-20.36526 -115.186688,-19.448052 -115.340909,-18.538961 -115.487013,-17.613636 -115.633117,-16.696429 -115.771104,-15.771104 -115.892857,-14.845779 -116.01461,-13.928571 -116.12013,-13.003247 -116.233766,-12.077922 -116.331169,-11.152597 -116.412338,-10.227273 -116.501623,-9.293831 -116.574675,-8.368506 -116.631494,-7.443182 -116.696429,-6.50974 -116.74513,-5.584416 -116.785714,-4.659091 -116.818182,-3.717532 -116.850649,-2.792208 -116.866883,-1.858766 -116.875,-0.933442 -116.883117,0 -116.875,0.933442 -116.866883,1.858766 -116.850649,2.792208 -116.818182,3.717532 -116.785714,4.659091 -116.74513,5.584416 -116.696429,6.50974 -116.631494,7.443182 -116.574675,8.368506 -116.501623,9.293831 -116.412338,10.227273 -116.331169,11.152597 -116.233766,12.077922 -116.12013,13.003247 -116.01461,13.928571 -115.892857,14.845779 -115.771104,15.771104 -115.633117,16.696429 -115.487013,17.613636 -115.340909,18.538961 -115.186688,19.448052 -115.016234,20.36526 -114.845779,21.282468 -114.659091,22.191558 -114.472403,23.108766 -114.277597,24.017857 -114.074675,24.926948 -113.863636,25.827922 -113.644481,26.737013 -113.417208,27.637987 -113.189935,28.538961 -112.946429,29.439935 -112.694805,30.332792 -112.443182,31.233766 -112.175325,32.126623 -111.907468,33.011364 -111.631494,33.904221 -111.339286,34.788961 -111.047078,35.673701 -110.75487,36.558442 -110.446429,37.435065 -110.12987,38.311688 -109.805195,39.188312 -109.472403,40.056818 -109.13961,40.925325 -108.798701,41.785714 -108.441558,42.654221 -108.084416,43.506494 -107.719156,44.366883 -107.353896,45.219156 -106.972403,46.071429 -106.582792,46.915584 -106.193182,47.75974 -105.787338,48.595779 -103.595779,47.540584 -103.993506,46.704545 -104.383117,45.868506 -104.772727,45.016234 -105.154221,44.172078 -105.519481,43.327922 -105.88474,42.467532 -106.241883,41.607143 -106.590909,40.75487 -106.931818,39.894481 -107.26461,39.025974 -107.589286,38.157468 -107.913961,37.288961 -108.222403,36.412338 -108.522727,35.535714 -108.823052,34.659091 -109.11526,33.774351 -109.399351,32.88961 -109.667208,32.00487 -109.935065,31.112013 -110.194805,30.227273 -110.446429,29.334416 -110.689935,28.433442 -110.933442,27.540584 -111.160714,26.63961 -111.387987,25.738636 -111.590909,24.837662 -111.801948,23.928571 -112.00487,23.027597 -112.191558,22.118506 -112.378247,21.201299 -112.556818,20.292208 -112.719156,19.383117 -112.881494,18.465909 -113.027597,17.548701 -113.173701,16.63961 -113.311688,15.722403 -113.441558,14.797078 -113.563312,13.87987 -113.676948,12.962662 -113.782468,12.037338 -113.87987,11.112013 -113.969156,10.194805 -114.050325,9.269481 -114.131494,8.344156 -114.196429,7.418831 -114.253247,6.493506 -114.310065,5.568182 -114.350649,4.63474 -114.383117,3.709416 -114.415584,2.784091 -114.431818,1.858766 -114.439935,0.933442 -114.448052,0 -114.439935,-0.933442 -114.431818,-1.858766 -114.415584,-2.784091 -114.383117,-3.709416 -114.350649,-4.63474 -114.310065,-5.568182 -114.253247,-6.493506 -114.196429,-7.418831 -114.131494,-8.344156 -114.050325,-9.269481 -113.969156,-10.194805 -113.87987,-11.112013 -113.782468,-12.037338 -113.676948,-12.962662 -113.563312,-13.87987 -113.441558,-14.797078 -113.311688,-15.722403 -113.173701,-16.63961 -113.027597,-17.548701 -112.881494,-18.465909 -112.719156,-19.383117 -112.556818,-20.292208 -112.378247,-21.201299 -112.191558,-22.118506 -112.00487,-23.027597 -111.801948,-23.928571 -111.590909,-24.837662 -111.387987,-25.738636 -111.160714,-26.63961 -110.933442,-27.540584 -110.689935,-28.433442 -110.446429,-29.334416 -110.194805,-30.227273 -109.935065,-31.112013 -109.667208,-32.00487 -109.399351,-32.88961 -109.11526,-33.774351 -108.823052,-34.659091 -108.522727,-35.535714 -108.222403,-36.412338 -107.913961,-37.288961 -107.589286,-38.157468 -107.26461,-39.025974 -106.931818,-39.894481 -106.590909,-40.75487 -106.241883,-41.607143 -105.88474,-42.467532 -105.519481,-43.327922 -105.154221,-44.172078 -104.772727,-45.016234 -104.383117,-45.868506 -103.993506,-46.704545 -103.595779,-47.540584"/>
<polygon id="0000022F9E877410" class="l2d0" points="-101.404221,-46.48539 -101.793831,-45.665584 -102.183442,-44.829545 -102.564935,-43.993506 -102.938312,-43.157468 -103.303571,-42.321429 -103.660714,-41.477273 -104.00974,-40.633117 -104.350649,-39.780844 -104.691558,-38.928571 -105.016234,-38.076299 -105.340909,-37.215909 -105.657468,-36.363636 -105.965909,-35.49513 -106.258117,-34.63474 -106.550325,-33.758117 -106.842532,-32.88961 -107.118506,-32.012987 -107.386364,-31.144481 -107.646104,-30.267857 -107.905844,-29.383117 -108.149351,-28.506494 -108.392857,-27.621753 -108.62013,-26.728896 -108.847403,-25.844156 -109.066558,-24.951299 -109.277597,-24.066558 -109.472403,-23.173701 -109.667208,-22.272727 -109.862013,-21.37987 -110.032468,-20.478896 -110.202922,-19.586039 -110.373377,-18.685065 -110.527597,-17.775974 -110.673701,-16.875 -110.811688,-15.965909 -110.949675,-15.064935 -111.071429,-14.155844 -111.193182,-13.246753 -111.298701,-12.337662 -111.404221,-11.428571 -111.493506,-10.511364 -111.582792,-9.602273 -111.655844,-8.693182 -111.728896,-7.775974 -111.793831,-6.866883 -111.850649,-5.949675 -111.899351,-5.032468 -111.931818,-4.123377 -111.964286,-3.206169 -111.988636,-2.288961 -112.00487,-1.371753 -112.012987,-0.454545 -112.012987,0.454545 -112.00487,1.371753 -111.988636,2.288961 -111.964286,3.206169 -111.931818,4.123377 -111.899351,5.032468 -111.850649,5.949675 -111.793831,6.866883 -111.728896,7.775974 -111.655844,8.693182 -111.582792,9.602273 -111.493506,10.511364 -111.404221,11.428571 -111.298701,12.337662 -111.193182,13.246753 -111.071429,14.155844 -110.949675,15.064935 -110.811688,15.965909 -110.673701,16.875 -110.527597,17.775974 -110.373377,18.685065 -110.202922,19.586039 -110.032468,20.478896 -109.862013,21.37987 -109.667208,22.272727 -109.472403,23.173701 -109.277597,24.066558 -109.066558,24.951299 -108.847403,25.844156 -108.62013,26.728896 -108.392857,27.621753 -108.149351,28.506494 -107.905844,29.383117 -107.646104,30.267857 -107.386364,31.144481 -107.118506,32.012987 -106.842532,32.88961 -106.550325,33.758117 -106.258117,34.63474 -105.965909,35.49513 -105.657468,36.363636 -105.340909,37.215909 -105.016234,38.076299 -104.691558,38.928571 -104.350649,39.780844 -104.00974,40.633117 -103.660714,41.477273 -103.303571,42.321429 -102.938312,43.157468 -102.564935,43.993506 -102.183442,44.829545 -101.793831,45.665584 -101.404221,46.48539 -99.212662,45.430195 -99.602273,44.618506 -99.975649,43.798701 -100.357143,42.970779 -100.722403,42.142857 -101.079545,41.314935 -101.436688,40.487013 -101.777597,39.650974 -102.118506,38.814935 -102.451299,37.970779 -102.775974,37.126623 -103.092532,36.282468 -103.400974,35.438312 -103.701299,34.586039 -103.993506,33.733766 -104.285714,32.873377 -104.569805,32.012987 -104.837662,31.152597 -105.105519,30.284091 -105.357143,29.423701 -105.608766,28.555195 -105.852273,27.678571 -106.087662,26.810065 -106.314935,25.933442 -106.534091,25.056818 -106.74513,24.180195 -106.956169,23.295455 -107.150974,22.418831 -107.337662,21.534091 -107.524351,20.649351 -107.694805,19.76461 -107.86526,18.871753 -108.019481,17.987013 -108.173701,17.094156 -108.319805,16.201299 -108.449675,15.308442 -108.579545,14.415584 -108.701299,13.522727 -108.814935,12.621753 -108.920455,11.720779 -109.017857,10.827922 -109.107143,9.926948 -109.188312,9.025974 -109.261364,8.125 -109.326299,7.224026 -109.391234,6.323052 -109.439935,5.422078 -109.480519,4.521104 -109.512987,3.612013 -109.545455,2.711039 -109.561688,1.810065 -109.569805,0.909091 -109.577922,0 -109.569805,-0.909091 -109.561688,-1.810065 -109.545455,-2.711039 -109.512987,-3.612013 -109.480519,-4.521104 -109.439935,-5.422078 -109.391234,-6.323052 -109.326299,-7.224026 -109.261364,-8.125 -109.188312,-9.025974 -109.107143,-9.926948 -109.017857,-10.827922 -108.920455,-11.720779 -108.814935,-12.621753 -108.701299,-13.522727 -108.579545,-14.415584 -108.449675,-15.308442 -108.319805,-16.201299 -108.173701,-17.094156 -108.019481,-17.987013 -107.86526,-18.871753 -107.694805,-19.76461 -107.524351,-20.649351 -107.337662,-21.534091 -107.150974,-22.418831 -106.956169,-23.295455 -106.74513,-24.180195 -106.534091,-25.056818 -106.314935,-25.933442 -106.087662,-26.810065 -105.852273,-27.678571 -105.608766,-28.555195 -105.357143,-29.423701 -105.105519,-30.284091 -104.837662,-31.152597 -104.569805,-32.012987 -104.285714,-32.873377 -103.993506,-33.733766 -103.701299,-34.586039 -103.400974,-35.438312 -103.092532,-36.282468 -102.775974,-37.126623 -102.451299,-37.970779 -102.118506,-38.814935 -101.777597,-39.650974 -101.436688,-40.487013 -101.079545,-41.314935 -100.722403,-42.142857 -100.357143,-42.970779 -99.975649,-43.798701 -99.602273,-44.618506 -99.212662,-45.430195"/>
<polygon id="0000022F9E8775D0" class="l2d0" points="-97.012987,-44.375 -97.394481,-43.571429 -97.775974,-42.75974 -98.141234,-41.948052 -98.506494,-41.136364 -98.855519,-40.316558 -99.212662,-39.496753 -99.553571,-38.676948 -99.878247,-37.849026 -100.211039,-37.021104 -100.527597,-36.185065 -100.844156,-35.349026 -101.144481,-34.512987 -101.436688,-33.668831 -101.728896,-32.832792 -102.012987,-31.988636 -102.288961,-31.136364 -102.556818,-30.284091 -102.816558,-29.431818 -103.068182,-28.579545 -103.311688,-27.727273 -103.555195,-26.866883 -103.782468,-25.998377 -104.00974,-25.137987 -104.220779,-24.277597 -104.431818,-23.409091 -104.626623,-22.540584 -104.821429,-21.672078 -105.008117,-20.803571 -105.186688,-19.926948 -105.349026,-19.050325 -105.519481,-18.173701 -105.673701,-17.297078 -105.819805,-16.420455 -105.957792,-15.535714 -106.087662,-14.650974 -106.209416,-13.774351 -106.331169,-12.88961 -106.436688,-12.00487 -106.542208,-11.12013 -106.631494,-10.23539 -106.712662,-9.342532 -106.793831,-8.457792 -106.858766,-7.564935 -106.923701,-6.680195 -106.980519,-5.787338 -107.029221,-4.902597 -107.061688,-4.00974 -107.094156,-3.116883 -107.118506,-2.224026 -107.13474,-1.339286 -107.142857,-0.446429 -107.142857,0.446429 -107.13474,1.339286 -107.118506,2.224026 -107.094156,3.116883 -107.061688,4.00974 -107.029221,4.902597 -106.980519,5.787338 -106.923701,6.680195 -106.858766,7.564935 -106.793831,8.457792 -106.712662,9.342532 -106.631494,10.23539 -106.542208,11.12013 -106.436688,12.00487 -106.331169,12.88961 -106.209416,13.774351 -106.087662,14.650974 -105.957792,15.535714 -105.819805,16.420455 -105.673701,17.297078 -105.519481,18.173701 -105.349026,19.050325 -105.186688,19.926948 -105.008117,20.803571 -104.821429,21.672078 -104.626623,22.540584 -104.431818,23.409091 -104.220779,24.277597 -104.00974,25.137987 -103.782468,25.998377 -103.555195,26.866883 -103.311688,27.727273 -103.068182,28.579545 -102.816558,29.431818 -102.556818,30.284091 -102.288961,31.136364 -102.012987,31.988636 -101.728896,32.832792 -101.436688,33.668831 -101.144481,34.512987 -100.844156,35.349026 -100.527597,36.185065 -100.211039,37.021104 -99.878247,37.849026 -99.553571,38.676948 -99.212662,39.496753 -98.855519,40.316558 -98.506494,41.136364 -98.141234,41.948052 -97.775974,42.75974 -97.394481,43.571429 -97.012987,44.375 -94.821429,43.319805 -95.194805,42.524351 -95.568182,41.728896 -95.933442,40.925325 -96.290584,40.121753 -96.63961,39.318182 -96.980519,38.506494 -97.313312,37.702922 -97.646104,36.883117 -97.970779,36.063312 -98.279221,35.243506 -98.587662,34.423701 -98.887987,33.595779 -99.172078,32.767857 -99.464286,31.931818 -99.74026,31.103896 -100.008117,30.267857 -100.267857,29.423701 -100.527597,28.587662 -100.779221,27.743506 -101.01461,26.899351 -101.25,26.047078 -101.477273,25.202922 -101.696429,24.350649 -101.899351,23.498377 -102.11039,22.646104 -102.305195,21.785714 -102.483766,20.925325 -102.670455,20.073052 -102.840909,19.204545 -103.011364,18.344156 -103.165584,17.475649 -103.311688,16.61526 -103.457792,15.746753 -103.595779,14.878247 -103.717532,14.00974 -103.839286,13.141234 -103.952922,12.26461 -104.058442,11.396104 -104.155844,10.527597 -104.237013,9.650974 -104.326299,8.774351 -104.399351,7.897727 -104.456169,7.021104 -104.521104,6.144481 -104.569805,5.267857 -104.61039,4.391234 -104.642857,3.51461 -104.675325,2.637987 -104.691558,1.761364 -104.699675,0.876623 -104.707792,0 -104.699675,-0.876623 -104.691558,-1.761364 -104.675325,-2.637987 -104.642857,-3.51461 -104.61039,-4.391234 -104.569805,-5.267857 -104.521104,-6.144481 -104.456169,-7.021104 -104.399351,-7.897727 -104.326299,-8.774351 -104.237013,-9.650974 -104.155844,-10.527597 -104.058442,-11.396104 -103.952922,-12.26461 -103.839286,-13.141234 -103.717532,-14.00974 -103.595779,-14.878247 -103.457792,-15.746753 -103.311688,-16.61526 -103.165584,-17.475649 -103.011364,-18.344156 -102.840909,-19.204545 -102.670455,-20.073052 -102.483766,-20.925325 -102.305195,-21.785714 -102.11039,-22.646104 -101.899351,-23.498377 -101.696429,-24.350649 -101.477273,-25.202922 -101.25,-26.047078 -101.01461,-26.899351 -100.779221,-27.743506 -100.527597,-28.587662 -100.267857,-29.423701 -100.008117,-30.267857 -99.74026,-31.103896 -99.464286,-31.931818 -99.172078,-32.767857 -98.887987,-33.595779 -98.587662,-34.423701 -98.279221,-35.243506 -97.970779,-36.063312 -97.646104,-36.883117 -97.313312,-37.702922 -96.980519,-38.506494 -96.63961,-39.318182 -96.290584,-40.121753 -95.933442,-40.925325 -95.568182,-41.728896 -95.194805,-42.524351 -94.821429,-43.319805"/>
<polygon id="0000022F9E876920" class="l2d0" points="-92.621753,-42.26461 -93.003247,-41.477273 -93.368506,-40.681818 -93.733766,-39.878247 -94.082792,-39.082792 -94.439935,-38.287338 -94.772727,-37.475649 -95.105519,-36.663961 -95.438312,-35.852273 -95.75487,-35.040584 -96.063312,-34.220779 -96.363636,-33.400974 -96.663961,-32.581169 -96.948052,-31.761364 -97.232143,-30.933442 -97.508117,-30.097403 -97.775974,-29.261364 -98.027597,-28.433442 -98.287338,-27.597403 -98.530844,-26.753247 -98.758117,-25.917208 -98.993506,-25.064935 -99.212662,-24.220779 -99.431818,-23.376623 -99.63474,-22.524351 -99.829545,-21.672078 -100.024351,-20.819805 -100.202922,-19.967532 -100.381494,-19.107143 -100.551948,-18.25487 -100.706169,-17.394481 -100.86039,-16.525974 -101.006494,-15.665584 -101.144481,-14.805195 -101.266234,-13.936688 -101.387987,-13.076299 -101.501623,-12.207792 -101.607143,-11.339286 -101.704545,-10.470779 -101.801948,-9.602273 -101.875,-8.733766 -101.956169,-7.857143 -102.021104,-6.988636 -102.086039,-6.12013 -102.13474,-5.243506 -102.175325,-4.366883 -102.207792,-3.498377 -102.24026,-2.621753 -102.256494,-1.74513 -102.26461,-0.876623 -102.272727,0 -102.26461,0.876623 -102.256494,1.74513 -102.24026,2.621753 -102.207792,3.498377 -102.175325,4.366883 -102.13474,5.243506 -102.086039,6.12013 -102.021104,6.988636 -101.956169,7.857143 -101.875,8.733766 -101.801948,9.602273 -101.704545,10.470779 -101.607143,11.339286 -101.501623,12.207792 -101.387987,13.076299 -101.266234,13.936688 -101.144481,14.805195 -101.006494,15.665584 -100.86039,16.525974 -100.706169,17.394481 -100.551948,18.25487 -100.381494,19.107143 -100.202922,19.967532 -100.024351,20.819805 -99.829545,21.672078 -99.63474,22.524351 -99.431818,23.376623 -99.212662,24.220779 -98.993506,25.064935 -98.758117,25.917208 -98.530844,26.753247 -98.287338,27.597403 -98.027597,28.433442 -97.775974,29.261364 -97.508117,30.097403 -97.232143,30.933442 -96.948052,31.761364 -96.663961,32.581169 -96.363636,33.400974 -96.063312,34.220779 -95.75487,35.040584 -95.438312,35.852273 -95.105519,36.663961 -94.772727,37.475649 -94.439935,38.287338 -94.082792,39.082792 -93.733766,39.878247 -93.368506,40.681818 -93.003247,41.477273 -92.621753,42.26461 -90.430195,41.209416 -90.803571,40.430195 -91.160714,39.650974 -91.517857,38.863636 -91.866883,38.076299 -92.207792,37.288961 -92.548701,36.493506 -92.873377,35.689935 -93.198052,34.894481 -93.506494,34.099026 -93.814935,33.287338 -94.107143,32.475649 -94.399351,31.672078 -94.683442,30.86039 -94.959416,30.040584 -95.227273,29.228896 -95.487013,28.400974 -95.746753,27.581169 -95.99026,26.753247 -96.225649,25.925325 -96.461039,25.097403 -96.688312,24.269481 -96.899351,23.433442 -97.11039,22.597403 -97.313312,21.761364 -97.508117,20.925325 -97.686688,20.081169 -97.873377,19.237013 -98.043831,18.392857 -98.198052,17.548701 -98.36039,16.704545 -98.506494,15.852273 -98.644481,15.008117 -98.774351,14.155844 -98.904221,13.303571 -99.017857,12.451299 -99.123377,11.599026 -99.228896,10.738636 -99.318182,9.886364 -99.407468,9.025974 -99.488636,8.173701 -99.553571,7.313312 -99.618506,6.452922 -99.675325,5.592532 -99.724026,4.732143 -99.756494,3.871753 -99.788961,3.011364 -99.813312,2.150974 -99.829545,1.290584 -99.837662,0.430195 -99.837662,-0.430195 -99.829545,-1.290584 -99.813312,-2.150974 -99.788961,-3.011364 -99.756494,-3.871753 -99.724026,-4.732143 -99.675325,-5.592532 -99.618506,-6.452922 -99.553571,-7.313312 -99.488636,-8.173701 -99.407468,-9.025974 -99.318182,-9.886364 -99.228896,-10.738636 -99.123377,-11.599026 -99.017857,-12.451299 -98.904221,-13.303571 -98.774351,-14.155844 -98.644481,-15.008117 -98.506494,-15.852273 -98.36039,-16.704545 -98.198052,-17.548701 -98.043831,-18.392857 -97.873377,-19.237013 -97.686688,-20.081169 -97.508117,-20.925325 -97.313312,-21.761364 -97.11039,-22.597403 -96.899351,-23.433442 -96.688312,-24.269481 -96.461039,-25.097403 -96.225649,-25.925325 -95.99026,-26.753247 -95.746753,-27.581169 -95.487013,-28.400974 -95.227273,-29.228896 -94.959416,-30.040584 -94.683442,-30.86039 -94.399351,-31.672078 -94.107143,-32.475649 -93.814935,-33.287338 -93.506494,-34.099026 -93.198052,-34.894481 -92.873377,-35.689935 -92.548701,-36.493506 -92.207792,-37.288961 -91.866883,-38.076299 -91.517857,-38.863636 -91.160714,-39.650974 -90.803571,-40.430195 -90.430195,-41.209416"/>
<polygon id="0000022F9E876990" class="l2d0" points="-88.238636,-40.146104 -88.603896,-39.383117 -88.961039,-38.612013 -89.310065,-37.840909 -89.650974,-37.069805 -89.991883,-36.290584 -90.316558,-35.511364 -90.641234,-34.724026 -90.957792,-33.936688 -91.258117,-33.149351 -91.566558,-32.353896 -91.858766,-31.558442 -92.13474,-30.762987 -92.418831,-29.959416 -92.686688,-29.155844 -92.954545,-28.352273 -93.206169,-27.548701 -93.457792,-26.728896 -93.693182,-25.925325 -93.928571,-25.105519 -94.155844,-24.293831 -94.375,-23.465909 -94.586039,-22.654221 -94.788961,-21.826299 -94.983766,-21.006494 -95.178571,-20.178571 -95.357143,-19.350649 -95.535714,-18.522727 -95.698052,-17.686688 -95.852273,-16.858766 -96.006494,-16.022727 -96.144481,-15.186688 -96.282468,-14.350649 -96.412338,-13.506494 -96.534091,-12.670455 -96.63961,-11.834416 -96.74513,-10.99026 -96.842532,-10.146104 -96.931818,-9.310065 -97.012987,-8.465909 -97.086039,-7.613636 -97.150974,-6.777597 -97.215909,-5.925325 -97.26461,-5.081169 -97.305195,-4.237013 -97.337662,-3.392857 -97.37013,-2.540584 -97.386364,-1.696429 -97.394481,-0.844156 -97.402597,0 -97.394481,0.844156 -97.386364,1.696429 -97.37013,2.540584 -97.337662,3.392857 -97.305195,4.237013 -97.26461,5.081169 -97.215909,5.925325 -97.150974,6.777597 -97.086039,7.613636 -97.012987,8.465909 -96.931818,9.310065 -96.842532,10.146104 -96.74513,10.99026 -96.63961,11.834416 -96.534091,12.670455 -96.412338,13.506494 -96.282468,14.350649 -96.144481,15.186688 -96.006494,16.022727 -95.852273,16.858766 -95.698052,17.686688 -95.535714,18.522727 -95.357143,19.350649 -95.178571,20.178571 -94.983766,21.006494 -94.788961,21.826299 -94.586039,22.654221 -94.375,23.465909 -94.155844,24.293831 -93.928571,25.105519 -93.693182,25.925325 -93.457792,26.728896 -93.206169,27.548701 -92.954545,28.352273 -92.686688,29.155844 -92.418831,29.959416 -92.13474,30.762987 -91.858766,31.558442 -91.566558,32.353896 -91.258117,33.149351 -90.957792,33.936688 -90.641234,34.724026 -90.316558,35.511364 -89.991883,36.290584 -89.650974,37.069805 -89.310065,37.840909 -88.961039,38.612013 -88.603896,39.383117 -88.238636,40.146104 -86.047078,39.090909 -86.404221,38.336039 -86.753247,37.581169 -87.094156,36.826299 -87.435065,36.063312 -87.767857,35.292208 -88.092532,34.529221 -88.409091,33.758117 -88.717532,32.978896 -89.017857,32.199675 -89.310065,31.420455 -89.594156,30.641234 -89.878247,29.853896 -90.154221,29.066558 -90.413961,28.279221 -90.673701,27.483766 -90.925325,26.688312 -91.168831,25.892857 -91.404221,25.089286 -91.631494,24.293831 -91.850649,23.49026 -92.061688,22.678571 -92.272727,21.875 -92.467532,21.063312 -92.662338,20.251623 -92.840909,19.439935 -93.019481,18.62013 -93.189935,17.808442 -93.352273,16.988636 -93.506494,16.168831 -93.652597,15.349026 -93.790584,14.529221 -93.920455,13.701299 -94.042208,12.873377 -94.155844,12.053571 -94.269481,11.225649 -94.366883,10.397727 -94.456169,9.569805 -94.545455,8.741883 -94.618506,7.905844 -94.691558,7.077922 -94.748377,6.25 -94.805195,5.413961 -94.853896,4.586039 -94.886364,3.75 -94.918831,2.913961 -94.943182,2.086039 -94.959416,1.25 -94.967532,0.422078 -94.967532,-0.422078 -94.959416,-1.25 -94.943182,-2.086039 -94.918831,-2.913961 -94.886364,-3.75 -94.853896,-4.586039 -94.805195,-5.413961 -94.748377,-6.25 -94.691558,-7.077922 -94.618506,-7.905844 -94.545455,-8.741883 -94.456169,-9.569805 -94.366883,-10.397727 -94.269481,-11.225649 -94.155844,-12.053571 -94.042208,-12.873377 -93.920455,-13.701299 -93.790584,-14.529221 -93.652597,-15.349026 -93.506494,-16.168831 -93.352273,-16.988636 -93.189935,-17.808442 -93.019481,-18.62013 -92.840909,-19.439935 -92.662338,-20.251623 -92.467532,-21.063312 -92.272727,-21.875 -92.061688,-22.678571 -91.850649,-23.49026 -91.631494,-24.293831 -91.404221,-25.089286 -91.168831,-25.892857 -90.925325,-26.688312 -90.673701,-27.483766 -90.413961,-28.279221 -90.154221,-29.066558 -89.878247,-29.853896 -89.594156,-30.641234 -89.310065,-31.420455 -89.017857,-32.199675 -88.717532,-32.978896 -88.409091,-33.758117 -88.092532,-34.529221 -87.767857,-35.292208 -87.435065,-36.063312 -87.094156,-36.826299 -86.753247,-37.581169 -86.404221,-38.336039 -86.047078,-39.090909"/>
<polygon id="0000022F9E876D80" class="l2d0" points="-83.847403,-38.035714 -84.212662,-37.288961 -84.553571,-36.534091 -84.894481,-35.779221 -85.23539,-35.024351 -85.560065,-34.261364 -85.876623,-33.498377 -86.193182,-32.73539 -86.501623,-31.964286 -86.793831,-31.185065 -87.086039,-30.413961 -87.37013,-29.63474 -87.646104,-28.855519 -87.913961,-28.068182 -88.181818,-27.288961 -88.433442,-26.501623 -88.676948,-25.706169 -88.920455,-24.918831 -89.147727,-24.11526 -89.375,-23.319805 -89.594156,-22.524351 -89.797078,-21.720779 -90,-20.917208 -90.194805,-20.113636 -90.381494,-19.301948 -90.560065,-18.498377 -90.730519,-17.686688 -90.892857,-16.875 -91.047078,-16.063312 -91.201299,-15.243506 -91.339286,-14.431818 -91.469156,-13.612013 -91.590909,-12.792208 -91.712662,-11.972403 -91.818182,-11.152597 -91.923701,-10.332792 -92.012987,-9.50487 -92.102273,-8.685065 -92.183442,-7.857143 -92.248377,-7.029221 -92.313312,-6.201299 -92.37013,-5.381494 -92.418831,-4.553571 -92.451299,-3.725649 -92.483766,-2.897727 -92.508117,-2.069805 -92.524351,-1.241883 -92.532468,-0.413961 -92.532468,0.413961 -92.524351,1.241883 -92.508117,2.069805 -92.483766,2.897727 -92.451299,3.725649 -92.418831,4.553571 -92.37013,5.381494 -92.313312,6.201299 -92.248377,7.029221 -92.183442,7.857143 -92.102273,8.685065 -92.012987,9.50487 -91.923701,10.332792 -91.818182,11.152597 -91.712662,11.972403 -91.590909,12.792208 -91.469156,13.612013 -91.339286,14.431818 -91.201299,15.243506 -91.047078,16.063312 -90.892857,16.875 -90.730519,17.686688 -90.560065,18.498377 -90.381494,19.301948 -90.194805,20.113636 -90,20.917208 -89.797078,21.720779 -89.594156,22.524351 -89.375,23.319805 -89.147727,24.11526 -88.920455,24.918831 -88.676948,25.706169 -88.433442,26.501623 -88.181818,27.288961 -87.913961,28.068182 -87.646104,28.855519 -87.37013,29.63474 -87.086039,30.413961 -86.793831,31.185065 -86.501623,31.964286 -86.193182,32.73539 -85.876623,33.498377 -85.560065,34.261364 -85.23539,35.024351 -84.894481,35.779221 -84.553571,36.534091 -84.212662,37.288961 -83.847403,38.035714 -81.655844,36.980519 -82.00487,36.241883 -82.345779,35.503247 -82.686688,34.76461 -83.011364,34.017857 -83.336039,33.271104 -83.652597,32.524351 -83.952922,31.769481 -84.253247,31.01461 -84.553571,30.251623 -84.829545,29.488636 -85.113636,28.725649 -85.381494,27.954545 -85.649351,27.183442 -85.900974,26.412338 -86.144481,25.641234 -86.387987,24.862013 -86.623377,24.082792 -86.850649,23.295455 -87.069805,22.516234 -87.280844,21.728896 -87.483766,20.941558 -87.678571,20.154221 -87.86526,19.366883 -88.051948,18.571429 -88.222403,17.767857 -88.38474,16.980519 -88.547078,16.176948 -88.701299,15.381494 -88.839286,14.577922 -88.977273,13.774351 -89.107143,12.970779 -89.228896,12.167208 -89.334416,11.363636 -89.439935,10.551948 -89.537338,9.748377 -89.626623,8.936688 -89.707792,8.125 -89.780844,7.313312 -89.845779,6.50974 -89.910714,5.689935 -89.959416,4.878247 -90,4.066558 -90.032468,3.25487 -90.064935,2.443182 -90.081169,1.623377 -90.089286,0.811688 -90.097403,0 -90.089286,-0.811688 -90.081169,-1.623377 -90.064935,-2.443182 -90.032468,-3.25487 -90,-4.066558 -89.959416,-4.878247 -89.910714,-5.689935 -89.845779,-6.50974 -89.780844,-7.313312 -89.707792,-8.125 -89.626623,-8.936688 -89.537338,-9.748377 -89.439935,-10.551948 -89.334416,-11.363636 -89.228896,-12.167208 -89.107143,-12.970779 -88.977273,-13.774351 -88.839286,-14.577922 -88.701299,-15.381494 -88.547078,-16.176948 -88.38474,-16.980519 -88.222403,-17.767857 -88.051948,-18.571429 -87.86526,-19.366883 -87.678571,-20.154221 -87.483766,-20.941558 -87.280844,-21.728896 -87.069805,-22.516234 -86.850649,-23.295455 -86.623377,-24.082792 -86.387987,-24.862013 -86.144481,-25.641234 -85.900974,-26.412338 -85.649351,-27.183442 -85.381494,-27.954545 -85.113636,-28.725649 -84.829545,-29.488636 -84.553571,-30.251623 -84.253247,-31.01461 -83.952922,-31.769481 -83.652597,-32.524351 -83.336039,-33.271104 -83.011364,-34.017857 -82.686688,-34.76461 -82.345779,-35.503247 -82.00487,-36.241883 -81.655844,-36.980519"/>
<polygon id="0000022F9E8771E0" class="l2d0" points="-79.464286,-35.925325 -79.805195,-35.202922 -80.146104,-34.472403 -80.470779,-33.75 -80.795455,-33.011364 -81.103896,-32.280844 -81.420455,-31.542208 -81.712662,-30.803571 -82.012987,-30.064935 -82.297078,-29.310065 -82.581169,-28.571429 -82.849026,-27.816558 -83.116883,-27.061688 -83.368506,-26.306818 -83.62013,-25.543831 -83.863636,-24.780844 -84.099026,-24.017857 -84.334416,-23.25487 -84.553571,-22.483766 -84.76461,-21.712662 -84.967532,-20.949675 -85.170455,-20.170455 -85.357143,-19.399351 -85.543831,-18.62013 -85.722403,-17.840909 -85.88474,-17.053571 -86.047078,-16.274351 -86.201299,-15.49513 -86.347403,-14.699675 -86.48539,-13.920455 -86.61526,-13.133117 -86.737013,-12.337662 -86.850649,-11.550325 -86.964286,-10.75487 -87.061688,-9.967532 -87.150974,-9.172078 -87.24026,-8.376623 -87.313312,-7.581169 -87.386364,-6.785714 -87.443182,-5.99026 -87.5,-5.194805 -87.548701,-4.391234 -87.581169,-3.595779 -87.613636,-2.792208 -87.637987,-1.996753 -87.654221,-1.201299 -87.662338,-0.397727 -87.662338,0.397727 -87.654221,1.201299 -87.637987,1.996753 -87.613636,2.792208 -87.581169,3.595779 -87.548701,4.391234 -87.5,5.194805 -87.443182,5.99026 -87.386364,6.785714 -87.313312,7.581169 -87.24026,8.376623 -87.150974,9.172078 -87.061688,9.967532 -86.964286,10.75487 -86.850649,11.550325 -86.737013,12.337662 -86.61526,13.133117 -86.48539,13.920455 -86.347403,14.699675 -86.201299,15.49513 -86.047078,16.274351 -85.88474,17.053571 -85.722403,17.840909 -85.543831,18.62013 -85.357143,19.399351 -85.170455,20.170455 -84.967532,20.949675 -84.76461,21.712662 -84.553571,22.483766 -84.334416,23.25487 -84.099026,24.017857 -83.863636,24.780844 -83.62013,25.543831 -83.368506,26.306818 -83.116883,27.061688 -82.849026,27.816558 -82.581169,28.571429 -82.297078,29.310065 -82.012987,30.064935 -81.712662,30.803571 -81.420455,31.542208 -81.103896,32.280844 -80.795455,33.011364 -80.470779,33.75 -80.146104,34.472403 -79.805195,35.202922 -79.464286,35.925325 -77.272727,34.862013 -77.613636,34.147727 -77.938312,33.425325 -78.271104,32.711039 -78.587662,31.980519 -78.904221,31.258117 -79.204545,30.519481 -79.496753,29.788961 -79.788961,29.050325 -80.073052,28.311688 -80.349026,27.564935 -80.616883,26.818182 -80.876623,26.071429 -81.128247,25.316558 -81.37987,24.569805 -81.61526,23.806818 -81.850649,23.051948 -82.069805,22.297078 -82.288961,21.534091 -82.5,20.762987 -82.702922,20 -82.897727,19.228896 -83.076299,18.457792 -83.25487,17.686688 -83.425325,16.915584 -83.587662,16.136364 -83.75,15.357143 -83.896104,14.577922 -84.034091,13.798701 -84.163961,13.019481 -84.293831,12.24026 -84.407468,11.452922 -84.512987,10.673701 -84.618506,9.878247 -84.707792,9.099026 -84.797078,8.311688 -84.878247,7.516234 -84.943182,6.728896 -85.008117,5.941558 -85.064935,5.146104 -85.113636,4.358766 -85.146104,3.563312 -85.178571,2.775974 -85.202922,1.980519 -85.219156,1.185065 -85.227273,0.397727 -85.227273,-0.397727 -85.219156,-1.185065 -85.202922,-1.980519 -85.178571,-2.775974 -85.146104,-3.563312 -85.113636,-4.358766 -85.064935,-5.146104 -85.008117,-5.941558 -84.943182,-6.728896 -84.878247,-7.516234 -84.797078,-8.311688 -84.707792,-9.099026 -84.618506,-9.878247 -84.512987,-10.673701 -84.407468,-11.452922 -84.293831,-12.24026 -84.163961,-13.019481 -84.034091,-13.798701 -83.896104,-14.577922 -83.75,-15.357143 -83.587662,-16.136364 -83.425325,-16.915584 -83.25487,-17.686688 -83.076299,-18.457792 -82.897727,-19.228896 -82.702922,-20 -82.5,-20.762987 -82.288961,-21.534091 -82.069805,-22.297078 -81.850649,-23.051948 -81.61526,-23.806818 -81.37987,-24.569805 -81.128247,-25.316558 -80.876623,-26.071429 -80.616883,-26.818182 -80.349026,-27.564935 -80.073052,-28.311688 -79.788961,-29.050325 -79.496753,-29.788961 -79.204545,-30.519481 -78.904221,-31.258117 -78.587662,-31.980519 -78.271104,-32.711039 -77.938312,-33.425325 -77.613636,-34.147727 -77.272727,-34.862013"/>
<polygon id="0000022F9E876A00" class="l2d0" points="-75.081169,-33.806818 -75.405844,-33.108766 -75.738636,-32.402597 -76.055195,-31.696429 -76.371753,-30.982143 -76.672078,-30.267857 -76.972403,-29.553571 -77.26461,-28.831169 -77.548701,-28.108766 -77.824675,-27.378247 -78.092532,-26.647727 -78.352273,-25.917208 -78.612013,-25.186688 -78.855519,-24.448052 -79.099026,-23.709416 -79.326299,-22.970779 -79.553571,-22.224026 -79.772727,-21.477273 -79.983766,-20.730519 -80.186688,-19.983766 -80.381494,-19.228896 -80.568182,-18.474026 -80.75487,-17.719156 -80.925325,-16.964286 -81.087662,-16.201299 -81.25,-15.438312 -81.396104,-14.675325 -81.542208,-13.912338 -81.680195,-13.149351 -81.801948,-12.378247 -81.923701,-11.61526 -82.029221,-10.844156 -82.142857,-10.073052 -82.24026,-9.301948 -82.321429,-8.530844 -82.402597,-7.75974 -82.483766,-6.980519 -82.540584,-6.209416 -82.605519,-5.438312 -82.654221,-4.659091 -82.694805,-3.887987 -82.727273,-3.108766 -82.75974,-2.329545 -82.775974,-1.550325 -82.784091,-0.779221 -82.792208,0 -82.784091,0.779221 -82.775974,1.550325 -82.75974,2.329545 -82.727273,3.108766 -82.694805,3.887987 -82.654221,4.659091 -82.605519,5.438312 -82.540584,6.209416 -82.483766,6.980519 -82.402597,7.75974 -82.321429,8.530844 -82.24026,9.301948 -82.142857,10.073052 -82.029221,10.844156 -81.923701,11.61526 -81.801948,12.378247 -81.680195,13.149351 -81.542208,13.912338 -81.396104,14.675325 -81.25,15.438312 -81.087662,16.201299 -80.925325,16.964286 -80.75487,17.719156 -80.568182,18.474026 -80.381494,19.228896 -80.186688,19.983766 -79.983766,20.730519 -79.772727,21.477273 -79.553571,22.224026 -79.326299,22.970779 -79.099026,23.709416 -78.855519,24.448052 -78.612013,25.186688 -78.352273,25.917208 -78.092532,26.647727 -77.824675,27.378247 -77.548701,28.108766 -77.26461,28.831169 -76.972403,29.553571 -76.672078,30.267857 -76.371753,30.982143 -76.055195,31.696429 -75.738636,32.402597 -75.405844,33.108766 -75.081169,33.806818 -72.881494,32.751623 -73.214286,32.053571 -73.530844,31.355519 -73.847403,30.657468 -74.163961,29.951299 -74.464286,29.24513 -74.756494,28.530844 -75.040584,27.816558 -75.324675,27.102273 -75.600649,26.37987 -75.86039,25.657468 -76.12013,24.926948 -76.371753,24.204545 -76.61526,23.474026 -76.850649,22.73539 -77.077922,22.00487 -77.297078,21.266234 -77.516234,20.527597 -77.719156,19.788961 -77.913961,19.042208 -78.108766,18.295455 -78.287338,17.548701 -78.465909,16.793831 -78.636364,16.047078 -78.790584,15.292208 -78.944805,14.537338 -79.082792,13.782468 -79.228896,13.019481 -79.350649,12.26461 -79.472403,11.501623 -79.586039,10.746753 -79.691558,9.975649 -79.788961,9.212662 -79.886364,8.449675 -79.959416,7.686688 -80.040584,6.923701 -80.105519,6.152597 -80.170455,5.38961 -80.219156,4.618506 -80.25974,3.847403 -80.292208,3.076299 -80.324675,2.305195 -80.340909,1.542208 -80.349026,0.771104 -80.357143,0 -80.349026,-0.771104 -80.340909,-1.542208 -80.324675,-2.305195 -80.292208,-3.076299 -80.25974,-3.847403 -80.219156,-4.618506 -80.170455,-5.38961 -80.105519,-6.152597 -80.040584,-6.923701 -79.959416,-7.686688 -79.886364,-8.449675 -79.788961,-9.212662 -79.691558,-9.975649 -79.586039,-10.746753 -79.472403,-11.501623 -79.350649,-12.26461 -79.228896,-13.019481 -79.082792,-13.782468 -78.944805,-14.537338 -78.790584,-15.292208 -78.636364,-16.047078 -78.465909,-16.793831 -78.287338,-17.548701 -78.108766,-18.295455 -77.913961,-19.042208 -77.719156,-19.788961 -77.516234,-20.527597 -77.297078,-21.266234 -77.077922,-22.00487 -76.850649,-22.73539 -76.61526,-23.474026 -76.371753,-24.204545 -76.12013,-24.926948 -75.86039,-25.657468 -75.600649,-26.37987 -75.324675,-27.102273 -75.040584,-27.816558 -74.756494,-28.530844 -74.464286,-29.24513 -74.163961,-29.951299 -73.847403,-30.657468 -73.530844,-31.355519 -73.214286,-32.053571 -72.881494,-32.751623"/>
<polygon id="0000022F9E877330" class="l2d0" points="-70.689935,-31.696429 -71.01461,-31.01461 -71.331169,-30.332792 -71.631494,-29.642857 -71.939935,-28.952922 -72.232143,-28.262987 -72.524351,-27.564935 -72.800325,-26.866883 -73.076299,-26.160714 -73.344156,-25.454545 -73.603896,-24.748377 -73.855519,-24.042208 -74.099026,-23.327922 -74.334416,-22.613636 -74.569805,-21.891234 -74.788961,-21.168831 -75,-20.446429 -75.211039,-19.724026 -75.405844,-19.001623 -75.600649,-18.271104 -75.787338,-17.540584 -75.965909,-16.810065 -76.128247,-16.071429 -76.298701,-15.332792 -76.444805,-14.594156 -76.599026,-13.863636 -76.737013,-13.116883 -76.866883,-12.378247 -76.988636,-11.631494 -77.102273,-10.892857 -77.215909,-10.137987 -77.313312,-9.391234 -77.410714,-8.652597 -77.491883,-7.897727 -77.573052,-7.150974 -77.637987,-6.396104 -77.702922,-5.649351 -77.75974,-4.894481 -77.808442,-4.147727 -77.840909,-3.392857 -77.873377,-2.637987 -77.897727,-1.883117 -77.913961,-1.128247 -77.922078,-0.373377 -77.922078,0.373377 -77.913961,1.128247 -77.897727,1.883117 -77.873377,2.637987 -77.840909,3.392857 -77.808442,4.147727 -77.75974,4.894481 -77.702922,5.649351 -77.637987,6.396104 -77.573052,7.150974 -77.491883,7.897727 -77.410714,8.652597 -77.313312,9.391234 -77.215909,10.137987 -77.102273,10.892857 -76.988636,11.631494 -76.866883,12.378247 -76.737013,13.116883 -76.599026,13.863636 -76.444805,14.594156 -76.298701,15.332792 -76.128247,16.071429 -75.965909,16.810065 -75.787338,17.540584 -75.600649,18.271104 -75.405844,19.001623 -75.211039,19.724026 -75,20.446429 -74.788961,21.168831 -74.569805,21.891234 -74.334416,22.613636 -74.099026,23.327922 -73.855519,24.042208 -73.603896,24.748377 -73.344156,25.454545 -73.076299,26.160714 -72.800325,26.866883 -72.524351,27.564935 -72.232143,28.262987 -71.939935,28.952922 -71.631494,29.642857 -71.331169,30.332792 -71.01461,31.01461 -70.689935,31.696429 -68.49026,30.641234 -68.814935,29.967532 -69.123377,29.285714 -69.431818,28.603896 -69.732143,27.922078 -70.024351,27.24026 -70.308442,26.550325 -70.584416,25.852273 -70.852273,25.162338 -71.112013,24.464286 -71.363636,23.758117 -71.61526,23.060065 -71.850649,22.353896 -72.086039,21.63961 -72.313312,20.933442 -72.532468,20.219156 -72.743506,19.50487 -72.938312,18.790584 -73.133117,18.068182 -73.327922,17.345779 -73.506494,16.623377 -73.676948,15.892857 -73.839286,15.162338 -73.993506,14.439935 -74.13961,13.709416 -74.285714,12.970779 -74.415584,12.24026 -74.545455,11.50974 -74.659091,10.771104 -74.772727,10.032468 -74.87013,9.293831 -74.967532,8.555195 -75.056818,7.808442 -75.12987,7.069805 -75.202922,6.331169 -75.267857,5.584416 -75.324675,4.837662 -75.373377,4.099026 -75.405844,3.352273 -75.438312,2.613636 -75.462662,1.866883 -75.478896,1.12013 -75.487013,0.373377 -75.487013,-0.373377 -75.478896,-1.12013 -75.462662,-1.866883 -75.438312,-2.613636 -75.405844,-3.352273 -75.373377,-4.099026 -75.324675,-4.837662 -75.267857,-5.584416 -75.202922,-6.331169 -75.12987,-7.069805 -75.056818,-7.808442 -74.967532,-8.555195 -74.87013,-9.293831 -74.772727,-10.032468 -74.659091,-10.771104 -74.545455,-11.50974 -74.415584,-12.24026 -74.285714,-12.970779 -74.13961,-13.709416 -73.993506,-14.439935 -73.839286,-15.162338 -73.676948,-15.892857 -73.506494,-16.623377 -73.327922,-17.345779 -73.133117,-18.068182 -72.938312,-18.790584 -72.743506,-19.50487 -72.532468,-20.219156 -72.313312,-20.933442 -72.086039,-21.63961 -71.850649,-22.353896 -71.61526,-23.060065 -71.363636,-23.758117 -71.112013,-24.464286 -70.852273,-25.162338 -70.584416,-25.852273 -70.308442,-26.550325 -70.024351,-27.24026 -69.732143,-27.922078 -69.431818,-28.603896 -69.123377,-29.285714 -68.814935,-29.967532 -68.49026,-30.641234"/>
<polygon id="0000022F9E876BC0" class="l2d0" points="-66.298701,-29.577922 -66.61526,-28.920455 -66.915584,-28.262987 -67.215909,-27.597403 -67.508117,-26.931818 -67.792208,-26.258117 -68.068182,-25.584416 -68.336039,-24.910714 -68.603896,-24.228896 -68.855519,-23.547078 -69.099026,-22.857143 -69.342532,-22.175325 -69.577922,-21.48539 -69.805195,-20.787338 -70.024351,-20.097403 -70.23539,-19.399351 -70.438312,-18.701299 -70.633117,-18.003247 -70.819805,-17.297078 -70.998377,-16.590909 -71.176948,-15.88474 -71.339286,-15.170455 -71.501623,-14.456169 -71.647727,-13.75 -71.793831,-13.035714 -71.931818,-12.313312 -72.061688,-11.599026 -72.183442,-10.876623 -72.288961,-10.162338 -72.394481,-9.439935 -72.491883,-8.717532 -72.581169,-7.99513 -72.662338,-7.272727 -72.73539,-6.542208 -72.800325,-5.819805 -72.86526,-5.097403 -72.913961,-4.366883 -72.954545,-3.644481 -72.987013,-2.913961 -73.019481,-2.183442 -73.035714,-1.452922 -73.043831,-0.730519 -73.051948,0 -73.043831,0.730519 -73.035714,1.452922 -73.019481,2.183442 -72.987013,2.913961 -72.954545,3.644481 -72.913961,4.366883 -72.86526,5.097403 -72.800325,5.819805 -72.73539,6.542208 -72.662338,7.272727 -72.581169,7.99513 -72.491883,8.717532 -72.394481,9.439935 -72.288961,10.162338 -72.183442,10.876623 -72.061688,11.599026 -71.931818,12.313312 -71.793831,13.035714 -71.647727,13.75 -71.501623,14.456169 -71.339286,15.170455 -71.176948,15.88474 -70.998377,16.590909 -70.819805,17.297078 -70.633117,18.003247 -70.438312,18.701299 -70.23539,19.399351 -70.024351,20.097403 -69.805195,20.787338 -69.577922,21.48539 -69.342532,22.175325 -69.099026,22.857143 -68.855519,23.547078 -68.603896,24.228896 -68.336039,24.910714 -68.068182,25.584416 -67.792208,26.258117 -67.508117,26.931818 -67.215909,27.597403 -66.915584,28.262987 -66.61526,28.920455 -66.298701,29.577922 -64.107143,28.522727 -64.415584,27.873377 -64.715909,27.224026 -65.008117,26.566558 -65.300325,25.900974 -65.576299,25.243506 -65.852273,24.577922 -66.12013,23.904221 -66.371753,23.238636 -66.623377,22.564935 -66.866883,21.883117 -67.102273,21.201299 -67.329545,20.519481 -67.556818,19.837662 -67.767857,19.147727 -67.970779,18.457792 -68.173701,17.767857 -68.36039,17.077922 -68.538961,16.37987 -68.717532,15.681818 -68.887987,14.983766 -69.050325,14.277597 -69.196429,13.579545 -69.342532,12.873377 -69.480519,12.167208 -69.61039,11.452922 -69.732143,10.746753 -69.845779,10.040584 -69.951299,9.326299 -70.048701,8.612013 -70.137987,7.897727 -70.219156,7.183442 -70.300325,6.469156 -70.36526,5.75487 -70.422078,5.032468 -70.478896,4.318182 -70.519481,3.595779 -70.551948,2.881494 -70.584416,2.159091 -70.600649,1.444805 -70.608766,0.722403 -70.616883,0 -70.608766,-0.722403 -70.600649,-1.444805 -70.584416,-2.159091 -70.551948,-2.881494 -70.519481,-3.595779 -70.478896,-4.318182 -70.422078,-5.032468 -70.36526,-5.75487 -70.300325,-6.469156 -70.219156,-7.183442 -70.137987,-7.897727 -70.048701,-8.612013 -69.951299,-9.326299 -69.845779,-10.040584 -69.732143,-10.746753 -69.61039,-11.452922 -69.480519,-12.167208 -69.342532,-12.873377 -69.196429,-13.579545 -69.050325,-14.277597 -68.887987,-14.983766 -68.717532,-15.681818 -68.538961,-16.37987 -68.36039,-17.077922 -68.173701,-17.767857 -67.970779,-18.457792 -67.767857,-19.147727 -67.556818,-19.837662 -67.329545,-20.519481 -67.102273,-21.201299 -66.866883,-21.883117 -66.623377,-22.564935 -66.371753,-23.238636 -66.12013,-23.904221 -65.852273,-24.577922 -65.576299,-25.243506 -65.300325,-25.900974 -65.008117,-26.566558 -64.715909,-27.224026 -64.415584,-27.873377 -64.107143,-28.522727"/>
</g>
<g id="RingResCircuit_route0">
<polygon id="0000022F9E876DF0" class="l0d0" points="-81.168831,-1.826299 -81.168831,1.826299 -121.753247,1.826299 -121.753247,-1.826299"/>
</g>
<g id="RingResCircuit_route1">
<polygon id="0000022F9E8772C0" class="l0d0" points="81.168831,1.826299 81.168831,-1.826299 121.753247,-1.826299 121.753247,1.826299"/>
</g>
</defs>
<rect x="-300" y="-196.711037" width="600" height="287.376622" fill="none" stroke="none"/>
<g id="RingResCircuit" transform="scale(1 -1)">
<use transform="translate(0 0)" xlink:href="#RingResonator"/>
<use transform="translate(-121.753247 0)" xlink:href="#Grating_Coupler"/>
<use transform="translate(121.753247 0) rotate(180)" xlink:href="#Grating_Coupler"/>
<use transform="translate(0 0)" xlink:href="#RingResCircuit_route0"/>
<use transform="translate(0 0)" xlink:href="#RingResCircuit_route1"/>
</g>
</svg>