<?xml version="1.0" encoding="UTF-8"?>
<svg xmlns="http://www.w3.org/2000/svg" xmlns:xlink="http://www.w3.org/1999/xlink" width="301.696814" height="318.664952" viewBox="-150.845796 -298.307951 301.696814 318.664952">
<defs>
<style type="text/css">
.l0d0 {fill:darkorange;stroke:chocolate;}
</style>
</defs>
<rect x="-150.845796" y="-298.307951" width="301.696814" height="318.664952" fill="none" stroke="none"/>
<g id="RingRes" transform="scale(1 -1)">
<polygon id="0000022F9E877020" class="l0d0" points="136.366247,147.458238 136.345362,149.844786 136.282713,152.230603 136.178319,154.614958 136.032213,156.997121 135.844439,159.376362 135.615055,161.751952 135.34413,164.123164 135.031749,166.489271 134.678005,168.849549 134.283009,171.203275 133.846881,173.549727 133.369754,175.888188 132.851775,178.21794 132.293102,180.53827 131.693907,182.848467 131.054372,185.147824 130.374695,187.435636 129.655082,189.711203 128.895755,191.973827 128.096946,194.222816 127.2589,196.457481 126.381873,198.677136 125.466134,200.881103 124.511964,203.068706 123.519655,205.239274 122.489511,207.392144 121.421847,209.526656 120.31699,211.642156 119.175279,213.737995 117.997064,215.813532 116.782705,217.868132 115.532575,219.901164 114.247056,221.912007 112.926542,223.900043 111.571437,225.864665 110.182158,227.80527 108.759128,229.721264 107.302785,231.61206 105.813573,233.47708 104.29195,235.31575 102.738382,237.12751 101.153344,238.911802 99.537321,240.668082 97.89081,242.395811 96.214314,244.094459 94.508346,245.763507 92.77343,247.402443 91.010096,249.010766 89.218885,250.587982 87.400345,252.133608 85.555034,253.647171 83.683517,255.128208 81.786367,256.576264 79.864165,257.990897 77.917499,259.371672 75.946967,260.718167 73.953172,262.02997 71.936724,263.306679 69.898241,264.547902 67.838348,265.753259 65.757675,266.922382 63.65686,268.054911 61.536547,269.150501 59.397384,270.208815 57.240027,271.22953 55.065137,272.212333 52.873381,273.156922 50.665428,274.063008 48.441956,274.930315 46.203647,275.758575 43.951184,276.547536 41.685259,277.296956 39.406565,278.006605 37.115801,278.676266 34.813668,279.305733 32.500871,279.894815 30.178119,280.44333 27.846123,280.95111 25.505597,281.418 23.157259,281.843858 20.801828,282.228552 18.440024,282.571964 16.072573,282.87399 13.700198,283.134537 11.323627,283.353525 8.943587,283.530887 6.560808,283.666568 4.176019,283.760528 1.789951,283.812737 -0.596666,283.82318 -2.983099,283.791853 -5.368619,283.718766 -7.752494,283.60394 -10.133995,283.447413 -12.512392,283.24923 -14.886955,283.009453 -17.256959,282.728156 -19.621677,282.405425 -21.980385,282.041358 -24.33236,281.636067 -26.676881,281.189676 -29.013232,280.702322 -31.340695,280.174154 -33.658558,279.605334 -35.966112,278.996036 -38.262648,278.346447 -40.547465,277.656765 -42.819861,276.927203 -45.079141,276.157983 -47.324614,275.349342 -49.55559,274.501526 -51.771387,273.614795 -53.971325,272.689422 -56.154732,271.725689 -58.320939,270.723892 -60.469281,269.684338 -62.5991,268.607345 -64.709745,267.493242 -66.800569,266.342372 -68.870931,265.155087 -70.920198,263.93175 -72.947741,262.672736 -74.952939,261.378431 -76.935179,260.049231 -78.893853,258.685543 -80.828361,257.287786 -82.73811,255.856386 -84.622516,254.391784 -86.481001,252.894427 -88.312997,251.364773 -90.117941,249.803292 -91.895281,248.210462 -93.644473,246.586771 -95.364981,244.932716 -97.056278,243.248803 -98.717846,241.535549 -100.349175,239.793478 -101.949766,238.023124 -103.51913,236.225029 -105.056784,234.399744 -106.562259,232.547828 -108.035093,230.669848 -109.474834,228.76638 -110.881043,226.838007 -112.253288,224.885319 -113.591148,222.908914 -114.894214,220.909398 -116.162088,218.887383 -117.39438,216.843489 -118.590712,214.778341 -119.75072,212.692573 -120.874047,210.586823 -121.960349,208.461736 -123.009293,206.317963 -124.020558,204.156161 -124.993835,201.976992 -125.928826,199.781123 -126.825243,197.569227 -127.682812,195.341982 -128.501271,193.100069 -129.280369,190.844176 -130.019867,188.574994 -130.719539,186.293217 -131.37917,183.999545 -131.998559,181.694679 -132.577515,179.379327 -133.115861,177.054197 -133.613434,174.720001 -134.070079,172.377455 -134.485657,170.027276 -134.860041,167.670184 -135.193116,165.306901 -135.48478,162.938151 -135.734944,160.564659 -135.943531,158.187152 -136.110478,155.806359 -136.235733,153.423009 -136.319257,151.037832 -136.361026,148.651558 -136.361026,146.264919 -136.319257,143.878645 -136.235733,141.493468 -136.110478,139.110118 -135.943531,136.729325 -135.734944,134.351818 -135.48478,131.978326 -135.193116,129.609576 -134.860041,127.246293 -134.485657,124.8892 -134.070079,122.539021 -133.613434,120.196475 -133.115861,117.86228 -132.577515,115.53715 -131.998559,113.221798 -131.37917,110.916932 -130.719539,108.62326 -130.019867,106.341483 -129.280369,104.072301 -128.501271,101.816408 -127.682812,99.574495 -126.825243,97.34725 -125.928826,95.135354 -124.993835,92.939485 -124.020558,90.760316 -123.009293,88.598514 -121.960349,86.454741 -120.874047,84.329654 -119.75072,82.223904 -118.590712,80.138135 -117.39438,78.072988 -116.162088,76.029094 -114.894214,74.007079 -113.591148,72.007563 -112.253288,70.031158 -110.881043,68.07847 -109.474834,66.150096 -108.035093,64.246628 -106.562259,62.368649 -105.056784,60.516733 -103.51913,58.691448 -101.949766,56.893353 -100.349175,55.122999 -98.717846,53.380928 -97.056278,51.667674 -95.364981,49.983761 -93.644473,48.329706 -91.895281,46.706015 -90.117941,45.113185 -88.312997,43.551704 -86.481001,42.02205 -84.622516,40.524693 -82.73811,39.06009 -80.828361,37.628691 -78.893853,36.230934 -76.935179,34.867246 -74.952939,33.538046 -72.947741,32.243741 -70.920198,30.984727 -68.870931,29.76139 -66.800569,28.574105 -64.709745,27.423234 -62.5991,26.309132 -60.469281,25.232139 -58.320939,24.192584 -56.154732,23.190787 -53.971325,22.227055 -51.771387,21.301681 -49.55559,20.414951 -47.324614,19.567135 -45.079141,18.758494 -42.819861,17.989274 -40.547465,17.259711 -38.262648,16.57003 -35.966112,15.920441 -33.658558,15.311143 -31.340695,14.742323 -29.013232,14.214155 -26.676881,13.726801 -24.33236,13.28041 -21.980385,12.875119 -19.621677,12.511052 -17.256959,12.188321 -14.886955,11.907023 -12.512392,11.667247 -10.133995,11.469064 -7.752494,11.312536 -5.368619,11.197711 -2.983099,11.124624 -0.596666,11.093297 1.789951,11.103739 4.176019,11.155949 6.560808,11.249909 8.943587,11.38559 11.323627,11.562952 13.700198,11.78194 16.072573,12.042487 18.440024,12.344513 20.801828,12.687925 23.157259,13.072619 25.505597,13.498476 27.846123,13.965367 30.178119,14.473147 32.500871,15.021662 34.813668,15.610744 37.115801,16.240211 39.406565,16.909872 41.685259,17.619521 43.951184,18.368941 46.203647,19.157902 48.441956,19.986162 50.665428,20.853469 52.873381,21.759555 55.065137,22.704144 57.240027,23.686947 59.397384,24.707662 61.536547,25.765976 63.65686,26.861566 65.757675,27.994095 67.838348,29.163218 69.898241,30.368575 71.936724,31.609798 73.953172,32.886507 75.946967,34.198309 77.917499,35.544805 79.864165,36.92558 81.786367,38.340213 83.683517,39.788269 85.555034,41.269306 87.400345,42.782869 89.218885,44.328495 91.010096,45.905711 92.77343,47.514034 94.508346,49.15297 96.214314,50.822018 97.89081,52.520666 99.537321,54.248395 101.153344,56.004674 102.738382,57.788967 104.29195,59.600726 105.813573,61.439397 107.302785,63.304416 108.759128,65.195213 110.182158,67.111207 111.571437,69.051812 112.926542,71.016434 114.247056,73.00447 115.532575,75.015313 116.782705,77.048345 117.997064,79.102944 119.175279,81.178482 120.31699,83.274321 121.421847,85.389821 122.489511,87.524332 123.519655,89.677202 124.511964,91.847771 125.466134,94.035374 126.381873,96.239341 127.2589,98.458996 128.096946,100.693661 128.895755,102.94265 129.655082,105.205274 130.374695,107.480841 131.054372,109.768653 131.693907,112.06801 132.293102,114.378207 132.851775,116.698537 133.369754,119.028289 133.846881,121.366749 134.283009,123.713202 134.678005,126.066927 135.031749,128.427205 135.34413,130.793313 135.615055,133.164525 135.844439,135.540115 136.032213,137.919356 136.178319,140.301519 136.282713,142.685874 136.345362,145.071691 136.366247,147.458238 124.621786,147.458238 124.600877,145.175504 124.538159,142.893535 124.433651,140.613098 124.28739,138.334958 124.099423,136.059879 123.869815,133.788625 123.598642,131.521958 123.285996,129.260639 122.931981,127.005425 122.536715,124.757075 122.100333,122.516341 121.622979,120.283978 121.104814,118.060732 120.546013,115.847351 119.946762,113.644577 119.307263,111.45315 118.62773,109.273803 117.908392,107.10727 117.149489,104.954277 116.351276,102.815545 115.514021,100.691794 114.638006,98.583736 113.723524,96.492077 112.770881,94.41752 111.780398,92.360761 110.752407,90.32249 109.687253,88.30339 108.585293,86.304141 107.446897,84.325412 106.272447,82.367867 105.062337,80.432163 103.816973,78.51895 102.536774,76.62887 101.222168,74.762556 99.873597,72.920636 98.491513,71.103727 97.07638,69.312439 95.628672,67.547373 94.148877,65.809121 92.63749,64.098266 91.095018,62.415383 89.521979,60.761037 87.9189,59.135782 86.286321,57.540163 84.624788,55.974717 82.934859,54.439968 81.217101,52.936431 79.47209,51.464612 77.700412,50.025003 75.902662,48.618088 74.079443,47.244339 72.231366,45.904217 70.359052,44.598172 68.463129,43.326642 66.544233,42.090053 64.603007,40.88882 62.640105,39.723347 60.656183,38.594025 58.651908,37.501232 56.627952,36.445336 54.584994,35.42669 52.523721,34.445637 50.444823,33.502505 48.348998,32.597611 46.23695,31.731258 44.109387,30.903738 41.967022,30.115329 39.810576,29.366293 37.640771,28.656884 35.458336,27.987339 33.264003,27.357882 31.058507,26.768725 28.84259,26.220066 26.616995,25.712089 24.382469,25.244963 22.139761,24.818847 19.889624,24.433882 17.632813,24.090198 15.370085,23.787911 13.1022,23.527121 10.829918,23.307917 8.554002,23.130372 6.275216,22.994545 3.994325,22.900482 1.712093,22.848214 -0.570714,22.83776 -2.853329,22.869122 -5.134986,22.94229 -7.41492,23.05724 -9.692367,23.213933 -11.966561,23.412316 -14.23674,23.652323 -16.502141,23.933873 -18.762005,24.256872 -21.015574,24.621212 -23.262091,25.02677 -25.500802,25.473409 -27.730956,25.960981 -29.951805,26.489322 -32.162604,27.058254 -34.362611,27.667586 -36.551087,28.317114 -38.727298,29.00662 -40.890514,29.735873 -43.04001,30.504628 -45.175063,31.312627 -47.294958,32.159598 -49.398983,33.045259 -51.486432,33.96931 -53.556604,34.931443 -55.608806,35.931335 -57.642348,36.96865 -59.656548,38.043039 -61.65073,39.154144 -63.624225,40.301589 -65.576371,41.484992 -67.506512,42.703953 -69.414002,43.958066 -71.2982,45.246908 -73.158473,46.570047 -74.994198,47.927039 -76.804759,49.317429 -78.589548,50.740751 -80.347965,52.196526 -82.079422,53.684266 -83.783337,55.203473 -85.459139,56.753635 -87.106264,58.334234 -88.724161,59.944738 -90.312286,61.584608 -91.870107,63.253293 -93.397101,64.950233 -94.892755,66.674858 -96.356568,68.426591 -97.788048,70.204843 -99.186715,72.009017 -100.5521,73.838508 -101.883744,75.692703 -103.181202,77.570979 -104.444036,79.472705 -105.671824,81.397244 -106.864154,83.34395 -108.020626,85.31217 -109.140851,87.301242 -110.224453,89.310501 -111.27107,91.339271 -112.280349,93.386872 -113.251953,95.452617 -114.185554,97.535812 -115.080841,99.635759 -115.937512,101.751753 -116.75528,103.883083 -117.53387,106.029036 -118.273022,108.18889 -118.972487,110.361921 -119.632031,112.547399 -120.251432,114.744592 -120.830482,116.952762 -121.368987,119.171169 -121.866767,121.399067 -122.323655,123.635709 -122.739496,125.880345 -123.114152,128.132221 -123.447497,130.390582 -123.739419,132.654671 -123.98982,134.923727 -124.198616,137.196988 -124.365737,139.473693 -124.491127,141.753077 -124.574743,144.034376 -124.616558,146.316823 -124.616558,148.599654 -124.574743,150.882101 -124.491127,153.1634 -124.365737,155.442784 -124.198616,157.719489 -123.98982,159.99275 -123.739419,162.261806 -123.447497,164.525894 -123.114152,166.784256 -122.739496,169.036132 -122.323655,171.280768 -121.866767,173.51741 -121.368987,175.745308 -120.830482,177.963715 -120.251432,180.171885 -119.632031,182.369078 -118.972487,184.554556 -118.273022,186.727587 -117.53387,188.887441 -116.75528,191.033394 -115.937512,193.164724 -115.080841,195.280718 -114.185554,197.380665 -113.251953,199.46386 -112.280349,201.529605 -111.27107,203.577206 -110.224453,205.605976 -109.140851,207.615234 -108.020626,209.604307 -106.864154,211.572527 -105.671824,213.519233 -104.444036,215.443772 -103.181202,217.345498 -101.883744,219.223774 -100.5521,221.077969 -99.186715,222.90746 -97.788048,224.711634 -96.356568,226.489886 -94.892755,228.241619 -93.397101,229.966244 -91.870107,231.663184 -90.312286,233.331869 -88.724161,234.971738 -87.106264,236.582243 -85.459139,238.162842 -83.783337,239.713004 -82.079422,241.232211 -80.347965,242.719951 -78.589548,244.175726 -76.804759,245.599048 -74.994198,246.989438 -73.158473,248.34643 -71.2982,249.669569 -69.414002,250.958411 -67.506512,252.212523 -65.576371,253.431485 -63.624225,254.614888 -61.65073,255.762333 -59.656548,256.873437 -57.642348,257.947827 -55.608806,258.985142 -53.556604,259.985033 -51.486432,260.947167 -49.398983,261.871218 -47.294958,262.756879 -45.175063,263.60385 -43.04001,264.411849 -40.890514,265.180604 -38.727298,265.909857 -36.551087,266.599363 -34.362611,267.248891 -32.162604,267.858223 -29.951805,268.427155 -27.730956,268.955496 -25.500802,269.443068 -23.262091,269.889707 -21.015574,270.295265 -18.762005,270.659604 -16.502141,270.982604 -14.23674,271.264154 -11.966561,271.504161 -9.692367,271.702544 -7.41492,271.859237 -5.134986,271.974187 -2.853329,272.047355 -0.570714,272.078717 1.712093,272.068263 3.994325,272.015995 6.275216,271.921932 8.554002,271.786105 10.829918,271.60856 13.1022,271.389356 15.370085,271.128566 17.632813,270.826279 19.889624,270.482595 22.139761,270.09763 24.382469,269.671514 26.616995,269.204388 28.84259,268.696411 31.058507,268.147751 33.264003,267.558595 35.458336,266.929138 37.640771,266.259593 39.810576,265.550183 41.967022,264.801148 44.109387,264.012738 46.23695,263.185218 48.348998,262.318866 50.444823,261.413972 52.523721,260.47084 54.584994,259.489787 56.627952,258.471141 58.651908,257.415244 60.656183,256.322452 62.640105,255.193129 64.603007,254.027656 66.544233,252.826424 68.463129,251.589835 70.359052,250.318305 72.231366,249.012259 74.079443,247.672137 75.902662,246.298389 77.700412,244.891474 79.47209,243.451865 81.217101,241.980046 82.934859,240.476509 84.624788,238.94176 86.286321,237.376314 87.9189,235.780695 89.521979,234.15544 91.095018,232.501093 92.63749,230.818211 94.148877,229.107356 95.628672,227.369104 97.07638,225.604038 98.491513,223.81275 99.873597,221.995841 101.222168,220.15392 102.536774,218.287607 103.816973,216.397527 105.062337,214.484314 106.272447,212.54861 107.446897,210.591065 108.585293,208.612336 109.687253,206.613086 110.752407,204.593987 111.780398,202.555716 112.770881,200.498957 113.723524,198.4244 114.638006,196.332741 115.514021,194.224683 116.351276,192.100931 117.149489,189.9622 117.908392,187.809207 118.62773,185.642673 119.307263,183.463327 119.946762,181.2719 120.546013,179.069126 121.104814,176.855745 121.622979,174.632499 122.100333,172.400135 122.536715,170.159402 122.931981,167.911052 123.285996,165.655838 123.598642,163.394519 123.869815,161.127852 124.099423,158.856598 124.28739,156.581519 124.433651,154.303379 124.538159,152.022942 124.600877,149.740973 124.621786,147.458238"/>
<polygon id="0000022F9E877800" class="l0d0" points="-130.494016,-5.872231 130.494016,-5.872231 130.494016,5.872231 -130.494016,5.872231"/>
</g>
</svg>