<?xml version="1.0" encoding="UTF-8"?>
<svg xmlns="http://www.w3.org/2000/svg" xmlns:xlink="http://www.w3.org/1999/xlink" width="300" height="115.909091" viewBox="-13.636364 -92.045455 300 115.909091">
<defs>
<style type="text/css">
.l1d0 {stroke: #A1CAF1; fill: #A1CAF1; fill-opacity: 0.5;}
.l0d0 {fill:darkorange;stroke:chocolate;}
</style>
</defs>
<rect x="-13.636364" y="-92.045455" width="300" height="115.909091" fill="none" stroke="none"/>
<g id="Trace" transform="scale(1 -1)">
<polygon id="000001FE9818A6F0" class="l0d0" points="0,1.534091 0,-1.534091 102.272727,-1.534091 102.894469,-1.528665 103.516022,-1.512389 104.137196,-1.485268 104.757802,-1.44731 105.377651,-1.398527 105.996554,-1.338933 106.614323,-1.268548 107.230769,-1.187391 107.845705,-1.095488 108.458944,-0.992867 109.070298,-0.879559 109.679581,-0.755599 110.286609,-0.621024 110.891195,-0.475876 111.493156,-0.320198 112.092308,-0.154039 112.688469,0.022552 113.281458,0.209521 113.871093,0.40681 114.457195,0.614359 115.039585,0.832106 115.618087,1.059984 116.192524,1.297924 116.76272,1.545852 117.328503,1.803694 117.889699,2.071371 118.446139,2.348802 118.997652,2.635901 119.54407,2.932582 120.085227,3.238754 120.620959,3.554324 121.151101,3.879196 121.675493,4.21327 122.193974,4.556446 122.706388,4.908618 123.212577,5.269679 123.712387,5.639519 124.205667,6.018026 124.692266,6.405084 125.172036,6.800576 125.64483,7.20438 126.110505,7.616375 126.568919,8.036433 127.019932,8.464429 127.463406,8.90023 127.899208,9.343705 128.327203,9.794718 128.747262,10.253131 129.159256,10.718806 129.563061,11.1916 129.958552,11.67137 130.34561,12.157969 130.724117,12.651249 131.093958,13.151059 131.455019,13.657249 131.807191,14.169662 132.150366,14.688143 132.484441,15.212535 132.809312,15.742678 133.124882,16.278409 133.431054,16.819566 133.727735,17.365985 134.014835,17.917498 134.292265,18.473937 134.559942,19.035134 134.817784,19.600916 135.065713,20.171113 135.303652,20.745549 135.53153,21.324051 135.749277,21.906441 135.956827,22.492544 136.154116,23.082179 136.341084,23.675167 136.517675,24.271328 136.683835,24.870481 136.839513,25.472442 136.984661,26.077028 137.119236,26.684055 137.243196,27.293339 137.356503,27.904693 137.459124,28.517931 137.551027,29.132867 137.632184,29.749314 137.70257,30.367083 137.762163,30.985986 137.810947,31.605835 137.848904,32.226441 137.876025,32.847615 137.892301,33.469167 137.897727,34.090909 137.897727,34.090909 137.903158,34.685529 137.919448,35.27995 137.946591,35.873975 137.98458,36.467404 138.0334,37.060041 138.093036,37.651688 138.163469,38.242146 138.244673,38.83122 138.336623,39.418712 138.439288,40.004427 138.552633,40.588169 138.676621,41.169744 138.811209,41.748957 138.956355,42.325615 139.112008,42.899526 139.278117,43.470499 139.454626,44.038343 139.641478,44.602868 139.838609,45.163886 140.045953,45.72121 140.263442,46.274655 140.491002,46.824034 140.728559,47.369166 140.976032,47.909869 141.233339,48.445961 141.500395,48.977264 141.77711,49.503601 142.063391,50.024797 142.359145,50.540677 142.66427,51.051069 142.978667,51.555803 143.30223,52.054711 143.634851,52.547626 143.976419,53.034384 144.326821,53.514822 144.685938,53.988781 145.053652,54.456101 145.42984,54.916627 145.814377,55.370206 146.207133,55.816686 146.607978,56.255919 147.016779,56.687756 147.433399,57.112056 147.857698,57.528676 148.289536,57.937476 148.728768,58.338322 149.175248,58.731078 149.628827,59.115614 150.089354,59.491802 150.556674,59.859516 151.030632,60.218634 151.511071,60.569035 151.997828,60.910603 152.490743,61.243224 152.989651,61.566787 153.494386,61.881184 154.004778,62.18631 154.520658,62.482063 155.041853,62.768345 155.56819,63.04506 156.099494,63.312115 156.635586,63.569423 157.176288,63.816896 157.72142,64.054452 158.2708,64.282013 158.824244,64.499502 159.381569,64.706846 159.942587,64.903977 160.507112,65.090828 161.074955,65.267338 161.645928,65.433447 162.219839,65.5891 162.796498,65.734245 163.375711,65.868834 163.957285,65.992822 164.541028,66.106167 165.126742,66.208831 165.714235,66.300781 166.303308,66.381986 166.893767,66.452418 167.485413,66.512054 168.07805,66.560875 168.67148,66.598863 169.265505,66.626007 169.859926,66.642297 170.454545,66.647727 272.727273,66.647727 272.727273,69.715909 170.454545,69.715909 169.832803,69.710483 169.211251,69.694207 168.590077,69.667086 167.969471,69.629128 167.349622,69.580345 166.730719,69.520752 166.11295,69.450366 165.496504,69.369209 164.881568,69.277306 164.268329,69.174685 163.656975,69.061378 163.047691,68.937417 162.440664,68.802843 161.836078,68.657694 161.234117,68.502017 160.634965,68.335857 160.038803,68.159266 159.445815,67.972297 158.85618,67.775008 158.270078,67.567459 157.687687,67.349712 157.109186,67.121834 156.534749,66.883894 155.964553,66.635966 155.39877,66.378124 154.837573,66.110447 154.281134,65.833017 153.729621,65.545917 153.183203,65.249236 152.642045,64.943064 152.106314,64.627494 151.576172,64.302623 151.05178,63.968548 150.533298,63.625373 150.020885,63.273201 149.514696,62.91214 149.014885,62.542299 148.521605,62.163792 148.035007,61.776734 147.555237,61.381242 147.082443,60.977438 146.616768,60.565443 146.158354,60.145385 145.707341,59.717389 145.263866,59.281588 144.828065,58.838114 144.40007,58.387101 143.980011,57.928687 143.568017,57.463012 143.164212,56.990218 142.768721,56.510448 142.381662,56.023849 142.003155,55.530569 141.633315,55.030759 141.272254,54.52457 140.920082,54.012156 140.576906,53.493675 140.242832,52.969283 139.91796,52.439141 139.60239,51.903409 139.296218,51.362252 138.999537,50.815834 138.712438,50.264321 138.435008,49.707881 138.167331,49.146685 137.909489,48.580902 137.66156,48.010706 137.423621,47.436269 137.195743,46.857767 136.977996,46.275377 136.770446,45.689275 136.573157,45.09964 136.386189,44.506651 136.209598,43.91049 136.043438,43.311338 135.88776,42.709377 135.742612,42.10479 135.608037,41.497763 135.484077,40.88848 135.370769,40.277125 135.268148,39.663887 135.176246,39.048951 135.095089,38.432504 135.024703,37.814736 134.965109,37.195832 134.916326,36.575983 134.878368,35.955378 134.851247,35.334204 134.834971,34.712651 134.829545,34.090909 134.829545,34.090909 134.824115,33.496289 134.807825,32.901868 134.780681,32.307844 134.742693,31.714414 134.693873,31.121777 134.634236,30.530131 134.563804,29.939672 134.482599,29.350598 134.390649,28.763106 134.287985,28.177391 134.17464,27.593649 134.050652,27.012074 133.916063,26.432861 133.770918,25.856203 133.615265,25.282292 133.449156,24.711319 133.272646,24.143476 133.085795,23.57895 132.888664,23.017932 132.68132,22.460608 132.463831,21.907164 132.236271,21.357784 131.998714,20.812652 131.751241,20.27195 131.493934,19.735857 131.226878,19.204554 130.950163,18.678217 130.663881,18.157021 130.368128,17.641141 130.063002,17.130749 129.748605,16.626015 129.425043,16.127107 129.092422,15.634192 128.750853,15.147434 128.400452,14.666996 128.041335,14.193038 127.67362,13.725717 127.297432,13.265191 126.912896,12.811612 126.52014,12.365132 126.119294,11.9259 125.710494,11.494062 125.293874,11.069762 124.869575,10.653143 124.437737,10.244342 123.998504,9.843497 123.552024,9.45074 123.098446,9.066204 122.637919,8.690016 122.170599,8.322302 121.69664,7.963184 121.216202,7.612783 120.729444,7.271215 120.236529,6.938594 119.737621,6.615031 119.232887,6.300634 118.722495,5.995508 118.206615,5.699755 117.68542,5.413473 117.159082,5.136758 116.627779,4.869703 116.091687,4.612395 115.550985,4.364922 115.005853,4.127366 114.456473,3.899805 113.903028,3.682316 113.345704,3.474972 112.784686,3.277841 112.220161,3.09099 111.652317,2.91448 111.081345,2.748371 110.507433,2.592718 109.930775,2.447573 109.351562,2.312984 108.769987,2.188997 108.186245,2.075652 107.60053,1.972987 107.013038,1.881037 106.423964,1.799832 105.833506,1.7294 105.241859,1.669764 104.649222,1.620943 104.055793,1.582955 103.461768,1.555811 102.867347,1.539521 102.272727,1.534091"/>
<polygon id="000001FE9818A760" class="l1d0" points="0,10.227273 0,-10.227273 102.272727,-10.227273 102.968847,-10.221805 103.664795,-10.205404 104.3604,-10.178074 105.055489,-10.139821 105.749892,-10.090655 106.443437,-10.030587 107.135952,-9.959633 107.827268,-9.877811 108.517214,-9.785139 109.205618,-9.681642 109.892312,-9.567345 110.577126,-9.442276 111.259891,-9.306465 111.940439,-9.159947 112.618601,-9.002758 113.294211,-8.834936 113.967101,-8.656522 114.637106,-8.467561 115.30406,-8.2681 115.967799,-8.058187 116.628158,-7.837874 117.284976,-7.607216 117.93809,-7.36627 118.587338,-7.115094 119.232561,-6.853752 119.8736,-6.582307 120.510295,-6.300827 121.142491,-6.009381 121.770031,-5.70804 122.392761,-5.39688 123.010526,-5.075977 123.623174,-4.74541 124.230555,-4.40526 124.832517,-4.055613 125.428914,-3.696553 126.019597,-3.328169 126.60442,-2.950554 127.183241,-2.563798 127.755915,-2.167999 128.322301,-1.763253 128.88226,-1.349661 129.435654,-0.927324 129.982345,-0.496348 130.5222,-0.056837 131.055084,0.391099 131.580867,0.84735 132.099418,1.311804 132.61061,1.784345 133.114317,2.264857 133.610414,2.753222 134.098779,3.249319 134.579291,3.753026 135.051833,4.264218 135.516286,4.78277 135.972537,5.308552 136.420473,5.841437 136.859984,6.381291 137.290961,6.927983 137.713297,7.481376 138.12689,8.041335 138.531635,8.607722 138.927435,9.180396 139.31419,9.759216 139.691806,10.34404 140.060189,10.934723 140.419249,11.531119 140.768897,12.133082 141.109046,12.740462 141.439613,13.353111 141.760516,13.970876 142.071677,14.593605 142.373017,15.221145 142.664463,15.853341 142.945944,16.490037 143.217388,17.131075 143.478731,17.776298 143.729906,18.425547 143.970852,19.07866 144.20151,19.735478 144.421823,20.395838 144.631736,21.059576 144.831197,21.726531 145.020158,22.396535 145.198572,23.069425 145.366394,23.745035 145.523584,24.423197 145.670102,25.103745 145.805912,25.78651 145.930982,26.471324 146.045279,27.158018 146.148776,27.846423 146.241447,28.536368 146.32327,29.227684 146.394223,29.9202 146.454291,30.613745 146.503457,31.308147 146.54171,32.003237 146.569041,32.698841 146.585442,33.394789 146.590909,34.090909 146.590909,34.090909 146.596433,34.604361 146.613004,35.117576 146.640613,35.630315 146.679248,36.142342 146.728891,36.653418 146.789519,37.163309 146.861103,37.671777 146.943611,38.178586 147.037005,38.683504 147.141241,39.186295 147.25627,39.686726 147.382041,40.184567 147.518494,40.679587 147.665566,41.171556 147.82319,41.660247 147.991291,42.145433 148.169793,42.62689 148.358613,43.104395 148.557663,43.577726 148.766852,44.046666 148.986082,44.510995 149.215251,44.970501 149.454254,45.424969 149.70298,45.874189 149.961315,46.317954 150.229137,46.756058 150.506324,47.188298 150.792746,47.614474 151.088272,48.034388 151.392765,48.447847 151.706083,48.854658 152.028082,49.254634 152.358611,49.64759 152.69752,50.033342 153.044649,50.411713 153.39984,50.782528 153.762926,51.145615 154.133741,51.500805 154.512112,51.847935 154.897865,52.186843 155.29082,52.517373 155.690796,52.839372 156.097608,53.15269 156.511066,53.457182 156.930981,53.752708 157.357157,54.039131 157.789397,54.316317 158.2275,54.58414 158.671265,54.842474 159.120486,55.0912 159.574954,55.330204 160.034459,55.559373 160.498789,55.778603 160.967728,55.987791 161.44106,56.186841 161.918565,56.375661 162.400022,56.554163 162.885208,56.722265 163.373899,56.879888 163.865868,57.026961 164.360887,57.163414 164.858728,57.289184 165.35916,57.404214 165.861951,57.50845 166.366868,57.601843 166.873678,57.684352 167.382146,57.755936 167.892036,57.816564 168.403113,57.866206 168.915139,57.904841 169.427879,57.93245 169.941093,57.949021 170.454545,57.954545 272.727273,57.954545 272.727273,78.409091 170.454545,78.409091 169.758426,78.403623 169.062478,78.387223 168.366873,78.359892 167.671784,78.321639 166.977381,78.272473 166.283836,78.212405 165.59132,78.141451 164.900004,78.059629 164.210059,77.966958 163.521654,77.863461 162.83496,77.749163 162.150146,77.624094 161.467381,77.488284 160.786834,77.341766 160.108671,77.184576 159.433062,77.016754 158.760172,76.83834 158.090167,76.649379 157.423213,76.449918 156.759474,76.240005 156.099114,76.019692 155.442297,75.789034 154.789183,75.548088 154.139935,75.296912 153.494712,75.03557 152.853673,74.764125 152.216977,74.482645 151.584781,74.191199 150.957241,73.889858 150.334512,73.578698 149.716747,73.257795 149.104099,72.927228 148.496718,72.587078 147.894755,72.237431 147.298359,71.878371 146.707676,71.509988 146.122852,71.132372 145.544032,70.745616 144.971358,70.349817 144.404972,69.945071 143.845013,69.531479 143.291619,69.109143 142.744928,68.678166 142.205073,68.238655 141.672189,67.790719 141.146406,67.334468 140.627855,66.870014 140.116662,66.397473 139.612956,65.916961 139.116859,65.428596 138.628494,64.932499 138.147981,64.428792 137.67544,63.9176 137.210987,63.399049 136.754736,62.873266 136.306799,62.340381 135.867289,61.800527 135.436312,61.253835 135.013975,60.700442 134.600383,60.140483 134.195638,59.574096 133.799838,59.001422 133.413083,58.422602 133.035467,57.837778 132.667084,57.247095 132.308024,56.650699 131.958376,56.048736 131.618227,55.441356 131.28766,54.828708 130.966756,54.210943 130.655596,53.588213 130.354256,52.960673 130.062809,52.328477 129.781329,51.691782 129.509884,51.050743 129.248542,50.40552 128.997367,49.756271 128.75642,49.103158 128.525763,48.44634 128.30545,47.78598 128.095537,47.122242 127.896075,46.455288 127.707114,45.785283 127.528701,45.112393 127.360879,44.436783 127.203689,43.758621 127.057171,43.078073 126.92136,42.395308 126.796291,41.710494 126.681994,41.0238 126.578497,40.335396 126.485826,39.64545 126.404003,38.954134 126.333049,38.261618 126.272982,37.568074 126.223815,36.873671 126.185562,36.178581 126.158232,35.482977 126.141831,34.787029 126.136364,34.090909 126.136364,34.090909 126.130839,33.577457 126.114269,33.064242 126.08666,32.551503 126.048025,32.039476 125.998382,31.5284 125.937754,31.018509 125.86617,30.510042 125.783662,30.003232 125.690268,29.498315 125.586032,28.995524 125.471002,28.495092 125.345232,27.997251 125.208779,27.502231 125.061707,27.010262 124.904083,26.521572 124.735981,26.036385 124.557479,25.554928 124.368659,25.077424 124.169609,24.604092 123.960421,24.135153 123.741191,23.670823 123.512022,23.211318 123.273019,22.756849 123.024292,22.307629 122.765958,21.863864 122.498136,21.42576 122.220949,20.99352 121.934526,20.567344 121.639,20.14743 121.334508,19.733971 121.02119,19.32716 120.699191,18.927184 120.368661,18.534229 120.029753,18.148476 119.682623,17.770105 119.327433,17.39929 118.964346,17.036203 118.593532,16.681013 118.21516,16.333883 117.829408,15.994975 117.436453,15.664445 117.036477,15.342447 116.629665,15.029129 116.216206,14.724636 115.796292,14.42911 115.370116,14.142687 114.937876,13.865501 114.499772,13.597678 114.056007,13.339344 113.606787,13.090618 113.152319,12.851615 112.692813,12.622445 112.228484,12.403215 111.759544,12.194027 111.286213,11.994977 110.808708,11.806157 110.327251,11.627655 109.842065,11.459553 109.353374,11.30193 108.861405,11.154857 108.366385,11.018404 107.868545,10.892634 107.368113,10.777604 106.865322,10.673368 106.360405,10.579975 105.853595,10.497467 105.345127,10.425882 104.835237,10.365254 104.32416,10.315612 103.812133,10.276977 103.299394,10.249368 102.78618,10.232797 102.272727,10.227273"/>
</g>
</svg>