<?xml version="1.0" encoding="UTF-8"?>
<svg xmlns="http://www.w3.org/2000/svg" xmlns:xlink="http://www.w3.org/1999/xlink" width="250" height="148.358586" viewBox="-131.313131 -74.179293 250 148.358586">
<defs>
<style type="text/css">
.l1d0 {stroke: #A1CAF1; fill: #A1CAF1; fill-opacity: 0.5;}
.l0d0 {fill:darkorange;stroke:chocolate;}
</style>
<g id="YBranch_YBranch_Compact$1">
</g>
</defs>
<rect x="-131.313131" y="-74.179293" width="250" height="148.358586" fill="none" stroke="none"/>
<g id="YBranch" transform="scale(1 -1)">
<polygon id="000001FE9818A300" class="l0d0" points="81.540404,-37.878788 80.227273,-37.866162 80.063131,-37.866162 79.368687,-37.853535 79.280303,-37.853535 78.75,-37.840909 78.699495,-37.840909 78.219697,-37.828283 78.169192,-37.828283 77.765152,-37.815657 77.727273,-37.815657 77.361111,-37.80303 77.310606,-37.80303 76.957071,-37.790404 76.944444,-37.790404 76.616162,-37.777778 76.578283,-37.777778 76.262626,-37.765152 76.25,-37.765152 75.972222,-37.752525 75.934343,-37.752525 75.366162,-37.727273 75.353535,-37.727273 75.113636,-37.714646 75.075758,-37.714646 74.835859,-37.70202 74.823232,-37.70202 74.343434,-37.676768 74.330808,-37.676768 74.103535,-37.664141 74.090909,-37.664141 73.409091,-37.626263 72.80303,-37.588384 72.790404,-37.588384 72.60101,-37.575758 72.588384,-37.575758 72.19697,-37.550505 72.032828,-37.537879 71.830808,-37.525253 71.666667,-37.512626 71.464646,-37.5 71.313131,-37.487374 71.300505,-37.487374 70.94697,-37.462121 70.631313,-37.436869 70.618687,-37.436869 70.138889,-37.39899 69.545455,-37.348485 69.532828,-37.348485 68.825758,-37.285354 68.661616,-37.272727 68.54798,-37.260101 68.270202,-37.234848 68.257576,-37.234848 66.843434,-37.09596 66.010101,-37.007576 65,-36.893939 64.79798,-36.868687 64.570707,-36.843434 63.939394,-36.767677 63.75,-36.742424 63.636364,-36.729798 63.54798,-36.717172 63.434343,-36.704545 63.055556,-36.65404 63.042929,-36.65404 61.628788,-36.464646 61.55303,-36.45202 61.363636,-36.426768 60.744949,-36.338384 60.063131,-36.237374 58.75,-36.035354 57.588384,-35.84596 57.449495,-35.820707 56.919192,-35.732323 56.856061,-35.719697 56.628788,-35.681818 55.492424,-35.479798 55.088384,-35.40404 55.012626,-35.391414 54.217172,-35.239899 54.141414,-35.227273 53.825758,-35.164141 53.75,-35.151515 52.361111,-34.873737 51.325758,-34.659091 50.214646,-34.419192 49.936869,-34.356061 49.760101,-34.318182 48.926768,-34.128788 48.106061,-33.939394 47.739899,-33.85101 47.361111,-33.762626 47.159091,-33.712121 46.893939,-33.64899 45.328283,-33.257576 44.305556,-32.992424 43.977273,-32.90404 43.876263,-32.878788 43.787879,-32.853535 43.686869,-32.828283 43.459596,-32.765152 43.358586,-32.739899 41.982323,-32.361111 41.856061,-32.323232 41.313131,-32.171717 41.186869,-32.133838 40.656566,-31.982323 40.618687,-31.969697 40.441919,-31.919192 40.40404,-31.906566 39.166667,-31.540404 38.093434,-31.212121 36.893939,-30.833333 36.14899,-30.593434 34.886364,-30.176768 34.368687,-30 34.103535,-29.911616 33.85101,-29.823232 33.699495,-29.772727 32.260101,-29.267677 31.45202,-28.977273 30.454545,-28.611111 29.179293,-28.131313 29.05303,-28.080808 28.623737,-27.916667 28.598485,-27.90404 0.694444,-17.121212 0.618687,-17.09596 0.492424,-17.045455 -0.20202,-16.780303 -0.340909,-16.729798 -0.40404,-16.704545 -1.35101,-16.35101 -2.285354,-16.010101 -3.598485,-15.542929 -4.040404,-15.391414 -4.217172,-15.328283 -4.406566,-15.265152 -4.659091,-15.176768 -6.477273,-14.570707 -7.260101,-14.318182 -8.219697,-14.015152 -8.510101,-13.926768 -8.585859,-13.901515 -9.621212,-13.585859 -10.391414,-13.358586 -10.555556,-13.308081 -11.123737,-13.143939 -12.323232,-12.80303 -13.055556,-12.60101 -14.179293,-12.29798 -15.050505,-12.070707 -15.542929,-11.944444 -16.401515,-11.729798 -18.409091,-11.25 -19.343434,-11.035354 -19.406566,-11.022727 -19.457071,-11.010101 -19.861111,-10.921717 -19.911616,-10.909091 -21.325758,-10.606061 -21.376263,-10.593434 -21.565657,-10.555556 -21.679293,-10.530303 -22.171717,-10.429293 -23.055556,-10.252525 -23.636364,-10.138889 -24.103535,-10.050505 -25.757576,-9.747475 -25.909091,-9.722222 -26.186869,-9.671717 -26.414141,-9.633838 -26.55303,-9.608586 -27.689394,-9.419192 -27.777778,-9.406566 -28.005051,-9.368687 -28.093434,-9.356061 -28.320707,-9.318182 -29.469697,-9.141414 -31.04798,-8.914141 -31.603535,-8.838384 -31.805556,-8.813131 -31.982323,-8.787879 -32.979798,-8.661616 -33.068182,-8.64899 -33.800505,-8.560606 -35.252525,-8.396465 -36.212121,-8.295455 -37.80303,-8.143939 -38.106061,-8.118687 -38.522727,-8.080808 -38.825758,-8.055556 -38.85101,-8.055556 -39.457071,-8.005051 -40.126263,-7.954545 -40.151515,-7.954545 -40.30303,-7.941919 -41.616162,-7.853535 -41.641414,-7.853535 -42.032828,-7.828283 -42.045455,-7.828283 -42.929293,-7.777778 -42.954545,-7.777778 -43.661616,-7.739899 -43.686869,-7.739899 -43.926768,-7.727273 -43.964646,-7.727273 -44.204545,-7.714646 -44.242424,-7.714646 -44.507576,-7.70202 -44.545455,-7.70202 -44.823232,-7.689394 -44.848485,-7.689394 -45.126263,-7.676768 -45.151515,-7.676768 -45.467172,-7.664141 -45.492424,-7.664141 -45.833333,-7.651515 -45.896465,-7.651515 -46.262626,-7.638889 -46.287879,-7.638889 -46.691919,-7.626263 -46.755051,-7.626263 -47.184343,-7.613636 -47.272727,-7.613636 -47.765152,-7.60101 -47.891414,-7.60101 -48.535354,-7.588384 -48.686869,-7.588384 -49.949495,-7.575758 -50.505051,-7.575758 -51.25,-7.525253 -52.449495,-7.550505 -54.356061,-8.131313 -56.010101,-8.674242 -59.570707,-8.888889 -62.550505,-8.926768 -64.659091,-8.333333 -65.934343,-7.209596 -68.080808,-5.189394 -69.709596,-4.343434 -71.994949,-3.64899 -73.44697,-3.244949 -74.936869,-3.080808 -75.757576,-3.156566 -94.69697,-3.156566 -119.949495,-2.840909 -119.949495,2.840909 -94.69697,3.156566 -75.757576,3.156566 -74.722222,3.093434 -73.724747,3.156566 -72.436869,3.472222 -70.037879,4.229798 -68.131313,5.037879 -65.744949,7.411616 -64.621212,8.383838 -63.257576,8.813131 -56.780303,8.939394 -52.638889,7.60101 -50.505051,7.575758 -49.949495,7.575758 -48.686869,7.588384 -48.535354,7.588384 -47.891414,7.60101 -47.765152,7.60101 -47.272727,7.613636 -47.184343,7.613636 -46.755051,7.626263 -46.691919,7.626263 -46.287879,7.638889 -46.262626,7.638889 -45.896465,7.651515 -45.833333,7.651515 -45.492424,7.664141 -45.467172,7.664141 -45.151515,7.676768 -45.126263,7.676768 -44.848485,7.689394 -44.823232,7.689394 -44.545455,7.70202 -44.507576,7.70202 -44.242424,7.714646 -44.204545,7.714646 -43.964646,7.727273 -43.926768,7.727273 -43.686869,7.739899 -43.661616,7.739899 -42.954545,7.777778 -42.929293,7.777778 -42.045455,7.828283 -42.032828,7.828283 -41.641414,7.853535 -41.616162,7.853535 -40.30303,7.941919 -40.151515,7.954545 -40.126263,7.954545 -39.457071,8.005051 -38.85101,8.055556 -38.825758,8.055556 -38.522727,8.080808 -38.106061,8.118687 -37.80303,8.143939 -36.212121,8.295455 -35.252525,8.396465 -33.800505,8.560606 -33.068182,8.64899 -32.979798,8.661616 -31.982323,8.787879 -31.805556,8.813131 -31.603535,8.838384 -31.04798,8.914141 -29.469697,9.141414 -28.320707,9.318182 -28.093434,9.356061 -28.005051,9.368687 -27.777778,9.406566 -27.689394,9.419192 -26.55303,9.608586 -26.414141,9.633838 -26.186869,9.671717 -25.909091,9.722222 -25.757576,9.747475 -24.103535,10.050505 -23.636364,10.138889 -23.055556,10.252525 -22.171717,10.429293 -21.679293,10.530303 -21.565657,10.555556 -21.376263,10.593434 -21.325758,10.606061 -19.911616,10.909091 -19.861111,10.921717 -19.457071,11.010101 -19.406566,11.022727 -19.343434,11.035354 -18.409091,11.25 -16.401515,11.729798 -15.542929,11.944444 -15.050505,12.070707 -14.179293,12.29798 -13.055556,12.60101 -12.323232,12.80303 -11.123737,13.143939 -10.555556,13.308081 -10.391414,13.358586 -9.621212,13.585859 -8.585859,13.901515 -8.510101,13.926768 -8.219697,14.015152 -7.260101,14.318182 -6.477273,14.570707 -4.659091,15.176768 -4.406566,15.265152 -4.217172,15.328283 -4.040404,15.391414 -3.598485,15.542929 -2.285354,16.010101 -1.35101,16.35101 -0.40404,16.704545 -0.340909,16.729798 -0.20202,16.780303 0.492424,17.045455 0.618687,17.09596 0.694444,17.121212 28.598485,27.90404 28.623737,27.916667 29.05303,28.080808 29.179293,28.131313 30.454545,28.611111 31.45202,28.977273 32.260101,29.267677 33.699495,29.772727 33.85101,29.823232 34.103535,29.911616 34.368687,30 34.886364,30.176768 36.14899,30.593434 36.893939,30.833333 38.093434,31.212121 39.166667,31.540404 40.40404,31.906566 40.441919,31.919192 40.618687,31.969697 40.656566,31.982323 41.186869,32.133838 41.313131,32.171717 41.856061,32.323232 41.982323,32.361111 43.358586,32.739899 43.459596,32.765152 43.686869,32.828283 43.787879,32.853535 43.876263,32.878788 43.977273,32.90404 44.305556,32.992424 45.328283,33.257576 46.893939,33.64899 47.159091,33.712121 47.361111,33.762626 47.739899,33.85101 48.106061,33.939394 48.926768,34.128788 49.760101,34.318182 49.936869,34.356061 50.214646,34.419192 51.325758,34.659091 52.361111,34.873737 53.75,35.151515 53.825758,35.164141 54.141414,35.227273 54.217172,35.239899 55.012626,35.391414 55.088384,35.40404 55.492424,35.479798 56.628788,35.681818 56.856061,35.719697 56.919192,35.732323 57.449495,35.820707 57.588384,35.84596 58.75,36.035354 60.063131,36.237374 60.744949,36.338384 61.363636,36.426768 61.55303,36.45202 61.628788,36.464646 63.042929,36.65404 63.055556,36.65404 63.434343,36.704545 63.54798,36.717172 63.636364,36.729798 63.75,36.742424 63.939394,36.767677 64.570707,36.843434 64.79798,36.868687 65,36.893939 66.010101,37.007576 66.843434,37.09596 68.257576,37.234848 68.270202,37.234848 68.54798,37.260101 68.661616,37.272727 68.825758,37.285354 69.532828,37.348485 69.545455,37.348485 70.138889,37.39899 70.618687,37.436869 70.631313,37.436869 70.94697,37.462121 71.300505,37.487374 71.313131,37.487374 71.464646,37.5 71.666667,37.512626 71.830808,37.525253 72.032828,37.537879 72.19697,37.550505 72.588384,37.575758 72.60101,37.575758 72.790404,37.588384 72.80303,37.588384 73.409091,37.626263 74.090909,37.664141 74.103535,37.664141 74.330808,37.676768 74.343434,37.676768 74.823232,37.70202 74.835859,37.70202 75.075758,37.714646 75.113636,37.714646 75.353535,37.727273 75.366162,37.727273 75.934343,37.752525 75.972222,37.752525 76.25,37.765152 76.262626,37.765152 76.578283,37.777778 76.616162,37.777778 76.944444,37.790404 76.957071,37.790404 77.310606,37.80303 77.361111,37.80303 77.727273,37.815657 77.765152,37.815657 78.169192,37.828283 78.219697,37.828283 78.699495,37.840909 78.75,37.840909 79.280303,37.853535 79.368687,37.853535 80.063131,37.866162 80.227273,37.866162 81.540404,37.878788 82.070707,37.878788 107.323232,37.563131 107.323232,31.881313 82.070707,31.565657 81.515152,31.565657 80.252525,31.55303 80.10101,31.55303 79.457071,31.540404 79.330808,31.540404 78.838384,31.527778 78.75,31.527778 78.320707,31.515152 78.257576,31.515152 77.853535,31.502525 77.828283,31.502525 77.462121,31.489899 77.39899,31.489899 77.058081,31.477273 77.032828,31.477273 76.717172,31.464646 76.691919,31.464646 76.414141,31.45202 76.388889,31.45202 76.111111,31.439394 76.073232,31.439394 75.808081,31.426768 75.770202,31.426768 75.530303,31.414141 75.492424,31.414141 75.252525,31.401515 75.227273,31.401515 74.520202,31.363636 74.494949,31.363636 74.027778,31.338384 73.611111,31.313131 73.598485,31.313131 73.207071,31.287879 73.181818,31.287879 71.868687,31.199495 71.717172,31.186869 71.691919,31.186869 71.022727,31.136364 70.416667,31.085859 70.391414,31.085859 70.088384,31.060606 69.962121,31.04798 69.090909,30.972222 67.777778,30.84596 66.818182,30.744949 65.580808,30.606061 64.633838,30.492424 64.545455,30.479798 63.54798,30.353535 63.371212,30.328283 63.169192,30.30303 62.613636,30.227273 61.906566,30.126263 60.782828,29.962121 59.886364,29.823232 59.659091,29.785354 59.570707,29.772727 59.343434,29.734848 59.255051,29.722222 58.118687,29.532828 57.979798,29.507576 57.752525,29.469697 57.474747,29.419192 57.323232,29.393939 55.732323,29.103535 55.20202,29.002525 54.621212,28.888889 53.737374,28.712121 53.244949,28.611111 53.131313,28.585859 52.941919,28.54798 52.891414,28.535354 52.588384,28.472222 51.590909,28.257576 51.426768,28.219697 51.022727,28.131313 50.972222,28.118687 50.909091,28.106061 50.025253,27.90404 47.967172,27.411616 47.108586,27.19697 45.744949,26.843434 44.343434,26.464646 43.396465,26.199495 42.121212,25.833333 41.957071,25.782828 41.439394,25.631313 40.151515,25.239899 40.075758,25.214646 39.949495,25.176768 38.825758,24.823232 38.042929,24.570707 36.224747,23.964646 35.972222,23.876263 35.782828,23.813131 35.606061,23.75 35.164141,23.598485 34.166667,23.244949 33.434343,22.979798 31.969697,22.436869 31.906566,22.411616 31.767677,22.361111 31.073232,22.09596 30.94697,22.045455 30.871212,22.020202 2.967172,11.237374 2.941919,11.224747 2.512626,11.060606 2.386364,11.010101 1.111111,10.530303 0.391414,10.265152 -0.694444,9.873737 -1.085859,9.734848 -2.133838,9.368687 -2.285354,9.318182 -2.537879,9.229798 -2.80303,9.141414 -3.320707,8.964646 -4.583333,8.54798 -5.328283,8.308081 -6.527778,7.929293 -7.727273,7.563131 -8.876263,7.222222 -9.05303,7.171717 -9.090909,7.159091 -9.621212,7.007576 -9.747475,6.969697 -10.290404,6.818182 -10.416667,6.780303 -11.792929,6.401515 -11.893939,6.376263 -12.121212,6.313131 -12.222222,6.287879 -12.310606,6.262626 -12.411616,6.237374 -12.739899,6.14899 -13.762626,5.883838 -15.328283,5.492424 -15.593434,5.429293 -15.795455,5.378788 -16.540404,5.20202 -16.818182,5.138889 -16.919192,5.113636 -18.194444,4.823232 -18.371212,4.785354 -18.535354,4.747475 -19.760101,4.482323 -20.795455,4.267677 -22.184343,3.989899 -22.260101,3.977273 -22.575758,3.914141 -22.651515,3.901515 -23.926768,3.661616 -24.848485,3.497475 -25.290404,3.421717 -25.353535,3.409091 -25.883838,3.320707 -26.022727,3.295455 -27.184343,3.106061 -28.156566,2.954545 -29.179293,2.80303 -29.79798,2.714646 -29.987374,2.689394 -30.063131,2.676768 -31.477273,2.487374 -31.489899,2.487374 -31.868687,2.436869 -31.982323,2.424242 -32.070707,2.411616 -32.184343,2.39899 -32.373737,2.373737 -33.005051,2.29798 -33.232323,2.272727 -33.434343,2.247475 -34.217172,2.159091 -35.277778,2.045455 -36.691919,1.906566 -36.704545,1.906566 -36.982323,1.881313 -37.09596,1.868687 -37.260101,1.856061 -37.967172,1.792929 -37.979798,1.792929 -38.421717,1.755051 -39.05303,1.704545 -39.065657,1.704545 -39.734848,1.65404 -39.747475,1.65404 -39.89899,1.641414 -40.10101,1.628788 -40.265152,1.616162 -40.467172,1.603535 -40.631313,1.590909 -41.022727,1.565657 -41.035354,1.565657 -41.224747,1.55303 -41.237374,1.55303 -41.843434,1.515152 -42.525253,1.477273 -42.537879,1.477273 -42.765152,1.464646 -42.777778,1.464646 -43.257576,1.439394 -43.270202,1.439394 -43.510101,1.426768 -43.54798,1.426768 -43.787879,1.414141 -43.800505,1.414141 -44.368687,1.388889 -44.406566,1.388889 -44.684343,1.376263 -44.69697,1.376263 -45.012626,1.363636 -45.050505,1.363636 -45.378788,1.35101 -45.391414,1.35101 -45.744949,1.338384 -45.795455,1.338384 -46.161616,1.325758 -46.199495,1.325758 -46.603535,1.313131 -46.65404,1.313131 -47.133838,1.300505 -47.184343,1.300505 -47.714646,1.287879 -47.80303,1.287879 -48.497475,1.275253 -48.661616,1.275253 -49.974747,1.262626 -50.505051,1.262626 -50.505051,-1.262626 -49.974747,-1.262626 -48.661616,-1.275253 -48.497475,-1.275253 -47.80303,-1.287879 -47.714646,-1.287879 -47.184343,-1.300505 -47.133838,-1.300505 -46.65404,-1.313131 -46.603535,-1.313131 -46.199495,-1.325758 -46.161616,-1.325758 -45.795455,-1.338384 -45.744949,-1.338384 -45.391414,-1.35101 -45.378788,-1.35101 -45.050505,-1.363636 -45.012626,-1.363636 -44.69697,-1.376263 -44.684343,-1.376263 -44.406566,-1.388889 -44.368687,-1.388889 -43.800505,-1.414141 -43.787879,-1.414141 -43.54798,-1.426768 -43.510101,-1.426768 -43.270202,-1.439394 -43.257576,-1.439394 -42.777778,-1.464646 -42.765152,-1.464646 -42.537879,-1.477273 -42.525253,-1.477273 -41.843434,-1.515152 -41.237374,-1.55303 -41.224747,-1.55303 -41.035354,-1.565657 -41.022727,-1.565657 -40.631313,-1.590909 -40.467172,-1.603535 -40.265152,-1.616162 -40.10101,-1.628788 -39.89899,-1.641414 -39.747475,-1.65404 -39.734848,-1.65404 -39.065657,-1.704545 -39.05303,-1.704545 -38.421717,-1.755051 -37.979798,-1.792929 -37.967172,-1.792929 -37.260101,-1.856061 -37.09596,-1.868687 -36.982323,-1.881313 -36.704545,-1.906566 -36.691919,-1.906566 -35.277778,-2.045455 -34.217172,-2.159091 -33.434343,-2.247475 -33.232323,-2.272727 -33.005051,-2.29798 -32.373737,-2.373737 -32.184343,-2.39899 -32.070707,-2.411616 -31.982323,-2.424242 -31.868687,-2.436869 -31.489899,-2.487374 -31.477273,-2.487374 -30.063131,-2.676768 -29.987374,-2.689394 -29.79798,-2.714646 -29.179293,-2.80303 -28.156566,-2.954545 -27.184343,-3.106061 -26.022727,-3.295455 -25.883838,-3.320707 -25.353535,-3.409091 -25.290404,-3.421717 -24.848485,-3.497475 -23.926768,-3.661616 -22.651515,-3.901515 -22.575758,-3.914141 -22.260101,-3.977273 -22.184343,-3.989899 -20.795455,-4.267677 -19.760101,-4.482323 -18.535354,-4.747475 -18.371212,-4.785354 -18.194444,-4.823232 -16.919192,-5.113636 -16.818182,-5.138889 -16.540404,-5.20202 -15.795455,-5.378788 -15.593434,-5.429293 -15.328283,-5.492424 -13.762626,-5.883838 -12.739899,-6.14899 -12.411616,-6.237374 -12.310606,-6.262626 -12.222222,-6.287879 -12.121212,-6.313131 -11.893939,-6.376263 -11.792929,-6.401515 -10.416667,-6.780303 -10.290404,-6.818182 -9.747475,-6.969697 -9.621212,-7.007576 -9.090909,-7.159091 -9.05303,-7.171717 -8.876263,-7.222222 -7.727273,-7.563131 -6.527778,-7.929293 -5.328283,-8.308081 -4.583333,-8.54798 -3.320707,-8.964646 -2.80303,-9.141414 -2.537879,-9.229798 -2.285354,-9.318182 -2.133838,-9.368687 -1.085859,-9.734848 -0.694444,-9.873737 0.391414,-10.265152 1.111111,-10.530303 2.386364,-11.010101 2.512626,-11.060606 2.941919,-11.224747 2.967172,-11.237374 30.871212,-22.020202 30.94697,-22.045455 31.073232,-22.09596 31.767677,-22.361111 31.906566,-22.411616 31.969697,-22.436869 33.434343,-22.979798 34.166667,-23.244949 35.164141,-23.598485 35.606061,-23.75 35.782828,-23.813131 35.972222,-23.876263 36.224747,-23.964646 38.042929,-24.570707 38.825758,-24.823232 39.949495,-25.176768 40.075758,-25.214646 40.151515,-25.239899 41.439394,-25.631313 41.957071,-25.782828 42.121212,-25.833333 43.396465,-26.199495 44.343434,-26.464646 45.744949,-26.843434 47.108586,-27.19697 47.967172,-27.411616 50.025253,-27.90404 50.909091,-28.106061 50.972222,-28.118687 51.022727,-28.131313 51.426768,-28.219697 51.590909,-28.257576 52.588384,-28.472222 52.891414,-28.535354 52.941919,-28.54798 53.131313,-28.585859 53.244949,-28.611111 53.737374,-28.712121 54.621212,-28.888889 55.20202,-29.002525 55.732323,-29.103535 57.323232,-29.393939 57.474747,-29.419192 57.752525,-29.469697 57.979798,-29.507576 58.118687,-29.532828 59.255051,-29.722222 59.343434,-29.734848 59.570707,-29.772727 59.659091,-29.785354 59.886364,-29.823232 60.782828,-29.962121 61.906566,-30.126263 62.613636,-30.227273 63.169192,-30.30303 63.371212,-30.328283 63.54798,-30.353535 64.545455,-30.479798 64.633838,-30.492424 65.580808,-30.606061 66.818182,-30.744949 67.777778,-30.84596 69.090909,-30.972222 69.962121,-31.04798 70.088384,-31.060606 70.391414,-31.085859 70.416667,-31.085859 71.022727,-31.136364 71.691919,-31.186869 71.717172,-31.186869 71.868687,-31.199495 73.181818,-31.287879 73.207071,-31.287879 73.598485,-31.313131 73.611111,-31.313131 74.027778,-31.338384 74.494949,-31.363636 74.520202,-31.363636 75.227273,-31.401515 75.252525,-31.401515 75.492424,-31.414141 75.530303,-31.414141 75.770202,-31.426768 75.808081,-31.426768 76.073232,-31.439394 76.111111,-31.439394 76.388889,-31.45202 76.414141,-31.45202 76.691919,-31.464646 76.717172,-31.464646 77.032828,-31.477273 77.058081,-31.477273 77.39899,-31.489899 77.462121,-31.489899 77.828283,-31.502525 77.853535,-31.502525 78.257576,-31.515152 78.320707,-31.515152 78.75,-31.527778 78.838384,-31.527778 79.330808,-31.540404 79.457071,-31.540404 80.10101,-31.55303 80.252525,-31.55303 81.515152,-31.565657 82.070707,-31.565657 107.323232,-31.881313 107.323232,-37.563131 82.070707,-37.878788"/>
<polygon id="000001FE9818A610" class="l0d0" points="-112.575758,14.103535 -112.575758,14.103535 -112.575758,14.103535 -112.575758,14.103535"/>
<polygon id="000001FE9818A680" class="l1d0" points="-119.949495,-62.815657 -119.949495,62.815657 107.323232,62.815657 107.323232,-62.815657"/>
<use transform="translate(-94.69697 0)" xlink:href="#YBranch_YBranch_Compact$1"/>
</g>
</svg>