<?xml version="1.0" encoding="UTF-8"?>
<svg xmlns="http://www.w3.org/2000/svg" xmlns:xlink="http://www.w3.org/1999/xlink" width="300" height="118.181818" viewBox="-157.575758 -59.090909 300 118.181818">
<defs>
<style type="text/css">
.l0d0 {fill:darkorange;stroke:chocolate;}
</style>
<g id="YBranch_YBranch_Compact$1">
</g>
</defs>
<rect x="-157.575758" y="-59.090909" width="300" height="118.181818" fill="none" stroke="none"/>
<g id="YBranch" transform="scale(1 -1)">
<polygon id="0000022F9E877090" class="l0d0" points="97.848485,-45.454545 96.272727,-45.439394 96.075758,-45.439394 95.242424,-45.424242 95.136364,-45.424242 94.5,-45.409091 94.439394,-45.409091 93.863636,-45.393939 93.80303,-45.393939 93.318182,-45.378788 93.272727,-45.378788 92.833333,-45.363636 92.772727,-45.363636 92.348485,-45.348485 92.333333,-45.348485 91.939394,-45.333333 91.893939,-45.333333 91.515152,-45.318182 91.5,-45.318182 91.166667,-45.30303 91.121212,-45.30303 90.439394,-45.272727 90.424242,-45.272727 90.136364,-45.257576 90.090909,-45.257576 89.80303,-45.242424 89.787879,-45.242424 89.212121,-45.212121 89.19697,-45.212121 88.924242,-45.19697 88.909091,-45.19697 88.090909,-45.151515 87.363636,-45.106061 87.348485,-45.106061 87.121212,-45.090909 87.106061,-45.090909 86.636364,-45.060606 86.439394,-45.045455 86.19697,-45.030303 86,-45.015152 85.757576,-45 85.575758,-44.984848 85.560606,-44.984848 85.136364,-44.954545 84.757576,-44.924242 84.742424,-44.924242 84.166667,-44.878788 83.454545,-44.818182 83.439394,-44.818182 82.590909,-44.742424 82.393939,-44.727273 82.257576,-44.712121 81.924242,-44.681818 81.909091,-44.681818 80.212121,-44.515152 79.212121,-44.409091 78,-44.272727 77.757576,-44.242424 77.484848,-44.212121 76.727273,-44.121212 76.5,-44.090909 76.363636,-44.075758 76.257576,-44.060606 76.121212,-44.045455 75.666667,-43.984848 75.651515,-43.984848 73.954545,-43.757576 73.863636,-43.742424 73.636364,-43.712121 72.893939,-43.606061 72.075758,-43.484848 70.5,-43.242424 69.106061,-43.015152 68.939394,-42.984848 68.30303,-42.878788 68.227273,-42.863636 67.954545,-42.818182 66.590909,-42.575758 66.106061,-42.484848 66.015152,-42.469697 65.060606,-42.287879 64.969697,-42.272727 64.590909,-42.19697 64.5,-42.181818 62.833333,-41.848485 61.590909,-41.590909 60.257576,-41.30303 59.924242,-41.227273 59.712121,-41.181818 58.712121,-40.954545 57.727273,-40.727273 57.287879,-40.621212 56.833333,-40.515152 56.590909,-40.454545 56.272727,-40.378788 54.393939,-39.909091 53.166667,-39.590909 52.772727,-39.484848 52.651515,-39.454545 52.545455,-39.424242 52.424242,-39.393939 52.151515,-39.318182 52.030303,-39.287879 50.378788,-38.833333 50.227273,-38.787879 49.575758,-38.606061 49.424242,-38.560606 48.787879,-38.378788 48.742424,-38.363636 48.530303,-38.30303 48.484848,-38.287879 47,-37.848485 45.712121,-37.454545 44.272727,-37 43.378788,-36.712121 41.863636,-36.212121 41.242424,-36 40.924242,-35.893939 40.621212,-35.787879 40.439394,-35.727273 38.712121,-35.121212 37.742424,-34.772727 36.545455,-34.333333 35.015152,-33.757576 34.863636,-33.69697 34.348485,-33.5 34.318182,-33.484848 0.833333,-20.545455 0.742424,-20.515152 0.590909,-20.454545 -0.242424,-20.136364 -0.409091,-20.075758 -0.484848,-20.045455 -1.621212,-19.621212 -2.742424,-19.212121 -4.318182,-18.651515 -4.848485,-18.469697 -5.060606,-18.393939 -5.287879,-18.318182 -5.590909,-18.212121 -7.772727,-17.484848 -8.712121,-17.181818 -9.863636,-16.818182 -10.212121,-16.712121 -10.30303,-16.681818 -11.545455,-16.30303 -12.469697,-16.030303 -12.666667,-15.969697 -13.348485,-15.772727 -14.787879,-15.363636 -15.666667,-15.121212 -17.015152,-14.757576 -18.060606,-14.484848 -18.651515,-14.333333 -19.681818,-14.075758 -22.090909,-13.5 -23.212121,-13.242424 -23.287879,-13.227273 -23.348485,-13.212121 -23.833333,-13.106061 -23.893939,-13.090909 -25.590909,-12.727273 -25.651515,-12.712121 -25.878788,-12.666667 -26.015152,-12.636364 -26.606061,-12.515152 -27.666667,-12.30303 -28.363636,-12.166667 -28.924242,-12.060606 -30.909091,-11.69697 -31.090909,-11.666667 -31.424242,-11.606061 -31.69697,-11.560606 -31.863636,-11.530303 -33.227273,-11.30303 -33.333333,-11.287879 -33.606061,-11.242424 -33.712121,-11.227273 -33.984848,-11.181818 -35.363636,-10.969697 -37.257576,-10.69697 -37.924242,-10.606061 -38.166667,-10.575758 -38.378788,-10.545455 -39.575758,-10.393939 -39.681818,-10.378788 -40.560606,-10.272727 -42.30303,-10.075758 -43.454545,-9.954545 -45.363636,-9.772727 -45.727273,-9.742424 -46.227273,-9.69697 -46.590909,-9.666667 -46.621212,-9.666667 -47.348485,-9.606061 -48.151515,-9.545455 -48.181818,-9.545455 -48.363636,-9.530303 -49.939394,-9.424242 -49.969697,-9.424242 -50.439394,-9.393939 -50.454545,-9.393939 -51.515152,-9.333333 -51.545455,-9.333333 -52.393939,-9.287879 -52.424242,-9.287879 -52.712121,-9.272727 -52.757576,-9.272727 -53.045455,-9.257576 -53.090909,-9.257576 -53.409091,-9.242424 -53.454545,-9.242424 -53.787879,-9.227273 -53.818182,-9.227273 -54.151515,-9.212121 -54.181818,-9.212121 -54.560606,-9.19697 -54.590909,-9.19697 -55,-9.181818 -55.075758,-9.181818 -55.515152,-9.166667 -55.545455,-9.166667 -56.030303,-9.151515 -56.106061,-9.151515 -56.621212,-9.136364 -56.727273,-9.136364 -57.318182,-9.121212 -57.469697,-9.121212 -58.242424,-9.106061 -58.424242,-9.106061 -59.939394,-9.090909 -60.606061,-9.090909 -61.5,-9.030303 -62.939394,-9.060606 -65.227273,-9.757576 -67.212121,-10.409091 -71.484848,-10.666667 -75.060606,-10.712121 -77.590909,-10 -79.121212,-8.651515 -81.69697,-6.227273 -83.651515,-5.212121 -86.393939,-4.378788 -88.136364,-3.893939 -89.924242,-3.69697 -90.909091,-3.787879 -113.636364,-3.787879 -143.939394,-3.409091 -143.939394,3.409091 -113.636364,3.787879 -90.909091,3.787879 -89.666667,3.712121 -88.469697,3.787879 -86.924242,4.166667 -84.045455,5.075758 -81.757576,6.045455 -78.893939,8.893939 -77.545455,10.060606 -75.909091,10.575758 -68.136364,10.727273 -63.166667,9.121212 -60.606061,9.090909 -59.939394,9.090909 -58.424242,9.106061 -58.242424,9.106061 -57.469697,9.121212 -57.318182,9.121212 -56.727273,9.136364 -56.621212,9.136364 -56.106061,9.151515 -56.030303,9.151515 -55.545455,9.166667 -55.515152,9.166667 -55.075758,9.181818 -55,9.181818 -54.590909,9.19697 -54.560606,9.19697 -54.181818,9.212121 -54.151515,9.212121 -53.818182,9.227273 -53.787879,9.227273 -53.454545,9.242424 -53.409091,9.242424 -53.090909,9.257576 -53.045455,9.257576 -52.757576,9.272727 -52.712121,9.272727 -52.424242,9.287879 -52.393939,9.287879 -51.545455,9.333333 -51.515152,9.333333 -50.454545,9.393939 -50.439394,9.393939 -49.969697,9.424242 -49.939394,9.424242 -48.363636,9.530303 -48.181818,9.545455 -48.151515,9.545455 -47.348485,9.606061 -46.621212,9.666667 -46.590909,9.666667 -46.227273,9.69697 -45.727273,9.742424 -45.363636,9.772727 -43.454545,9.954545 -42.30303,10.075758 -40.560606,10.272727 -39.681818,10.378788 -39.575758,10.393939 -38.378788,10.545455 -38.166667,10.575758 -37.924242,10.606061 -37.257576,10.69697 -35.363636,10.969697 -33.984848,11.181818 -33.712121,11.227273 -33.606061,11.242424 -33.333333,11.287879 -33.227273,11.30303 -31.863636,11.530303 -31.69697,11.560606 -31.424242,11.606061 -31.090909,11.666667 -30.909091,11.69697 -28.924242,12.060606 -28.363636,12.166667 -27.666667,12.30303 -26.606061,12.515152 -26.015152,12.636364 -25.878788,12.666667 -25.651515,12.712121 -25.590909,12.727273 -23.893939,13.090909 -23.833333,13.106061 -23.348485,13.212121 -23.287879,13.227273 -23.212121,13.242424 -22.090909,13.5 -19.681818,14.075758 -18.651515,14.333333 -18.060606,14.484848 -17.015152,14.757576 -15.666667,15.121212 -14.787879,15.363636 -13.348485,15.772727 -12.666667,15.969697 -12.469697,16.030303 -11.545455,16.30303 -10.30303,16.681818 -10.212121,16.712121 -9.863636,16.818182 -8.712121,17.181818 -7.772727,17.484848 -5.590909,18.212121 -5.287879,18.318182 -5.060606,18.393939 -4.848485,18.469697 -4.318182,18.651515 -2.742424,19.212121 -1.621212,19.621212 -0.484848,20.045455 -0.409091,20.075758 -0.242424,20.136364 0.590909,20.454545 0.742424,20.515152 0.833333,20.545455 34.318182,33.484848 34.348485,33.5 34.863636,33.69697 35.015152,33.757576 36.545455,34.333333 37.742424,34.772727 38.712121,35.121212 40.439394,35.727273 40.621212,35.787879 40.924242,35.893939 41.242424,36 41.863636,36.212121 43.378788,36.712121 44.272727,37 45.712121,37.454545 47,37.848485 48.484848,38.287879 48.530303,38.30303 48.742424,38.363636 48.787879,38.378788 49.424242,38.560606 49.575758,38.606061 50.227273,38.787879 50.378788,38.833333 52.030303,39.287879 52.151515,39.318182 52.424242,39.393939 52.545455,39.424242 52.651515,39.454545 52.772727,39.484848 53.166667,39.590909 54.393939,39.909091 56.272727,40.378788 56.590909,40.454545 56.833333,40.515152 57.287879,40.621212 57.727273,40.727273 58.712121,40.954545 59.712121,41.181818 59.924242,41.227273 60.257576,41.30303 61.590909,41.590909 62.833333,41.848485 64.5,42.181818 64.590909,42.19697 64.969697,42.272727 65.060606,42.287879 66.015152,42.469697 66.106061,42.484848 66.590909,42.575758 67.954545,42.818182 68.227273,42.863636 68.30303,42.878788 68.939394,42.984848 69.106061,43.015152 70.5,43.242424 72.075758,43.484848 72.893939,43.606061 73.636364,43.712121 73.863636,43.742424 73.954545,43.757576 75.651515,43.984848 75.666667,43.984848 76.121212,44.045455 76.257576,44.060606 76.363636,44.075758 76.5,44.090909 76.727273,44.121212 77.484848,44.212121 77.757576,44.242424 78,44.272727 79.212121,44.409091 80.212121,44.515152 81.909091,44.681818 81.924242,44.681818 82.257576,44.712121 82.393939,44.727273 82.590909,44.742424 83.439394,44.818182 83.454545,44.818182 84.166667,44.878788 84.742424,44.924242 84.757576,44.924242 85.136364,44.954545 85.560606,44.984848 85.575758,44.984848 85.757576,45 86,45.015152 86.19697,45.030303 86.439394,45.045455 86.636364,45.060606 87.106061,45.090909 87.121212,45.090909 87.348485,45.106061 87.363636,45.106061 88.090909,45.151515 88.909091,45.19697 88.924242,45.19697 89.19697,45.212121 89.212121,45.212121 89.787879,45.242424 89.80303,45.242424 90.090909,45.257576 90.136364,45.257576 90.424242,45.272727 90.439394,45.272727 91.121212,45.30303 91.166667,45.30303 91.5,45.318182 91.515152,45.318182 91.893939,45.333333 91.939394,45.333333 92.333333,45.348485 92.348485,45.348485 92.772727,45.363636 92.833333,45.363636 93.272727,45.378788 93.318182,45.378788 93.80303,45.393939 93.863636,45.393939 94.439394,45.409091 94.5,45.409091 95.136364,45.424242 95.242424,45.424242 96.075758,45.439394 96.272727,45.439394 97.848485,45.454545 98.484848,45.454545 128.787879,45.075758 128.787879,38.257576 98.484848,37.878788 97.818182,37.878788 96.30303,37.863636 96.121212,37.863636 95.348485,37.848485 95.19697,37.848485 94.606061,37.833333 94.5,37.833333 93.984848,37.818182 93.909091,37.818182 93.424242,37.80303 93.393939,37.80303 92.954545,37.787879 92.878788,37.787879 92.469697,37.772727 92.439394,37.772727 92.060606,37.757576 92.030303,37.757576 91.69697,37.742424 91.666667,37.742424 91.333333,37.727273 91.287879,37.727273 90.969697,37.712121 90.924242,37.712121 90.636364,37.69697 90.590909,37.69697 90.30303,37.681818 90.272727,37.681818 89.424242,37.636364 89.393939,37.636364 88.833333,37.606061 88.333333,37.575758 88.318182,37.575758 87.848485,37.545455 87.818182,37.545455 86.242424,37.439394 86.060606,37.424242 86.030303,37.424242 85.227273,37.363636 84.5,37.30303 84.469697,37.30303 84.106061,37.272727 83.954545,37.257576 82.909091,37.166667 81.333333,37.015152 80.181818,36.893939 78.69697,36.727273 77.560606,36.590909 77.454545,36.575758 76.257576,36.424242 76.045455,36.393939 75.80303,36.363636 75.136364,36.272727 74.287879,36.151515 72.939394,35.954545 71.863636,35.787879 71.590909,35.742424 71.484848,35.727273 71.212121,35.681818 71.106061,35.666667 69.742424,35.439394 69.575758,35.409091 69.30303,35.363636 68.969697,35.30303 68.787879,35.272727 66.878788,34.924242 66.242424,34.80303 65.545455,34.666667 64.484848,34.454545 63.893939,34.333333 63.757576,34.30303 63.530303,34.257576 63.469697,34.242424 63.106061,34.166667 61.909091,33.909091 61.712121,33.863636 61.227273,33.757576 61.166667,33.742424 61.090909,33.727273 60.030303,33.484848 57.560606,32.893939 56.530303,32.636364 54.893939,32.212121 53.212121,31.757576 52.075758,31.439394 50.545455,31 50.348485,30.939394 49.727273,30.757576 48.181818,30.287879 48.090909,30.257576 47.939394,30.212121 46.590909,29.787879 45.651515,29.484848 43.469697,28.757576 43.166667,28.651515 42.939394,28.575758 42.727273,28.5 42.19697,28.318182 41,27.893939 40.121212,27.575758 38.363636,26.924242 38.287879,26.893939 38.121212,26.833333 37.287879,26.515152 37.136364,26.454545 37.045455,26.424242 3.560606,13.484848 3.530303,13.469697 3.015152,13.272727 2.863636,13.212121 1.333333,12.636364 0.469697,12.318182 -0.833333,11.848485 -1.30303,11.681818 -2.560606,11.242424 -2.742424,11.181818 -3.045455,11.075758 -3.363636,10.969697 -3.984848,10.757576 -5.5,10.257576 -6.393939,9.969697 -7.833333,9.515152 -9.272727,9.075758 -10.651515,8.666667 -10.863636,8.606061 -10.909091,8.590909 -11.545455,8.409091 -11.69697,8.363636 -12.348485,8.181818 -12.5,8.136364 -14.151515,7.681818 -14.272727,7.651515 -14.545455,7.575758 -14.666667,7.545455 -14.772727,7.515152 -14.893939,7.484848 -15.287879,7.378788 -16.515152,7.060606 -18.393939,6.590909 -18.712121,6.515152 -18.954545,6.454545 -19.848485,6.242424 -20.181818,6.166667 -20.30303,6.136364 -21.833333,5.787879 -22.045455,5.742424 -22.242424,5.69697 -23.712121,5.378788 -24.954545,5.121212 -26.621212,4.787879 -26.712121,4.772727 -27.090909,4.69697 -27.181818,4.681818 -28.712121,4.393939 -29.818182,4.19697 -30.348485,4.106061 -30.424242,4.090909 -31.060606,3.984848 -31.227273,3.954545 -32.621212,3.727273 -33.787879,3.545455 -35.015152,3.363636 -35.757576,3.257576 -35.984848,3.227273 -36.075758,3.212121 -37.772727,2.984848 -37.787879,2.984848 -38.242424,2.924242 -38.378788,2.909091 -38.484848,2.893939 -38.621212,2.878788 -38.848485,2.848485 -39.606061,2.757576 -39.878788,2.727273 -40.121212,2.69697 -41.060606,2.590909 -42.333333,2.454545 -44.030303,2.287879 -44.045455,2.287879 -44.378788,2.257576 -44.515152,2.242424 -44.712121,2.227273 -45.560606,2.151515 -45.575758,2.151515 -46.106061,2.106061 -46.863636,2.045455 -46.878788,2.045455 -47.681818,1.984848 -47.69697,1.984848 -47.878788,1.969697 -48.121212,1.954545 -48.318182,1.939394 -48.560606,1.924242 -48.757576,1.909091 -49.227273,1.878788 -49.242424,1.878788 -49.469697,1.863636 -49.484848,1.863636 -50.212121,1.818182 -51.030303,1.772727 -51.045455,1.772727 -51.318182,1.757576 -51.333333,1.757576 -51.909091,1.727273 -51.924242,1.727273 -52.212121,1.712121 -52.257576,1.712121 -52.545455,1.69697 -52.560606,1.69697 -53.242424,1.666667 -53.287879,1.666667 -53.621212,1.651515 -53.636364,1.651515 -54.015152,1.636364 -54.060606,1.636364 -54.454545,1.621212 -54.469697,1.621212 -54.893939,1.606061 -54.954545,1.606061 -55.393939,1.590909 -55.439394,1.590909 -55.924242,1.575758 -55.984848,1.575758 -56.560606,1.560606 -56.621212,1.560606 -57.257576,1.545455 -57.363636,1.545455 -58.19697,1.530303 -58.393939,1.530303 -59.969697,1.515152 -60.606061,1.515152 -60.606061,-1.515152 -59.969697,-1.515152 -58.393939,-1.530303 -58.19697,-1.530303 -57.363636,-1.545455 -57.257576,-1.545455 -56.621212,-1.560606 -56.560606,-1.560606 -55.984848,-1.575758 -55.924242,-1.575758 -55.439394,-1.590909 -55.393939,-1.590909 -54.954545,-1.606061 -54.893939,-1.606061 -54.469697,-1.621212 -54.454545,-1.621212 -54.060606,-1.636364 -54.015152,-1.636364 -53.636364,-1.651515 -53.621212,-1.651515 -53.287879,-1.666667 -53.242424,-1.666667 -52.560606,-1.69697 -52.545455,-1.69697 -52.257576,-1.712121 -52.212121,-1.712121 -51.924242,-1.727273 -51.909091,-1.727273 -51.333333,-1.757576 -51.318182,-1.757576 -51.045455,-1.772727 -51.030303,-1.772727 -50.212121,-1.818182 -49.484848,-1.863636 -49.469697,-1.863636 -49.242424,-1.878788 -49.227273,-1.878788 -48.757576,-1.909091 -48.560606,-1.924242 -48.318182,-1.939394 -48.121212,-1.954545 -47.878788,-1.969697 -47.69697,-1.984848 -47.681818,-1.984848 -46.878788,-2.045455 -46.863636,-2.045455 -46.106061,-2.106061 -45.575758,-2.151515 -45.560606,-2.151515 -44.712121,-2.227273 -44.515152,-2.242424 -44.378788,-2.257576 -44.045455,-2.287879 -44.030303,-2.287879 -42.333333,-2.454545 -41.060606,-2.590909 -40.121212,-2.69697 -39.878788,-2.727273 -39.606061,-2.757576 -38.848485,-2.848485 -38.621212,-2.878788 -38.484848,-2.893939 -38.378788,-2.909091 -38.242424,-2.924242 -37.787879,-2.984848 -37.772727,-2.984848 -36.075758,-3.212121 -35.984848,-3.227273 -35.757576,-3.257576 -35.015152,-3.363636 -33.787879,-3.545455 -32.621212,-3.727273 -31.227273,-3.954545 -31.060606,-3.984848 -30.424242,-4.090909 -30.348485,-4.106061 -29.818182,-4.19697 -28.712121,-4.393939 -27.181818,-4.681818 -27.090909,-4.69697 -26.712121,-4.772727 -26.621212,-4.787879 -24.954545,-5.121212 -23.712121,-5.378788 -22.242424,-5.69697 -22.045455,-5.742424 -21.833333,-5.787879 -20.30303,-6.136364 -20.181818,-6.166667 -19.848485,-6.242424 -18.954545,-6.454545 -18.712121,-6.515152 -18.393939,-6.590909 -16.515152,-7.060606 -15.287879,-7.378788 -14.893939,-7.484848 -14.772727,-7.515152 -14.666667,-7.545455 -14.545455,-7.575758 -14.272727,-7.651515 -14.151515,-7.681818 -12.5,-8.136364 -12.348485,-8.181818 -11.69697,-8.363636 -11.545455,-8.409091 -10.909091,-8.590909 -10.863636,-8.606061 -10.651515,-8.666667 -9.272727,-9.075758 -7.833333,-9.515152 -6.393939,-9.969697 -5.5,-10.257576 -3.984848,-10.757576 -3.363636,-10.969697 -3.045455,-11.075758 -2.742424,-11.181818 -2.560606,-11.242424 -1.30303,-11.681818 -0.833333,-11.848485 0.469697,-12.318182 1.333333,-12.636364 2.863636,-13.212121 3.015152,-13.272727 3.530303,-13.469697 3.560606,-13.484848 37.045455,-26.424242 37.136364,-26.454545 37.287879,-26.515152 38.121212,-26.833333 38.287879,-26.893939 38.363636,-26.924242 40.121212,-27.575758 41,-27.893939 42.19697,-28.318182 42.727273,-28.5 42.939394,-28.575758 43.166667,-28.651515 43.469697,-28.757576 45.651515,-29.484848 46.590909,-29.787879 47.939394,-30.212121 48.090909,-30.257576 48.181818,-30.287879 49.727273,-30.757576 50.348485,-30.939394 50.545455,-31 52.075758,-31.439394 53.212121,-31.757576 54.893939,-32.212121 56.530303,-32.636364 57.560606,-32.893939 60.030303,-33.484848 61.090909,-33.727273 61.166667,-33.742424 61.227273,-33.757576 61.712121,-33.863636 61.909091,-33.909091 63.106061,-34.166667 63.469697,-34.242424 63.530303,-34.257576 63.757576,-34.30303 63.893939,-34.333333 64.484848,-34.454545 65.545455,-34.666667 66.242424,-34.80303 66.878788,-34.924242 68.787879,-35.272727 68.969697,-35.30303 69.30303,-35.363636 69.575758,-35.409091 69.742424,-35.439394 71.106061,-35.666667 71.212121,-35.681818 71.484848,-35.727273 71.590909,-35.742424 71.863636,-35.787879 72.939394,-35.954545 74.287879,-36.151515 75.136364,-36.272727 75.80303,-36.363636 76.045455,-36.393939 76.257576,-36.424242 77.454545,-36.575758 77.560606,-36.590909 78.69697,-36.727273 80.181818,-36.893939 81.333333,-37.015152 82.909091,-37.166667 83.954545,-37.257576 84.106061,-37.272727 84.469697,-37.30303 84.5,-37.30303 85.227273,-37.363636 86.030303,-37.424242 86.060606,-37.424242 86.242424,-37.439394 87.818182,-37.545455 87.848485,-37.545455 88.318182,-37.575758 88.333333,-37.575758 88.833333,-37.606061 89.393939,-37.636364 89.424242,-37.636364 90.272727,-37.681818 90.30303,-37.681818 90.590909,-37.69697 90.636364,-37.69697 90.924242,-37.712121 90.969697,-37.712121 91.287879,-37.727273 91.333333,-37.727273 91.666667,-37.742424 91.69697,-37.742424 92.030303,-37.757576 92.060606,-37.757576 92.439394,-37.772727 92.469697,-37.772727 92.878788,-37.787879 92.954545,-37.787879 93.393939,-37.80303 93.424242,-37.80303 93.909091,-37.818182 93.984848,-37.818182 94.5,-37.833333 94.606061,-37.833333 95.19697,-37.848485 95.348485,-37.848485 96.121212,-37.863636 96.30303,-37.863636 97.818182,-37.878788 98.484848,-37.878788 128.787879,-38.257576 128.787879,-45.075758 98.484848,-45.454545"/>
<use transform="translate(-113.636364 0)" xlink:href="#YBranch_YBranch_Compact$1"/>
</g>
</svg>